<?xml version="1.0" encoding="UTF-8"?>
<svg width="184px" height="100px" viewBox="0 0 184 100" version="1.1" xmlns="http://www.w3.org/2000/svg" xmlns:xlink="http://www.w3.org/1999/xlink">
    <title>暂无权限</title>
    <defs>
        <linearGradient x1="50%" y1="0%" x2="50%" y2="111.21273%" id="linearGradient-1">
            <stop stop-color="#F6F6F8" offset="0%"></stop>
            <stop stop-color="#F6F6F8" stop-opacity="0" offset="100%"></stop>
        </linearGradient>
    </defs>
    <g id="页面-1" stroke="none" stroke-width="1" fill="none" fill-rule="evenodd">
        <g id="空状态" transform="translate(-319.000000, -3468.000000)">
            <g id="Group-32备份-2" transform="translate(116.000000, 3368.000000)">
                <g id="暂无权限" transform="translate(203.000000, 100.000000)">
                    <rect id="矩形备份-18" fill="#FFC2C2" opacity="0" x="0" y="0" width="184" height="100"></rect>
                    <path d="M184,99.6551724 C184,74.6880929 142.810197,54.4482759 92,54.4482759 C41.189803,54.4482759 0,74.6880929 0,99.6551724 C36.1875,100 184,100 184,99.6551724 Z" id="椭圆形备份" fill="url(#linearGradient-1)"></path>
                    <path d="M65.8681641,70 L65.8681641,61.5405273 L71.5883789,61.5405273 C72.4161784,60.9741211 72.8300781,60.109375 72.8300781,58.9462891 C72.8300781,57.7832031 72.4161784,56.9202474 71.5883789,56.3574219 L65.8681641,56.3574219 L65.8681641,31.4892578 C65.4049479,30.2145182 64.3750814,29.5771484 62.7785645,29.5771484 C61.1820475,29.5771484 60.1171875,30.2145182 59.5839844,31.4892578 C58.6888021,33.4765625 57.5877279,35.5533854 56.2807617,37.7197266 C54.9737956,39.8860677 53.5549316,42.0479329 52.0241699,44.2053223 C50.4934082,46.3627116 48.8999837,48.4753418 47.2438965,50.5432129 C45.5878092,52.611084 43.9720052,54.53125 42.3964844,56.3037109 L42.3964844,61.5405273 L59.8256836,61.5405273 L59.8256836,70 L65.8681641,70 Z M59.8256836,56.3574219 L48.6806641,56.3574219 C50.3457031,54.3164062 52.1315918,51.9889323 54.0383301,49.375 C55.9450684,46.7610677 57.8741862,43.6995443 59.8256836,40.1904297 L59.8256836,56.3574219 Z" id="404" fill="#DCE0E8"></path>
                    <path d="M125.017822,29.6000977 C126.425049,29.6000977 127.44987,30.2298177 128.092285,31.4892578 L128.092285,31.4892578 L128.092285,56.3574219 L133.8125,56.3574219 C134.841146,56.7133789 135.355469,57.537028 135.355469,58.8283691 C135.355469,60.1197103 134.841146,61.023763 133.8125,61.5405273 L133.8125,61.5405273 L128.092285,61.5405273 L128.092285,70 L122.049805,70 L122.049805,61.5405273 L104.620605,61.5405273 L104.620605,56.3037109 C106.196126,54.53125 107.81193,52.611084 109.468018,50.5432129 C111.124105,48.4753418 112.717529,46.3627116 114.248291,44.2053223 C115.779053,42.0479329 117.197917,39.8860677 118.504883,37.7197266 C119.811849,35.5533854 120.912923,33.4765625 121.808105,31.4892578 C122.54069,30.2298177 123.610596,29.6000977 125.017822,29.6000977 Z M122.049805,40.1904297 L121.631969,40.9355319 C119.822833,44.1346211 118.032994,46.9477772 116.262451,49.375 C114.355713,51.9889323 112.569824,54.3164063 110.904785,56.3574219 L110.904785,56.3574219 L122.049805,56.3574219 L122.049805,40.1904297 Z" id="形状结合" fill="#DCE0E8"></path>
                    <path d="M88.4536133,30.8447266 C96.9220378,30.8447266 101.15625,37.4243164 101.15625,50.5834961 C101.15625,57.1004232 99.9611816,62.0731608 97.5710449,65.501709 C95.1809082,68.9302572 91.8374023,70.6445312 87.5405273,70.6445312 C83.5301107,70.6445312 80.4014486,69.0063477 78.154541,65.7299805 C75.9076335,62.4536133 74.7841797,57.718099 74.7841797,51.5234375 C74.7841797,44.7200521 75.9568685,39.5727539 78.3022461,36.081543 C80.6476237,32.590332 84.0314128,30.8447266 88.4536133,30.8447266 Z M88.1582031,35.8129883 C83.4853516,35.8129883 81.1489258,40.9602865 81.1489258,51.2548828 C81.1489258,60.8870443 83.4405924,65.703125 88.0239258,65.703125 C92.5356445,65.703125 94.7915039,60.8064779 94.7915039,51.0131836 C94.7915039,40.8797201 92.5804036,35.8129883 88.1582031,35.8129883 Z" id="形状结合" fill="#AEB8C3"></path>
                    <g id="树" opacity="0.8" transform="translate(14.804598, 52.862069)">
                        <g id="树1">
                            <path d="M8.1954023,18.137931 C8.7225832,18.137931 9.15448486,18.9588638 9.19265943,20.0001355 L9.1954023,20.1503226 L9.1954023,30.1255395 C9.1954023,31.2369526 8.74768705,32.137931 8.1954023,32.137931 C7.6682214,32.137931 7.23631974,31.3169982 7.19814517,30.2757266 L7.1954023,30.1255395 L7.1954023,20.1503226 C7.1954023,19.0389094 7.64311755,18.137931 8.1954023,18.137931 Z" id="直线" fill="#AEB8C3"></path>
                            <path d="M7.92811792,0 C1.91601024,6.31180059 -0.676738729,11.1120204 0.149871011,14.4006593 C1.38978562,19.3336177 6.32419489,20.0920259 7.54382002,20.0920259 C8.76344509,20.0920259 15.862069,20.1856048 15.862069,13.6105887 C15.862069,9.22724464 13.2174186,4.69038173 7.92811792,0 Z" id="路径-15" fill="#DEDEE7"></path>
                        </g>
                        <g id="树2" transform="translate(134.827586, 3.701149)">
                            <path d="M5.36781609,12.4367816 C5.8876135,12.4367816 6.31478188,13.0352813 6.36323837,13.8005512 L6.36781609,13.9458883 L6.36781609,20.9276749 C6.36781609,21.7611315 5.92010084,22.4367816 5.36781609,22.4367816 C4.84801868,22.4367816 4.42085031,21.8382819 4.37239381,21.073012 L4.36781609,20.9276749 L4.36781609,13.9458883 C4.36781609,13.1124317 4.81553134,12.4367816 5.36781609,12.4367816 Z" id="直线" fill="#AEB8C3"></path>
                            <path d="M5.54968253,0 C1.34120717,4.48470043 -0.473717111,7.8953829 0.104909708,10.2320474 C0.972849934,13.7370442 4.42693643,14.2759131 5.280674,14.2759131 C6.13441158,14.2759131 11.1034483,14.3424034 11.1034483,9.67068146 C11.1034483,6.55620012 9.25219303,3.33263965 5.54968253,0 Z" id="路径-15" fill="#DEDEE7"></path>
                        </g>
                        <g id="树3" transform="translate(153.333333, 16.919540)">
                            <path d="M3.86206897,9.2183908 C4.38186638,9.2183908 4.80903475,9.78142613 4.85749125,10.5013496 L4.86206897,10.6380746 L4.86206897,15.798707 C4.86206897,16.5827767 4.41435372,17.2183908 3.86206897,17.2183908 C3.34227155,17.2183908 2.91510318,16.6553555 2.86664668,15.935432 L2.86206897,15.798707 L2.86206897,10.6380746 C2.86206897,9.85400491 3.30978422,9.2183908 3.86206897,9.2183908 Z" id="直线" fill="#AEB8C3"></path>
                            <path d="M4.22832955,0 C1.02187213,3.32200032 -0.360927322,5.8484318 0.0799312063,7.57929437 C0.741218996,10.1755883 3.37290395,10.5747505 4.02337066,10.5747505 C4.67383739,10.5747505 8.45977011,10.6240025 8.45977011,7.16346775 C8.45977011,4.85644454 7.04928993,2.46862196 4.22832955,0 Z" id="路径-15" fill="#DEDEE7"></path>
                        </g>
                    </g>
                </g>
            </g>
            <g id="标注" transform="translate(131.000000, 513.000000)"></g>
        </g>
    </g>
</svg>