<?xml version="1.0" encoding="UTF-8"?>
<svg width="392px" height="248px" viewBox="0 0 392 248" version="1.1" xmlns="http://www.w3.org/2000/svg" xmlns:xlink="http://www.w3.org/1999/xlink">
    <title>编组 32</title>
    <defs>
        <path d="M2,0 L382,0 C383.104569,-2.02906125e-16 384,0.8954305 384,2 L384,238 C384,239.104569 383.104569,240 382,240 L2,240 C0.8954305,240 1.3527075e-16,239.104569 0,238 L0,2 C-1.3527075e-16,0.8954305 0.8954305,2.02906125e-16 2,0 Z" id="path-1"></path>
        <filter x="-1.8%" y="-2.1%" width="103.6%" height="105.8%" filterUnits="objectBoundingBox" id="filter-2">
            <feOffset dx="0" dy="2" in="SourceAlpha" result="shadowOffsetOuter1"></feOffset>
            <feGaussianBlur stdDeviation="2" in="shadowOffsetOuter1" result="shadowBlurOuter1"></feGaussianBlur>
            <feColorMatrix values="0 0 0 0 0.12334826   0 0 0 0 0.156873573   0 0 0 0 0.212749094  0 0 0 0.0649311626 0" type="matrix" in="shadowBlurOuter1"></feColorMatrix>
        </filter>
        <rect id="path-3" x="0" y="0" width="274" height="104"></rect>
        <rect id="path-5" x="0.193861509" y="0.517042793" width="67" height="92"></rect>
    </defs>
    <g id="页面-1" stroke="none" stroke-width="1" fill="none" fill-rule="evenodd">
        <g id="编组-32" transform="translate(4.000000, 2.000000)">
            <g id="背景板">
                <use fill="black" fill-opacity="1" filter="url(#filter-2)" xlink:href="#path-1"></use>
                <use fill="#FFFFFF" fill-rule="evenodd" xlink:href="#path-1"></use>
            </g>
            <rect id="实际区域" fill="#FF5656" opacity="0" x="16" y="44" width="352" height="180"></rect>
            <g id="编组-2" transform="translate(31.000000, 85.000000)" fill="#F4FCFF">
                <rect id="矩形" x="0" y="0" width="20" height="118"></rect>
                <rect id="矩形备份-24" x="38" y="0" width="20" height="118"></rect>
                <rect id="矩形备份-25" x="76" y="0" width="20" height="118"></rect>
                <rect id="矩形备份-26" x="113" y="0" width="20" height="118"></rect>
                <rect id="矩形备份-27" x="149" y="0" width="20" height="118"></rect>
                <rect id="矩形备份-28" x="186" y="0" width="20" height="118"></rect>
                <rect id="矩形备份-29" x="223" y="0" width="20" height="118"></rect>
                <rect id="矩形备份-30" x="260" y="0" width="20" height="118"></rect>
                <rect id="矩形备份-31" x="297" y="0" width="20" height="118"></rect>
            </g>
            <text id="time" font-family="PingFangSC-Regular, PingFang SC" font-size="10" font-weight="normal" fill="#000000" fill-opacity="0.45">
                <tspan x="343" y="217">time</tspan>
            </text>
            <text id="figure" font-family="PingFangSC-Regular, PingFang SC" font-size="10" font-weight="normal" fill="#000000" fill-opacity="0.45">
                <tspan x="16" y="74">figure</tspan>
            </text>
            <g id="刻度" transform="translate(16.000000, 84.500000)">
                <line x1="2.5" y1="0" x2="2.5" y2="118" id="直线" stroke="#E9E9E9" stroke-linecap="square"></line>
                <line x1="2.5" y1="118" x2="351" y2="118" id="直线-2" stroke="#E9E9E9" stroke-linecap="square"></line>
                <rect id="矩形" fill="#E9E9E9" x="8" y="117.5" width="1" height="3"></rect>
                <rect id="矩形备份-6" fill="#E9E9E9" x="25" y="117.5" width="1" height="3"></rect>
                <rect id="矩形备份-7" fill="#E9E9E9" x="43" y="117.5" width="1" height="3"></rect>
                <rect id="矩形备份-8" fill="#E9E9E9" x="63" y="117.5" width="1" height="3"></rect>
                <rect id="矩形备份-9" fill="#E9E9E9" x="82" y="117.5" width="1" height="3"></rect>
                <rect id="矩形备份-10" fill="#E9E9E9" x="101" y="117.5" width="1" height="3"></rect>
                <rect id="矩形备份-11" fill="#E9E9E9" x="119" y="117.5" width="1" height="3"></rect>
                <rect id="矩形备份-12" fill="#E9E9E9" x="138" y="117.5" width="1" height="3"></rect>
                <rect id="矩形备份-13" fill="#E9E9E9" x="156" y="117.5" width="1" height="3"></rect>
                <rect id="矩形备份-14" fill="#E9E9E9" x="174" y="117.5" width="1" height="3"></rect>
                <rect id="矩形备份-15" fill="#E9E9E9" x="192" y="117.5" width="1" height="3"></rect>
                <rect id="矩形备份-16" fill="#E9E9E9" x="211" y="117.5" width="1" height="3"></rect>
                <rect id="矩形备份-17" fill="#E9E9E9" x="229" y="117.5" width="1" height="3"></rect>
                <rect id="矩形备份-18" fill="#E9E9E9" x="248" y="117.5" width="1" height="3"></rect>
                <rect id="矩形备份-19" fill="#E9E9E9" x="266" y="117.5" width="1" height="3"></rect>
                <rect id="矩形备份-20" fill="#E9E9E9" x="285" y="117.5" width="1" height="3"></rect>
                <rect id="矩形备份-21" fill="#E9E9E9" x="304" y="117.5" width="1" height="3"></rect>
                <rect id="矩形备份-22" fill="#E9E9E9" x="322" y="117.5" width="1" height="3"></rect>
                <rect id="矩形备份-23" fill="#E9E9E9" x="343" y="117.5" width="1" height="3"></rect>
                <rect id="矩形" fill="#E9E9E9" x="0" y="102.5" width="3" height="1"></rect>
                <rect id="矩形备份" fill="#E9E9E9" x="0" y="79.5" width="3" height="1"></rect>
                <rect id="矩形备份-3" fill="#E9E9E9" x="0" y="56.5" width="3" height="1"></rect>
                <rect id="矩形备份-4" fill="#E9E9E9" x="0" y="33.5" width="3" height="1"></rect>
                <rect id="矩形备份-5" fill="#E9E9E9" x="0" y="10.5" width="3" height="1"></rect>
            </g>
            <g id="标题" transform="translate(16.000000, 14.000000)" fill="#000000" font-family="PingFangSC-Medium, PingFang SC" font-size="14" font-weight="400">
                <text id="自回归滑动平均预测周周期">
                    <tspan x="0" y="15">自回归滑动平均预测周周期</tspan>
                </text>
            </g>
            <g id="编组-30" transform="translate(21.806138, 95.482957)">
                <mask id="mask-4" fill="white">
                    <use xlink:href="#path-3"></use>
                </mask>
                <g id="蒙版"></g>
                <g mask="url(#mask-4)">
                    <g transform="translate(0.000000, 1.000000)">
                        <path d="M3.19386151,74.724162 C10.2495992,42.4218683 8.1451655,-17.844778 18.1873041,5.07729252 C28.2294428,27.999363 27.4943613,76.6717083 34.9446812,74.724162 C42.3950011,72.7766157 37.190668,11.6213583 43.0416936,1.6528603 C48.8927193,-8.31563765 53.8968716,66.8891473 60.5217304,71.6190977 C67.1465892,76.3490482 69.1467691,42.0923808 73.758554,36.4140548 C78.370339,30.7357289 75.879909,71.6190977 81.51255,71.6190977 C87.1451911,71.6190977 88.9285352,37.4987293 94.0401819,36.4140548 C99.1518285,35.3293804 97.5249716,70.9163078 102.50337,71.6190977 C107.481768,72.3218877 110.49014,37.3175838 114.32181,36.4140548 C118.153479,35.5105259 118.945115,72.3731572 123.494189,71.6190977 C128.043263,70.8650383 129.005836,36.4140548 134.603437,36.4140548 C140.201039,36.4140548 139.352457,71.6190977 144.485009,71.6190977 C149.617561,71.6190977 150.133846,36.4140548 154.885065,36.4140548 C159.636284,36.4140548 162.113204,89.7381955 164.331237,71.6190977 C166.54927,53.5 168.170221,1.6528603 174.295501,1.6528603 C180.420781,1.6528603 184.599218,71.6190977 191.061458,71.6190977 C197.523699,71.6190977 195.193862,1.6528603 206.928288,1.6528603 C218.662714,1.6528603 217.026697,61.437322 220.397153,69.8801069 C223.767608,78.3228919 225.678595,37.2962447 230.741402,36.5170428 C235.80421,35.7378409 242.364891,71.6190977 247.49878,71.6190977 C252.632668,71.6190977 253.368018,36.4140548 258.955921,36.4140548 C264.543825,36.4140548 266.886997,59.917163 271.737817,63.9940638 C276.588636,68.0709646 276.044681,64.1997082 279.193862,61.094644 C282.343042,57.9895797 285.384599,27.1667407 291.987555,27.4135482 C298.590511,27.6603557 296.193862,61.094644 306.193862,61.094644 C316.193862,61.094644 314.913345,27.6529065 321.193862,27.4135482 C327.474378,27.17419 327.693862,60.1228074 338.193862,61.094644 C345.193862,61.742535 346.527195,72.607642 342.193862,93.6899649 C338.860528,97.8133394 335.360528,98.5043524 331.693862,95.763004 C326.193862,91.6509813 326.494265,80.9588066 321.193862,80.9588066 C315.893458,80.9588066 315.683709,95.763004 310.499875,95.763004 C307.043985,95.763004 303.275314,93.6683085 299.193862,89.4789175 C296.25212,83.7988435 293.850018,80.9588066 291.987555,80.9588066 C290.125093,80.9588066 287.299753,83.7988435 283.511536,89.4789175 C281.336225,92.2862824 278.724265,93.6899649 275.675657,93.6899649 C272.627049,93.6899649 269.306086,90.8826262 265.712769,85.2679487 C263.700164,67.2194657 261.860528,59.1616974 260.193862,61.094644 C257.693862,63.9940638 255.056244,91.6290655 247.49878,91.6290655 C239.941316,91.6290655 238.64001,83.5817695 238.64001,80.9588066 C238.64001,78.3358436 233.646321,61.094644 232.193862,61.094644 C230.741402,61.094644 229.111894,87.3287695 224.193862,89.4789175 C219.275829,91.6290655 213.916602,85.4542601 211.94938,74.724162 C209.982157,63.9940638 210.060843,31.4167553 206.928288,31.4167553 C203.795733,31.4167553 200.052369,89.3808228 195.193862,93.6899649 C190.335354,97.9991071 191.693862,95.6518396 186.193862,93.6899649 C180.693862,91.7280902 178.693862,34.5069816 176.193862,37.5170428 C173.693862,40.527104 173.943862,87.418018 170.943862,91.6290655 C167.943862,95.8401129 165.580938,97.836043 161.8874,95.763004 C158.193862,93.6899649 158.576269,68.6901895 154.885065,68.6901895 C151.193862,68.6901895 148.909417,95.763004 144.485009,95.763004 C140.060601,95.763004 137.013013,63.9940638 134.603437,63.9940638 C132.193862,63.9940638 128.732995,95.763004 123.494189,95.763004 C118.255384,95.763004 116.588841,63.9940638 113.693862,63.9940638 C110.798882,63.9940638 109.812878,95.763004 102.50337,95.763004 C95.1938615,95.763004 97.4376919,58.1952241 94.0401819,61.094644 C90.6426718,63.9940638 86.8312386,95.763004 81.51255,95.763004 C76.1938615,95.763004 75.9944638,67.5170428 73.758554,67.5170428 C71.5226442,67.5170428 67.5900513,95.763004 62.3919564,95.763004 C57.1938615,95.763004 50.6233697,34.0497506 47.1938615,34.0497506 C43.7643533,34.0497506 48.4884309,89.5560264 37.1938615,93.6899649 C25.8992921,97.8239034 25.1186015,87.1397177 25.1186015,85.2679487 C25.1186015,83.3961798 20.5477551,27.4135482 15.95757,27.4135482 C11.3673849,27.4135482 13.1938615,87.3441207 7.69386151,90.5170428 C2.19386151,93.6899649 -3.8618762,107.026456 3.19386151,74.724162 Z" id="路径-42备份" stroke="none" fill-opacity="0.6" fill="#CBE4FF" fill-rule="evenodd"></path>
                        <path d="M3.19386151,86.724162 C10.2495992,54.4218683 8.1451655,-5.84477801 18.1873041,17.0772925 C28.2294428,39.999363 27.4943613,88.6717083 34.9446812,86.724162 C42.3950011,84.7766157 37.9133277,20.3598376 43.7643533,10.3913397 C49.615379,0.422841704 53.8968716,78.8891473 60.5217304,83.6190977 C67.1465892,88.3490482 69.1467691,54.0923808 73.758554,48.4140548 C78.370339,42.7357289 75.879909,83.6190977 81.51255,83.6190977 C87.1451911,83.6190977 88.9285352,49.4987293 94.0401819,48.4140548 C99.1518285,47.3293804 97.5249716,82.9163078 102.50337,83.6190977 C107.481768,84.3218877 110.49014,49.3175838 114.32181,48.4140548 C118.153479,47.5105259 118.945115,84.3731572 123.494189,83.6190977 C128.043263,82.8650383 129.005836,48.4140548 134.603437,48.4140548 C140.201039,48.4140548 139.352457,83.6190977 144.485009,83.6190977 C149.617561,83.6190977 150.133846,48.4140548 154.885065,48.4140548 C159.636284,48.4140548 158.467579,102.182418 165.475829,83.6190977 C172.484078,65.0557775 168.170221,13.6528603 174.295501,13.6528603 C180.420781,13.6528603 183.133605,84.5909343 191.052878,84.5909343 C198.972151,84.5909343 199.255406,13.6528603 206.928288,13.6528603 C214.601169,13.6528603 215.905373,76.1481493 219.275829,84.5909343 C222.646284,93.0337193 225.678595,49.2962447 230.741402,48.5170428 C235.80421,47.7378409 242.364891,83.6190977 247.49878,83.6190977 C252.632668,83.6190977 253.368018,48.4140548 258.955921,48.4140548 C264.543825,48.4140548 267.343042,79.6986533 272.193862,83.7755541 C277.044681,87.8524549 277.044681,86.724162 280.193862,83.6190977 C283.343042,80.5140335 285.384599,48.2702353 291.987555,48.5170428 C298.590511,48.7638503 296.193862,84.5909343 306.193862,84.5909343 C316.193862,84.5909343 314.913345,48.756401 321.193862,48.5170428 C327.474378,48.2776845 327.693862,85.7523254 338.193862,86.724162" id="路径-42" stroke="#1890FF" stroke-width="1.5" fill="none" stroke-linecap="round" stroke-linejoin="round"></path>
                    </g>
                </g>
            </g>
            <g id="编组-30" transform="translate(295.806138, 103.482957)">
                <mask id="mask-6" fill="white">
                    <use xlink:href="#path-5"></use>
                </mask>
                <g id="蒙版"></g>
                <g mask="url(#mask-6)">
                    <g transform="translate(-274.000000, -7.000000)">
                        <path d="M3.19386151,74.724162 C10.2495992,42.4218683 8.1451655,-17.844778 18.1873041,5.07729252 C28.2294428,27.999363 27.4943613,76.6717083 34.9446812,74.724162 C42.3950011,72.7766157 37.190668,11.6213583 43.0416936,1.6528603 C48.8927193,-8.31563765 53.8968716,66.8891473 60.5217304,71.6190977 C67.1465892,76.3490482 69.1467691,42.0923808 73.758554,36.4140548 C78.370339,30.7357289 75.879909,71.6190977 81.51255,71.6190977 C87.1451911,71.6190977 88.9285352,37.4987293 94.0401819,36.4140548 C99.1518285,35.3293804 97.5249716,70.9163078 102.50337,71.6190977 C107.481768,72.3218877 110.49014,37.3175838 114.32181,36.4140548 C118.153479,35.5105259 118.945115,72.3731572 123.494189,71.6190977 C128.043263,70.8650383 129.005836,36.4140548 134.603437,36.4140548 C140.201039,36.4140548 139.352457,71.6190977 144.485009,71.6190977 C149.617561,71.6190977 150.133846,36.4140548 154.885065,36.4140548 C159.636284,36.4140548 158.467579,90.1824179 165.475829,71.6190977 C172.484078,53.0557775 168.170221,1.6528603 174.295501,1.6528603 C180.420781,1.6528603 183.133605,72.5909343 191.052878,72.5909343 C198.972151,72.5909343 199.255406,1.6528603 206.928288,1.6528603 C214.601169,1.6528603 215.905373,64.1481493 219.275829,72.5909343 C222.646284,81.0337193 225.678595,37.2962447 230.741402,36.5170428 C235.80421,35.7378409 242.364891,71.6190977 247.49878,71.6190977 C252.632668,71.6190977 253.368018,36.4140548 258.955921,36.4140548 C264.543825,36.4140548 266.886997,59.917163 271.737817,63.9940638 C276.588636,68.0709646 276.044681,64.1997082 279.193862,61.094644 C282.343042,57.9895797 285.384599,27.1667407 291.987555,27.4135482 C298.590511,27.6603557 296.193862,61.094644 306.193862,61.094644 C316.193862,61.094644 314.913345,27.6529065 321.193862,27.4135482 C327.474378,27.17419 327.693862,60.1228074 338.193862,61.094644 C345.193862,61.742535 346.527195,72.607642 342.193862,93.6899649 C338.860528,97.8133394 335.360528,98.5043524 331.693862,95.763004 C326.193862,91.6509813 326.494265,80.9588066 321.193862,80.9588066 C315.893458,80.9588066 315.683709,95.763004 310.499875,95.763004 C307.043985,95.763004 303.275314,93.6683085 299.193862,89.4789175 C296.25212,83.7988435 293.850018,80.9588066 291.987555,80.9588066 C290.125093,80.9588066 287.299753,83.7988435 283.511536,89.4789175 C281.336225,92.2862824 278.724265,93.6899649 275.675657,93.6899649 C272.627049,93.6899649 269.306086,90.8826262 265.712769,85.2679487 C263.700164,67.2194657 261.860528,59.1616974 260.193862,61.094644 C257.693862,63.9940638 255.056244,91.6290655 247.49878,91.6290655 C239.941316,91.6290655 238.64001,83.5817695 238.64001,80.9588066 C238.64001,78.3358436 233.646321,61.094644 232.193862,61.094644 C230.741402,61.094644 229.111894,87.3287695 224.193862,89.4789175 C219.275829,91.6290655 213.916602,85.4542601 211.94938,74.724162 C209.982157,63.9940638 210.060843,31.4167553 206.928288,31.4167553 C203.795733,31.4167553 200.052369,89.3808228 195.193862,93.6899649 C190.335354,97.9991071 191.693862,95.6518396 186.193862,93.6899649 C180.693862,91.7280902 178.693862,34.5069816 176.193862,37.5170428 C173.693862,40.527104 173.943862,87.418018 170.943862,91.6290655 C167.943862,95.8401129 165.580938,97.836043 161.8874,95.763004 C158.193862,93.6899649 158.576269,68.6901895 154.885065,68.6901895 C151.193862,68.6901895 148.909417,95.763004 144.485009,95.763004 C140.060601,95.763004 137.013013,63.9940638 134.603437,63.9940638 C132.193862,63.9940638 128.732995,95.763004 123.494189,95.763004 C118.255384,95.763004 116.588841,63.9940638 113.693862,63.9940638 C110.798882,63.9940638 109.812878,95.763004 102.50337,95.763004 C95.1938615,95.763004 97.4376919,58.1952241 94.0401819,61.094644 C90.6426718,63.9940638 86.8312386,95.763004 81.51255,95.763004 C76.1938615,95.763004 75.9944638,67.5170428 73.758554,67.5170428 C71.5226442,67.5170428 67.5900513,95.763004 62.3919564,95.763004 C57.1938615,95.763004 50.6233697,34.0497506 47.1938615,34.0497506 C43.7643533,34.0497506 48.4884309,89.5560264 37.1938615,93.6899649 C25.8992921,97.8239034 25.1186015,87.1397177 25.1186015,85.2679487 C25.1186015,83.3961798 20.5477551,27.4135482 15.95757,27.4135482 C11.3673849,27.4135482 13.1938615,87.3441207 7.69386151,90.5170428 C2.19386151,93.6899649 -3.8618762,107.026456 3.19386151,74.724162 Z" id="路径-42备份" stroke="none" fill-opacity="0.291553417" fill="#CEFFB7" fill-rule="evenodd" opacity="0.980027861"></path>
                        <path d="M3.19386151,86.724162 C10.2495992,54.4218683 8.1451655,-5.84477801 18.1873041,17.0772925 C28.2294428,39.999363 27.4943613,88.6717083 34.9446812,86.724162 C42.3950011,84.7766157 37.9133277,20.3598376 43.7643533,10.3913397 C49.615379,0.422841704 53.8968716,78.8891473 60.5217304,83.6190977 C67.1465892,88.3490482 69.1467691,54.0923808 73.758554,48.4140548 C78.370339,42.7357289 75.879909,83.6190977 81.51255,83.6190977 C87.1451911,83.6190977 88.9285352,49.4987293 94.0401819,48.4140548 C99.1518285,47.3293804 97.5249716,82.9163078 102.50337,83.6190977 C107.481768,84.3218877 110.49014,49.3175838 114.32181,48.4140548 C118.153479,47.5105259 118.945115,84.3731572 123.494189,83.6190977 C128.043263,82.8650383 129.005836,48.4140548 134.603437,48.4140548 C140.201039,48.4140548 139.352457,83.6190977 144.485009,83.6190977 C149.617561,83.6190977 150.133846,48.4140548 154.885065,48.4140548 C159.636284,48.4140548 158.467579,102.182418 165.475829,83.6190977 C172.484078,65.0557775 168.170221,13.6528603 174.295501,13.6528603 C180.420781,13.6528603 183.133605,84.5909343 191.052878,84.5909343 C198.972151,84.5909343 199.255406,13.6528603 206.928288,13.6528603 C214.601169,13.6528603 215.905373,76.1481493 219.275829,84.5909343 C222.646284,93.0337193 225.678595,49.2962447 230.741402,48.5170428 C235.80421,47.7378409 242.364891,83.6190977 247.49878,83.6190977 C252.632668,83.6190977 253.368018,48.4140548 258.955921,48.4140548 C264.543825,48.4140548 267.343042,79.6986533 272.193862,83.7755541 C277.044681,87.8524549 277.044681,86.724162 280.193862,83.6190977 C283.343042,80.5140335 285.384599,48.2702353 291.987555,48.5170428 C298.590511,48.7638503 296.193862,84.5909343 306.193862,84.5909343 C316.193862,84.5909343 314.913345,48.756401 321.193862,48.5170428 C327.474378,48.2776845 327.693862,85.7523254 338.193862,86.724162" id="路径-42" stroke="#6DD897" stroke-width="1.5" fill="none" stroke-dasharray="2"></path>
                    </g>
                </g>
            </g>
        </g>
    </g>
</svg>