<?xml version="1.0" encoding="UTF-8"?>
<svg width="392px" height="248px" viewBox="0 0 392 248" version="1.1" xmlns="http://www.w3.org/2000/svg" xmlns:xlink="http://www.w3.org/1999/xlink">
    <title>编组 13备份</title>
    <defs>
        <path d="M2,0 L382,0 C383.104569,-2.02906125e-16 384,0.8954305 384,2 L384,238 C384,239.104569 383.104569,240 382,240 L2,240 C0.8954305,240 1.3527075e-16,239.104569 0,238 L0,2 C-1.3527075e-16,0.8954305 0.8954305,2.02906125e-16 2,0 Z" id="path-1"></path>
        <filter x="-1.8%" y="-2.1%" width="103.6%" height="105.8%" filterUnits="objectBoundingBox" id="filter-2">
            <feOffset dx="0" dy="2" in="SourceAlpha" result="shadowOffsetOuter1"></feOffset>
            <feGaussianBlur stdDeviation="2" in="shadowOffsetOuter1" result="shadowBlurOuter1"></feGaussianBlur>
            <feColorMatrix values="0 0 0 0 0.12334826   0 0 0 0 0.156873573   0 0 0 0 0.212749094  0 0 0 0.0649311626 0" type="matrix" in="shadowBlurOuter1"></feColorMatrix>
        </filter>
    </defs>
    <g id="页面-1" stroke="none" stroke-width="1" fill="none" fill-rule="evenodd">
        <g id="编组-13备份" transform="translate(4.000000, 2.000000)">
            <g id="请求&amp;平均响应时间备份-5">
                <g id="Rectangle-5-Copy-4备份-5">
                    <use fill="black" fill-opacity="1" filter="url(#filter-2)" xlink:href="#path-1"></use>
                    <use fill="#FFFFFF" fill-rule="evenodd" xlink:href="#path-1"></use>
                </g>
            </g>
            <circle id="椭圆形" fill="#46A6FF" cx="61" cy="79" r="12"></circle>
            <circle id="椭圆形备份-24" fill="#46A6FF" cx="100" cy="96" r="12"></circle>
            <circle id="椭圆形备份-25" fill="#46A6FF" cx="62" cy="128" r="12"></circle>
            <circle id="椭圆形备份-26" fill="#46A6FF" cx="90" cy="131" r="12"></circle>
            <circle id="椭圆形备份-27" fill="#6DD897" cx="111" cy="147" r="12"></circle>
            <circle id="椭圆形备份-34" fill="#6DD897" cx="47" cy="109" r="12"></circle>
            <circle id="椭圆形备份-43" fill="#46A6FF" cx="127" cy="143" r="12"></circle>
            <circle id="椭圆形备份-44" fill="#46A6FF" cx="238" cy="73" r="12"></circle>
            <circle id="椭圆形备份-53" fill="#6DD897" cx="238" cy="136" r="12"></circle>
            <circle id="椭圆形备份-60" fill="#FF9D9D" cx="238" cy="194" r="12"></circle>
            <circle id="椭圆形备份-50" fill="#46A6FF" cx="238" cy="100" r="12"></circle>
            <circle id="椭圆形备份-54" fill="#6DD897" cx="238" cy="163" r="12"></circle>
            <circle id="椭圆形备份-45" fill="#46A6FF" cx="262" cy="73" r="12"></circle>
            <circle id="椭圆形备份-55" fill="#6DD897" cx="262" cy="136" r="12"></circle>
            <circle id="椭圆形备份-61" fill="#FF9D9D" cx="262" cy="194" r="12"></circle>
            <circle id="椭圆形备份-51" fill="#46A6FF" cx="262" cy="100" r="12"></circle>
            <circle id="椭圆形备份-46" fill="#46A6FF" cx="286" cy="73" r="12"></circle>
            <circle id="椭圆形备份-56" fill="#6DD897" cx="286" cy="136" r="12"></circle>
            <circle id="椭圆形备份-62" fill="#FF9D9D" cx="286" cy="194" r="12"></circle>
            <circle id="椭圆形备份-52" fill="#46A6FF" cx="286" cy="100" r="12"></circle>
            <circle id="椭圆形备份-47" fill="#46A6FF" cx="310" cy="73" r="12"></circle>
            <circle id="椭圆形备份-57" fill="#6DD897" cx="310" cy="136" r="12"></circle>
            <circle id="椭圆形备份-63" fill="#FF9D9D" cx="310" cy="194" r="12"></circle>
            <circle id="椭圆形备份-48" fill="#46A6FF" cx="334" cy="73" r="12"></circle>
            <circle id="椭圆形备份-58" fill="#6DD897" cx="334" cy="136" r="12"></circle>
            <circle id="椭圆形备份-49" fill="#46A6FF" cx="358" cy="73" r="12"></circle>
            <circle id="椭圆形备份-59" fill="#6DD897" cx="358" cy="136" r="12"></circle>
            <circle id="椭圆形备份-41" fill="#6DD897" cx="101" cy="79" r="12"></circle>
            <circle id="椭圆形备份-42" fill="#6DD897" cx="124" cy="94" r="12"></circle>
            <circle id="椭圆形备份-37" fill="#6DD897" cx="84" cy="146" r="12"></circle>
            <circle id="椭圆形备份-30" fill="#6DD897" cx="73" cy="109" r="12"></circle>
            <circle id="椭圆形备份-31" fill="#FF9D9D" cx="46" cy="136" r="12"></circle>
            <circle id="椭圆形备份-40" fill="#FF9D9D" cx="122" cy="118" r="12"></circle>
            <circle id="椭圆形备份-32" fill="#FF9D9D" cx="67" cy="158" r="12"></circle>
            <circle id="椭圆形备份-35" fill="#FF9D9D" cx="100" cy="116" r="12"></circle>
            <circle id="椭圆形备份-36" fill="#FF9D9D" cx="80" cy="85" r="12"></circle>
            <circle id="椭圆形备份-28" fill="#46A6FF" cx="97" cy="169" r="12"></circle>
            <circle id="椭圆形备份-33" fill="#46A6FF" cx="47" cy="172" r="12"></circle>
            <circle id="椭圆形备份-29" fill="#46A6FF" cx="72" cy="180" r="12"></circle>
            <g id="箭头" opacity="0.119999997" transform="translate(184.000000, 127.000000) scale(1, -1) translate(-184.000000, -127.000000) translate(162.000000, 114.000000)" fill="#606266" fill-rule="nonzero">
                <path d="M43.1473699,15.1318859 C43.1081061,15.1731723 43.0665762,15.2122288 43.022974,15.2488731 L33.3797012,25.1225957 C32.236814,26.2924681 30.3631009,26.2924681 29.2150306,25.1225957 C28.0713177,23.933977 28.0713177,22.0502794 29.2150306,20.8616607 L33.9602153,16.0079903 L13.0461569,16.0079903 C11.4052349,15.9908439 10.08686,14.6462498 10.0968804,13.0001185 C10.0968804,11.3440991 11.4212357,9.99224664 13.0383822,9.99224664 L33.9524406,9.99224664 L29.2098474,5.13857623 C28.0661345,3.94995745 28.0661345,2.06625992 29.2098474,0.877641135 C29.7582127,0.316313146 30.5087131,0 31.2921827,0 C32.0756523,0 32.8261527,0.316313146 33.374518,0.877641135 L43.0203824,10.7513638 L43.1447783,10.868351 C43.7149261,11.4532872 44,12.225403 44,13.0001185 C44,13.7748339 43.7149261,14.5469497 43.1447783,15.1318859 L43.1473699,15.1318859 Z M0.000138308763,13.0001185 C0.000138308763,11.3363 1.31666145,9.99224664 2.94158269,9.99224664 C4.56650393,9.99224664 5.8830271,11.3363 5.8830271,13.0001185 C5.8830271,14.6639369 4.56650396,16.0079903 2.94158269,16.0079903 C2.15389104,16.0004422 1.40145444,15.6792929 0.849818818,15.1151996 C0.298183201,14.5511062 -0.00745871294,13.7902821 0.000138308763,13.0001185 L0.000138308763,13.0001185 Z" id="形状"></path>
            </g>
            <circle id="椭圆形备份-39" fill="#6DD897" cx="111" cy="173" r="12"></circle>
            <circle id="椭圆形备份-38" fill="#46A6FF" cx="101" cy="191" r="12"></circle>
            <text id="Drain-Log-Parsing-fo" font-family="PingFangSC-Medium, PingFang SC" font-size="14" font-weight="400" fill="#000000">
                <tspan x="16" y="29">Drain Log Parsing for already segmented words</tspan>
            </text>
        </g>
    </g>
</svg>