<?xml version="1.0" encoding="UTF-8"?>
<svg width="392px" height="248px" viewBox="0 0 392 248" version="1.1" xmlns="http://www.w3.org/2000/svg" xmlns:xlink="http://www.w3.org/1999/xlink">
    <title>背景板备份 7</title>
    <defs>
        <path d="M2,0 L382,0 C383.104569,-2.02906125e-16 384,0.8954305 384,2 L384,238 C384,239.104569 383.104569,240 382,240 L2,240 C0.8954305,240 1.3527075e-16,239.104569 0,238 L0,2 C-1.3527075e-16,0.8954305 0.8954305,2.02906125e-16 2,0 Z" id="path-1"></path>
        <filter x="-1.8%" y="-2.1%" width="103.6%" height="105.8%" filterUnits="objectBoundingBox" id="filter-2">
            <feOffset dx="0" dy="2" in="SourceAlpha" result="shadowOffsetOuter1"></feOffset>
            <feGaussianBlur stdDeviation="2" in="shadowOffsetOuter1" result="shadowBlurOuter1"></feGaussianBlur>
            <feColorMatrix values="0 0 0 0 0.12334826   0 0 0 0 0.156873573   0 0 0 0 0.212749094  0 0 0 0.0649311626 0" type="matrix" in="shadowBlurOuter1"></feColorMatrix>
        </filter>
    </defs>
    <g id="页面-1" stroke="none" stroke-width="1" fill="none" fill-rule="evenodd">
        <g id="编组-34" transform="translate(4.000000, 2.000000)">
            <g id="背景板备份-7">
                <use fill="black" fill-opacity="1" filter="url(#filter-2)" xlink:href="#path-1"></use>
                <use fill="#FFFFFF" fill-rule="evenodd" xlink:href="#path-1"></use>
            </g>
            <rect id="实际区域备份-7" fill="#FF5656" opacity="0" x="16" y="44" width="352" height="180"></rect>
            <g id="编组-2备份-8" transform="translate(31.000000, 85.000000)" fill="#F4FCFF">
                <rect id="矩形" x="0" y="0" width="20" height="118"></rect>
                <rect id="矩形备份-24" x="38" y="0" width="20" height="118"></rect>
                <rect id="矩形备份-25" x="76" y="0" width="20" height="118"></rect>
                <rect id="矩形备份-26" x="113" y="0" width="20" height="118"></rect>
                <rect id="矩形备份-27" x="149" y="0" width="20" height="118"></rect>
                <rect id="矩形备份-28" x="186" y="0" width="20" height="118"></rect>
                <rect id="矩形备份-29" x="223" y="0" width="20" height="118"></rect>
                <rect id="矩形备份-30" x="260" y="0" width="20" height="118"></rect>
                <rect id="矩形备份-31" x="297" y="0" width="20" height="118"></rect>
            </g>
            <text id="time备份-8" font-family="PingFangSC-Regular, PingFang SC" font-size="10" font-weight="normal" fill="#000000" fill-opacity="0.45">
                <tspan x="343" y="217">time</tspan>
            </text>
            <text id="figure备份-8" font-family="PingFangSC-Regular, PingFang SC" font-size="10" font-weight="normal" fill="#000000" fill-opacity="0.45">
                <tspan x="16" y="74">figure</tspan>
            </text>
            <g id="刻度备份-7" transform="translate(16.000000, 84.500000)">
                <line x1="2.5" y1="0" x2="2.5" y2="118" id="直线" stroke="#E9E9E9" stroke-linecap="square"></line>
                <line x1="2.5" y1="118" x2="351" y2="118" id="直线-2" stroke="#E9E9E9" stroke-linecap="square"></line>
                <rect id="矩形" fill="#E9E9E9" x="8" y="117.5" width="1" height="3"></rect>
                <rect id="矩形备份-6" fill="#E9E9E9" x="25" y="117.5" width="1" height="3"></rect>
                <rect id="矩形备份-7" fill="#E9E9E9" x="43" y="117.5" width="1" height="3"></rect>
                <rect id="矩形备份-8" fill="#E9E9E9" x="63" y="117.5" width="1" height="3"></rect>
                <rect id="矩形备份-9" fill="#E9E9E9" x="82" y="117.5" width="1" height="3"></rect>
                <rect id="矩形备份-10" fill="#E9E9E9" x="101" y="117.5" width="1" height="3"></rect>
                <rect id="矩形备份-11" fill="#E9E9E9" x="119" y="117.5" width="1" height="3"></rect>
                <rect id="矩形备份-12" fill="#E9E9E9" x="138" y="117.5" width="1" height="3"></rect>
                <rect id="矩形备份-13" fill="#E9E9E9" x="156" y="117.5" width="1" height="3"></rect>
                <rect id="矩形备份-14" fill="#E9E9E9" x="174" y="117.5" width="1" height="3"></rect>
                <rect id="矩形备份-15" fill="#E9E9E9" x="192" y="117.5" width="1" height="3"></rect>
                <rect id="矩形备份-16" fill="#E9E9E9" x="211" y="117.5" width="1" height="3"></rect>
                <rect id="矩形备份-17" fill="#E9E9E9" x="229" y="117.5" width="1" height="3"></rect>
                <rect id="矩形备份-18" fill="#E9E9E9" x="248" y="117.5" width="1" height="3"></rect>
                <rect id="矩形备份-19" fill="#E9E9E9" x="266" y="117.5" width="1" height="3"></rect>
                <rect id="矩形备份-20" fill="#E9E9E9" x="285" y="117.5" width="1" height="3"></rect>
                <rect id="矩形备份-21" fill="#E9E9E9" x="304" y="117.5" width="1" height="3"></rect>
                <rect id="矩形备份-22" fill="#E9E9E9" x="322" y="117.5" width="1" height="3"></rect>
                <rect id="矩形备份-23" fill="#E9E9E9" x="343" y="117.5" width="1" height="3"></rect>
                <rect id="矩形" fill="#E9E9E9" x="0" y="102.5" width="3" height="1"></rect>
                <rect id="矩形备份" fill="#E9E9E9" x="0" y="79.5" width="3" height="1"></rect>
                <rect id="矩形备份-3" fill="#E9E9E9" x="0" y="56.5" width="3" height="1"></rect>
                <rect id="矩形备份-4" fill="#E9E9E9" x="0" y="33.5" width="3" height="1"></rect>
                <rect id="矩形备份-5" fill="#E9E9E9" x="0" y="10.5" width="3" height="1"></rect>
            </g>
            <g id="标题备份-7" transform="translate(16.000000, 14.000000)" fill="#000000" font-family="PingFangSC-Medium, PingFang SC" font-size="14" font-weight="400">
                <text id="Arima-forecasting-da">
                    <tspan x="0" y="15">Arima forecasting daily periodicity</tspan>
                </text>
            </g>
            <g id="编组-31" transform="translate(28.256877, 129.311231)">
                <path d="M0,46.8597376 L0,34.688769 C3.46927155,34.688769 6.28167183,31.8763687 6.28167183,28.4070972 L6.28167183,11 C6.28167183,4.92486775 11.2065396,1.11598369e-15 17.2816718,0 L29.7431233,0 C35.8182556,-2.89234053e-15 40.7431233,4.92486775 40.7431233,11 L40.7431233,24.688769 C40.7431233,30.2116165 45.2202758,34.688769 50.7431233,34.688769 C56.2659708,34.688769 60.7431233,30.2116165 60.7431233,24.688769 L60.7431233,11 C60.7431233,4.92486775 65.6679911,1.11598369e-15 71.7431233,0 L86.1757081,0 C92.2508403,-1.11598369e-15 97.1757081,4.92486775 97.1757081,11 L97.1757081,23.9126831 C97.1757081,29.0399332 101.332166,33.1963907 106.459416,33.1963907 C111.586666,33.1963907 115.743123,29.0399332 115.743123,23.9126831 L115.743123,11 C115.743123,4.92486775 120.667991,-6.6037315e-16 126.743123,0 L139.258418,0 C145.333551,-1.11598369e-15 150.258418,4.92486775 150.258418,11 L150.258418,24.637127 C150.258418,29.3642778 154.090531,33.1963907 158.817682,33.1963907 C163.544833,33.1963907 167.376946,29.3642778 167.376946,24.637127 L167.376946,11 C167.376946,4.92486775 172.301814,2.89234053e-15 178.376946,0 L192.330235,0 C198.405367,6.6037315e-16 203.330235,4.92486775 203.330235,11 L203.330235,23.679111 C203.330235,28.9353594 207.591266,33.1963907 212.847515,33.1963907 C218.103763,33.1963907 222.364794,28.9353594 222.364794,23.679111 L222.364794,11 C222.364794,4.92486775 227.289662,1.11598369e-15 233.364794,0 L246.263219,0 C252.338352,-1.55270309e-14 257.263219,4.92486775 257.263219,11 L257.263219,22.1963907 C257.263219,28.2715229 262.188087,33.1963907 268.263219,33.1963907 L275.065999,33.1963907 L275.065999,33.1963907 L275.065999,49.2572522 L260.702211,49.2572522 C254.627079,49.2572522 249.702211,44.3323844 249.702211,38.2572522 L249.702211,21.0724553 C249.702211,16.0473356 245.628547,11.9736712 240.603427,11.9736712 C235.578307,11.9736712 231.504643,16.0473356 231.504643,21.0724553 L231.504643,38.2572522 C231.504643,44.3323844 226.579775,49.2572522 220.504643,49.2572522 L206.62724,49.2572522 C200.552107,49.2572522 195.62724,44.3323844 195.62724,38.2572522 L195.62724,22.5111041 C195.62724,17.3483357 191.441989,13.1630849 186.279221,13.1630849 C181.116452,13.1630849 176.931201,17.3483357 176.931201,22.5111041 L176.931201,38.2572522 C176.931201,44.3323844 172.006334,49.2572522 165.931201,49.2572522 L153.722525,49.2572522 C147.647393,49.2572522 142.722525,44.3323844 142.722525,38.2572522 L142.722525,23.1849642 C142.722525,17.6500331 138.235577,13.1630849 132.700646,13.1630849 C127.165715,13.1630849 122.678767,17.6500331 122.678767,23.1849642 L122.678767,35.8597376 C122.678767,41.9348699 117.753899,46.8597376 111.678767,46.8597376 L99.7431233,46.8597376 C93.6679911,46.8597376 88.7431233,41.9348699 88.7431233,35.8597376 L88.7431233,22.1470418 C88.7431233,16.5284443 84.1883502,11.9736712 78.5697527,11.9736712 C72.9511553,11.9736712 68.3963821,16.5284443 68.3963821,22.1470418 L68.3963821,35.8597376 C68.3963821,41.9348699 63.4715144,46.8597376 57.3963821,46.8597376 L45.799159,46.8597376 C39.7240267,46.8597376 34.799159,41.9348699 34.799159,35.8597376 L34.799159,21.7167868 C34.799159,16.1784655 30.3094625,11.688769 24.7711411,11.688769 C19.2328198,11.688769 14.7431233,16.1784655 14.7431233,21.7167868 L14.7431233,35.8597376 C14.7431233,41.9348699 9.81825558,46.8597376 3.74312333,46.8597376 L0,46.8597376 L0,46.8597376 Z" id="路径-46" fill-opacity="0.6" fill="#CBE4FF"></path>
                <path d="M1.24312333,41.3893388 L1.65221424,41.3893388 C6.62277699,41.3893388 10.6522142,37.3599015 10.6522142,32.3893388 L10.6522142,13.688769 C10.6522142,8.71820624 14.6816515,4.68876899 19.6522142,4.68876899 L28.6522142,4.68876899 C33.622777,4.68876899 37.6522142,8.71820624 37.6522142,13.688769 L37.6522142,32.3893388 C37.6522142,37.3599015 41.6816515,41.3893388 46.6522142,41.3893388 L55.6522142,41.3893388 C60.622777,41.3893388 64.6522142,37.3599015 64.6522142,32.3893388 L64.6522142,13.688769 C64.6522142,8.71820624 68.6816515,4.68876899 73.6522142,4.68876899 L82.6522142,4.68876899 C87.622777,4.68876899 91.6522142,8.71820624 91.6522142,13.688769 L91.6522142,32.3893388 C91.6522142,37.3599015 95.6816515,41.3893388 100.652214,41.3893388 L109.652214,41.3893388 C114.622777,41.3893388 118.652214,37.3599015 118.652214,32.3893388 L118.652214,13.688769 C118.652214,8.71820624 122.681651,4.68876899 127.652214,4.68876899 L136.652214,4.68876899 C141.622777,4.68876899 145.652214,8.71820624 145.652214,13.688769 L145.652214,32.3893388 C145.652214,37.3599015 149.681651,41.3893388 154.652214,41.3893388 L163.652214,41.3893388 C168.622777,41.3893388 172.652214,37.3599015 172.652214,32.3893388 L172.652214,13.688769 C172.652214,8.71820624 176.681651,4.68876899 181.652214,4.68876899 L190.652214,4.68876899 C195.622777,4.68876899 199.652214,8.71820624 199.652214,13.688769 L199.652214,32.3893388 C199.652214,37.3599015 203.681651,41.3893388 208.652214,41.3893388 L217.652214,41.3893388 C222.622777,41.3893388 226.652214,37.3599015 226.652214,32.3893388 L226.652214,13.688769 C226.652214,8.71820624 230.681651,4.68876899 235.652214,4.68876899 L244.652214,4.68876899 C249.622777,4.68876899 253.652214,8.71820624 253.652214,13.688769 L253.652214,32.3893388 C253.652214,37.3599015 257.681651,41.3893388 262.652214,41.3893388 L271.243123,41.3893388 L271.243123,41.3893388" id="路径-45" stroke="#1890FF" stroke-width="1.5" stroke-linecap="round" stroke-linejoin="round"></path>
                <path d="M271.98865,32.7053386 L271.98865,8 C271.98865,4.13400675 275.122656,1 278.98865,1 L303.743123,1 C307.609117,1 310.743123,4.13400675 310.743123,8 L310.743123,27.3524054 C310.743123,31.2183986 313.87713,34.3524054 317.743123,34.3524054 L320.749653,34.3524054 L320.749653,34.3524054 L320.749653,47.9296688 L310.112977,47.9296688 C306.246984,47.9296688 303.112977,44.795662 303.112977,40.9296688 L303.112977,18.1067487 C303.112977,14.2407554 299.97897,11.1067487 296.112977,11.1067487 L286.734208,11.1067487 C282.868214,11.1067487 279.734208,14.2407554 279.734208,18.1067487 L279.734208,45.2698898 C279.734208,47.4900623 277.934402,49.2898678 275.71423,49.2898678 C275.497087,49.2898678 275.2803,49.2722741 275.065999,49.2372593 L275.065999,49.2372593 L275.065999,49.2372593 L272.116827,34.0387734 C272.031572,33.5994148 271.98865,33.1528924 271.98865,32.7053386 Z" id="路径-48" fill-opacity="0.6" fill="#CBE4FF"></path>
            </g>
            <path d="M299.5,170.70057 C302.12715,170.70057 304.256877,168.570844 304.256877,165.943693 L304.256877,143 C304.256877,138.029437 308.286314,134 313.256877,134 L326.872095,134 C331.842657,134 335.872095,138.029437 335.872095,143 L335.872095,161.70057 C335.872095,166.671133 339.901532,170.70057 344.872095,170.70057 L348,170.70057 L348,170.70057" id="路径-47" stroke="#6DD897" stroke-width="1.5" stroke-dasharray="2"></path>
        </g>
    </g>
</svg>