<?xml version="1.0" encoding="UTF-8"?>
<svg width="392px" height="248px" viewBox="0 0 392 248" version="1.1" xmlns="http://www.w3.org/2000/svg" xmlns:xlink="http://www.w3.org/1999/xlink">
    <title>Rectangle 5 Copy 4备份 5</title>
    <defs>
        <path d="M2,0 L382,0 C383.104569,-2.02906125e-16 384,0.8954305 384,2 L384,238 C384,239.104569 383.104569,240 382,240 L2,240 C0.8954305,240 1.3527075e-16,239.104569 0,238 L0,2 C-1.3527075e-16,0.8954305 0.8954305,2.02906125e-16 2,0 Z" id="path-1"></path>
        <filter x="-1.8%" y="-2.1%" width="103.6%" height="105.8%" filterUnits="objectBoundingBox" id="filter-2">
            <feOffset dx="0" dy="2" in="SourceAlpha" result="shadowOffsetOuter1"></feOffset>
            <feGaussianBlur stdDeviation="2" in="shadowOffsetOuter1" result="shadowBlurOuter1"></feGaussianBlur>
            <feColorMatrix values="0 0 0 0 0.12334826   0 0 0 0 0.156873573   0 0 0 0 0.212749094  0 0 0 0.0649311626 0" type="matrix" in="shadowBlurOuter1"></feColorMatrix>
        </filter>
    </defs>
    <g id="页面-1" stroke="none" stroke-width="1" fill="none" fill-rule="evenodd">
        <g id="编组-2" transform="translate(4.000000, 2.000000)">
            <g id="Rectangle-5-Copy-4备份-5">
                <use fill="black" fill-opacity="1" filter="url(#filter-2)" xlink:href="#path-1"></use>
                <use fill="#FFFFFF" fill-rule="evenodd" xlink:href="#path-1"></use>
            </g>
            <g id="标题" transform="translate(16.000000, 14.000000)" fill="#000000" font-family="PingFangSC-Medium, PingFang SC" font-size="14" font-weight="400">
                <text id="Drain-Log-Parsing-sm">
                    <tspan x="0" y="15">Drain Log Parsing small tree depth</tspan>
                </text>
            </g>
            <circle id="椭圆形备份-70" fill="#46A6FF" cx="63" cy="84" r="12"></circle>
            <circle id="椭圆形备份-71" fill="#46A6FF" cx="71" cy="144" r="12"></circle>
            <circle id="椭圆形备份-73" fill="#6DD897" cx="87" cy="169" r="12"></circle>
            <circle id="椭圆形备份-76" fill="#6DD897" cx="73" cy="115" r="12"></circle>
            <circle id="椭圆形备份-77" fill="#6DD897" cx="92" cy="91" r="12"></circle>
            <circle id="椭圆形备份-79" fill="#FF9D9D" cx="99" cy="114" r="12"></circle>
            <circle id="椭圆形备份-84" fill="#FF9D9D" cx="59" cy="172" r="12"></circle>
            <circle id="椭圆形备份-85" fill="#FF9D9D" cx="45" cy="140" r="12"></circle>
            <circle id="椭圆形备份-87" fill="#FF9D9D" cx="95" cy="143" r="12"></circle>
            <circle id="椭圆形备份-88" fill="#46A6FF" cx="49" cy="108" r="12"></circle>
            <circle id="椭圆形备份-93" fill="#FF9D9D" cx="228" cy="151" r="12"></circle>
            <circle id="椭圆形备份-94" fill="#FF9D9D" cx="254" cy="151" r="12"></circle>
            <circle id="椭圆形备份-95" fill="#46A6FF" cx="254" cy="108" r="12"></circle>
            <circle id="椭圆形备份-105" fill="#FF9D9D" cx="280" cy="151" r="12"></circle>
            <circle id="椭圆形备份-106" fill="#FF9D9D" cx="308" cy="151" r="12"></circle>
            <circle id="椭圆形备份-108" fill="#6DD897" cx="332" cy="108" r="12"></circle>
            <circle id="椭圆形备份-112" fill="#6DD897" cx="360" cy="108" r="12"></circle>
            <circle id="椭圆形备份-109" fill="#46A6FF" cx="280" cy="108" r="12"></circle>
            <circle id="椭圆形备份-110" fill="#6DD897" cx="306" cy="108" r="12"></circle>
            <circle id="椭圆形备份-111" fill="#46A6FF" cx="228" cy="108" r="12"></circle>
            <g id="编组" transform="translate(159.000000, 98.000000)" fill="#C5C5C5" fill-rule="nonzero">
                <path id="直线-5备份-10" d="M0.0523423923,29.2444614 L0.732793492,29.9772549 L17.206,47.718 L21.6032391,43.6354394 L26,58.657706 L11.3441302,53.1617548 L15.741,49.078 L-0.732793492,31.3381571 L-1.41324459,30.6053636 L0.0523423923,29.2444614 Z"></path>
                <path id="直线-5备份-11" d="M26.2944184,0.254674105 L22.4152145,15.418835 L17.88,11.488 L1.05010752,30.9096046 L0.395176984,31.6652937 L-1.11620118,30.3554326 L-0.461270643,29.5997436 L16.369,10.179 L11.8355673,6.24980749 L26.2944184,0.254674105 Z"></path>
            </g>
        </g>
    </g>
</svg>