<?xml version="1.0" encoding="UTF-8"?>
<svg width="392px" height="248px" viewBox="0 0 392 248" version="1.1" xmlns="http://www.w3.org/2000/svg" xmlns:xlink="http://www.w3.org/1999/xlink">
    <title>背景板</title>
    <defs>
        <path d="M2,0 L382,0 C383.104569,-2.02906125e-16 384,0.8954305 384,2 L384,238 C384,239.104569 383.104569,240 382,240 L2,240 C0.8954305,240 1.3527075e-16,239.104569 0,238 L0,2 C-1.3527075e-16,0.8954305 0.8954305,2.02906125e-16 2,0 Z" id="path-1"></path>
        <filter x="-1.8%" y="-2.1%" width="103.6%" height="105.8%" filterUnits="objectBoundingBox" id="filter-2">
            <feOffset dx="0" dy="2" in="SourceAlpha" result="shadowOffsetOuter1"></feOffset>
            <feGaussianBlur stdDeviation="2" in="shadowOffsetOuter1" result="shadowBlurOuter1"></feGaussianBlur>
            <feColorMatrix values="0 0 0 0 0.12334826   0 0 0 0 0.156873573   0 0 0 0 0.212749094  0 0 0 0.0649311626 0" type="matrix" in="shadowBlurOuter1"></feColorMatrix>
        </filter>
    </defs>
    <g id="页面-1" stroke="none" stroke-width="1" fill="none" fill-rule="evenodd">
        <g id="模块备份-15" transform="translate(4.000000, 2.000000)">
            <g id="背景板">
                <use fill="black" fill-opacity="1" filter="url(#filter-2)" xlink:href="#path-1"></use>
                <use fill="#FFFFFF" fill-rule="evenodd" xlink:href="#path-1"></use>
            </g>
            <g id="编组-6" transform="translate(16.000000, 46.000000)">
                <rect id="实际区域" fill="#FF5656" opacity="0" x="0" y="0" width="352" height="178"></rect>
                <g id="图表" transform="translate(0.000000, 17.000000)">
                    <g id="编组-2" transform="translate(15.000000, 22.000000)" fill="#F4FCFF">
                        <rect id="矩形" x="0" y="0" width="20" height="118"></rect>
                        <rect id="矩形备份-24" x="38" y="0" width="20" height="118"></rect>
                        <rect id="矩形备份-25" x="76" y="0" width="20" height="118"></rect>
                        <rect id="矩形备份-26" x="113" y="0" width="20" height="118"></rect>
                        <rect id="矩形备份-27" x="149" y="0" width="20" height="118"></rect>
                        <rect id="矩形备份-28" x="186" y="0" width="20" height="118"></rect>
                        <rect id="矩形备份-29" x="223" y="0" width="20" height="118"></rect>
                        <rect id="矩形备份-30" x="260" y="0" width="20" height="118"></rect>
                        <rect id="矩形备份-31" x="297" y="0" width="20" height="118"></rect>
                    </g>
                    <text id="time" font-family="PingFangSC-Regular, PingFang SC" font-size="10" font-weight="normal" fill="#000000" fill-opacity="0.45">
                        <tspan x="327" y="154">time</tspan>
                    </text>
                    <text id="figure" font-family="PingFangSC-Regular, PingFang SC" font-size="10" font-weight="normal" fill="#000000" fill-opacity="0.45">
                        <tspan x="0" y="11">figure</tspan>
                    </text>
                    <g id="刻度" transform="translate(0.000000, 21.500000)">
                        <line x1="2.5" y1="0" x2="2.5" y2="118" id="直线" stroke="#E9E9E9" stroke-linecap="square"></line>
                        <line x1="2.5" y1="118" x2="351" y2="118" id="直线-2" stroke="#E9E9E9" stroke-linecap="square"></line>
                        <rect id="矩形" fill="#E9E9E9" x="8" y="117.5" width="1" height="3"></rect>
                        <rect id="矩形备份-6" fill="#E9E9E9" x="25" y="117.5" width="1" height="3"></rect>
                        <rect id="矩形备份-7" fill="#E9E9E9" x="43" y="117.5" width="1" height="3"></rect>
                        <rect id="矩形备份-8" fill="#E9E9E9" x="63" y="117.5" width="1" height="3"></rect>
                        <rect id="矩形备份-9" fill="#E9E9E9" x="82" y="117.5" width="1" height="3"></rect>
                        <rect id="矩形备份-10" fill="#E9E9E9" x="101" y="117.5" width="1" height="3"></rect>
                        <rect id="矩形备份-11" fill="#E9E9E9" x="119" y="117.5" width="1" height="3"></rect>
                        <rect id="矩形备份-12" fill="#E9E9E9" x="138" y="117.5" width="1" height="3"></rect>
                        <rect id="矩形备份-13" fill="#E9E9E9" x="156" y="117.5" width="1" height="3"></rect>
                        <rect id="矩形备份-14" fill="#E9E9E9" x="174" y="117.5" width="1" height="3"></rect>
                        <rect id="矩形备份-15" fill="#E9E9E9" x="192" y="117.5" width="1" height="3"></rect>
                        <rect id="矩形备份-16" fill="#E9E9E9" x="211" y="117.5" width="1" height="3"></rect>
                        <rect id="矩形备份-17" fill="#E9E9E9" x="229" y="117.5" width="1" height="3"></rect>
                        <rect id="矩形备份-18" fill="#E9E9E9" x="248" y="117.5" width="1" height="3"></rect>
                        <rect id="矩形备份-19" fill="#E9E9E9" x="266" y="117.5" width="1" height="3"></rect>
                        <rect id="矩形备份-20" fill="#E9E9E9" x="285" y="117.5" width="1" height="3"></rect>
                        <rect id="矩形备份-21" fill="#E9E9E9" x="304" y="117.5" width="1" height="3"></rect>
                        <rect id="矩形备份-22" fill="#E9E9E9" x="322" y="117.5" width="1" height="3"></rect>
                        <rect id="矩形备份-23" fill="#E9E9E9" x="343" y="117.5" width="1" height="3"></rect>
                        <rect id="矩形" fill="#E9E9E9" x="0" y="102.5" width="3" height="1"></rect>
                        <rect id="矩形备份" fill="#E9E9E9" x="0" y="79.5" width="3" height="1"></rect>
                        <rect id="矩形备份-3" fill="#E9E9E9" x="0" y="56.5" width="3" height="1"></rect>
                        <rect id="矩形备份-4" fill="#E9E9E9" x="0" y="33.5" width="3" height="1"></rect>
                        <rect id="矩形备份-5" fill="#E9E9E9" x="0" y="10.5" width="3" height="1"></rect>
                    </g>
                    <path d="M9,80.5 L18.8085938,58.8691406 C30.6302083,45.1152344 39.0273438,45.1152344 44,58.8691406 C48.9726563,72.6230469 52.7389323,83.2770182 55.2988281,90.8310547 C60.6347656,106.580729 65.6891276,107.133138 70.4619141,92.4882812 C77.6210938,70.5209961 75.3300781,68.8232422 79.1650391,60.5898437 C83,52.3564453 96.5537109,42 104.132813,56 C108.830078,71 109.585938,76.3476562 109.585938,82 C109.585938,87.6523437 113.251953,103 120,102 C124.498698,101.333333 127.165365,96.0872396 128,86.2617187 L131.380859,60.5898437 C137.460286,44.2220052 146,42.358724 157,55 C166.879883,75.8430844 163.447266,75.7382813 167.072266,81 C170.697266,86.2617187 177.640625,103.816406 184,99 C188.239583,95.7890625 190.90625,88.7890625 192,78 C193.636068,58.9960938 197.953451,48.4202474 204.952148,46.2724609 C215.450195,43.0507813 224.717773,37.1748047 229.5,60.5898437 C234.282227,84.0048828 230.316406,99 238,99 C245.683594,99 256.210938,88.4121094 258,74.5009766 C259.789063,60.5898437 263.603516,49.859375 263.603516,46.2724609 C263.603516,43.8811849 264.402344,39.1236979 266,32 C268.485677,27.6419271 270.972005,27.6419271 273.458984,32 C277.189453,38.5371094 275.179688,40.9628906 279.151367,42.8808594 C283.123047,44.7988281 290,51.078125 292.5,68.6699219 C295,86.2617187 295.958008,95.4023438 302.640625,95.4023438 C309.323242,95.4023438 308.590643,93.982676 315.25293,79.5 C321.915216,65.017324 319,56.0166016 323,51.1445313 C327,46.2724609 332.119141,29.8867187 344,40.515625 C343.666667,50.5052083 343.666667,57.1966146 344,60.5898437 C341.942057,59.0110677 339.775391,63.2285156 337.5,73.2421875 C334.086914,88.2626953 324.008789,120.871094 315.25293,124 C306.49707,127.128906 294.249023,137.513672 287.405273,117.389648 C282.842773,103.973633 279.641602,91.84375 277.801758,81 L275,68.6699219 C273.389811,62.1360677 271.73877,62.1360677 270.046875,68.6699219 C266.5,83.3808594 264.64502,85.177002 262.534424,89.3583984 C261.12736,92.1459961 260.104248,92.9567057 259.465088,91.7905273 C257.73055,89.7275391 256.709066,90.1248372 256.400635,92.9824219 C256.092204,95.8400065 255.87557,98.0206706 255.750732,99.5244141 C252.949951,108.846029 250.366374,114.566081 248,116.68457 C244.450439,119.862305 237.037842,126.840332 229.5,116.237549 C224.474772,109.169027 221.495361,100.854736 220.561768,91.2946777 C217.153076,77.4813639 213.197347,73.5498047 208.69458,79.5 C204.191813,85.4501953 201.334717,93.8436686 200.123291,104.68042 C197.247803,118.571208 192.091715,125.629476 184.655029,125.855225 C173.5,126.193848 171.234863,102 171.568604,102 C171.902344,102 169.567871,95.6665039 168.668701,94.7512207 C167.769531,93.8359375 166.112793,91.0146484 166.112793,89.3583984 C166.112793,87.7021484 162.619629,80.2912598 161.778076,89.3583984 C161.217041,95.4031576 158.066243,92.9503581 152.325684,82 C148.602214,74.6783854 145.711833,74.6783854 143.654541,82 C140.568604,92.9824219 142.978142,109.386521 139.8396,114.733154 C136.701057,120.079788 128.414063,138.477051 119,124 C109.585938,109.522949 102.850098,106.421875 102.419434,100.05127 C101.98877,93.6806641 93.7255859,70.2434082 90.1210938,92.4882812 C87.718099,107.318197 84.6795247,116.229818 81.0053711,119.223145 C69.3566081,131.732259 58.5406087,131.233887 48.557373,117.728027 C41.5964355,104.337077 38.1159668,95.9238281 38.1159668,92.4882812 C37.6490072,78.8616536 34.9686686,72.3219401 30.0749512,72.8691406 C25.1812337,73.4163411 21.1813965,80.9274089 18.0754395,95.4023438 C16.2253418,101.134115 12.866862,103.166667 8,101.5 C8,95.8216146 8,89.173584 8,81.5559082 L9,80.5 Z" id="路径-27" fill-opacity="0.6" fill="#CBE4FF"></path>
                    <path d="M8.5,89.7890625 C11.2832031,90.5292969 13.4498698,88.3958333 15,83.3886719 C17.3251953,75.8779297 24.3251953,60.6040039 27,59.8334961 C29.6748047,59.0629883 36.7133789,53.2792969 39.4301758,65.8896484 C41.2413737,74.2965495 44.8051758,88.120931 50.121582,107.362793 C57.2062174,117.964355 63.4931641,120.38916 68.9824219,114.637207 C74.4716797,108.885254 77.891276,101.668783 79.2412109,92.987793 L83.9956055,64.5610352 C90.0050456,51.8208008 95.1733398,52.2636719 99.5004883,65.8896484 C103.827637,79.515625 105.958822,88.5483398 105.894043,92.987793 C109.17041,106.70752 113.872396,113.2111 120,112.498535 C126.127604,111.78597 130.584961,107.017904 133.37207,98.1943359 C133.240234,84.3805339 133.576335,75.5429687 134.380371,71.6816406 C135.586426,65.8896484 138.798828,51.347168 146.643555,54.871582 C154.488281,58.3959961 159.847656,67.71875 159.847656,71 C159.847656,74.28125 164.151367,82.5 165.492676,81 M177.516602,95.784668 C179.039388,104.530436 180.500651,109.37793 181.900391,110.327148 C184,111.750977 191,111.805664 192,105.402832 C192.666667,101.134277 195.215332,89.3237305 199.645996,69.9711914 C203.469238,59.9552409 205.943197,54.5167643 207.067871,53.6557617 C208.192546,52.7947591 208.911621,49.7358398 209.225098,44.4790039 M212.480469,43.1875 C211.932943,47.2587891 211.932943,49.5724284 212.480469,50.128418 C213.301758,50.9624023 217.01709,49.0336914 219.914551,55.6166992 C222.812012,62.199707 231.118652,95.7885742 231.118652,100.595703 C231.118652,105.402832 236.049805,114.669922 238,112.498535 C239.30013,111.050944 241.65153,105.839681 245.054199,96.8647461 M263.441895,79.1006263 C263.441895,76.7752404 263.999023,71.627115 265.113281,63.65625 L265.113281,52.9619141 C265.690104,46.8326823 265.978516,43.2701823 265.978516,42.2744141 C265.978516,40.7807617 268.043457,30.5610352 268.043457,33.5532227 C268.043457,36.5454102 268.043457,41.1347656 268.043457,43.1875 C268.043457,45.2402344 268.507324,50.128418 269.275391,50.128418 C270.043457,50.128418 271.435059,46.8432617 275,48.4858398 C278.564941,50.128418 282.544922,52.9716797 283.772461,58.3139648 C285,63.65625 288.480957,87.5932617 289.596191,89.128418 C290.711426,90.6635742 294.150879,109.080566 298.125977,110.327148 C302.101074,111.57373 307.882812,116.884766 309.941406,110.327148 C312,103.769531 317.165039,98.246582 319.58252,87.8076172 C322,77.3686523 322.830566,63.3525391 325.235352,59.8334961 C327.640137,56.3144531 333.412598,39.5126953 343.5,50.9082031" id="形状" stroke="#1890FF" stroke-width="1.5" stroke-linecap="round" stroke-linejoin="round"></path>
                    <path d="M165.492676,81 C166.833984,79.5 170.722168,81 170.722168,81 C170.722168,81 170.901367,84.7773438 172.200684,83.3886719 C173.5,82 175,80.7774694 175.5,83.3886719 C176,85.9998744 174.208496,87.8076172 176,87.8076172 C177.194336,87.8076172 177.69987,90.4666341 177.516602,95.784668 M209.225098,44.4790039 C209.908691,37.1951497 210.500326,33.5532227 211,33.5532227 C211.499674,33.5532227 211.993164,36.7646484 212.480469,43.1875 M245.054199,96.8647461 C245.473145,93.7657878 245.922526,91.6987305 246.402344,90.6635742 C247.12207,89.1108398 247.571289,84.6582031 249,84.6582031 C250.428711,84.6582031 252.667969,85.5439453 252.667969,85.5439453 C252.667969,85.5439453 253.70931,84.8255208 255.791992,83.3886719 C257.263997,81.5371094 258,81.0742187 258,82 C258,83.3886719 263.441895,82.5887051 263.441895,79.1006263" id="形状" stroke="#FF9D9D" stroke-width="1.5"></path>
                </g>
            </g>
            <g id="标题" transform="translate(16.000000, 18.000000)" fill="#000000" fill-opacity="0.85" font-family="PingFangSC-Medium, PingFang SC" font-size="14" font-weight="400" line-spacing="20">
                <text id="DW-Tima-detect-defau">
                    <tspan x="0" y="15">DW Tima detect default</tspan>
                </text>
            </g>
        </g>
    </g>
</svg>