<?xml version="1.0" encoding="UTF-8"?>
<svg width="392px" height="248px" viewBox="0 0 392 248" version="1.1" xmlns="http://www.w3.org/2000/svg" xmlns:xlink="http://www.w3.org/1999/xlink">
    <title>模块备份 17</title>
    <defs>
        <path d="M2,0 L382,0 C383.104569,-2.02906125e-16 384,0.8954305 384,2 L384,238 C384,239.104569 383.104569,240 382,240 L2,240 C0.8954305,240 1.3527075e-16,239.104569 0,238 L0,2 C-1.3527075e-16,0.8954305 0.8954305,2.02906125e-16 2,0 Z" id="path-1"></path>
        <filter x="-1.8%" y="-2.1%" width="103.6%" height="105.8%" filterUnits="objectBoundingBox" id="filter-2">
            <feOffset dx="0" dy="2" in="SourceAlpha" result="shadowOffsetOuter1"></feOffset>
            <feGaussianBlur stdDeviation="2" in="shadowOffsetOuter1" result="shadowBlurOuter1"></feGaussianBlur>
            <feColorMatrix values="0 0 0 0 0.12334826   0 0 0 0 0.156873573   0 0 0 0 0.212749094  0 0 0 0.0649311626 0" type="matrix" in="shadowBlurOuter1"></feColorMatrix>
        </filter>
    </defs>
    <g id="页面-1" stroke="none" stroke-width="1" fill="none" fill-rule="evenodd">
        <g id="模块备份-17" transform="translate(4.000000, 2.000000)">
            <g id="背景板">
                <use fill="black" fill-opacity="1" filter="url(#filter-2)" xlink:href="#path-1"></use>
                <use fill="#FFFFFF" fill-rule="evenodd" xlink:href="#path-1"></use>
            </g>
            <g id="编组-6" transform="translate(16.000000, 46.000000)">
                <rect id="实际区域" fill="#FF5656" opacity="0" x="0" y="0" width="352" height="178"></rect>
                <g id="图表" transform="translate(0.000000, 17.000000)">
                    <g id="编组-2" transform="translate(15.000000, 22.000000)" fill="#F4FCFF">
                        <rect id="矩形" x="0" y="0" width="20" height="118"></rect>
                        <rect id="矩形备份-24" x="38" y="0" width="20" height="118"></rect>
                        <rect id="矩形备份-25" x="76" y="0" width="20" height="118"></rect>
                        <rect id="矩形备份-26" x="113" y="0" width="20" height="118"></rect>
                        <rect id="矩形备份-27" x="149" y="0" width="20" height="118"></rect>
                        <rect id="矩形备份-28" x="186" y="0" width="20" height="118"></rect>
                        <rect id="矩形备份-29" x="223" y="0" width="20" height="118"></rect>
                        <rect id="矩形备份-30" x="260" y="0" width="20" height="118"></rect>
                        <rect id="矩形备份-31" x="297" y="0" width="20" height="118"></rect>
                    </g>
                    <text id="time" font-family="PingFangSC-Regular, PingFang SC" font-size="10" font-weight="normal" fill="#000000" fill-opacity="0.45">
                        <tspan x="327" y="154">time</tspan>
                    </text>
                    <text id="figure" font-family="PingFangSC-Regular, PingFang SC" font-size="10" font-weight="normal" fill="#000000" fill-opacity="0.45">
                        <tspan x="0" y="11">figure</tspan>
                    </text>
                    <g id="刻度" transform="translate(0.000000, 21.500000)">
                        <line x1="2.5" y1="0" x2="2.5" y2="118" id="直线" stroke="#E9E9E9" stroke-linecap="square"></line>
                        <line x1="2.5" y1="118" x2="351" y2="118" id="直线-2" stroke="#E9E9E9" stroke-linecap="square"></line>
                        <rect id="矩形" fill="#E9E9E9" x="8" y="117.5" width="1" height="3"></rect>
                        <rect id="矩形备份-6" fill="#E9E9E9" x="25" y="117.5" width="1" height="3"></rect>
                        <rect id="矩形备份-7" fill="#E9E9E9" x="43" y="117.5" width="1" height="3"></rect>
                        <rect id="矩形备份-8" fill="#E9E9E9" x="63" y="117.5" width="1" height="3"></rect>
                        <rect id="矩形备份-9" fill="#E9E9E9" x="82" y="117.5" width="1" height="3"></rect>
                        <rect id="矩形备份-10" fill="#E9E9E9" x="101" y="117.5" width="1" height="3"></rect>
                        <rect id="矩形备份-11" fill="#E9E9E9" x="119" y="117.5" width="1" height="3"></rect>
                        <rect id="矩形备份-12" fill="#E9E9E9" x="138" y="117.5" width="1" height="3"></rect>
                        <rect id="矩形备份-13" fill="#E9E9E9" x="156" y="117.5" width="1" height="3"></rect>
                        <rect id="矩形备份-14" fill="#E9E9E9" x="174" y="117.5" width="1" height="3"></rect>
                        <rect id="矩形备份-15" fill="#E9E9E9" x="192" y="117.5" width="1" height="3"></rect>
                        <rect id="矩形备份-16" fill="#E9E9E9" x="211" y="117.5" width="1" height="3"></rect>
                        <rect id="矩形备份-17" fill="#E9E9E9" x="229" y="117.5" width="1" height="3"></rect>
                        <rect id="矩形备份-18" fill="#E9E9E9" x="248" y="117.5" width="1" height="3"></rect>
                        <rect id="矩形备份-19" fill="#E9E9E9" x="266" y="117.5" width="1" height="3"></rect>
                        <rect id="矩形备份-20" fill="#E9E9E9" x="285" y="117.5" width="1" height="3"></rect>
                        <rect id="矩形备份-21" fill="#E9E9E9" x="304" y="117.5" width="1" height="3"></rect>
                        <rect id="矩形备份-22" fill="#E9E9E9" x="322" y="117.5" width="1" height="3"></rect>
                        <rect id="矩形备份-23" fill="#E9E9E9" x="343" y="117.5" width="1" height="3"></rect>
                        <rect id="矩形" fill="#E9E9E9" x="0" y="102.5" width="3" height="1"></rect>
                        <rect id="矩形备份" fill="#E9E9E9" x="0" y="79.5" width="3" height="1"></rect>
                        <rect id="矩形备份-3" fill="#E9E9E9" x="0" y="56.5" width="3" height="1"></rect>
                        <rect id="矩形备份-4" fill="#E9E9E9" x="0" y="33.5" width="3" height="1"></rect>
                        <rect id="矩形备份-5" fill="#E9E9E9" x="0" y="10.5" width="3" height="1"></rect>
                    </g>
                    <path d="M9,80.0911257 L18.8085938,48.673091 C30.6302083,35.0117263 39.0273438,35.0117263 44,48.673091 C48.9726563,62.3344557 52.7389323,71.9234714 55.2988281,77.4401381 C60.6347656,93.0838427 65.6891276,93.6325348 70.4619141,79.0862142 C77.6210938,57.2667334 75.3300781,58.5602175 79.1650391,50.3822166 C83,42.2042156 96.5537109,31.9174524 104.132813,45.823255 C108.830078,60.7223293 109.585938,61.0676463 109.585938,66.681959 C109.585938,72.2962716 112.251953,80.9873982 119,79.9941266 C123.498698,79.3319455 126.498698,76.305571 128,70.9150032 L131.380859,55.3485746 C137.460286,32.4690544 146,27.3074047 157,39.8636254 C166.879883,60.5664694 170.375,48.2152548 174,53.4415707 C177.625,58.6678866 174.5,65.0328361 182.498047,65.9486451 C187.830078,66.5591845 190.997396,63.0258276 192,55.3485746 C194.56901,39.2174302 199.352865,30.0851904 206.351562,27.951855 C216.849609,24.7518521 221,34.8351878 229.5,51.3754882 C238,67.9157885 233.897461,68.6685022 241.581055,68.6685022 C249.264648,68.6685022 249.476563,74.5398626 251.265625,60.7223293 C253.054687,46.9047959 263.603516,40.7172181 263.603516,37.1544382 C263.603516,34.7792516 264.402344,30.0537748 266,22.9780079 C268.485677,18.6492578 270.972005,18.6492578 273.458984,22.9780079 C277.189453,29.4711331 275.179688,31.8805927 279.151367,33.7856567 C283.123047,35.6907206 290,35.9681382 292.5,53.4415707 C295,70.9150032 295.958008,84.9604846 302.640625,84.9604846 C309.323242,84.9604846 308.590643,83.550369 315.25293,69.165138 C321.915216,54.779907 319,46.8330165 323,41.9937274 C327,37.1544382 332.119141,20.8789456 344,31.4363365 C343.666667,41.3587061 343.666667,49.3294521 344,55.3485746 C341.942057,57.0913266 339.775391,62.9358506 337.5,72.8821466 C334.086914,87.8015907 324.008789,120.190587 315.25293,123.298441 C306.49707,126.406295 294.249023,136.721188 287.405273,116.732566 C282.842773,103.406819 279.641602,91.3585506 277.801758,80.5877616 L275,68.3406449 C273.389811,61.8507531 271.73877,61.8507531 270.046875,68.3406449 C266.5,82.9526016 264.64502,84.736659 262.534424,88.8899215 C261.12736,91.6587631 260.104248,92.464018 259.465088,91.3056861 C257.73055,89.2565784 256.709066,89.6512034 256.400635,92.4895611 C256.092204,95.3279188 255.87557,97.4939105 255.750732,98.9875362 C252.949951,108.246431 250.366374,113.927997 248,116.032232 C244.450439,119.188586 237.037842,126.119662 229.5,115.588219 C224.474772,108.567256 221.495361,100.308908 220.561768,90.8131727 C217.153076,77.0928002 213.197347,73.187694 208.69458,79.0978541 C204.191813,85.0080142 201.334717,93.345013 200.123291,104.10885 C197.247803,117.906176 192.091715,124.916953 184.655029,125.141183 C173.5,125.477528 171.234863,101.446465 171.568604,101.446465 C171.902344,101.446465 169.567871,95.1555836 168.668701,94.2464587 C167.769531,93.3373339 166.112793,90.5350276 166.112793,88.8899215 C166.112793,87.2448154 162.619629,79.88379 161.778076,88.8899215 C161.217041,94.8940091 158.066243,90.4711698 152.325684,75.6214035 C148.602214,65.0381462 145.711833,63.3826935 143.654541,70.6550454 C140.568604,81.5635733 142.978142,108.783287 139.8396,114.093946 C136.701057,119.404605 122.914062,136.358893 113.5,121.97925 C104.085938,107.599606 106,110.855386 102.419434,99.5108468 C98.8388672,88.1663076 93.7255859,69.9035443 90.1210938,91.9987452 C87.718099,106.728879 84.6795247,115.580539 81.0053711,118.553726 C69.3566081,130.978674 58.5406087,130.483655 48.557373,117.068669 C41.5964355,103.767818 38.1159668,95.4111764 38.1159668,91.9987452 C37.6490072,78.4638028 34.9686686,71.968091 30.0749512,72.5116097 C25.1812337,73.0551285 21.1813965,80.5156588 18.0754395,94.8932008 C16.2253418,100.586406 12.866862,102.605282 8,100.94983 C8,95.3096506 8,88.7063505 8,81.1399294 L9,80.0911257 Z" id="路径-27" fill-opacity="0.6" fill="#CBE4FF"></path>
                    <path d="M9.5,93.7890625 C12.2832031,94.5292969 14.4498698,92.3958333 16,87.3886719 C18.3251953,79.8779297 25.3251953,64.6040039 28,63.8334961 C30.6748047,63.0629883 37.7133789,57.2792969 40.4301758,69.8896484 C42.2413737,78.2965495 45.8051758,92.120931 51.121582,111.362793 C58.2062174,121.964355 64.4931641,124.38916 69.9824219,118.637207 C75.4716797,112.885254 78.891276,105.668783 80.2412109,96.987793 L84.9956055,68.5610352 C91.0050456,55.8208008 96.1733398,56.2636719 100.500488,69.8896484 C104.827637,83.515625 106.958822,92.5483398 106.894043,96.987793 C110.17041,110.70752 114.872396,117.2111 121,116.498535 C127.127604,115.78597 131.584961,111.017904 134.37207,102.194336 C134.240234,88.3805339 134.576335,79.5429687 135.380371,75.6816406 C136.586426,69.8896484 139.798828,55.347168 147.643555,58.871582 C155.488281,62.3959961 160.847656,71.71875 160.847656,75 C160.847656,78.28125 165.151367,86.5 166.492676,85 C167.833984,83.5 171.722168,85 171.722168,85 C171.722168,85 171.901367,88.7773438 173.200684,87.3886719 C174.5,86 176,84.7774694 176.5,87.3886719 C177,89.9998744 175.208496,91.8076172 177,91.8076172 C178.194336,91.8076172 178.69987,94.4666341 178.516602,99.784668 C180.039388,108.530436 181.500651,113.37793 182.900391,114.327148 C185,115.750977 192,115.805664 193,109.402832 C193.666667,105.134277 196.215332,93.3237305 200.645996,73.9711914 C204.469238,63.9552409 206.943197,58.5167643 208.067871,57.6557617 C209.192546,56.7947591 209.911621,53.7358398 210.225098,48.4790039 C210.908691,42.6303711 211.500326,39.7060547 212,39.7060547 C212.499674,39.7060547 212.993164,42.1998698 213.480469,47.1875 C212.932943,51.2587891 212.932943,53.5724284 213.480469,54.128418 C214.301758,54.9624023 218.01709,53.0336914 220.914551,59.6166992 C223.812012,66.199707 232.118652,99.7885742 232.118652,104.595703 C232.118652,109.402832 237.049805,118.669922 239,116.498535 C240.30013,115.050944 242.65153,109.839681 246.054199,100.864746 C246.473145,97.7657878 246.922526,95.6987305 247.402344,94.6635742 C248.12207,93.1108398 248.571289,88.6582031 250,88.6582031 C251.428711,88.6582031 253.667969,89.5439453 253.667969,89.5439453 C253.667969,89.5439453 254.70931,88.8255208 256.791992,87.3886719 C258.263997,85.5371094 259,85.0742187 259,86 C259,87.3886719 264.441895,86.5887051 264.441895,83.1006263 C264.441895,80.7752404 264.999023,75.627115 266.113281,67.65625 L266.113281,56.9619141 C266.690104,50.8326823 266.978516,47.2701823 266.978516,46.2744141 C266.978516,44.7807617 269.043457,34.5610352 269.043457,37.5532227 C269.043457,40.5454102 269.043457,45.1347656 269.043457,47.1875 C269.043457,49.2402344 269.507324,54.128418 270.275391,54.128418 C271.043457,54.128418 272.435059,50.8432617 276,52.4858398 C279.564941,54.128418 283.544922,56.9716797 284.772461,62.3139648 C286,67.65625 289.480957,91.5932617 290.596191,93.128418 C291.711426,94.6635742 295.150879,113.080566 299.125977,114.327148 C303.101074,115.57373 308.882812,120.884766 310.941406,114.327148 C313,107.769531 318.165039,102.246582 320.58252,91.8076172 C323,81.3686523 323.830566,67.3525391 326.235352,63.8334961 C328.640137,60.3144531 332.912598,37.0834961 343,48.4790039" id="路径-28" stroke="#1890FF" stroke-width="1.5" stroke-linecap="round" stroke-linejoin="round"></path>
                </g>
            </g>
            <g id="标题" transform="translate(16.000000, 18.000000)" fill="#000000" fill-opacity="0.85" font-family="PingFangSC-Medium, PingFang SC" font-size="14" font-weight="400" line-spacing="20">
                <text id="DW-Tima对上边界不敏感">
                    <tspan x="0" y="15">DW Tima对上边界不敏感</tspan>
                </text>
            </g>
        </g>
    </g>
</svg>