<?xml version="1.0" encoding="UTF-8"?>
<svg width="392px" height="248px" viewBox="0 0 392 248" version="1.1" xmlns="http://www.w3.org/2000/svg" xmlns:xlink="http://www.w3.org/1999/xlink">
    <title>模块备份 16</title>
    <defs>
        <path d="M2,0 L382,0 C383.104569,-2.02906125e-16 384,0.8954305 384,2 L384,238 C384,239.104569 383.104569,240 382,240 L2,240 C0.8954305,240 1.3527075e-16,239.104569 0,238 L0,2 C-1.3527075e-16,0.8954305 0.8954305,2.02906125e-16 2,0 Z" id="path-1"></path>
        <filter x="-1.8%" y="-2.1%" width="103.6%" height="105.8%" filterUnits="objectBoundingBox" id="filter-2">
            <feOffset dx="0" dy="2" in="SourceAlpha" result="shadowOffsetOuter1"></feOffset>
            <feGaussianBlur stdDeviation="2" in="shadowOffsetOuter1" result="shadowBlurOuter1"></feGaussianBlur>
            <feColorMatrix values="0 0 0 0 0.12334826   0 0 0 0 0.156873573   0 0 0 0 0.212749094  0 0 0 0.0649311626 0" type="matrix" in="shadowBlurOuter1"></feColorMatrix>
        </filter>
    </defs>
    <g id="页面-1" stroke="none" stroke-width="1" fill="none" fill-rule="evenodd">
        <g id="模块备份-16" transform="translate(4.000000, 2.000000)">
            <g id="背景板">
                <use fill="black" fill-opacity="1" filter="url(#filter-2)" xlink:href="#path-1"></use>
                <use fill="#FFFFFF" fill-rule="evenodd" xlink:href="#path-1"></use>
            </g>
            <g id="编组-6" transform="translate(16.000000, 46.000000)">
                <rect id="实际区域" fill="#FF5656" opacity="0" x="0" y="0" width="352" height="178"></rect>
                <g id="图表" transform="translate(0.000000, 17.000000)">
                    <g id="编组-2" transform="translate(15.000000, 22.000000)" fill="#F4FCFF">
                        <rect id="矩形" x="0" y="0" width="20" height="118"></rect>
                        <rect id="矩形备份-24" x="38" y="0" width="20" height="118"></rect>
                        <rect id="矩形备份-25" x="76" y="0" width="20" height="118"></rect>
                        <rect id="矩形备份-26" x="113" y="0" width="20" height="118"></rect>
                        <rect id="矩形备份-27" x="149" y="0" width="20" height="118"></rect>
                        <rect id="矩形备份-28" x="186" y="0" width="20" height="118"></rect>
                        <rect id="矩形备份-29" x="223" y="0" width="20" height="118"></rect>
                        <rect id="矩形备份-30" x="260" y="0" width="20" height="118"></rect>
                        <rect id="矩形备份-31" x="297" y="0" width="20" height="118"></rect>
                    </g>
                    <text id="time" font-family="PingFangSC-Regular, PingFang SC" font-size="10" font-weight="normal" fill="#000000" fill-opacity="0.45">
                        <tspan x="327" y="154">time</tspan>
                    </text>
                    <text id="figure" font-family="PingFangSC-Regular, PingFang SC" font-size="10" font-weight="normal" fill="#000000" fill-opacity="0.45">
                        <tspan x="0" y="11">figure</tspan>
                    </text>
                    <g id="刻度" transform="translate(0.000000, 21.500000)">
                        <line x1="2.5" y1="0" x2="2.5" y2="118" id="直线" stroke="#E9E9E9" stroke-linecap="square"></line>
                        <line x1="2.5" y1="118" x2="351" y2="118" id="直线-2" stroke="#E9E9E9" stroke-linecap="square"></line>
                        <rect id="矩形" fill="#E9E9E9" x="8" y="117.5" width="1" height="3"></rect>
                        <rect id="矩形备份-6" fill="#E9E9E9" x="25" y="117.5" width="1" height="3"></rect>
                        <rect id="矩形备份-7" fill="#E9E9E9" x="43" y="117.5" width="1" height="3"></rect>
                        <rect id="矩形备份-8" fill="#E9E9E9" x="63" y="117.5" width="1" height="3"></rect>
                        <rect id="矩形备份-9" fill="#E9E9E9" x="82" y="117.5" width="1" height="3"></rect>
                        <rect id="矩形备份-10" fill="#E9E9E9" x="101" y="117.5" width="1" height="3"></rect>
                        <rect id="矩形备份-11" fill="#E9E9E9" x="119" y="117.5" width="1" height="3"></rect>
                        <rect id="矩形备份-12" fill="#E9E9E9" x="138" y="117.5" width="1" height="3"></rect>
                        <rect id="矩形备份-13" fill="#E9E9E9" x="156" y="117.5" width="1" height="3"></rect>
                        <rect id="矩形备份-14" fill="#E9E9E9" x="174" y="117.5" width="1" height="3"></rect>
                        <rect id="矩形备份-15" fill="#E9E9E9" x="192" y="117.5" width="1" height="3"></rect>
                        <rect id="矩形备份-16" fill="#E9E9E9" x="211" y="117.5" width="1" height="3"></rect>
                        <rect id="矩形备份-17" fill="#E9E9E9" x="229" y="117.5" width="1" height="3"></rect>
                        <rect id="矩形备份-18" fill="#E9E9E9" x="248" y="117.5" width="1" height="3"></rect>
                        <rect id="矩形备份-19" fill="#E9E9E9" x="266" y="117.5" width="1" height="3"></rect>
                        <rect id="矩形备份-20" fill="#E9E9E9" x="285" y="117.5" width="1" height="3"></rect>
                        <rect id="矩形备份-21" fill="#E9E9E9" x="304" y="117.5" width="1" height="3"></rect>
                        <rect id="矩形备份-22" fill="#E9E9E9" x="322" y="117.5" width="1" height="3"></rect>
                        <rect id="矩形备份-23" fill="#E9E9E9" x="343" y="117.5" width="1" height="3"></rect>
                        <rect id="矩形" fill="#E9E9E9" x="0" y="102.5" width="3" height="1"></rect>
                        <rect id="矩形备份" fill="#E9E9E9" x="0" y="79.5" width="3" height="1"></rect>
                        <rect id="矩形备份-3" fill="#E9E9E9" x="0" y="56.5" width="3" height="1"></rect>
                        <rect id="矩形备份-4" fill="#E9E9E9" x="0" y="33.5" width="3" height="1"></rect>
                        <rect id="矩形备份-5" fill="#E9E9E9" x="0" y="10.5" width="3" height="1"></rect>
                    </g>
                    <path d="M9,70.5 L18.8085938,58.8691406 C29.6028646,41.6686198 38,39.0019531 44,50.8691406 C50,62.7363281 53,69.2799479 53,70.5 C57.6666667,78.8333333 63.4873047,79.8294271 70.4619141,73.4882812 C80.9238281,63.9765625 75.3300781,60.8232422 79.1650391,52.5898437 C83,44.3564453 96.5537109,34 104.132813,48 C108.830078,63 109.585938,57.3476562 109.585938,63 C109.585938,68.6523437 112.251953,76.4023437 119,75.4023438 C123.498698,74.7356771 126.498698,72.0221354 128,67.2617187 L131.380859,50.5898437 C137.460286,34.2220052 146,32.358724 157,45 C166.879883,65.8430844 163.447266,52.7382813 167.072266,58 C170.697266,63.2617187 177.325439,67.8164062 183.684814,63 C187.924398,59.7890625 190.696126,58.1223958 192,58 C193.636068,40.3294271 197.953451,30.4202474 204.952148,28.2724609 C215.450195,25.0507813 224.717773,27.1748047 229.5,50.5898437 C234.282227,74.0048828 230.316406,59 238,59 C245.683594,59 256.210938,68.4121094 258,54.5009766 C259.789063,40.5898437 263.603516,35.859375 263.603516,32.2724609 C263.603516,29.8811849 264.402344,28.4570313 266,28 C268.485677,23.6419271 270.972005,23.6419271 273.458984,28 C277.189453,34.5371094 275.179688,31.9628906 279.151367,33.8808594 C283.123047,35.7988281 290,37.078125 292.5,54.6699219 C295,72.2617187 295.958008,71.4023437 302.640625,71.4023437 C309.323242,71.4023437 308.590643,69.982676 315.25293,55.5 C321.915216,41.017324 319,46.0166016 323,41.1445313 C327,36.2724609 332.119141,29.8867187 344,40.515625 C343.666667,50.5052083 343.666667,63.8632812 344,80.5898437 C341.942057,83.0110677 339.775391,89.2285156 337.5,99.2421875 C334.086914,114.262695 324.008789,126.871094 315.25293,130 C306.49707,133.128906 294.544922,138.291016 287.405273,123.389648 C282.645508,113.455404 280.821126,109.667887 281.932129,112.0271 L279.151367,111.402344 C278.124023,110.289063 276.472982,110.289063 274.198242,111.402344 C270.651367,126.113281 264.767578,116.56543 262.534424,117.358398 C261.045654,117.887044 260.022542,118.031087 259.465088,117.790527 C257.422119,118.031087 256.400635,118.428385 256.400635,118.982422 C256.400635,119.536458 256.184001,119.050456 255.750732,117.524414 C252.949951,118.846029 250.366374,120.566081 248,122.68457 C244.450439,125.862305 237.037842,132.840332 229.5,122.237549 C224.474772,115.169027 221.495361,110.18807 220.561768,107.294678 C217.153076,100.148031 213.197347,99.5498047 208.69458,105.5 C204.191813,111.450195 201.334717,116.510335 200.123291,120.68042 C197.247803,131.1132 192.091715,134.838135 184.655029,131.855225 C177.218343,128.872314 172.840975,126.14453 171.522924,123.671872 C170.219556,122.33496 169.268148,121.36141 168.668701,120.751221 C167.769531,119.835938 166.112793,114.014648 166.112793,112.358398 C166.112793,110.702148 162.619629,103.29126 161.778076,112.358398 C161.217041,118.403158 157.958984,119.300781 152.003906,115.05127 C148.280436,107.729655 145.390055,107.729655 143.332764,115.05127 C140.246826,126.033691 142.978142,115.386521 139.8396,120.733154 C136.701057,126.079788 130.927734,139.266846 119,130 C107.072266,120.733154 102.850098,121.421875 102.419434,115.05127 C101.98877,108.680664 91.6660156,98.8691406 90.1210938,108.488281 C89.0911458,114.901042 85.8776042,121.198568 80.4804688,127.380859 C69.1433919,140.886719 58.4832357,140.886719 48.5,127.380859 C41.5390625,113.989909 37.9928385,108.663737 37.8613281,111.402344 C35.5141602,106.586914 31.8937174,104.452799 27,105 C22.1062826,105.547201 19.131429,107.681315 18.0754395,111.402344 C16.2253418,117.134115 12.866862,119.166667 8,117.5 C8,111.821615 8,96.5069173 8,71.5559082 L9,70.5 Z" id="路径-27" fill-opacity="0.6" fill="#CBE4FF"></path>
                    <path d="M8.5,92.6276865 C11.2832031,93.2571945 13.4498698,91.4428605 15,87.1846846 C17.3251953,80.7974207 24.3251953,67.8082123 27,67.1529593 C29.6748047,66.4977062 36.7133789,61.5791559 39.4301758,72.303215 C41.2413737,79.4525878 44.8051758,91.2090789 50.121582,107.572688 C57.2062174,116.588439 63.4931641,118.650534 68.9824219,113.758975 C74.4716797,108.867415 77.891276,102.730404 79.2412109,95.3479417 L83.9956055,71.1733395 C90.0050456,60.3388258 95.1733398,60.715451 99.5004883,72.303215 C103.827637,83.8909791 105.958822,91.5725547 105.894043,95.3479417 C109.17041,107.015432 113.872396,112.546189 120,111.940211 C126.127604,111.334234 130.584961,107.279388 133.37207,99.7756752 C133.240234,88.028181 133.576335,80.5125641 134.380371,77.2288245 C135.586426,72.303215 138.798828,59.9360403 146.643555,62.9332625 C154.488281,65.9304846 159.847656,73.8587144 159.847656,76.6491456 C159.847656,79.4395769 164.151367,86.4289428 165.492676,85.1533171 C166.833984,83.8776914 170.722168,85.1533171 170.722168,85.1533171 C170.722168,85.1533171 170.901367,88.365635 172.200684,87.1846846 C173.5,86.0037342 175,84.9640732 175.5,87.1846846 C176,89.405296 174.208496,90.9426314 176,90.9426314 C177.194336,90.9426314 177.69987,93.203905 177.516602,97.7264522 C179.039388,105.164003 180.500651,109.286395 181.900391,110.093627 C184,111.304475 191,111.350982 192,105.905904 C192.666667,102.275852 195.215332,92.2319602 199.645996,75.7742292 C203.469238,67.2564931 205.943197,62.6315194 207.067871,61.899308 C208.192546,61.1670966 208.911621,58.5657393 209.225098,54.0952358 C209.908691,47.9009214 210.500326,44.8037641 211,44.8037641 C211.499674,44.8037641 211.993164,47.5348157 212.480469,52.9969188 C211.932943,56.4592128 211.932943,58.4267713 212.480469,58.8995944 C213.301758,59.608829 217.01709,57.9686202 219.914551,63.5669229 C222.812012,69.1652256 231.118652,97.7297741 231.118652,101.817839 C231.118652,105.905904 236.049805,113.786796 238,111.940211 C239.30013,110.709155 241.65153,106.277408 245.054199,98.6449692 C245.473145,96.0095619 245.922526,94.2517009 246.402344,93.3713863 C247.12207,92.0509143 247.571289,88.2643157 249,88.2643157 C250.428711,88.2643157 252.667969,89.0175661 252.667969,89.0175661 C252.667969,89.0175661 253.70931,88.4066056 255.791992,87.1846846 C257.263997,85.6100841 258,85.216434 258,86.0037342 C258,87.1846846 263.441895,86.5043791 263.441895,83.5380571 C263.441895,81.5605091 263.999023,77.182455 265.113281,70.4038947 L265.113281,61.3092481 C265.690104,56.0968443 265.978516,53.0672332 265.978516,52.2204148 C265.978516,50.9501873 268.043457,42.2591566 268.043457,44.8037641 C268.043457,47.3483717 268.043457,51.2512383 268.043457,52.9969188 C268.043457,54.7425993 268.507324,58.8995944 269.275391,58.8995944 C270.043457,58.8995944 271.435059,56.1058412 275,57.5027178 C278.564941,58.8995944 282.544922,61.3175529 283.772461,65.8607238 C285,70.4038947 288.480957,90.7603399 289.596191,92.0658631 C290.711426,93.3713863 294.150879,109.033512 298.125977,110.093627 C302.101074,111.153742 307.882812,115.670337 309.941406,110.093627 C312,104.516917 317.165039,99.8201061 319.58252,90.9426314 C322,82.0651568 322.830566,70.1456137 325.235352,67.1529593 C327.640137,64.1603048 333.412598,49.8718019 343.5,59.5627371" id="路径-28" stroke="#1890FF" stroke-width="1.5" stroke-linecap="round" stroke-linejoin="round"></path>
                </g>
            </g>
            <g id="标题" transform="translate(16.000000, 18.000000)" fill="#000000" fill-opacity="0.85" font-family="PingFangSC-Medium, PingFang SC" font-size="14" font-weight="400" line-spacing="20">
                <text id="DW-Tima宽边界">
                    <tspan x="0" y="15">DW Tima宽边界</tspan>
                </text>
            </g>
        </g>
    </g>
</svg>