<?xml version="1.0" encoding="UTF-8"?>
<svg width="392px" height="248px" viewBox="0 0 392 248" version="1.1" xmlns="http://www.w3.org/2000/svg" xmlns:xlink="http://www.w3.org/1999/xlink">
    <title>编组 21</title>
    <defs>
        <path d="M2,0 L382,0 C383.104569,-2.02906125e-16 384,0.8954305 384,2 L384,238 C384,239.104569 383.104569,240 382,240 L2,240 C0.8954305,240 1.3527075e-16,239.104569 0,238 L0,2 C-1.3527075e-16,0.8954305 0.8954305,2.02906125e-16 2,0 Z" id="path-1"></path>
        <filter x="-1.8%" y="-2.1%" width="103.6%" height="105.8%" filterUnits="objectBoundingBox" id="filter-2">
            <feOffset dx="0" dy="2" in="SourceAlpha" result="shadowOffsetOuter1"></feOffset>
            <feGaussianBlur stdDeviation="2" in="shadowOffsetOuter1" result="shadowBlurOuter1"></feGaussianBlur>
            <feColorMatrix values="0 0 0 0 0.12334826   0 0 0 0 0.156873573   0 0 0 0 0.212749094  0 0 0 0.0649311626 0" type="matrix" in="shadowBlurOuter1"></feColorMatrix>
        </filter>
    </defs>
    <g id="页面-1" stroke="none" stroke-width="1" fill="none" fill-rule="evenodd">
        <g id="编组-21" transform="translate(4.000000, 2.000000)">
            <g id="背景板备份-5">
                <use fill="black" fill-opacity="1" filter="url(#filter-2)" xlink:href="#path-1"></use>
                <use fill="#FFFFFF" fill-rule="evenodd" xlink:href="#path-1"></use>
            </g>
            <rect id="实际区域备份-5" fill="#FF5656" opacity="0" x="16" y="44" width="352" height="180"></rect>
            <g id="编组-2备份-6" transform="translate(31.000000, 85.000000)" fill="#F4FCFF">
                <rect id="矩形" x="0" y="0" width="20" height="118"></rect>
                <rect id="矩形备份-24" x="38" y="0" width="20" height="118"></rect>
                <rect id="矩形备份-25" x="76" y="0" width="20" height="118"></rect>
                <rect id="矩形备份-26" x="113" y="0" width="20" height="118"></rect>
                <rect id="矩形备份-27" x="149" y="0" width="20" height="118"></rect>
                <rect id="矩形备份-28" x="186" y="0" width="20" height="118"></rect>
                <rect id="矩形备份-29" x="223" y="0" width="20" height="118"></rect>
                <rect id="矩形备份-30" x="260" y="0" width="20" height="118"></rect>
                <rect id="矩形备份-31" x="297" y="0" width="20" height="118"></rect>
            </g>
            <text id="time备份-6" font-family="PingFangSC-Regular, PingFang SC" font-size="10" font-weight="normal" fill="#000000" fill-opacity="0.45">
                <tspan x="343" y="217">time</tspan>
            </text>
            <text id="figure备份-6" font-family="PingFangSC-Regular, PingFang SC" font-size="10" font-weight="normal" fill="#000000" fill-opacity="0.45">
                <tspan x="16" y="74">figure</tspan>
            </text>
            <g id="刻度备份-5" transform="translate(16.000000, 84.500000)">
                <line x1="2.5" y1="0" x2="2.5" y2="118" id="直线" stroke="#E9E9E9" stroke-linecap="square"></line>
                <line x1="2.5" y1="118" x2="351" y2="118" id="直线-2" stroke="#E9E9E9" stroke-linecap="square"></line>
                <rect id="矩形" fill="#E9E9E9" x="8" y="117.5" width="1" height="3"></rect>
                <rect id="矩形备份-6" fill="#E9E9E9" x="25" y="117.5" width="1" height="3"></rect>
                <rect id="矩形备份-7" fill="#E9E9E9" x="43" y="117.5" width="1" height="3"></rect>
                <rect id="矩形备份-8" fill="#E9E9E9" x="63" y="117.5" width="1" height="3"></rect>
                <rect id="矩形备份-9" fill="#E9E9E9" x="82" y="117.5" width="1" height="3"></rect>
                <rect id="矩形备份-10" fill="#E9E9E9" x="101" y="117.5" width="1" height="3"></rect>
                <rect id="矩形备份-11" fill="#E9E9E9" x="119" y="117.5" width="1" height="3"></rect>
                <rect id="矩形备份-12" fill="#E9E9E9" x="138" y="117.5" width="1" height="3"></rect>
                <rect id="矩形备份-13" fill="#E9E9E9" x="156" y="117.5" width="1" height="3"></rect>
                <rect id="矩形备份-14" fill="#E9E9E9" x="174" y="117.5" width="1" height="3"></rect>
                <rect id="矩形备份-15" fill="#E9E9E9" x="192" y="117.5" width="1" height="3"></rect>
                <rect id="矩形备份-16" fill="#E9E9E9" x="211" y="117.5" width="1" height="3"></rect>
                <rect id="矩形备份-17" fill="#E9E9E9" x="229" y="117.5" width="1" height="3"></rect>
                <rect id="矩形备份-18" fill="#E9E9E9" x="248" y="117.5" width="1" height="3"></rect>
                <rect id="矩形备份-19" fill="#E9E9E9" x="266" y="117.5" width="1" height="3"></rect>
                <rect id="矩形备份-20" fill="#E9E9E9" x="285" y="117.5" width="1" height="3"></rect>
                <rect id="矩形备份-21" fill="#E9E9E9" x="304" y="117.5" width="1" height="3"></rect>
                <rect id="矩形备份-22" fill="#E9E9E9" x="322" y="117.5" width="1" height="3"></rect>
                <rect id="矩形备份-23" fill="#E9E9E9" x="343" y="117.5" width="1" height="3"></rect>
                <rect id="矩形" fill="#E9E9E9" x="0" y="102.5" width="3" height="1"></rect>
                <rect id="矩形备份" fill="#E9E9E9" x="0" y="79.5" width="3" height="1"></rect>
                <rect id="矩形备份-3" fill="#E9E9E9" x="0" y="56.5" width="3" height="1"></rect>
                <rect id="矩形备份-4" fill="#E9E9E9" x="0" y="33.5" width="3" height="1"></rect>
                <rect id="矩形备份-5" fill="#E9E9E9" x="0" y="10.5" width="3" height="1"></rect>
            </g>
            <path d="M19,183.862979 L21.0780256,171.548722 C21.6926752,170.355491 23,169.758876 25,169.758876 C27,169.758876 28,171.119159 28,173.839726 C28.973928,171.119159 29.973928,169.758876 31,169.758876 C32.026072,169.758876 33.4592303,169.374764 35.299475,168.606541 C37.6202184,141.178319 39.5203934,127.464209 41,127.464209 C43.2194099,127.464209 47.9341035,126.965407 48.9341035,129.231032 C49.9341035,131.496658 49.9829945,158.287635 49.9829945,160.401735 C49.9829945,162.515835 48.9341035,165 51,168.606541 C53.0658965,172.213082 53.1189677,169.758876 53.1189677,169.758876 C53.1189677,169.758876 53.8711511,134.499915 55.1063721,129.95459 C56.3415931,125.409264 65.1349003,129.231032 65.1349003,132 C65.1349003,134.768968 67.9369238,166.816694 67.9369238,168.606541 C67.9369238,170.396388 67.2807781,173.839726 69,171.548722 C70.7192219,169.257719 70.2493264,167.969029 72.1823608,169.758876 C74.1153952,171.548722 71.408736,131.115625 74.2989153,129.231032 C77.1890945,127.34644 81.5447162,125.749761 83.0200344,132 C84.4953527,138.250239 82.7799204,165.66436 85.1260536,168.606541 C87.4721867,171.548722 89,169.270416 89,171.548722 C91.7205669,169.758876 88.0885147,132 91.5932164,129.231032 C95.0979182,126.462065 99.7869897,125.418798 101.594149,129.95459 C102.798921,132.978451 103.374263,146.246546 103.320174,169.758876 C104.818806,171.286212 106.045415,172.646495 107,173.839726 C108.431877,175.629573 106.207056,173.660449 108.068497,171.548722 C109.929938,169.436995 104.490571,127.060151 113.828842,127.464209 C123.167112,127.868266 120.52151,172.049879 122.168169,169.758876 C123.814828,167.467872 129.578479,185.581747 131.635493,185.581747 C133.692508,185.581747 136.665867,180.45965 138.885277,182.161315 C141.104686,183.862979 141.637402,180.908819 144,180.908819 C146.362598,180.908819 145.5,128 154.5,128 C160.5,128 163.003365,138.800578 162.010096,160.401735 L166.313407,173.839726 C171.784437,139.972758 175.102959,122.514252 176.268975,121.464209 C178.017999,119.889143 183.786331,128.068759 183.786331,129.868266 C183.786331,131.667773 183.786331,165.202262 183.786331,167.480569 C183.786331,168.99944 183.786331,171.119159 183.786331,173.839726 C185.231727,171.575573 186.413745,170.215289 187.332384,169.758876 C188.251023,169.302462 189.806895,169.302462 192,169.758876 C188.888256,140.586292 191.19958,126 198.933971,126 C206.668363,126 209.690373,135.620988 208,154.862963 C207.333333,165.986803 207.333333,171.548722 208,171.548722 C209,171.548722 211.979453,167.969029 211.979453,169.758876 C211.979453,170.952107 211.979453,172.31239 211.979453,173.839726 L215.344365,169.758876 C215.344365,167.99411 215.344365,166.407818 215.344365,165 C215.344365,162.888273 215.344365,131.278694 223.047541,129.868266 C230.750716,128.457838 227.874065,173.338569 229.663911,171.548722 C231.453758,169.758876 233.816373,167.969029 233.816373,169.758876 C233.816373,171.548722 234.885681,172.037183 237,169.758876 C238.409546,168.240005 239.286823,170.944986 239.63183,177.873819 C239.080053,145.445295 241.897611,129.363204 248.084505,129.627547 C253.870795,129.874774 252.343647,157.220873 255.461722,169.758876 C257.001754,175.951453 260.302439,184.807791 267.081087,183.862979 C268.438082,183.673841 270.304355,175.282729 273,171.548722 C273.843526,170.380271 275.224719,171.143939 277.143579,173.839726 C279.193225,157.374159 281.812032,149.141375 285,149.141375 C288.187968,149.141375 290.521301,156.610491 292,171.548722 C292.333333,171.548722 292.666667,173.016299 293,175.951453 C293.052594,149.397569 294.807925,136.120627 298.265993,136.120627 C303.453094,136.120627 307.43089,173.839726 309.435519,173.839726 C309.937959,173.839726 309.435519,170.081157 309.435519,169.758876 C309.435519,165 308.474871,164.824799 309.435519,162.515835 C310.388694,160.224831 305.11497,127.409264 314.175244,127.409264 C320.582818,127.409264 322.857737,141.525801 321,169.758876 L322,173.839726 C320.003689,176.956552 320.67126,177.388745 324.002713,175.136306 C326.063115,173.743241 322.629274,160.904537 324.002713,151.30093 C325.960332,137.612511 326.317009,127.392769 328,126 C329.90917,124.420055 332.384844,128.714986 335.427022,138.884791 C335.018436,162.188081 335.448677,173.839726 336.717745,173.839726 C337.986813,173.839726 338.747564,175.184424 339,177.873819 C340.037642,144.230782 342.169142,127.409264 345.3945,127.409264 C348.619857,127.409264 352.097595,145.242449 355.827713,180.908819 C358.609238,184.024104 360.753543,185.581747 362.260628,185.581747 C363.767714,185.581747 365.347504,185.581747 367,185.581747 C367.832749,188.729515 366.832749,190.303398 364,190.303398 C359.750876,190.303398 350.417106,189.459186 350.417106,190 C350.417106,190.360543 347.944738,190.749233 343,191.166069 C340,191.166069 337.475674,191.166069 335.427022,191.166069 C332.354043,191.166069 328.097811,190 329.520634,190 C330.469183,190 329.056467,190.101133 325.282488,190.303398 L321,190 L316.296974,190 C315.549154,188 314.841911,187 314.175244,187 C313.175244,187 312.144843,187.484396 309.435519,190 C307.629303,191.67707 305.150796,191.343736 302,189 C302.058713,155.778402 300.72538,139.789977 298,141.034727 C295.888548,141.999081 293.260065,179.873819 298.265993,189 C299.298922,190.883107 297.876924,191.60513 294,191.166069 C290.174929,191.050519 288.064255,189.661829 287.667979,187 C285.844585,174.75205 287.753264,153.433076 285,153.88491 C282.124262,154.356844 283.746195,173.746312 280.300952,188 C279.68191,190.561105 273.471854,190.894438 261.670785,189 L246,188.459186 L233.816373,188.459186 L220.570717,188.459186 L215.344365,185.581747 L209,183.862979 L203.93534,188.459186 L197.921455,189 L191,188.459186 L187.332384,185.581747 L183.786331,191.166069 L176.268975,185.581747 L172,189 L164,185.581747 L155,191.166069 L132.942986,191.166069 L125.117451,189 L120.978116,191.166069 L118,185.581747 C116.214801,187.860582 114.486939,189 112.816416,189 C111.145892,189 107.036779,189 100.489075,189 L87.4721867,189 L83.0200344,187 L79,188.459186 L65.1349003,187.5 L59,189 C57.0962885,188 54.4296219,187.5 51,187.5 C45.8555672,187.5 42.4375028,187 41,188 C39.5624972,189 32.5,187 31,187.5 C29.5,188 26,187 25,188 C24,189 23.1560511,186.833931 21.0780256,189 C19.6926752,190.444046 19,188.731706 19,183.862979 Z" id="路径-38备份-5" fill-opacity="0.6" fill="#CBE4FF"></path>
            <path d="M19.2672943,184.271484 C23.6780052,184.271484 26.446955,183.622396 27.5741438,182.324219 L30.2940716,174.331055 L33.0410373,173.634766 L34.7805034,184.271484 C36.7684647,184.271484 37.7624453,183.622396 37.7624453,182.324219 C37.7624453,181.026042 38.9485798,164.917969 41.3208488,134 C41.3208488,132.636393 42.521773,131.95459 44.9236215,131.95459 C47.3254699,131.95459 47.3254699,149.842285 44.9236215,185.617676 C45.9589121,177.629069 46.7458873,173.634766 47.2845473,173.634766 C47.8232072,173.634766 48.860948,177.629069 50.3977697,185.617676 C51.149154,178.093262 52.1340995,174.331055 53.3526062,174.331055 C54.5711129,174.331055 55.1908653,178.093262 55.2118633,185.617676 C54.9677943,149.842285 56.4414402,131.95459 59.6328008,131.95459 C62.8241615,131.95459 64.5832271,147.234701 64.9099976,177.794922 C65.371077,175.485677 66.0206841,174.331055 66.8588187,174.331055 C67.6969534,174.331055 68.0480806,176.995443 67.9122004,182.324219 C68.4829493,179.941687 69.3329023,178.867755 70.4620594,179.102424 C72.1557949,179.454428 69.9914908,187.276004 73.899316,186.94684 C77.8071413,186.617676 72.2727424,131.95459 78.2395467,131.95459 C84.206351,131.95459 79.3012256,172.569336 81.5441737,172.569336 C83.7871218,172.569336 82.8883858,182.324219 84.8937668,182.324219 C86.8991479,182.324219 86.0996629,174.331055 88.2134429,175.182129 C90.3272229,176.033203 89.5931479,182.22998 89.5931479,184.271484 C89.5931479,186.312988 91.1894253,185.617676 92.5319808,185.617676 C93.8745362,185.617676 89.2232551,131.95459 96.3775874,131.95459 C103.53192,131.95459 98.5080678,175.182129 99.8038897,172.569336 C101.099712,169.956543 99.8981251,182.477601 102.07107,181.148438 C104.244016,179.819274 102.952432,175.182129 104.632616,175.182129 C105.752739,175.182129 107.913783,179.103699 111.115748,186.94684 C109.328793,150.28534 110.205833,131.95459 113.746866,131.95459 C119.058415,131.95459 115.14069,173.852965 117.579667,175.182129 C120.018644,176.511293 118.775473,172.569336 120.254222,172.569336 C121.73297,172.569336 120.314564,185.271484 122.087372,184.271484 C123.860179,183.271484 122.942778,177.669922 125.094568,180.282715 C126.529095,182.024577 127.525418,184.597005 128.083536,188 C132.445753,189.279297 134.91596,189.11263 135.494157,187.5 C136.361451,185.081055 142.780098,186.617676 145.267294,186.617676" id="路径-30备份-13" stroke="#1890FF" stroke-width="1.5" stroke-linecap="round" stroke-linejoin="round"></path>
            <path d="M271,187.617676 C271.880169,179.629069 272.549229,175.634766 273.007179,175.634766 C273.46513,175.634766 274.347382,179.629069 275.653935,187.617676 C276.292737,180.093262 277.130104,176.331055 278.166037,176.331055 C279.20197,176.331055 279.728863,180.093262 279.746715,187.617676 C280.361393,168.438441 282.025326,158.848823 284.738512,158.848823 C287.451699,158.848823 288.536108,165.830856 287.99174,179.794922 C288.383734,177.485677 288.936008,176.331055 289.648561,176.331055 C290.361115,176.331055 290.659632,178.995443 290.544111,184.324219 C291.029342,181.941687 291.751943,180.867755 292.711915,181.102424 C294.151871,181.454428 292.311853,189.276004 295.634154,188.94684 C298.956454,188.617676 293.64175,144.023183 298.714525,144.023183 C303.7873,144.023183 300.226674,174.569336 302.133553,174.569336 C304.040431,174.569336 303.276356,184.324219 304.981263,184.324219 C306.68617,184.324219 306.006475,176.331055 307.803539,177.182129 C309.600603,178.033203 308.976518,184.22998 308.976518,186.271484 C308.976518,188.312988 310.333619,187.617676 311.475014,187.617676 C312.616409,187.617676 308.430412,129.627547 314.512783,129.627547 C320.595154,129.627547 316.55568,177.182129 317.657344,174.569336 C318.759008,171.956543 317.73746,184.477601 319.584825,183.148438 C321.432189,181.819274 320.334129,177.182129 321.762564,177.182129 C322.714855,177.182129 324.552101,181.103699 327.274303,188.94684 C325.67342,149.400645 326.378211,129.627547 329.388678,129.627547 C333.904377,129.627547 330.696172,175.852965 332.769708,177.182129 C334.843244,178.511293 333.786342,174.569336 335.043524,174.569336 C336.300705,174.569336 335.094825,187.271484 336.602006,186.271484 C338.109186,185.271484 337.329243,179.669922 339.158622,182.282715 C340.378208,184.024577 341.225248,186.597005 341.699741,190 C342.77547,152.433319 343.559116,132.843663 344.050679,131.231032 C344.542242,129.618402 345.858682,130.541391 348,134 C348,161.046224 348,175.440267 348,177.182129 C348,179.794922 351.558022,170.643004 353.5,179.794922 C355.441978,188.94684 351.558022,186.288512 353.5,187.617676 C354.794652,188.503785 359.294652,188.914187 367,188.848881" id="路径-30备份-14" stroke="#1890FF" stroke-width="1.5" stroke-linecap="round" stroke-linejoin="round"></path>
            <path d="M140,186.617676 C141.508072,186.617676 144.341405,186.617676 148.5,186.617676 C148.550247,150.463308 150.550247,132.386124 154.5,132.386124 C158.449753,132.386124 160.695061,147.52239 161.235924,177.794922 C161.806574,175.485677 162.610553,174.331055 163.647861,174.331055 C164.68517,174.331055 165.119738,176.995443 164.951568,182.324219 C165.657949,179.941687 166.709884,178.867755 168.107373,179.102424 C170.203607,179.454428 167.524979,187.276004 172.361457,186.94684 C177.197935,186.617676 170.115249,100 177.5,100 C184.884751,100 179.047073,172.569336 181.823033,172.569336 C184.598994,172.569336 183.486683,182.324219 185.968621,182.324219 C188.450559,182.324219 187.461085,174.331055 190.077182,175.182129 C192.69328,176.033203 191.784759,182.22998 191.784759,184.271484 C191.784759,186.312988 193.760375,185.617676 195.421974,185.617676 C197.083574,185.617676 190.645517,116.08178 199.5,116.08178 C208.354483,116.08178 202.818214,175.182129 204.421974,172.569336 C206.025735,169.956543 204.538604,182.477601 207.227926,181.148438 C209.917249,179.819274 208.318734,175.182129 210.398196,175.182129 C211.784504,175.182129 214.459097,179.103699 218.421974,186.94684 C216.758136,150.573029 218.117478,132.386124 222.5,132.386124 C229.073783,132.386124 223.403401,173.852965 226.421974,175.182129 C229.440548,176.511293 227.901951,172.569336 229.732108,172.569336 C231.562265,172.569336 229.806791,185.271484 232.000886,184.271484 C234.194982,183.271484 233.059571,177.669922 235.722711,180.282715 C238.385851,182.895508 237.566892,186 239.421974,186 C241.277057,186 240.926602,176.75 242,174.331055 C243.073398,171.912109 244.50933,136.226432 244.828305,134.753372 C245.147279,133.280311 247.681809,129.321838 250,134.753372 C252.318191,140.184906 249.565213,178.241211 251.883404,180.282715 C254.201595,182.324219 252.61165,175.182129 255.628557,175.182129 C258.645465,175.182129 257.809202,183.645605 261,186 C263.127199,187.569597 267.127199,188.236263 273,188" id="路径-30备份-15" stroke="#1890FF" stroke-width="1.5" stroke-linecap="round" stroke-linejoin="round"></path>
            <g id="标题备份-5" transform="translate(16.000000, 14.000000)" fill="#000000" font-family="PingFangSC-Medium, PingFang SC" font-size="14" font-weight="400">
                <text id="DW-LoADs突降不敏感">
                    <tspan x="0" y="15">DW LoADs突降不敏感</tspan>
                </text>
            </g>
            <circle id="椭圆形备份-111" stroke="#FF7272" stroke-width="2" cx="177" cy="100" r="3"></circle>
            <circle id="椭圆形备份-116" stroke="#FF7272" stroke-width="2" cx="200" cy="116" r="3"></circle>
            <circle id="椭圆形备份-114" stroke="#FFAC17" stroke-width="2" cx="285" cy="159" r="3"></circle>
        </g>
    </g>
</svg>