<?xml version="1.0" encoding="UTF-8"?>
<svg width="392px" height="248px" viewBox="0 0 392 248" version="1.1" xmlns="http://www.w3.org/2000/svg" xmlns:xlink="http://www.w3.org/1999/xlink">
    <title>模块备份 13</title>
    <defs>
        <path d="M2,0 L382,0 C383.104569,-2.02906125e-16 384,0.8954305 384,2 L384,238 C384,239.104569 383.104569,240 382,240 L2,240 C0.8954305,240 1.3527075e-16,239.104569 0,238 L0,2 C-1.3527075e-16,0.8954305 0.8954305,2.02906125e-16 2,0 Z" id="path-1"></path>
        <filter x="-1.8%" y="-2.1%" width="103.6%" height="105.8%" filterUnits="objectBoundingBox" id="filter-2">
            <feOffset dx="0" dy="2" in="SourceAlpha" result="shadowOffsetOuter1"></feOffset>
            <feGaussianBlur stdDeviation="2" in="shadowOffsetOuter1" result="shadowBlurOuter1"></feGaussianBlur>
            <feColorMatrix values="0 0 0 0 0.12334826   0 0 0 0 0.156873573   0 0 0 0 0.212749094  0 0 0 0.0649311626 0" type="matrix" in="shadowBlurOuter1"></feColorMatrix>
        </filter>
    </defs>
    <g id="页面-1" stroke="none" stroke-width="1" fill="none" fill-rule="evenodd">
        <g id="模块备份-13" transform="translate(4.000000, 2.000000)">
            <g id="背景板">
                <use fill="black" fill-opacity="1" filter="url(#filter-2)" xlink:href="#path-1"></use>
                <use fill="#FFFFFF" fill-rule="evenodd" xlink:href="#path-1"></use>
            </g>
            <g id="编组-6" transform="translate(16.000000, 46.000000)">
                <rect id="实际区域" fill="#FF5656" opacity="0" x="0" y="0" width="352" height="178"></rect>
                <g id="图表" transform="translate(0.000000, 17.000000)">
                    <g id="编组-2" transform="translate(15.000000, 22.000000)" fill="#F4FCFF">
                        <rect id="矩形" x="0" y="0" width="20" height="118"></rect>
                        <rect id="矩形备份-24" x="38" y="0" width="20" height="118"></rect>
                        <rect id="矩形备份-25" x="76" y="0" width="20" height="118"></rect>
                        <rect id="矩形备份-26" x="113" y="0" width="20" height="118"></rect>
                        <rect id="矩形备份-27" x="149" y="0" width="20" height="118"></rect>
                        <rect id="矩形备份-28" x="186" y="0" width="20" height="118"></rect>
                        <rect id="矩形备份-29" x="223" y="0" width="20" height="118"></rect>
                        <rect id="矩形备份-30" x="260" y="0" width="20" height="118"></rect>
                        <rect id="矩形备份-31" x="297" y="0" width="20" height="118"></rect>
                    </g>
                    <text id="time" font-family="PingFangSC-Regular, PingFang SC" font-size="10" font-weight="normal" fill="#000000" fill-opacity="0.45">
                        <tspan x="327" y="154">time</tspan>
                    </text>
                    <text id="figure" font-family="PingFangSC-Regular, PingFang SC" font-size="10" font-weight="normal" fill="#000000" fill-opacity="0.45">
                        <tspan x="0" y="11">figure</tspan>
                    </text>
                    <g id="刻度" transform="translate(0.000000, 21.500000)">
                        <line x1="2.5" y1="0" x2="2.5" y2="118" id="直线" stroke="#E9E9E9" stroke-linecap="square"></line>
                        <line x1="2.5" y1="118" x2="351" y2="118" id="直线-2" stroke="#E9E9E9" stroke-linecap="square"></line>
                        <rect id="矩形" fill="#E9E9E9" x="8" y="117.5" width="1" height="3"></rect>
                        <rect id="矩形备份-6" fill="#E9E9E9" x="25" y="117.5" width="1" height="3"></rect>
                        <rect id="矩形备份-7" fill="#E9E9E9" x="43" y="117.5" width="1" height="3"></rect>
                        <rect id="矩形备份-8" fill="#E9E9E9" x="63" y="117.5" width="1" height="3"></rect>
                        <rect id="矩形备份-9" fill="#E9E9E9" x="82" y="117.5" width="1" height="3"></rect>
                        <rect id="矩形备份-10" fill="#E9E9E9" x="101" y="117.5" width="1" height="3"></rect>
                        <rect id="矩形备份-11" fill="#E9E9E9" x="119" y="117.5" width="1" height="3"></rect>
                        <rect id="矩形备份-12" fill="#E9E9E9" x="138" y="117.5" width="1" height="3"></rect>
                        <rect id="矩形备份-13" fill="#E9E9E9" x="156" y="117.5" width="1" height="3"></rect>
                        <rect id="矩形备份-14" fill="#E9E9E9" x="174" y="117.5" width="1" height="3"></rect>
                        <rect id="矩形备份-15" fill="#E9E9E9" x="192" y="117.5" width="1" height="3"></rect>
                        <rect id="矩形备份-16" fill="#E9E9E9" x="211" y="117.5" width="1" height="3"></rect>
                        <rect id="矩形备份-17" fill="#E9E9E9" x="229" y="117.5" width="1" height="3"></rect>
                        <rect id="矩形备份-18" fill="#E9E9E9" x="248" y="117.5" width="1" height="3"></rect>
                        <rect id="矩形备份-19" fill="#E9E9E9" x="266" y="117.5" width="1" height="3"></rect>
                        <rect id="矩形备份-20" fill="#E9E9E9" x="285" y="117.5" width="1" height="3"></rect>
                        <rect id="矩形备份-21" fill="#E9E9E9" x="304" y="117.5" width="1" height="3"></rect>
                        <rect id="矩形备份-22" fill="#E9E9E9" x="322" y="117.5" width="1" height="3"></rect>
                        <rect id="矩形备份-23" fill="#E9E9E9" x="343" y="117.5" width="1" height="3"></rect>
                        <rect id="矩形" fill="#E9E9E9" x="0" y="102.5" width="3" height="1"></rect>
                        <rect id="矩形备份" fill="#E9E9E9" x="0" y="79.5" width="3" height="1"></rect>
                        <rect id="矩形备份-3" fill="#E9E9E9" x="0" y="56.5" width="3" height="1"></rect>
                        <rect id="矩形备份-4" fill="#E9E9E9" x="0" y="33.5" width="3" height="1"></rect>
                        <rect id="矩形备份-5" fill="#E9E9E9" x="0" y="10.5" width="3" height="1"></rect>
                    </g>
                    <path d="M9,93.404368 C10.8352865,96.3745733 13.2903646,95.5307474 16.3652344,90.8728905 C19.4401042,86.2150336 25.6516927,75.9117329 35,59.9629884 C47,45.0657531 56.3333333,45.0657531 63,59.9629884 C69.6666667,74.8602237 72.5279948,81.408538 71.5839844,79.6079313 C76.6855469,93.1579205 81.945638,93.9267852 87.3642578,81.9145255 C94.4072266,69.7112689 98.952474,62.0316068 101,58.875539 C113.408203,45.4487735 122.408203,45.0118427 128,57.5647466 C133.591797,70.1176505 136.387695,76.3941024 136.387695,76.3941024 C140.60319,86.6473435 145.092448,87.7186198 149.855469,79.6079313 C154.61849,71.4972428 158.722005,64.5864454 162.166016,58.875539 C173.45638,45.0539442 182.751302,45.0539442 190.050781,58.875539 C201,79.6079313 207.151367,91.6715343 213.445313,82.7031573 C217.641276,76.7242393 223.159505,67.9889606 230,56.4973211 C239.182292,39.0267635 248.515625,39.0267635 258,56.4973211 C272.226563,82.7031573 273.307617,86.0263472 281.774414,76.3941024 C287.418945,69.9726059 291.827474,63.3403454 295,56.4973211 C306.407552,37.1994583 317.074219,36.7561096 327,55.1672749 C341.888672,82.7840229 340,82.3088414 344,82.3088414 C344,84.1489824 343.833333,95.9405665 343.5,117.683594 C333.511719,115.756169 327.514648,109.472529 325.508789,98.8326738 C322.5,82.8728905 308.225586,63.2826282 295,88.7129251 C281.774414,114.143222 270.638672,122.791987 264.319336,104.098178 C260.106445,91.6356379 258.441732,86.0833821 259.325195,87.4414102 C251.163086,68.7165379 240.590169,69.1403761 227.606445,88.7129251 C224.147327,93.9274358 219.347403,109.068572 216.771484,112.266602 C204.844423,127.074172 204.445361,120.480013 198.567383,112.266602 C191.419922,102.279318 185.229492,52.4913101 164,85.404368 C142.770508,118.317426 138.014648,122.96219 130.484375,98.8326738 C122.954102,74.7031573 114.420898,61.9803074 99.6679687,87.4414102 C84.9150391,112.902513 77.1162109,125.323465 67.2109375,104.098178 C57.3056641,82.8728905 57.0898437,52.2502537 31.6474609,88.7129251 C16.5491536,109.866845 8.83333333,117.157839 8.5,110.585907 L9,93.404368 Z" id="路径-20" fill-opacity="0.6" fill="#CBE4FF"></path>
                    <path d="M9,101.910421 C16.7051411,101.733265 23.2769035,95.8831365 28.7152874,84.3600364 C36.8728632,67.0753863 50.6875107,37.5247749 58.8519614,62.4473507 C67.0164122,87.3699265 73.9806995,120.98983 85.7976935,104.72196 C97.6146875,88.4540896 112.234682,37.9200024 123.633288,60.0666868 C135.031895,82.2133712 137.783938,116.430815 148.792525,102.97056 C151.83251,99.2535553 159.481076,84.86043 163.596178,76.3074337 C170.385611,62.1959979 172.509928,55.4421731 174.332031,49.5490723 M183.684814,50.6044922 C185.257665,57.3555079 185.331646,63.7650191 190.256221,75.4594063 C192.898291,81.7335314 196.753224,89.7355649 200.49494,95.2177195 C202.651453,98.3773226 204.672504,112.677269 206.437576,120.98197 M210.604992,118.94229 C211.975433,109.95379 213.478726,96.3739612 214.958677,94.2090702 C225.447896,78.8653054 239.585046,46.9066049 247.86711,53.5853311 C257.880952,61.6605789 262.36469,105.841442 274.904485,102.75749 C287.444281,99.6735384 300.62461,48.4322517 310.097666,48.4322517 C316.413037,48.4322517 324.610893,66.012223 334.691233,101.172166 C338.22672,109.341852 341.329642,112.418063 344,110.400799" id="形状" stroke="#1890FF" stroke-width="1.5" stroke-linecap="round" stroke-linejoin="round"></path>
                    <path d="M174.332031,49.5490723 C175.606552,45.1698497 177.413086,33 179,33 C181.152344,33 182.700386,46.1297791 183.684814,50.6044922" id="路径-26" stroke="#FF9D9D" stroke-width="1.5"></path>
                    <path d="M206.437576,120.98197 C207.262928,124.865267 208.032309,127.437692 208.733398,126.947266 C209.314737,126.540608 209.944432,123.2748 210.604992,118.94229" id="路径" stroke="#FF9D9D" stroke-width="1.5"></path>
                </g>
            </g>
            <g id="标题" transform="translate(16.000000, 18.000000)" fill="#000000" fill-opacity="0.85" font-family="PingFangSC-Medium, PingFang SC" font-size="14" font-weight="400" line-spacing="20">
                <text id="动态基线窄边界">
                    <tspan x="0" y="15">动态基线窄边界</tspan>
                </text>
            </g>
        </g>
    </g>
</svg>