<?xml version="1.0" encoding="UTF-8"?>
<svg width="392px" height="248px" viewBox="0 0 392 248" version="1.1" xmlns="http://www.w3.org/2000/svg" xmlns:xlink="http://www.w3.org/1999/xlink">
    <title>模块备份 12</title>
    <defs>
        <path d="M2,0 L382,0 C383.104569,-2.02906125e-16 384,0.8954305 384,2 L384,238 C384,239.104569 383.104569,240 382,240 L2,240 C0.8954305,240 1.3527075e-16,239.104569 0,238 L0,2 C-1.3527075e-16,0.8954305 0.8954305,2.02906125e-16 2,0 Z" id="path-1"></path>
        <filter x="-1.8%" y="-2.1%" width="103.6%" height="105.8%" filterUnits="objectBoundingBox" id="filter-2">
            <feOffset dx="0" dy="2" in="SourceAlpha" result="shadowOffsetOuter1"></feOffset>
            <feGaussianBlur stdDeviation="2" in="shadowOffsetOuter1" result="shadowBlurOuter1"></feGaussianBlur>
            <feColorMatrix values="0 0 0 0 0.12334826   0 0 0 0 0.156873573   0 0 0 0 0.212749094  0 0 0 0.0649311626 0" type="matrix" in="shadowBlurOuter1"></feColorMatrix>
        </filter>
    </defs>
    <g id="页面-1" stroke="none" stroke-width="1" fill="none" fill-rule="evenodd">
        <g id="模块备份-12" transform="translate(4.000000, 2.000000)">
            <g id="背景板">
                <use fill="black" fill-opacity="1" filter="url(#filter-2)" xlink:href="#path-1"></use>
                <use fill="#FFFFFF" fill-rule="evenodd" xlink:href="#path-1"></use>
            </g>
            <g id="编组-6" transform="translate(16.000000, 46.000000)">
                <rect id="实际区域" fill="#FF5656" opacity="0" x="0" y="0" width="352" height="178"></rect>
                <g id="图表" transform="translate(0.000000, 17.000000)">
                    <g id="编组-2" transform="translate(15.000000, 22.000000)" fill="#F4FCFF">
                        <rect id="矩形" x="0" y="0" width="20" height="118"></rect>
                        <rect id="矩形备份-24" x="38" y="0" width="20" height="118"></rect>
                        <rect id="矩形备份-25" x="76" y="0" width="20" height="118"></rect>
                        <rect id="矩形备份-26" x="113" y="0" width="20" height="118"></rect>
                        <rect id="矩形备份-27" x="149" y="0" width="20" height="118"></rect>
                        <rect id="矩形备份-28" x="186" y="0" width="20" height="118"></rect>
                        <rect id="矩形备份-29" x="223" y="0" width="20" height="118"></rect>
                        <rect id="矩形备份-30" x="260" y="0" width="20" height="118"></rect>
                        <rect id="矩形备份-31" x="297" y="0" width="20" height="118"></rect>
                    </g>
                    <text id="time" font-family="PingFangSC-Regular, PingFang SC" font-size="10" font-weight="normal" fill="#000000" fill-opacity="0.45">
                        <tspan x="327" y="154">time</tspan>
                    </text>
                    <text id="figure" font-family="PingFangSC-Regular, PingFang SC" font-size="10" font-weight="normal" fill="#000000" fill-opacity="0.45">
                        <tspan x="0" y="11">figure</tspan>
                    </text>
                    <g id="刻度" transform="translate(0.000000, 21.500000)">
                        <line x1="2.5" y1="0" x2="2.5" y2="118" id="直线" stroke="#E9E9E9" stroke-linecap="square"></line>
                        <line x1="2.5" y1="118" x2="351" y2="118" id="直线-2" stroke="#E9E9E9" stroke-linecap="square"></line>
                        <rect id="矩形" fill="#E9E9E9" x="8" y="117.5" width="1" height="3"></rect>
                        <rect id="矩形备份-6" fill="#E9E9E9" x="25" y="117.5" width="1" height="3"></rect>
                        <rect id="矩形备份-7" fill="#E9E9E9" x="43" y="117.5" width="1" height="3"></rect>
                        <rect id="矩形备份-8" fill="#E9E9E9" x="63" y="117.5" width="1" height="3"></rect>
                        <rect id="矩形备份-9" fill="#E9E9E9" x="82" y="117.5" width="1" height="3"></rect>
                        <rect id="矩形备份-10" fill="#E9E9E9" x="101" y="117.5" width="1" height="3"></rect>
                        <rect id="矩形备份-11" fill="#E9E9E9" x="119" y="117.5" width="1" height="3"></rect>
                        <rect id="矩形备份-12" fill="#E9E9E9" x="138" y="117.5" width="1" height="3"></rect>
                        <rect id="矩形备份-13" fill="#E9E9E9" x="156" y="117.5" width="1" height="3"></rect>
                        <rect id="矩形备份-14" fill="#E9E9E9" x="174" y="117.5" width="1" height="3"></rect>
                        <rect id="矩形备份-15" fill="#E9E9E9" x="192" y="117.5" width="1" height="3"></rect>
                        <rect id="矩形备份-16" fill="#E9E9E9" x="211" y="117.5" width="1" height="3"></rect>
                        <rect id="矩形备份-17" fill="#E9E9E9" x="229" y="117.5" width="1" height="3"></rect>
                        <rect id="矩形备份-18" fill="#E9E9E9" x="248" y="117.5" width="1" height="3"></rect>
                        <rect id="矩形备份-19" fill="#E9E9E9" x="266" y="117.5" width="1" height="3"></rect>
                        <rect id="矩形备份-20" fill="#E9E9E9" x="285" y="117.5" width="1" height="3"></rect>
                        <rect id="矩形备份-21" fill="#E9E9E9" x="304" y="117.5" width="1" height="3"></rect>
                        <rect id="矩形备份-22" fill="#E9E9E9" x="322" y="117.5" width="1" height="3"></rect>
                        <rect id="矩形备份-23" fill="#E9E9E9" x="343" y="117.5" width="1" height="3"></rect>
                        <rect id="矩形" fill="#E9E9E9" x="0" y="102.5" width="3" height="1"></rect>
                        <rect id="矩形备份" fill="#E9E9E9" x="0" y="79.5" width="3" height="1"></rect>
                        <rect id="矩形备份-3" fill="#E9E9E9" x="0" y="56.5" width="3" height="1"></rect>
                        <rect id="矩形备份-4" fill="#E9E9E9" x="0" y="33.5" width="3" height="1"></rect>
                        <rect id="矩形备份-5" fill="#E9E9E9" x="0" y="10.5" width="3" height="1"></rect>
                    </g>
                    <path d="M9,73.404368 C10.8352865,76.3745733 13.2903646,75.5307474 16.3652344,70.8728905 C19.4401042,66.2150336 25.6516927,57.9117329 35,45.9629884 C47,31.0657531 56.3333333,31.0657531 63,45.9629884 C69.6666667,60.8602237 72.5279948,65.408538 71.5839844,59.6079313 C76.6855469,73.1579205 81.945638,73.9267852 87.3642578,61.9145255 C94.4072266,49.7112689 98.952474,44.0316068 101,44.875539 C113.408203,31.4487735 122.408203,31.0118427 128,43.5647466 C133.591797,56.1176505 136.387695,60.3941024 136.387695,56.3941024 C140.60319,66.6473435 145.092448,67.7186198 149.855469,59.6079313 C154.61849,51.4972428 158.722005,46.5864454 162.166016,44.875539 C173.45638,31.0539442 182.751302,31.0539442 190.050781,44.875539 C201,65.6079313 207.151367,71.6715343 213.445313,62.7031573 C217.641276,56.7242393 223.159505,49.9889606 230,42.4973211 C239.182292,25.0267635 248.515625,25.0267635 258,42.4973211 C272.226563,68.7031573 273.307617,66.0263472 281.774414,56.3941024 C287.418945,49.9726059 291.827474,45.3403454 295,42.4973211 C306.407552,23.1994583 317.074219,22.7561096 327,41.1672749 C341.888672,68.7840229 340,62.3088414 344,62.3088414 C344,64.1489824 343.833333,88.9405665 343.5,136.683594 C333.511719,134.756169 327.514648,128.472529 325.508789,117.832674 C322.5,101.872891 308.225586,82.2826282 295,107.712925 C281.774414,133.143222 270.638672,141.791987 264.319336,123.098178 C260.106445,110.635638 258.441732,105.083382 259.325195,106.44141 C251.163086,87.7165379 240.590169,88.1403761 227.606445,107.712925 C208.130859,137.071748 204.345703,131.816256 197.198242,121.828973 C190.050781,111.84169 185.229492,71.4913101 164,104.404368 C142.770508,137.317426 138.014648,141.96219 130.484375,117.832674 C122.954102,93.7031573 114.420898,80.9803074 99.6679687,106.44141 C84.9150391,131.902513 77.1162109,144.323465 67.2109375,123.098178 C57.3056641,101.872891 57.0898437,71.2502537 31.6474609,107.712925 C16.5491536,128.866845 8.83333333,136.157839 8.5,129.585907 L9,73.404368 Z" id="路径-20" fill-opacity="0.6" fill="#CBE4FF"></path>
                    <path d="M9,108.910421 C16.7051411,108.733265 23.2769035,102.883136 28.7152874,91.3600364 C36.8728632,74.0753863 50.6875107,44.5247749 58.8519614,69.4473507 C67.0164122,94.3699265 73.9806995,127.98983 85.7976935,111.72196 C97.6146875,95.4540896 112.234682,44.9200024 123.633288,67.0666868 C135.031895,89.2133712 137.783938,123.430815 148.792525,109.97056 C151.83251,106.253555 159.481076,91.86043 163.596178,83.3074337 C170.385611,69.1959979 173.177897,57.8931009 175,52 M183,53 C184.572851,59.7510157 185.331646,70.7650191 190.256221,82.4594063 C192.791547,88.4800458 196.443711,96.0917931 200.040957,101.541194 C203.363222,106.574031 206.638644,124.762475 208.944163,123.149717 C210.677994,121.936867 212.64365,104.565168 214.761835,101.495673 C225.270412,86.267529 239.533125,53.8647352 247.86711,60.5853311 C257.880952,68.6605789 262.36469,112.841442 274.904485,109.75749 C287.444281,106.673538 300.62461,55.4322517 310.097666,55.4322517 C316.413037,55.4322517 324.610893,73.012223 334.691233,108.172166 C338.22672,116.341852 341.329642,119.418063 344,117.400799" id="形状" stroke="#1890FF" stroke-width="1.5" stroke-linecap="round" stroke-linejoin="round"></path>
                    <path d="M175,51.6835937 C176.274521,47.3043711 177.413086,40 179,40 C181.152344,40 182.015572,48.5252869 183,53" id="路径-26" stroke="#1890FF" stroke-width="1.5" stroke-linecap="round" stroke-linejoin="round"></path>
                </g>
            </g>
            <g id="标题" transform="translate(16.000000, 18.000000)" fill="#000000" fill-opacity="0.85" font-family="PingFangSC-Medium, PingFang SC" font-size="14" font-weight="400" line-spacing="20">
                <text id="动态基线宽边界">
                    <tspan x="0" y="15">动态基线宽边界</tspan>
                </text>
            </g>
        </g>
    </g>
</svg>