<?xml version="1.0" encoding="UTF-8"?>
<svg width="392px" height="248px" viewBox="0 0 392 248" version="1.1" xmlns="http://www.w3.org/2000/svg" xmlns:xlink="http://www.w3.org/1999/xlink">
    <title>模块备份 14</title>
    <defs>
        <path d="M2,0 L382,0 C383.104569,-2.02906125e-16 384,0.8954305 384,2 L384,238 C384,239.104569 383.104569,240 382,240 L2,240 C0.8954305,240 1.3527075e-16,239.104569 0,238 L0,2 C-1.3527075e-16,0.8954305 0.8954305,2.02906125e-16 2,0 Z" id="path-1"></path>
        <filter x="-1.8%" y="-2.1%" width="103.6%" height="105.8%" filterUnits="objectBoundingBox" id="filter-2">
            <feOffset dx="0" dy="2" in="SourceAlpha" result="shadowOffsetOuter1"></feOffset>
            <feGaussianBlur stdDeviation="2" in="shadowOffsetOuter1" result="shadowBlurOuter1"></feGaussianBlur>
            <feColorMatrix values="0 0 0 0 0.12334826   0 0 0 0 0.156873573   0 0 0 0 0.212749094  0 0 0 0.0649311626 0" type="matrix" in="shadowBlurOuter1"></feColorMatrix>
        </filter>
    </defs>
    <g id="页面-1" stroke="none" stroke-width="1" fill="none" fill-rule="evenodd">
        <g id="模块备份-14" transform="translate(4.000000, 2.000000)">
            <g id="背景板">
                <use fill="black" fill-opacity="1" filter="url(#filter-2)" xlink:href="#path-1"></use>
                <use fill="#FFFFFF" fill-rule="evenodd" xlink:href="#path-1"></use>
            </g>
            <g id="编组-6" transform="translate(16.000000, 46.000000)">
                <rect id="实际区域" fill="#FF5656" opacity="0" x="0" y="0" width="352" height="178"></rect>
                <g id="图表" transform="translate(0.000000, 17.000000)">
                    <g id="编组-2" transform="translate(15.000000, 22.000000)" fill="#F4FCFF">
                        <rect id="矩形" x="0" y="0" width="20" height="118"></rect>
                        <rect id="矩形备份-24" x="38" y="0" width="20" height="118"></rect>
                        <rect id="矩形备份-25" x="76" y="0" width="20" height="118"></rect>
                        <rect id="矩形备份-26" x="113" y="0" width="20" height="118"></rect>
                        <rect id="矩形备份-27" x="149" y="0" width="20" height="118"></rect>
                        <rect id="矩形备份-28" x="186" y="0" width="20" height="118"></rect>
                        <rect id="矩形备份-29" x="223" y="0" width="20" height="118"></rect>
                        <rect id="矩形备份-30" x="260" y="0" width="20" height="118"></rect>
                        <rect id="矩形备份-31" x="297" y="0" width="20" height="118"></rect>
                    </g>
                    <text id="time" font-family="PingFangSC-Regular, PingFang SC" font-size="10" font-weight="normal" fill="#000000" fill-opacity="0.45">
                        <tspan x="327" y="154">time</tspan>
                    </text>
                    <text id="figure" font-family="PingFangSC-Regular, PingFang SC" font-size="10" font-weight="normal" fill="#000000" fill-opacity="0.45">
                        <tspan x="0" y="11">figure</tspan>
                    </text>
                    <g id="刻度" transform="translate(0.000000, 21.500000)">
                        <line x1="2.5" y1="0" x2="2.5" y2="118" id="直线" stroke="#E9E9E9" stroke-linecap="square"></line>
                        <line x1="2.5" y1="118" x2="351" y2="118" id="直线-2" stroke="#E9E9E9" stroke-linecap="square"></line>
                        <rect id="矩形" fill="#E9E9E9" x="8" y="117.5" width="1" height="3"></rect>
                        <rect id="矩形备份-6" fill="#E9E9E9" x="25" y="117.5" width="1" height="3"></rect>
                        <rect id="矩形备份-7" fill="#E9E9E9" x="43" y="117.5" width="1" height="3"></rect>
                        <rect id="矩形备份-8" fill="#E9E9E9" x="63" y="117.5" width="1" height="3"></rect>
                        <rect id="矩形备份-9" fill="#E9E9E9" x="82" y="117.5" width="1" height="3"></rect>
                        <rect id="矩形备份-10" fill="#E9E9E9" x="101" y="117.5" width="1" height="3"></rect>
                        <rect id="矩形备份-11" fill="#E9E9E9" x="119" y="117.5" width="1" height="3"></rect>
                        <rect id="矩形备份-12" fill="#E9E9E9" x="138" y="117.5" width="1" height="3"></rect>
                        <rect id="矩形备份-13" fill="#E9E9E9" x="156" y="117.5" width="1" height="3"></rect>
                        <rect id="矩形备份-14" fill="#E9E9E9" x="174" y="117.5" width="1" height="3"></rect>
                        <rect id="矩形备份-15" fill="#E9E9E9" x="192" y="117.5" width="1" height="3"></rect>
                        <rect id="矩形备份-16" fill="#E9E9E9" x="211" y="117.5" width="1" height="3"></rect>
                        <rect id="矩形备份-17" fill="#E9E9E9" x="229" y="117.5" width="1" height="3"></rect>
                        <rect id="矩形备份-18" fill="#E9E9E9" x="248" y="117.5" width="1" height="3"></rect>
                        <rect id="矩形备份-19" fill="#E9E9E9" x="266" y="117.5" width="1" height="3"></rect>
                        <rect id="矩形备份-20" fill="#E9E9E9" x="285" y="117.5" width="1" height="3"></rect>
                        <rect id="矩形备份-21" fill="#E9E9E9" x="304" y="117.5" width="1" height="3"></rect>
                        <rect id="矩形备份-22" fill="#E9E9E9" x="322" y="117.5" width="1" height="3"></rect>
                        <rect id="矩形备份-23" fill="#E9E9E9" x="343" y="117.5" width="1" height="3"></rect>
                        <rect id="矩形" fill="#E9E9E9" x="0" y="102.5" width="3" height="1"></rect>
                        <rect id="矩形备份" fill="#E9E9E9" x="0" y="79.5" width="3" height="1"></rect>
                        <rect id="矩形备份-3" fill="#E9E9E9" x="0" y="56.5" width="3" height="1"></rect>
                        <rect id="矩形备份-4" fill="#E9E9E9" x="0" y="33.5" width="3" height="1"></rect>
                        <rect id="矩形备份-5" fill="#E9E9E9" x="0" y="10.5" width="3" height="1"></rect>
                    </g>
                    <path d="M8.82637854,89.404368 C10.0243748,92.3745733 11.6269444,91.5307474 13.6340874,86.8728905 C15.6412304,82.2150336 19.6958888,71.9117329 25.7980626,55.9629884 C33.6311475,41.0657531 39.7235469,41.0657531 44.0752608,55.9629884 C48.4269747,70.8602237 50.2947269,77.408538 49.6785174,75.6079313 C53.0085984,89.1579205 56.4421601,89.9267852 59.9792026,77.9145255 C64.5765503,65.7112689 67.5434927,58.0316068 68.8800298,54.875539 C76.9795722,41.4487735 82.8543859,41.0118427 86.5044709,53.5647466 C90.1545559,66.1176505 91.9795984,72.3941024 91.9795984,72.3941024 C94.7312925,82.6473435 97.6616873,83.7186198 100.770783,75.6079313 C103.879878,67.4972428 106.558477,60.5864454 108.806579,54.875539 C116.176445,41.0539442 122.243771,41.0539442 127.008558,54.875539 C134.155738,75.6079313 138.171086,87.6715343 142.279504,78.7031573 C145.018448,72.7242393 148.620512,63.9889606 153.085693,52.4973211 C159.079499,35.0267635 165.171898,35.0267635 171.362891,52.4973211 C180.649381,78.7031573 181.355047,82.0263472 186.881808,72.3941024 C190.566316,65.9726059 193.444014,59.3403454 195.514903,52.4973211 C202.961264,33.1994583 209.924006,32.7561096 216.40313,51.1672749 C226.121816,78.7840229 225.520508,75.6079313 227.5,78.3088414 C227.5,80.1489824 227.391207,96.2738999 227.173621,126.683594 C220.6537,124.756169 216.73907,118.472529 215.429731,107.832674 C213.465723,91.8728905 204.147998,72.2826282 195.514903,97.7129251 C186.881808,123.143222 179.612874,131.791987 175.487882,113.098178 C172.737888,100.635638 171.651235,95.0833821 172.227922,96.4414102 C166.900047,77.7165379 159.998501,78.1403761 151.523283,97.7129251 C149.265319,102.927436 146.132135,118.068572 144.450686,121.266602 C136.665212,136.074172 136.404722,129.480013 132.56783,121.266602 C127.902274,111.279318 123.861427,61.4913101 110.003726,94.404368 C96.1460245,127.317426 93.0416036,131.96219 88.1261643,107.832674 C83.210725,83.7031573 77.6406163,70.9803074 68.010537,96.4414102 C58.3804577,121.902513 53.2897174,134.323465 46.8239801,113.098178 C40.3582427,91.8728905 40.2173645,61.2502537 23.609669,97.7129251 C13.754142,118.866845 8.71758569,126.157839 8.5,119.585907 L8.82637854,89.404368 Z" id="路径-20" fill-opacity="0.6" fill="#CBE4FF"></path>
                    <path d="M8,101.910421 C13.0593998,101.733265 17.3745933,95.8831365 20.9455803,84.3600364 C26.3020608,67.0753863 35.3731245,37.5247749 40.7341193,62.4473507 C46.095114,87.3699265 50.6680497,120.98983 58.4274012,104.72196 C66.1867527,88.4540896 75.7866285,37.9200024 83.2712556,60.0666868 C90.7558828,82.2133712 92.5629472,116.430815 99.7914773,102.97056 C101.787612,99.2535553 106.809863,84.86043 109.511948,76.3074337 C113.97007,62.1959979 115.803559,50.8931009 117,45 M122,46 C123.025772,52.7323934 123.520638,63.7160153 126.732318,75.3781441 C128.455407,81.6349624 130.969494,89.6149228 133.409743,95.0819552 C135.473811,99.7062048 137.485052,125.469136 138.920107,123.934146 C140.085815,122.687258 141.412205,97.275619 142.842615,94.0760882 C149.683411,78.7746483 158.903291,46.9041041 164.304637,53.5644074 C170.835404,61.6173801 173.75958,105.676373 181.937708,102.600928 C190.115835,99.5254829 198.711702,48.4255425 204.889782,48.4255425 C209.008502,48.4255425 214.35493,65.9570204 220.929065,101.019976 C223.234817,109.167127 225.258462,112.234852 227,110.223153" id="形状" stroke="#1890FF" stroke-width="1.5" stroke-linecap="round" stroke-linejoin="round"></path>
                    <path d="M117,44.6835937 C117.796575,40.3043711 118.508179,33 119.5,33 C120.845215,33 121.384732,41.5252869 122,46" id="路径-26" stroke="#FF9D9D" stroke-width="1.5"></path>
                    <path d="M227.5,78.3088414 C232.399414,87.5194597 236.876139,86.7225666 240.930176,75.9181621 C247.01123,59.7115555 257.487305,68.3117176 264.616699,84.740919 C269.369629,95.69372 276.164062,92.3009715 285,74.5626737 C292.039388,60.9304404 298.706055,60.9304404 305,74.5626737 C311.293945,88.1949069 317.839355,89.7715652 324.63623,79.2926486 C332.08252,66.4884874 338.537109,66.0366579 344,77.9371601 C344,90.6757916 343.833333,102.126947 343.5,112.290625 C336.559245,107.501315 331.324056,107.501315 327.794434,112.290625 C322.5,119.474591 309.305664,115.176569 307.152832,107.185644 C305,99.1947179 293.694336,96.2960044 289.847168,107.185644 C286,118.075283 264.616699,120.022038 262.943848,108.221634 C261.270996,96.4212295 244.594727,94.0164135 241.962402,107.185644 C240.20752,115.96513 235.277926,122.464447 227.173621,126.683594 L227.5,78.3088414 Z" id="路径-12" fill-opacity="0.6" fill="#CBE4FF"></path>
                    <path d="M227,110.114875 C231.404297,106.392862 234.070964,103.026516 235,100.015839 C236.393555,95.4998236 249.100586,74.0592186 266.264648,97.3859997 C272.629883,108.614799 279.523763,107.280685 286.946289,93.3836589 C294.765625,83.1151156 302.840332,83.7262795 311.17041,95.2171505 C319.500488,106.708021 327.128092,105.682023 334.053223,92.1391542 C338.131673,87.6419623 341.447266,87.4982683 344,91.7080723" id="路径-13" stroke="#1890FF" stroke-width="1.5" stroke-linecap="round" stroke-linejoin="round"></path>
                </g>
            </g>
            <g id="标题" transform="translate(16.000000, 18.000000)" fill="#000000" fill-opacity="0.85" font-family="PingFangSC-Medium, PingFang SC" font-size="14" font-weight="400" line-spacing="20">
                <text id="动态基线周周期">
                    <tspan x="0" y="15">动态基线周周期</tspan>
                </text>
            </g>
        </g>
    </g>
</svg>