<?xml version="1.0" encoding="UTF-8"?>
<svg width="392px" height="248px" viewBox="0 0 392 248" version="1.1" xmlns="http://www.w3.org/2000/svg" xmlns:xlink="http://www.w3.org/1999/xlink">
    <title>模块备份 7</title>
    <defs>
        <path d="M2,0 L382,0 C383.104569,-2.02906125e-16 384,0.8954305 384,2 L384,238 C384,239.104569 383.104569,240 382,240 L2,240 C0.8954305,240 1.3527075e-16,239.104569 0,238 L0,2 C-1.3527075e-16,0.8954305 0.8954305,2.02906125e-16 2,0 Z" id="path-1"></path>
        <filter x="-1.8%" y="-2.1%" width="103.6%" height="105.8%" filterUnits="objectBoundingBox" id="filter-2">
            <feOffset dx="0" dy="2" in="SourceAlpha" result="shadowOffsetOuter1"></feOffset>
            <feGaussianBlur stdDeviation="2" in="shadowOffsetOuter1" result="shadowBlurOuter1"></feGaussianBlur>
            <feColorMatrix values="0 0 0 0 0.12334826   0 0 0 0 0.156873573   0 0 0 0 0.212749094  0 0 0 0.0649311626 0" type="matrix" in="shadowBlurOuter1"></feColorMatrix>
        </filter>
    </defs>
    <g id="页面-1" stroke="none" stroke-width="1" fill="none" fill-rule="evenodd">
        <g id="模块备份-7" transform="translate(4.000000, 2.000000)">
            <g id="背景板">
                <use fill="black" fill-opacity="1" filter="url(#filter-2)" xlink:href="#path-1"></use>
                <use fill="#FFFFFF" fill-rule="evenodd" xlink:href="#path-1"></use>
            </g>
            <g id="编组-6" transform="translate(16.000000, 46.000000)">
                <rect id="实际区域" fill="#FF5656" opacity="0" x="0" y="0" width="352" height="178"></rect>
                <g id="图表" transform="translate(0.000000, 17.000000)">
                    <g id="编组-2" transform="translate(15.000000, 22.000000)" fill="#F4FCFF">
                        <rect id="矩形" x="0" y="0" width="20" height="118"></rect>
                        <rect id="矩形备份-24" x="38" y="0" width="20" height="118"></rect>
                        <rect id="矩形备份-25" x="76" y="0" width="20" height="118"></rect>
                        <rect id="矩形备份-26" x="113" y="0" width="20" height="118"></rect>
                        <rect id="矩形备份-27" x="149" y="0" width="20" height="118"></rect>
                        <rect id="矩形备份-28" x="186" y="0" width="20" height="118"></rect>
                        <rect id="矩形备份-29" x="223" y="0" width="20" height="118"></rect>
                        <rect id="矩形备份-30" x="260" y="0" width="20" height="118"></rect>
                        <rect id="矩形备份-31" x="297" y="0" width="20" height="118"></rect>
                    </g>
                    <text id="time" font-family="PingFangSC-Regular, PingFang SC" font-size="10" font-weight="normal" fill="#000000" fill-opacity="0.45">
                        <tspan x="327" y="154">time</tspan>
                    </text>
                    <text id="figure" font-family="PingFangSC-Regular, PingFang SC" font-size="10" font-weight="normal" fill="#000000" fill-opacity="0.45">
                        <tspan x="0" y="11">figure</tspan>
                    </text>
                    <g id="刻度" transform="translate(0.000000, 21.500000)">
                        <line x1="2.5" y1="0" x2="2.5" y2="118" id="直线" stroke="#E9E9E9" stroke-linecap="square"></line>
                        <line x1="2.5" y1="118" x2="351" y2="118" id="直线-2" stroke="#E9E9E9" stroke-linecap="square"></line>
                        <rect id="矩形" fill="#E9E9E9" x="8" y="117.5" width="1" height="3"></rect>
                        <rect id="矩形备份-6" fill="#E9E9E9" x="25" y="117.5" width="1" height="3"></rect>
                        <rect id="矩形备份-7" fill="#E9E9E9" x="43" y="117.5" width="1" height="3"></rect>
                        <rect id="矩形备份-8" fill="#E9E9E9" x="63" y="117.5" width="1" height="3"></rect>
                        <rect id="矩形备份-9" fill="#E9E9E9" x="82" y="117.5" width="1" height="3"></rect>
                        <rect id="矩形备份-10" fill="#E9E9E9" x="101" y="117.5" width="1" height="3"></rect>
                        <rect id="矩形备份-11" fill="#E9E9E9" x="119" y="117.5" width="1" height="3"></rect>
                        <rect id="矩形备份-12" fill="#E9E9E9" x="138" y="117.5" width="1" height="3"></rect>
                        <rect id="矩形备份-13" fill="#E9E9E9" x="156" y="117.5" width="1" height="3"></rect>
                        <rect id="矩形备份-14" fill="#E9E9E9" x="174" y="117.5" width="1" height="3"></rect>
                        <rect id="矩形备份-15" fill="#E9E9E9" x="192" y="117.5" width="1" height="3"></rect>
                        <rect id="矩形备份-16" fill="#E9E9E9" x="211" y="117.5" width="1" height="3"></rect>
                        <rect id="矩形备份-17" fill="#E9E9E9" x="229" y="117.5" width="1" height="3"></rect>
                        <rect id="矩形备份-18" fill="#E9E9E9" x="248" y="117.5" width="1" height="3"></rect>
                        <rect id="矩形备份-19" fill="#E9E9E9" x="266" y="117.5" width="1" height="3"></rect>
                        <rect id="矩形备份-20" fill="#E9E9E9" x="285" y="117.5" width="1" height="3"></rect>
                        <rect id="矩形备份-21" fill="#E9E9E9" x="304" y="117.5" width="1" height="3"></rect>
                        <rect id="矩形备份-22" fill="#E9E9E9" x="322" y="117.5" width="1" height="3"></rect>
                        <rect id="矩形备份-23" fill="#E9E9E9" x="343" y="117.5" width="1" height="3"></rect>
                        <rect id="矩形" fill="#E9E9E9" x="0" y="102.5" width="3" height="1"></rect>
                        <rect id="矩形备份" fill="#E9E9E9" x="0" y="79.5" width="3" height="1"></rect>
                        <rect id="矩形备份-3" fill="#E9E9E9" x="0" y="56.5" width="3" height="1"></rect>
                        <rect id="矩形备份-4" fill="#E9E9E9" x="0" y="33.5" width="3" height="1"></rect>
                        <rect id="矩形备份-5" fill="#E9E9E9" x="0" y="10.5" width="3" height="1"></rect>
                    </g>
                </g>
            </g>
            <g id="标题" transform="translate(16.000000, 18.000000)" fill="#000000" fill-opacity="0.85" font-family="PingFangSC-Medium, PingFang SC" font-size="14" font-weight="400" line-spacing="20">
                <text id="动态基线预测周周期">
                    <tspan x="0" y="15">动态基线预测周周期</tspan>
                </text>
            </g>
            <path d="M24.5,154.352539 C31.5579427,134.053711 41.2828776,129.936198 53.6748047,142 C54.8837891,144.145833 55.4674479,143.703288 55.4257812,140.672363 C59.0270182,130.466471 66.1733398,127.514079 76.8647461,131.815186 C78.472168,132.643799 81.6376953,135.374268 82.3847656,137.016357 C83.2236328,136.265381 82.9260254,140.038574 83.940918,135.242676 C84.9558105,130.446777 89.763916,103.260498 110.476318,106.165283 C119.209473,109.014404 122.003174,110.201172 126.50708,114.068359 C127.523926,115.466797 128.794189,114.738281 129.355957,113.589844 C129.917725,112.441406 140.959229,97.2458496 155.354492,112.385742 C156.555501,114.173665 157.801107,116.402018 159.091309,119.070801 C159.55127,120.848307 160.349609,120.848307 161.486328,119.070801 C163.191406,116.404541 174.860107,102.820312 190,114.939209 C192.005859,116.807536 193.424479,118.494466 194.255859,120 C194.862956,121.822917 195.777425,121.666097 196.999268,119.529541 C198.832031,116.324707 205.444092,107.039795 215.894775,110.52832 C222.861898,112.854004 226.968262,116.01123 228.213867,120 C229.110026,122.513835 230.184896,122.651855 231.438477,120.414062 C233.318848,117.057373 245.170654,104.335205 258.625,112.385742 C267.594564,117.752767 273.00415,123.249186 274.85376,128.875 C275.858643,131.508301 276.744222,132.771729 277.510498,132.665283 C278.276774,132.558838 278.276774,148.404785 277.510498,180.203125 C275.974202,187.244141 271.470703,189.676432 264,187.5 C256.529297,185.323568 254.73763,177.490234 258.625,164 C259.565104,150.704427 257.480794,144.03776 252.37207,144 C247.263346,143.96224 244.80599,150.96224 245,165 C240.38151,181.209635 234.38151,188.542969 227,187 C223.392578,182.525391 221.231445,175.825794 220.516602,166.90121 C213.795898,151.174752 207.43099,150.207682 201.421875,164 C192.408203,184.688477 190.617188,182.682617 187.904297,178.775391 C185.191406,174.868164 180.405273,150.552865 165,174.761296 C160.957031,182.68457 158.578125,185.975586 154,177.037109 C149.421875,168.098633 146.040039,146.129883 135,172.830078 C127.639974,190.630208 122.848958,190.011068 120.626953,170.972656 C118.807943,157.97526 114.750651,151.424805 108.455078,151.321289 C102.159505,151.217773 97.648112,158.815879 94.9208984,174.115606 C91.319987,183.317832 86.3463542,182.270182 80,170.972656 C73.6536458,159.67513 67.9342448,159.174154 62.8417969,169.469727 C60.4140625,176.707357 57.3583984,177.208333 53.6748047,170.972656 C48.1494141,161.619141 38.5253906,165.376953 36.21875,172.830078 C33.9121094,180.283203 27.8125,185.402344 25,184.890137 C25.0651042,182.984212 24.8984375,172.805013 24.5,154.352539 Z" id="路径-10" fill-opacity="0.6" fill="#CBE4FF"></path>
            <path d="M277.868408,132.895264 C279.232992,132.040934 280.97583,130.820475 283.096924,129.233887 C286.278564,126.854004 297.030029,125.889893 304.147217,133.453125 C308.892008,138.49528 312.084147,138.068848 313.723633,132.173828 C321.773926,117.940592 333.885091,117.771403 350.057129,131.66626 C351.924316,133.012939 355.014811,135.936198 359.328613,140.436035 L359.5,184.825195 C357.079427,186.425456 354.517578,183.730469 351.814453,176.740234 C347.759766,166.254883 325.178711,150.617188 315.521484,169.894531 C309.083333,182.746094 304.409505,185.027995 301.5,176.740234 C291.927572,165.006836 283.946289,165.888509 277.556152,179.385254 C277.623698,168.12679 277.727783,152.630127 277.868408,132.895264 Z" id="路径-11" fill-opacity="0.291553417" fill="#CEFFB7" opacity="0.980027861"></path>
            <path d="M278,133.2948 C279.60319,132.593791 281.465332,131.449992 283.586426,129.863404 C286.768066,127.483521 297.519531,126.51941 304.636719,134.082642 C309.38151,139.124797 312.573649,138.698365 314.213135,132.803345 C322.263428,118.57011 334.374593,118.40092 350.546631,132.295777 C352.413818,133.642457 355.504313,136.565715 359.818115,141.065552" id="路径" stroke="#99F070" stroke-width="1.5" stroke-dasharray="3"></path>
            <path d="M277.510498,180.203125 C280.552246,172.480469 288.49707,161.726562 297.375977,171.760254 C306.254883,181.793945 306.525879,183.108887 308.902832,181.786621 C311.279785,180.464355 313.830078,168.835623 316.449219,166.90121 C319.068359,164.966797 325.111816,153.455078 341.305664,165.27002 C357.499512,177.084961 354.080078,183.208496 357.281738,183.928223 C359.416178,184.40804 360.655599,184.40804 361,183.928223" id="路径" stroke="#99F070" stroke-width="1.5" stroke-dasharray="3"></path>
            <path d="M25,168.447958 C29.569987,156.130765 34.6490885,150.133301 40.2373047,150.455566 C48.6196289,150.938965 55.7973633,154.037684 58.1542969,159.4456 C59.7255859,163.050877 61.086263,161.35319 62.2363281,154.352539 C67.6328125,143.909505 74.641276,142.850098 83.2617187,151.174316 C85.1891276,154.67985 86.371582,157.436945 86.809082,159.4456 C87.6765951,160.497166 88.406901,159.905762 89,157.671387 C89.8896484,154.319824 89.265625,132.900879 100.577637,126.240234 C111.889648,119.57959 118.141113,123.106445 120.873047,128.286621 C123.60498,133.466797 127.733398,141.807129 127.924805,149 C128.116211,156.192871 128.533203,173.61532 129.197754,159.4456 C129.862305,145.275879 127.478027,125.099609 141.075195,124.518555 C154.672363,123.9375 160.330566,143.654297 160.3125,155.07666 C160.294434,166.499023 160.291992,175.916504 161.393066,169.354004 C162.494141,162.791504 159.124023,146.984375 165.858887,137.161133 C172.59375,127.337891 178.656738,117.324707 189.494141,129.230469 C194.053385,136.988607 196.119792,147.729329 195.693359,161.452637 C196.261068,163.005697 196.725098,163.005697 197.085449,161.452637 C197.625977,159.123047 195.59668,144.780762 199.126953,139.050293 C202.657227,133.319824 212.027344,113.862793 225.994629,134 C230.120931,146.66276 232.171875,156.700684 232.147461,164.11377 C232.208659,171.107108 232.709473,169.937392 233.649902,160.604623 C235.060547,146.605469 234.545898,122.804199 248.047852,122.618164 C261.549805,122.432129 268.414551,152.533691 268.395508,153.068359 C268.382812,153.424805 268.931966,160.012044 270.042969,172.830078 C270.852865,174.067057 272.171875,171.627604 274,165.511719 C275.828125,159.395833 277.233073,156.371419 278.214844,156.438477" id="路径-17" stroke="#1890FF" stroke-width="1.5"></path>
            <path d="M278.499556,155.963824 C281.786685,151.701211 286.688842,148.63519 293.823242,149.678711 C300.578613,151.09375 306.055664,167.306152 306.175781,168.064941 C306.295898,168.82373 307.075195,170.064941 308.953125,164.770508 C310.831055,159.476074 318.641113,143.057617 333.414551,145.880371 C343.263509,147.762207 350.637044,156.071777 355.535156,170.809082 C358.536133,173.760254 358.61849,175.395996 359.260742,174.339355" id="路径" stroke="#6DD897" stroke-width="1.5" stroke-dasharray="2"></path>
        </g>
    </g>
</svg>