<?xml version="1.0" encoding="UTF-8"?>
<svg width="392px" height="248px" viewBox="0 0 392 248" version="1.1" xmlns="http://www.w3.org/2000/svg" xmlns:xlink="http://www.w3.org/1999/xlink">
    <title>编组 37</title>
    <defs>
        <path d="M2,0 L382,0 C383.104569,-2.02906125e-16 384,0.8954305 384,2 L384,238 C384,239.104569 383.104569,240 382,240 L2,240 C0.8954305,240 1.3527075e-16,239.104569 0,238 L0,2 C-1.3527075e-16,0.8954305 0.8954305,2.02906125e-16 2,0 Z" id="path-1"></path>
        <filter x="-1.8%" y="-2.1%" width="103.6%" height="105.8%" filterUnits="objectBoundingBox" id="filter-2">
            <feOffset dx="0" dy="2" in="SourceAlpha" result="shadowOffsetOuter1"></feOffset>
            <feGaussianBlur stdDeviation="2" in="shadowOffsetOuter1" result="shadowBlurOuter1"></feGaussianBlur>
            <feColorMatrix values="0 0 0 0 0.12334826   0 0 0 0 0.156873573   0 0 0 0 0.212749094  0 0 0 0.0649311626 0" type="matrix" in="shadowBlurOuter1"></feColorMatrix>
        </filter>
        <rect id="path-3" x="0.921974437" y="0.847119784" width="56" height="69"></rect>
    </defs>
    <g id="页面-1" stroke="none" stroke-width="1" fill="none" fill-rule="evenodd">
        <g id="编组-37" transform="translate(4.000000, 2.000000)">
            <g id="背景板备份-2">
                <use fill="black" fill-opacity="1" filter="url(#filter-2)" xlink:href="#path-1"></use>
                <use fill="#FFFFFF" fill-rule="evenodd" xlink:href="#path-1"></use>
            </g>
            <rect id="实际区域备份-2" fill="#FF5656" opacity="0" x="16" y="44" width="352" height="180"></rect>
            <g id="编组-2备份-3" transform="translate(31.000000, 85.000000)" fill="#F4FCFF">
                <rect id="矩形" x="0" y="0" width="20" height="118"></rect>
                <rect id="矩形备份-24" x="38" y="0" width="20" height="118"></rect>
                <rect id="矩形备份-25" x="76" y="0" width="20" height="118"></rect>
                <rect id="矩形备份-26" x="113" y="0" width="20" height="118"></rect>
                <rect id="矩形备份-27" x="149" y="0" width="20" height="118"></rect>
                <rect id="矩形备份-28" x="186" y="0" width="20" height="118"></rect>
                <rect id="矩形备份-29" x="223" y="0" width="20" height="118"></rect>
                <rect id="矩形备份-30" x="260" y="0" width="20" height="118"></rect>
                <rect id="矩形备份-31" x="297" y="0" width="20" height="118"></rect>
            </g>
            <text id="time备份-3" font-family="PingFangSC-Regular, PingFang SC" font-size="10" font-weight="normal" fill="#000000" fill-opacity="0.45">
                <tspan x="343" y="217">time</tspan>
            </text>
            <text id="figure备份-3" font-family="PingFangSC-Regular, PingFang SC" font-size="10" font-weight="normal" fill="#000000" fill-opacity="0.45">
                <tspan x="16" y="74">figure</tspan>
            </text>
            <g id="刻度备份-2" transform="translate(16.000000, 84.500000)">
                <line x1="2.5" y1="0" x2="2.5" y2="118" id="直线" stroke="#E9E9E9" stroke-linecap="square"></line>
                <line x1="2.5" y1="118" x2="351" y2="118" id="直线-2" stroke="#E9E9E9" stroke-linecap="square"></line>
                <rect id="矩形" fill="#E9E9E9" x="8" y="117.5" width="1" height="3"></rect>
                <rect id="矩形备份-6" fill="#E9E9E9" x="25" y="117.5" width="1" height="3"></rect>
                <rect id="矩形备份-7" fill="#E9E9E9" x="43" y="117.5" width="1" height="3"></rect>
                <rect id="矩形备份-8" fill="#E9E9E9" x="63" y="117.5" width="1" height="3"></rect>
                <rect id="矩形备份-9" fill="#E9E9E9" x="82" y="117.5" width="1" height="3"></rect>
                <rect id="矩形备份-10" fill="#E9E9E9" x="101" y="117.5" width="1" height="3"></rect>
                <rect id="矩形备份-11" fill="#E9E9E9" x="119" y="117.5" width="1" height="3"></rect>
                <rect id="矩形备份-12" fill="#E9E9E9" x="138" y="117.5" width="1" height="3"></rect>
                <rect id="矩形备份-13" fill="#E9E9E9" x="156" y="117.5" width="1" height="3"></rect>
                <rect id="矩形备份-14" fill="#E9E9E9" x="174" y="117.5" width="1" height="3"></rect>
                <rect id="矩形备份-15" fill="#E9E9E9" x="192" y="117.5" width="1" height="3"></rect>
                <rect id="矩形备份-16" fill="#E9E9E9" x="211" y="117.5" width="1" height="3"></rect>
                <rect id="矩形备份-17" fill="#E9E9E9" x="229" y="117.5" width="1" height="3"></rect>
                <rect id="矩形备份-18" fill="#E9E9E9" x="248" y="117.5" width="1" height="3"></rect>
                <rect id="矩形备份-19" fill="#E9E9E9" x="266" y="117.5" width="1" height="3"></rect>
                <rect id="矩形备份-20" fill="#E9E9E9" x="285" y="117.5" width="1" height="3"></rect>
                <rect id="矩形备份-21" fill="#E9E9E9" x="304" y="117.5" width="1" height="3"></rect>
                <rect id="矩形备份-22" fill="#E9E9E9" x="322" y="117.5" width="1" height="3"></rect>
                <rect id="矩形备份-23" fill="#E9E9E9" x="343" y="117.5" width="1" height="3"></rect>
                <rect id="矩形" fill="#E9E9E9" x="0" y="102.5" width="3" height="1"></rect>
                <rect id="矩形备份" fill="#E9E9E9" x="0" y="79.5" width="3" height="1"></rect>
                <rect id="矩形备份-3" fill="#E9E9E9" x="0" y="56.5" width="3" height="1"></rect>
                <rect id="矩形备份-4" fill="#E9E9E9" x="0" y="33.5" width="3" height="1"></rect>
                <rect id="矩形备份-5" fill="#E9E9E9" x="0" y="10.5" width="3" height="1"></rect>
            </g>
            <g id="标题备份" transform="translate(16.000000, 14.000000)" fill="#000000" font-family="PingFangSC-Medium, PingFang SC" font-size="14" font-weight="400">
                <text id="指数平均预测周周期">
                    <tspan x="0" y="15">指数平均预测周周期</tspan>
                </text>
            </g>
            <path d="M20,189.886778 L20,177.093316 L36.32847,177.093316 L40.7536044,93.5 L44.4529461,93.5 L49.7713618,178.059508 L59.6889957,179.186609 L65.4876274,93 L68.7536044,93 L71.6907063,178.059508 L77.3377436,179.186609 L83.4965421,176.071694 L88.7536044,179.186609 L90.1299599,141 L93.5282653,141 L99.2857908,179.186609 L104.317508,180.658468 L111.965747,179.186609 L119.291938,180.658468 L122.33163,138.5 L124.485472,139.5 L130.853073,180.658468 L134.753604,182.807013 L141.071495,182.807013 L143.753604,182.807013 L147.557281,138.5 L152.506288,141 L154.753604,180.658468 L157.862822,182.807013 L163.753604,180.658468 L169.60427,180.658468 L174.07437,138.5 L177.24275,138.5 L179.753604,180.658468 L182.178645,182.807013 L187.769817,180.658468 L195.644035,180.658468 L201.037519,137.542636 L203.553541,137.542636 L205.184296,141.5 L208.253604,180.658468 L210.915236,182.807013 L215.80749,182.807013 L221.83163,182.807013 L232.129108,182.807013 L236.753604,182.807013 L241.216622,95.3709381 L242.940563,93.5 L244.753604,97.6528802 L249.515015,182.807013 L257.950601,182.807013 L266.883933,95.3709381 L269.759675,93.5 L273.753604,182.807013 L279.804427,180.658468 L282.753604,178.059508 L288.04822,180.658468 L290.753604,141 L295.07005,141 L299.268404,180.658468 L304.955998,182.807013 L310.753604,176.071694 C311.200092,155.328807 312.916693,143.804909 315.903406,141.5 C320.383476,138.042636 322.572109,137.542636 324.897022,137.542636 C327.221935,137.542636 334.955862,143.436924 334.955862,148.394288 C334.955862,153.351652 337.753604,172.95678 342.753604,176.071694 C346.086938,178.148304 349.586938,178.810909 353.253604,178.059508 L364.078026,177.093316 L363.83163,187.664582 L363.83163,189.886778 L363.753604,196.679253 C354.802365,196.679253 347.802365,196.679253 342.753604,196.679253 C335.180464,196.679253 330.685975,189.886778 327.753604,189.886778 C324.821234,189.886778 322.538895,194.340085 319.753604,194.340085 C317.896744,194.340085 311.068344,194.340085 299.268404,194.340085 L295.07005,180.658468 L292.83163,189.886778 L282.753604,187.664582 L273.753604,189.886778 L266.883933,187.664582 L266.883933,182.807013 L263.753604,189.886778 L249.515015,189.886778 L242.940563,185.959186 L239.441529,189.886778 L205.184296,189.886778 L203.553541,182.807013 L195.644035,189.886778 L182.178645,189.886778 L172.253604,189.886778 L157.862822,189.886778 L135.753604,189.886778 L119.753604,191.796925 L91.860864,189.886778 L67.7536044,187.664582 L48.3777289,189.886778 L30.7536044,187.664582 L20,189.886778 Z" id="路径-55" fill-opacity="0.6" fill="#CBE4FF"></path>
            <path d="M21.0780256,185.617676 L29.0894044,185.617676 L39.7183624,185.617676 L42.1676685,100.15288 L45.8180032,185.617676 L53.1800379,185.617676 L62.5398666,186.94684 L67.102782,100.15288 C66.3144569,157.129411 67.014474,185.617676 69.2028336,185.617676 C72.4853728,185.617676 77.7451714,185.617676 79.3558681,184.271484 C80.9665648,182.925293 84.4323853,180.282715 84.4323853,182.324219 C84.4323853,184.365723 87.6052277,185.617676 89.5700485,185.617676 C90.8799291,185.617676 91.6031542,172.404215 91.739724,145.977295 C93.950939,173.290325 96.219915,186.503785 98.546652,185.617676 C102.036758,184.288512 101.394926,186.94684 104.575016,185.617676 C107.755107,184.288512 119.363529,183.619629 119.363529,185.617676 C119.363529,186.949707 120.367868,187.392762 122.376545,186.94684 L123.862192,145.977295 C126.274086,167.945019 128.143846,181.491813 129.471471,186.617676 C130.231109,189.550579 145.223955,187.255324 145.881024,187.5 C149.45045,188.829164 147.264349,145.977295 149.428487,145.977295 C151.592626,145.977295 151.563947,187.94684 154.158438,186.94684 C155.888099,186.280173 157.189126,186.631226 158.061519,188 L172.925767,185.617676 L175.713566,145.977295 C176.726451,173.325765 177.514776,187 178.078542,187 C178.92419,187 182.501881,189.918945 183.77116,187.5 C185.04044,185.081055 194.434087,186.617676 198.074081,186.617676 C201.714075,186.617676 201.631328,150.464111 202.976017,145.977295 C204.320707,141.490479 201.241605,188 209.001307,188 C216.761009,188 224.042742,187.20145 224.078026,187.5" id="路径-30备份-6" stroke="#1890FF" stroke-width="1.5" stroke-linecap="round" stroke-linejoin="round"></path>
            <path d="M222.078026,187.617676 L230.095133,187.617676 L240.731692,187.617676 L243.18275,102.15288 L246.835695,187.617676 L254.202995,187.617676 L263.569517,188.94684 L268.135695,102.15288 C267.346806,159.129411 268.047324,187.617676 270.237249,187.617676 C273.522135,187.617676 278.785695,187.617676 280.397544,186.271484 C282.009392,184.925293 285.477691,182.282715 285.477691,184.324219 C285.477691,186.365723 288.652803,187.617676 290.619029,187.617676 C291.929846,187.617676 292.653588,174.404215 292.790256,147.977295 C295.003052,175.290325 297.273651,188.503785 299.602052,187.617676 C303.094653,186.288512 302.452362,188.94684 305.634727,187.617676" id="路径-30备份-16" stroke="#1890FF" stroke-width="1.5" stroke-linecap="round" stroke-linejoin="round"></path>
            <g id="路径-30备份-16" transform="translate(307.078026, 127.152880)">
                <mask id="mask-4" fill="white">
                    <use xlink:href="#path-3"></use>
                </mask>
                <g id="蒙版"></g>
                <path d="M-85,60.4647956 L-76.9828921,60.4647956 L-66.3463331,60.4647956 L-63.8952754,-25 L-60.2423302,60.4647956 L-52.8750308,60.4647956 L-43.5085087,61.7939595 L-38.9423302,-25 C-39.7312191,31.9765304 -39.0307014,60.4647956 -36.8407769,60.4647956 C-33.5558902,60.4647956 -28.2923302,60.4647956 -26.6804817,59.1186042 C-25.0686332,57.7724128 -21.6003341,55.1298346 -21.6003341,57.1713385 C-21.6003341,59.2128424 -18.4252228,60.4647956 -16.4589969,60.4647956 C-15.1481796,60.4647956 -14.4244373,47.2513353 -14.2877698,20.8244147 C-12.0749736,48.1374446 -9.80437499,61.3509048 -7.47597401,60.4647956 C-3.98337254,59.1356317 -4.62566358,61.7939595 -1.44329875,60.4647956 C1.73906608,59.1356317 13.3557897,58.4667487 13.3557897,60.4647956 C13.3557897,61.7968268 14.3608465,62.2398815 16.37096,61.7939595 L17.8576698,20.8244147 C20.2712884,42.7921392 22.1423851,56.3389328 23.47096,61.4647956 C24.2311407,64.3976992 39.2347091,62.1024439 39.8922481,62.3471198 C42.2735672,63.2332291 47.9761512,63.2332291 57,62.3471198" stroke="#6DD897" stroke-width="1.5" stroke-dasharray="2" mask="url(#mask-4)"></path>
            </g>
        </g>
    </g>
</svg>