<?xml version="1.0" encoding="UTF-8"?>
<svg width="392px" height="248px" viewBox="0 0 392 248" version="1.1" xmlns="http://www.w3.org/2000/svg" xmlns:xlink="http://www.w3.org/1999/xlink">
    <title>编组 38</title>
    <defs>
        <path d="M2,0 L382,0 C383.104569,-2.02906125e-16 384,0.8954305 384,2 L384,238 C384,239.104569 383.104569,240 382,240 L2,240 C0.8954305,240 1.3527075e-16,239.104569 0,238 L0,2 C-1.3527075e-16,0.8954305 0.8954305,2.02906125e-16 2,0 Z" id="path-1"></path>
        <filter x="-1.8%" y="-2.1%" width="103.6%" height="105.8%" filterUnits="objectBoundingBox" id="filter-2">
            <feOffset dx="0" dy="2" in="SourceAlpha" result="shadowOffsetOuter1"></feOffset>
            <feGaussianBlur stdDeviation="2" in="shadowOffsetOuter1" result="shadowBlurOuter1"></feGaussianBlur>
            <feColorMatrix values="0 0 0 0 0.12334826   0 0 0 0 0.156873573   0 0 0 0 0.212749094  0 0 0 0.0649311626 0" type="matrix" in="shadowBlurOuter1"></feColorMatrix>
        </filter>
        <rect id="path-3" x="0" y="0" width="69" height="95"></rect>
    </defs>
    <g id="页面-1" stroke="none" stroke-width="1" fill="none" fill-rule="evenodd">
        <g id="编组-38" transform="translate(4.000000, 2.000000)">
            <g id="背景板备份-10">
                <use fill="black" fill-opacity="1" filter="url(#filter-2)" xlink:href="#path-1"></use>
                <use fill="#FFFFFF" fill-rule="evenodd" xlink:href="#path-1"></use>
            </g>
            <rect id="实际区域备份-10" fill="#FF5656" opacity="0" x="16" y="44" width="352" height="180"></rect>
            <g id="编组-2备份-11" transform="translate(31.000000, 85.000000)" fill="#F4FCFF">
                <rect id="矩形" x="0" y="0" width="20" height="118"></rect>
                <rect id="矩形备份-24" x="38" y="0" width="20" height="118"></rect>
                <rect id="矩形备份-25" x="76" y="0" width="20" height="118"></rect>
                <rect id="矩形备份-26" x="113" y="0" width="20" height="118"></rect>
                <rect id="矩形备份-27" x="149" y="0" width="20" height="118"></rect>
                <rect id="矩形备份-28" x="186" y="0" width="20" height="118"></rect>
                <rect id="矩形备份-29" x="223" y="0" width="20" height="118"></rect>
                <rect id="矩形备份-30" x="260" y="0" width="20" height="118"></rect>
                <rect id="矩形备份-31" x="297" y="0" width="20" height="118"></rect>
            </g>
            <text id="time备份-11" font-family="PingFangSC-Regular, PingFang SC" font-size="10" font-weight="normal" fill="#000000" fill-opacity="0.45">
                <tspan x="343" y="217">time</tspan>
            </text>
            <text id="figure备份-11" font-family="PingFangSC-Regular, PingFang SC" font-size="10" font-weight="normal" fill="#000000" fill-opacity="0.45">
                <tspan x="16" y="74">figure</tspan>
            </text>
            <g id="刻度备份-10" transform="translate(16.000000, 84.500000)">
                <line x1="2.5" y1="0" x2="2.5" y2="118" id="直线" stroke="#E9E9E9" stroke-linecap="square"></line>
                <line x1="2.5" y1="118" x2="351" y2="118" id="直线-2" stroke="#E9E9E9" stroke-linecap="square"></line>
                <rect id="矩形" fill="#E9E9E9" x="8" y="117.5" width="1" height="3"></rect>
                <rect id="矩形备份-6" fill="#E9E9E9" x="25" y="117.5" width="1" height="3"></rect>
                <rect id="矩形备份-7" fill="#E9E9E9" x="43" y="117.5" width="1" height="3"></rect>
                <rect id="矩形备份-8" fill="#E9E9E9" x="63" y="117.5" width="1" height="3"></rect>
                <rect id="矩形备份-9" fill="#E9E9E9" x="82" y="117.5" width="1" height="3"></rect>
                <rect id="矩形备份-10" fill="#E9E9E9" x="101" y="117.5" width="1" height="3"></rect>
                <rect id="矩形备份-11" fill="#E9E9E9" x="119" y="117.5" width="1" height="3"></rect>
                <rect id="矩形备份-12" fill="#E9E9E9" x="138" y="117.5" width="1" height="3"></rect>
                <rect id="矩形备份-13" fill="#E9E9E9" x="156" y="117.5" width="1" height="3"></rect>
                <rect id="矩形备份-14" fill="#E9E9E9" x="174" y="117.5" width="1" height="3"></rect>
                <rect id="矩形备份-15" fill="#E9E9E9" x="192" y="117.5" width="1" height="3"></rect>
                <rect id="矩形备份-16" fill="#E9E9E9" x="211" y="117.5" width="1" height="3"></rect>
                <rect id="矩形备份-17" fill="#E9E9E9" x="229" y="117.5" width="1" height="3"></rect>
                <rect id="矩形备份-18" fill="#E9E9E9" x="248" y="117.5" width="1" height="3"></rect>
                <rect id="矩形备份-19" fill="#E9E9E9" x="266" y="117.5" width="1" height="3"></rect>
                <rect id="矩形备份-20" fill="#E9E9E9" x="285" y="117.5" width="1" height="3"></rect>
                <rect id="矩形备份-21" fill="#E9E9E9" x="304" y="117.5" width="1" height="3"></rect>
                <rect id="矩形备份-22" fill="#E9E9E9" x="322" y="117.5" width="1" height="3"></rect>
                <rect id="矩形备份-23" fill="#E9E9E9" x="343" y="117.5" width="1" height="3"></rect>
                <rect id="矩形" fill="#E9E9E9" x="0" y="102.5" width="3" height="1"></rect>
                <rect id="矩形备份" fill="#E9E9E9" x="0" y="79.5" width="3" height="1"></rect>
                <rect id="矩形备份-3" fill="#E9E9E9" x="0" y="56.5" width="3" height="1"></rect>
                <rect id="矩形备份-4" fill="#E9E9E9" x="0" y="33.5" width="3" height="1"></rect>
                <rect id="矩形备份-5" fill="#E9E9E9" x="0" y="10.5" width="3" height="1"></rect>
            </g>
            <g id="标题备份-10" transform="translate(16.000000, 14.000000)" fill="#000000" font-family="PingFangSC-Medium, PingFang SC" font-size="14" font-weight="400">
                <text id="Holtwinters-forecast">
                    <tspan x="0" y="15">Holtwinters forecasting weekly periodicity linear trend</tspan>
                </text>
            </g>
            <path d="M23.2055933,200.545979 L24,194.755547 L38.2887124,192.772312 L41,165 L42.9945432,165 L47.2857117,190.250582 L62.5729007,187.5 L62.5729007,161.534589 L65.7008479,161.534589 L71.7019291,185.819061 L83.8342584,184.479788 L83.8342584,158.341809 L87.3334506,158.341809 L93.5243184,182.232358 L104.62537,179.443894 L104.62537,153.277414 L108.349883,153.277414 L113.384685,176.911696 L118,176.911696 L124.446375,175.539766 L124.446375,150.264428 L127,150.264428 L133.632131,172.841124 L150.924665,170.241359 L154,167.208301 L151.917204,129.484948 L151.917204,116.357083 L155.638398,116.357083 L157.527378,122.670036 L161.135884,166.275192 L164.83856,167.208301 L171.45619,166.275192 L173.071195,165 C172.964963,133.777741 173.22697,117.563435 173.857216,116.357083 C174.487462,115.150731 175.511612,114.219302 176.929665,113.562796 L180,120 L183.216631,162.517821 L188.691903,162.517821 L190,161.534589 L192,141.669316 L195.167294,140.093701 L200,145.642527 C200.094537,154.956567 200.535709,159.613587 201.323517,159.613587 C202.111324,159.613587 204.290925,159.613587 207.862319,159.613587 L210.131977,158.341809 C208.822154,146.33612 208.822154,139.939372 210.131977,139.151565 C211.441801,138.363757 212.753219,137.917333 214.066232,137.812292 C217.384173,150.640356 219.384527,157.054388 220.067294,157.054388 C220.75006,157.054388 223.060962,157.054388 227,157.054388 L229.048299,149.119281 C228.456646,142.095944 228.456646,137.82023 229.048299,136.292138 C229.639952,134.764046 230.815493,134.764046 232.574923,136.292138 L235.292869,141.669316 C235.647111,149.408048 236.216155,153.277414 237,153.277414 C237.783845,153.277414 240.421034,152.882607 244.911568,152.092994 L248.771834,149.119281 L250.680958,131.642056 C250.680958,130.066441 250.680958,129.672537 250.680958,130.460344 C250.680958,131.248152 251.787305,131.248152 254,130.460344 L258.480252,147.949868 C261.323141,148.501334 263.163057,148.501334 264,147.949868 C264.836943,147.398403 266.358345,146.629289 268.564206,145.642527 L270.100431,129.484948 C270.809509,127.299175 271.636707,126.508281 272.582024,127.112267 C273.527341,127.716252 275.4706,132.981467 278.411799,142.90791 L282.981083,144 C287.235249,142.446211 289.362332,141.669316 289.362332,141.669316 C289.362332,141.669316 289.908222,139.112877 291,134 L294.163291,108.026802 L297.542586,89.1121919 C299.779287,85.1852357 301.748557,83.814505 303.450395,85 C305.152233,86.185495 307.668768,88.8988617 311,93.1401002 C310.157695,118.020263 310.984836,130.460344 313.481425,130.460344 C315.978014,130.460344 318.150872,126.973563 320,120 C320.779283,98.9575419 322.307437,87.1242085 324.584462,84.5 C328,80.5636872 332.044694,77.4022282 335.022347,81.2011141 C338,85 339.097752,124.96292 341.048876,124.96292 C343,124.96292 350.689977,122.670036 350.689977,122.670036 C350.689977,122.670036 350.689977,129.003129 350.689977,141.669316 L338.5,145.642527 C335.296933,145.942235 332.828978,145.72806 331.096137,145 C329.363295,144.27194 328.33125,142.322462 328,139.151565 C326.378886,143.47406 324.045552,146.406828 321,147.949868 C316.431672,150.264428 311.707337,150.42598 306.524037,149.119281 C301.340736,147.812582 302,140.173294 301,142.90791 C300.333333,144.730988 297,147.792682 291,152.092994 L282,153.277414 L276.863221,152.092994 L274,147.949868 L270.100431,154.48446 L258.480252,157.054388 L254,152.092994 L248.771834,158.341809 L235.292869,162.517821 L232.574923,158.341809 L230.783834,163.691304 L217,166.275192 L214.066232,159.613587 L211.670568,166.275192 L198.134224,168.95458 L195.167294,159.613587 L193.256789,170.241359 L180,170.241359 C179.087833,166.975176 178.63175,165.65312 178.63175,166.275192 C178.63175,166.897265 177.040239,169.085908 173.857216,172.841124 L157.527378,175.539766 L133.632131,179.443894 L130.328496,176.911696 L129.122838,182.232358 L110.891031,184.479788 L110.891031,182.232358 L107,185.819061 L90.3400272,190.250582 L89,185.819061 L87.3334506,190.250582 L70.1177476,192.772312 L67.2132076,189.081103 L65.7008479,192.772312 L47.2857117,196.782393 L44.6447714,196.782393 L41.5,198.144953 L23.2055933,200.545979 Z" id="路径-57" fill-opacity="0.6" fill="#CBE4FF"></path>
            <path d="M25,198.144953 L41,195.464397 C41.7212957,193.904875 42.0802125,192.769883 42.0767504,192.059418 C42.0039986,177.129904 41.2713039,169.644341 42.0767504,169.411605 C42.8714688,169.181968 42.9207781,178.007111 44.660205,192.059418 C44.7597521,192.86363 45.3184749,193.484636 46.3363733,193.922437 L62.4737807,190.704917 C65.0517712,188.148973 66.3545807,186.366397 66.3822091,185.35719 C66.7623918,171.469925 63.7797663,164.98502 65.0336799,164.77754 C66.31229,164.565973 66.6834049,171.36623 69,185.35719 C69.1352682,186.174136 69.8176478,187.483843 71.0471388,189.286313 L86.1369014,187 C87.4533255,183.943887 88.0814748,181.814124 88.0213493,180.610711 C87.4027411,168.229269 85.3071307,162.50862 86.1369014,162.275561 C86.9965656,162.034106 87.9834622,169.55348 90.4765127,182.329376 C90.6526037,183.231772 91.1557279,184.241044 91.9858855,185.35719 L104.7272,182.329376 C107.097318,179.626898 108.270032,177.692454 108.245344,176.526042 C107.990115,164.467501 105.110352,158.436335 107,158.061484 C108.953667,157.673932 108.658065,163.959214 110.111269,176.526042 C110.215483,177.427256 111.035255,178.788812 112.570585,180.610711 L125.587001,178.191393 C127.478314,175.626635 128.389079,173.831336 128.319296,172.805496 C127.53694,161.304594 125.016788,155.828799 127,155.435387 C128.949217,155.048719 128.621112,161.955738 130.43076,172.805496 C130.616029,173.916281 131.628134,175.156463 133.467074,176.526042 L154,172.805496 C155.449035,170.46944 156.13936,168.550317 156.070974,167.048126 C154.726773,137.520888 152.763121,121.278859 155,120.835127 C157.191836,120.40033 157.657433,138.852938 158.624356,167.048126 C158.687806,168.898307 159.148308,170.288134 160.005862,171.217605 L173.955215,169.048126 C175.626299,166.520634 176.455437,164.719672 176.442628,163.64524 C176.085222,133.664102 174.381533,118.908862 176.442628,118.5 C178.476098,118.096618 178.666331,134.921878 180,163.64524 C180.060523,164.948731 180.647465,166.083026 181.760826,167.048126 L192,164.77754 C192.40699,151.294351 193.539312,144.368505 195.396965,144 C197.254619,143.631495 198.427284,150.179908 198.914962,163.64524 L205.819589,162.275561 C209.19267,161.441203 210.902755,160.914924 210.949845,160.696723 C213.707743,147.917574 210.949845,141.464208 213.438419,141.464208 C215.097468,141.464208 216.284661,147.875047 217,160.696723 L229.716061,158.061484 C230.516647,155.300544 230.872834,153.242407 230.78462,151.887072 C230.2251,143.290454 229.123918,138.209295 230.78462,137.87986 C232.623686,137.515042 232.593607,143.701323 233.29789,154.132995 C233.35262,154.943653 233.860924,155.848707 234.822801,156.848156 L246.866716,154.132995 C249.038306,152.960768 250.152141,152.212127 250.208221,151.887072 C252.263346,139.975111 251.054895,134.604156 252.759389,134.266033 C254.303138,133.959798 254.356304,141.245005 255.727961,150.364859 C255.864506,151.272716 256.535584,151.78012 257.741195,151.887072 L265.862096,150.364859 C269.366298,149.183715 271.201425,148.207673 271.367476,147.436732 C273.476797,137.643629 270.786145,131.808976 272.808166,131.407866 C274.827847,131.007219 273.807081,137.248343 276.376057,146.091716 C276.580513,146.795531 277.996143,147.243869 280.622946,147.436732" id="路径-56" stroke="#1890FF" stroke-width="1.5" stroke-linecap="round" stroke-linejoin="round"></path>
            <g id="路径-56" transform="translate(282.000000, 79.000000)">
                <mask id="mask-4" fill="white">
                    <use xlink:href="#path-3"></use>
                </mask>
                <g id="蒙版"></g>
                <path d="M-257,119.144953 L-241,116.464397 C-240.278704,114.904875 -239.919787,113.769883 -239.92325,113.059418 C-239.996001,98.1299044 -240.728696,90.6443406 -239.92325,90.4116045 C-239.128531,90.1819684 -239.079222,99.0071106 -237.339795,113.059418 C-237.240248,113.86363 -236.681525,114.484636 -235.663627,114.922437 L-219.526219,111.704917 C-216.948229,109.148973 -215.645419,107.366397 -215.617791,106.35719 C-215.237608,92.4699252 -218.220234,85.9850203 -216.96632,85.7775397 C-215.68771,85.5659725 -215.316595,92.3662297 -213,106.35719 C-212.864732,107.174136 -212.182352,108.483843 -210.952861,110.286313 L-195.863099,108 C-194.546674,104.943887 -193.918525,102.814124 -193.978651,101.610711 C-194.597259,89.2292687 -196.692869,83.5086195 -195.863099,83.275561 C-195.003434,83.0341063 -194.016538,90.55348 -191.523487,103.329376 C-191.347396,104.231772 -190.844272,105.241044 -190.014115,106.35719 L-177.2728,103.329376 C-174.902682,100.626898 -173.729968,98.6924538 -173.754656,97.526042 C-174.009885,85.4675015 -176.889648,79.4363354 -175,79.0614837 C-173.046333,78.6739324 -173.341935,84.9592135 -171.888731,97.526042 C-171.784517,98.4272555 -170.964745,99.788812 -169.429415,101.610711 L-156.412999,99.1913926 C-154.521686,96.626635 -153.610921,94.8313361 -153.680704,93.805496 C-154.46306,82.3045936 -156.983212,76.8287992 -155,76.4353872 C-153.050783,76.0487187 -153.378888,82.9557384 -151.56924,93.805496 C-151.383971,94.9162815 -150.371866,96.1564635 -148.532926,97.526042 L-128,93.805496 C-126.550965,91.4694402 -125.86064,89.5503168 -125.929026,88.0481258 C-127.273227,58.5208876 -129.236879,42.2788594 -127,41.8351271 C-124.808164,41.4003299 -124.342567,59.8529381 -123.375644,88.0481258 C-123.312194,89.898307 -122.851692,91.2881335 -121.994138,92.2176053 L-108.044785,90.0481258 C-106.373701,87.5206344 -105.544563,85.7196724 -105.557372,84.64524 C-105.914778,54.6641021 -107.618467,39.9088619 -105.557372,39.5 C-103.523902,39.0966182 -103.333669,55.9218784 -102,84.64524 C-101.939477,85.9487309 -101.352535,87.0830262 -100.239174,88.0481258 L-90,85.7775397 C-89.59301,72.2943515 -88.4606882,65.3685049 -86.6030346,65 C-84.745381,64.6314951 -83.5727156,71.1799084 -83.0850385,84.64524 L-76.1804109,83.275561 C-72.8073304,82.4412032 -71.0972449,81.9149239 -71.0501545,81.6967231 C-68.2922575,68.9175739 -71.0501545,62.4642085 -68.5615813,62.4642085 C-66.9025325,62.4642085 -65.7153387,68.8750467 -65,81.6967231 L-52.2839386,79.0614837 C-51.4833527,76.3005441 -51.1271664,74.2424068 -51.2153798,72.8870718 C-51.7748995,64.2904539 -52.8760823,59.2092951 -51.2153798,58.8798596 C-49.3763142,58.5150421 -49.4063926,64.7013225 -48.7021102,75.1329948 C-48.6473795,75.9436531 -48.1390757,76.8487068 -47.1771986,77.8481557 L-35.1332837,75.1329948 C-32.9616942,73.9607682 -31.8478592,73.2121272 -31.7917786,72.8870718 C-29.7366537,60.9751107 -30.9451054,55.6041555 -29.240611,55.266033 C-27.6968618,54.9597977 -27.6436964,62.2450049 -26.2720386,71.3648593 C-26.1354938,72.2727157 -25.4644158,72.7801199 -24.2588045,72.8870718 L-16.1379043,71.3648593 C-12.6337021,70.1837149 -10.7985752,69.2076725 -10.6325237,68.4367323 C-8.5232034,58.6436288 -11.2138554,52.8089764 -9.19183406,52.4078657 C-7.17215332,52.0072193 -8.19291924,58.248343 -5.62394309,67.0917164 C-5.41948699,67.7955305 -4.00385722,68.2438691 -1.37705379,68.4367323 L5.40324557,67.0917164 L12.6056258,65.6629719 C14.9100679,63.3381326 16.1037393,61.7628563 16.1866402,60.937143 C19.0702563,32.2156068 18.2210161,18.6831403 20.048951,18.4785981 C21.8586493,18.2760965 21.1056023,33.2000483 21.9809202,60.937143 C22.0122187,61.9289316 22.7563409,63.0712499 24.2132867,64.3640982 L40.7617041,60.937143 C42.5118523,58.8650328 43.4253622,57.3753148 43.5022337,56.467989 C45.8819435,28.379947 45.3743585,14.4645315 46.7617041,14.1449528 C48.144917,13.8263261 47.2548131,29.2116175 47.7743124,56.467989 C47.7921786,57.4053702 48.4316487,58.2093271 49.6927227,58.8798596 L66,55.266033" stroke="#6DD897" stroke-width="1.5" stroke-dasharray="2" mask="url(#mask-4)"></path>
            </g>
        </g>
    </g>
</svg>