<?xml version="1.0" encoding="UTF-8"?>
<svg width="392px" height="248px" viewBox="0 0 392 248" version="1.1" xmlns="http://www.w3.org/2000/svg" xmlns:xlink="http://www.w3.org/1999/xlink">
    <title>编组 23</title>
    <defs>
        <path d="M2,0 L382,0 C383.104569,-2.02906125e-16 384,0.8954305 384,2 L384,238 C384,239.104569 383.104569,240 382,240 L2,240 C0.8954305,240 1.3527075e-16,239.104569 0,238 L0,2 C-1.3527075e-16,0.8954305 0.8954305,2.02906125e-16 2,0 Z" id="path-1"></path>
        <filter x="-1.8%" y="-2.1%" width="103.6%" height="105.8%" filterUnits="objectBoundingBox" id="filter-2">
            <feOffset dx="0" dy="2" in="SourceAlpha" result="shadowOffsetOuter1"></feOffset>
            <feGaussianBlur stdDeviation="2" in="shadowOffsetOuter1" result="shadowBlurOuter1"></feGaussianBlur>
            <feColorMatrix values="0 0 0 0 0.12334826   0 0 0 0 0.156873573   0 0 0 0 0.212749094  0 0 0 0.0649311626 0" type="matrix" in="shadowBlurOuter1"></feColorMatrix>
        </filter>
    </defs>
    <g id="页面-1" stroke="none" stroke-width="1" fill="none" fill-rule="evenodd">
        <g id="编组-23" transform="translate(4.000000, 2.000000)">
            <g id="背景板备份-2">
                <use fill="black" fill-opacity="1" filter="url(#filter-2)" xlink:href="#path-1"></use>
                <use fill="#FFFFFF" fill-rule="evenodd" xlink:href="#path-1"></use>
            </g>
            <rect id="实际区域备份-2" fill="#FF5656" opacity="0" x="16" y="44" width="352" height="180"></rect>
            <g id="编组-2备份-3" transform="translate(31.000000, 85.000000)" fill="#F4FCFF">
                <rect id="矩形" x="0" y="0" width="20" height="118"></rect>
                <rect id="矩形备份-24" x="38" y="0" width="20" height="118"></rect>
                <rect id="矩形备份-25" x="76" y="0" width="20" height="118"></rect>
                <rect id="矩形备份-26" x="113" y="0" width="20" height="118"></rect>
                <rect id="矩形备份-27" x="149" y="0" width="20" height="118"></rect>
                <rect id="矩形备份-28" x="186" y="0" width="20" height="118"></rect>
                <rect id="矩形备份-29" x="223" y="0" width="20" height="118"></rect>
                <rect id="矩形备份-30" x="260" y="0" width="20" height="118"></rect>
                <rect id="矩形备份-31" x="297" y="0" width="20" height="118"></rect>
            </g>
            <text id="time备份-3" font-family="PingFangSC-Regular, PingFang SC" font-size="10" font-weight="normal" fill="#000000" fill-opacity="0.45">
                <tspan x="343" y="217">time</tspan>
            </text>
            <text id="figure备份-3" font-family="PingFangSC-Regular, PingFang SC" font-size="10" font-weight="normal" fill="#000000" fill-opacity="0.45">
                <tspan x="16" y="74">figure</tspan>
            </text>
            <g id="刻度备份-2" transform="translate(16.000000, 84.500000)">
                <line x1="2.5" y1="0" x2="2.5" y2="118" id="直线" stroke="#E9E9E9" stroke-linecap="square"></line>
                <line x1="2.5" y1="118" x2="351" y2="118" id="直线-2" stroke="#E9E9E9" stroke-linecap="square"></line>
                <rect id="矩形" fill="#E9E9E9" x="8" y="117.5" width="1" height="3"></rect>
                <rect id="矩形备份-6" fill="#E9E9E9" x="25" y="117.5" width="1" height="3"></rect>
                <rect id="矩形备份-7" fill="#E9E9E9" x="43" y="117.5" width="1" height="3"></rect>
                <rect id="矩形备份-8" fill="#E9E9E9" x="63" y="117.5" width="1" height="3"></rect>
                <rect id="矩形备份-9" fill="#E9E9E9" x="82" y="117.5" width="1" height="3"></rect>
                <rect id="矩形备份-10" fill="#E9E9E9" x="101" y="117.5" width="1" height="3"></rect>
                <rect id="矩形备份-11" fill="#E9E9E9" x="119" y="117.5" width="1" height="3"></rect>
                <rect id="矩形备份-12" fill="#E9E9E9" x="138" y="117.5" width="1" height="3"></rect>
                <rect id="矩形备份-13" fill="#E9E9E9" x="156" y="117.5" width="1" height="3"></rect>
                <rect id="矩形备份-14" fill="#E9E9E9" x="174" y="117.5" width="1" height="3"></rect>
                <rect id="矩形备份-15" fill="#E9E9E9" x="192" y="117.5" width="1" height="3"></rect>
                <rect id="矩形备份-16" fill="#E9E9E9" x="211" y="117.5" width="1" height="3"></rect>
                <rect id="矩形备份-17" fill="#E9E9E9" x="229" y="117.5" width="1" height="3"></rect>
                <rect id="矩形备份-18" fill="#E9E9E9" x="248" y="117.5" width="1" height="3"></rect>
                <rect id="矩形备份-19" fill="#E9E9E9" x="266" y="117.5" width="1" height="3"></rect>
                <rect id="矩形备份-20" fill="#E9E9E9" x="285" y="117.5" width="1" height="3"></rect>
                <rect id="矩形备份-21" fill="#E9E9E9" x="304" y="117.5" width="1" height="3"></rect>
                <rect id="矩形备份-22" fill="#E9E9E9" x="322" y="117.5" width="1" height="3"></rect>
                <rect id="矩形备份-23" fill="#E9E9E9" x="343" y="117.5" width="1" height="3"></rect>
                <rect id="矩形" fill="#E9E9E9" x="0" y="102.5" width="3" height="1"></rect>
                <rect id="矩形备份" fill="#E9E9E9" x="0" y="79.5" width="3" height="1"></rect>
                <rect id="矩形备份-3" fill="#E9E9E9" x="0" y="56.5" width="3" height="1"></rect>
                <rect id="矩形备份-4" fill="#E9E9E9" x="0" y="33.5" width="3" height="1"></rect>
                <rect id="矩形备份-5" fill="#E9E9E9" x="0" y="10.5" width="3" height="1"></rect>
            </g>
            <path d="M19,183.862979 L21.0780256,171.548722 C21.6926752,170.355491 23,169.758876 25,169.758876 C27,169.758876 28,171.119159 28,173.839726 C28.973928,171.119159 29.973928,169.758876 31,169.758876 C32.026072,169.758876 33.0402651,170.355491 34.0425792,171.548722 C34.6630594,143.49238 35.7131028,129.464209 37.1927093,129.464209 C39.4121192,129.464209 41,131.734374 42,134 C43,136.265626 43.9941267,169.758876 45.8555672,169.758876 C47.7170077,169.758876 46.8682069,167.480569 48.9341035,167.480569 C51,167.480569 52.8001723,169.758876 52.8001723,169.758876 C52.8001723,169.758876 55.3759623,129.464209 57.1879811,129.464209 C59,129.464209 62.7007089,128.462065 62.7007089,131.231032 C62.7007089,134 65.1349003,167.969029 65.1349003,169.758876 C65.1349003,171.548722 67.2807781,176.13073 69,173.839726 C70.7192219,171.548722 72.3658809,167.969029 74.2989153,169.758876 C76.2319497,171.548722 77.1098207,131.348801 80,129.464209 C82.8901793,127.579616 87.4721867,128.462065 87.4721867,131.231032 C87.4721867,134 87.0913077,169.758876 89,169.758876 C90.9086923,169.758876 92.9133206,165.202262 92.9133206,167.480569 C92.9133206,169.758876 90.1927537,173.338569 92.9133206,171.548722 C95.6338875,169.758876 96.4238215,129.464209 99,129.464209 C101.576178,129.464209 105.192841,124.928417 107,129.464209 C108.204773,132.48807 108.204773,146.516241 107,171.548722 C108.252502,169.16226 109.356045,168.565645 110.31063,169.758876 C111.742508,171.548722 110.954975,178.06318 112.816416,175.951453 C114.677856,173.839726 116,167.969029 117,169.758876 C118,171.548722 119.331457,176.13073 120.978116,173.839726 C122.624775,171.548722 123.849175,127.749761 127,127.749761 C130.150825,127.749761 132.942986,134 132.942986,143.5 C132.942986,153 130.885971,182.161315 132.942986,182.161315 C135,182.161315 136.665867,180.45965 138.885277,182.161315 C141.104686,183.862979 145.400318,183.862979 147.762916,183.862979 C149.337981,183.862979 151.750342,183.862979 155,183.862979 L159.361122,182.161315 L162.010096,169.758876 C162.170683,127.256186 162.833984,105.479819 164,104.429776 C165.749024,102.85471 169.400311,105.429204 169.400311,107.228711 C169.400311,108.428382 170.600207,129.27177 173,169.758876 C175.179317,166.721133 176.268975,165.961698 176.268975,167.480569 C176.268975,168.99944 177.51265,169.758876 180,169.758876 L180,171.548722 L183.786331,173.839726 C186.150366,145.027132 187.332384,129.663811 187.332384,127.749761 C187.332384,124.878688 191,125.379845 191.5,125.379845 C191.833333,125.379845 193.333333,144.307001 196,182.161315 C197.085896,144.307001 199.061567,125.379845 201.927013,125.379845 C204.79246,125.379845 206.816789,126.741299 208,129.464209 C207.333333,157.520551 207.333333,171.548722 208,171.548722 C209,171.548722 211.979453,167.969029 211.979453,169.758876 C211.979453,170.952107 211.979453,172.31239 211.979453,173.839726 L215.344365,169.758876 C218.8286,175.295079 220.570717,177.359271 220.570717,175.951453 C220.570717,173.839726 219.336089,126.118475 224.5,124.462929 C229.663911,122.807383 227.874065,173.338569 229.663911,171.548722 C231.453758,169.758876 233.816373,167.969029 233.816373,169.758876 C233.816373,171.548722 234.885681,172.037183 237,169.758876 C238.409546,168.240005 240.092763,168.83662 242.04965,171.548722 L245.5,126.95459 C247.195805,125.393185 248.544859,125.741655 249.547162,128 C251.050616,131.387518 251.108209,141.928517 252.554104,146.725306 C254,151.522095 253.84276,177.130106 255.918999,179.64571 C257.303159,181.32278 261.002181,182.728536 267.016065,183.862979 L271.598073,171.548722 L276.609644,177.712676 C279.869881,175.130709 281.666667,173.839726 282,173.839726 C282.333333,173.839726 282.5,173.839726 282.5,173.839726 C284.139028,144.352568 285.769938,128.989246 287.392733,127.749761 C289.826924,125.890534 291.704696,171.548722 293.709324,171.548722 C295.045743,171.548722 296.119657,172.31239 296.931065,173.839726 L299.222069,171.548722 L302,175.951453 C302.796526,143.816992 304.495657,127.749761 307.097394,127.749761 C309.699131,127.749761 311.751489,142.349415 313.254467,171.548722 L318.051239,173.839726 L321,171.548722 C322.87778,174.483876 324.513891,175.951453 325.908335,175.951453 C328,175.951453 326.75875,130.119678 329.622505,127.749761 C331.531675,126.169817 333.0594,127.330241 334.205681,131.231032 C334.197091,159.636828 334.82733,173.839726 336.096398,173.839726 C337.365466,173.839726 339.059848,174.543635 341.179545,175.951453 L341.179545,171.548722 L345.188802,173.839726 C344.854137,143.113083 345.791203,127.749761 348,127.749761 C350.208797,127.749761 352.042131,128.321244 353.5,129.464209 C353.521749,159.047887 354.105374,173.839726 355.250876,173.839726 C356.396378,173.839726 357.979419,173.839726 360,173.839726 C359.878784,178.999072 360.515147,180.9344 361.909088,179.64571 C363.303029,178.357021 364,181.294846 364,188.459186 C363.832749,188.819729 362.332749,189 359.5,189 C355.250876,189 350.232536,187.918371 350.232536,188.459186 C350.232536,188.819729 347.82169,188.819729 343,188.459186 C339.666667,184.622601 338,183.663455 338,185.581747 C338,188.459186 328.199682,185.581747 329.622505,185.581747 C330.571054,185.581747 329.332997,186.721165 325.908335,189 L321,185.581747 L316.296974,188.459186 C314.054996,188.459186 312.289338,188.459186 311,188.459186 C309.065994,188.459186 310,138.418204 307,138.418204 C304,138.418204 304.175244,187 303.175244,187 C302.175244,187 296.931065,187.300516 296.931065,185.581747 C296.931065,183.862979 296.418648,177.130106 293.709324,179.64571 C291.903108,181.32278 291,183.301459 291,185.581747 C290.23342,160.527249 289.23342,148 288,148 C286.76658,148 285.482055,161.166667 284.146428,187.5 L274,188.459186 L261.670785,189 L246,188.459186 L233.816373,188.459186 L220.570717,188.459186 L215.344365,185.581747 L209,183.862979 L203.93534,188.459186 L197.921455,189 L191,188.459186 L187.332384,185.581747 L183.786331,191.166069 L176.268975,185.581747 L172,189 L164,185.581747 L155,191.166069 L132.942986,191.166069 L125.117451,189 L120.978116,191.166069 L118,185.581747 C116.214801,187.860582 114.486939,189 112.816416,189 C111.145892,189 107.036779,189 100.489075,189 L87.4721867,189 L83.0200344,187 L79,188.459186 L65.1349003,187.5 L59,189 C57.0962885,188 54.4296219,187.5 51,187.5 C45.8555672,187.5 42.4375028,187 41,188 C39.5624972,189 32.5,187 31,187.5 C29.5,188 26,187 25,188 C24,189 23.1560511,186.833931 21.0780256,189 C19.6926752,190.444046 19,188.731706 19,183.862979 Z" id="路径-38备份-2" fill-opacity="0.6" fill="#CBE4FF"></path>
            <path d="M21.0780256,185.617676 C22.3593419,177.629069 23.3333333,173.634766 24,173.634766 C24.6666667,173.634766 25.9510154,177.629069 27.8530463,185.617676 C28.782989,178.093262 30.0019963,174.331055 31.510068,174.331055 C33.0181397,174.331055 34.7953463,178.093262 36.8416878,185.617676 L38.9130041,131.95459 L42,185.617676 C43.1009004,178.093262 44.1700048,174.331055 45.2073132,174.331055 C46.2446216,174.331055 47.2508128,178.093262 48.2258868,185.617676 C48.6778065,177.858593 49.6025109,174.096386 51,174.331055 C52.3974891,174.565724 54.1112416,178.770985 56.1412576,186.94684 L60,131.95459 C59.3333333,167.72998 59.9253202,185.617676 61.7759606,185.617676 C64.5519211,185.617676 63.1175488,175.182129 65.5994871,175.182129 C68.0814255,175.182129 69,185.617676 70.3621255,184.271484 C71.724251,182.925293 72.0391109,174.331055 74.655208,175.182129 C77.2713051,176.033203 74.655208,180.282715 74.655208,182.324219 C74.655208,184.365723 77.3384006,185.617676 79,185.617676 C80.1077329,185.617676 81.3860129,167.72998 82.8348398,131.95459 C83.3714751,168.61609 84.6236242,186.503785 86.591287,185.617676 C89.5427812,184.288512 87.3962399,177.794922 89,175.182129 C90.6037601,172.569336 89,186.94684 91.6893224,185.617676 C94.3786448,184.288512 92.8967599,175.182129 94.9762217,175.182129 C97.0556835,175.182129 96.4519688,183.619629 96.4519688,185.617676 C96.4519688,186.949707 97.3013125,187.392762 99,186.94684 L102.256374,131.95459 C101.764459,167.72998 102.524692,186.06073 104.537075,186.94684 C107.555648,188.276004 107,175.182129 108.830157,175.182129 C110.660314,175.182129 110.305904,188 112.5,187 C114.694096,186 115.33686,175.182129 118,177.794922 C119.775427,179.536784 120.542339,182.938477 120.300737,188 L124,185.617676 L128.357572,131.95459 C127.880809,168.65153 127.880809,187 128.357572,187 C129.072715,187 132.098278,189.918945 133.171676,187.5 C134.245074,185.081055 142.189043,186.617676 145.267294,186.617676 C148.345546,186.617676 152.283293,186.617676 155,186.617676 C157.716707,186.617676 159.28914,188.106445 160.42631,183.619629 C161.563479,179.132813 165.540941,175.389648 165.540941,166.123535 C165.540941,159.946126 165.655549,147.556478 165.884764,128.95459 L165.884764,105.492676 C165.913497,95.9614258 166.043577,92.4638672 166.275002,95 C166.506427,97.5361328 166.666605,100.616048 166.755535,104.239746 C167.360491,121.634928 167.66297,131.555013 167.66297,134 C167.66297,137.66748 169.333913,166.970215 169.710694,168.730469 C170.087476,170.490723 170.493446,185.584473 171.458802,184.271484 C172.424158,182.958496 174.214714,170.738281 175.165249,172.569336 C176.115783,174.400391 176.348054,172.973633 176.777296,175.182129 C177.206538,177.390625 178.200757,176.033203 178.891133,175.182129 C179.581509,174.331055 181.944973,179.972656 181.944973,181.148438 C181.944973,182.324219 185.2618,185.617676 186.011268,185.617676 C186.510913,185.617676 187.673823,166.72998 189.5,128.95459 C190.898057,166.72998 191.73139,185.617676 192,185.617676 C192.402914,185.617676 199.286668,190.94043 199.823367,180.282715 C200.181167,173.177572 200.622542,164.980632 201.147493,155.691895 L201.147493,151.728516 C201.973,136.545898 202.59933,128.95459 203.026482,128.95459 C203.453634,128.95459 203.453634,136.545898 203.026482,151.728516 L204.026482,185.617676 C206.886849,177.257975 208.632903,173.495768 209.264642,174.331055 C210.212251,175.583984 212.155326,186.875 213.288986,183.619629 C214.422646,180.364258 214.798202,176.750488 214.798202,173.634766 C214.798202,170.519043 221.591903,185.617676 222.534246,185.617676 C223.47659,185.617676 223.953417,113 225.016677,113 C225.725517,113 226.293031,137.205892 226.719217,185.617676 C228.286839,178.093262 229.776966,174.331055 231.189597,174.331055 C233.308543,174.331055 235.543686,185.617676 236.214365,185.617676 C236.885044,185.617676 237.855191,173.634766 239.594269,173.634766 C241.333348,173.634766 241.253948,185.617676 244.116667,185.617676 C246.979387,185.617676 244.664448,131.728516 247.04839,131.728516 C248.637685,131.728516 250.113304,150.152344 251.475247,187 L264,187 C266.232922,186.490234 267.349384,186.362793 267.349384,186.617676 C267.349384,186.872559 268.232922,187.166667 270,187.5" id="路径-30备份-6" stroke="#1890FF" stroke-width="1.5" stroke-linecap="round" stroke-linejoin="round"></path>
            <path d="M270,186.617676 C271.947983,179.660645 272.921974,175.666341 272.921974,174.634766 C272.921974,173.60319 274.206323,177.597493 276.775021,186.617676 L279.921974,175.331055 L285.763662,186.617676 L287.834979,161 L290.921974,186.617676 L294.129288,175.331055 L297.147861,186.617676 L299.921974,175.331055 L305.063232,187.94684 L307.639959,145 C307.827969,172.745117 308.847295,186.617676 310.697935,186.617676 C313.473896,186.617676 312.039523,176.182129 314.521462,176.182129 C317.0034,176.182129 317.921974,186.617676 319.2841,185.271484 C320.646225,183.925293 320.961085,175.331055 323.577182,176.182129 C326.19328,177.033203 323.577182,181.282715 323.577182,183.324219 C323.577182,185.365723 326.260375,186.617676 327.921974,186.617676 C329.029707,186.617676 330.307987,168.72998 331.756814,132.95459 C332.29345,169.61609 333.545599,187.503785 335.513261,186.617676 C338.464756,185.288512 336.318214,178.794922 337.921974,176.182129 C339.525735,173.569336 337.921974,187.94684 340.611297,186.617676 C343.300619,185.288512 341.818734,176.182129 343.898196,176.182129 C345.977658,176.182129 345.373943,184.619629 345.373943,186.617676 C345.373943,187.949707 346.223287,188.392762 347.921974,187.94684 L351.178349,132.95459 C350.686433,168.72998 351.446667,187.06073 353.459049,187.94684 C356.477623,189.276004 355.921974,176.182129 357.752131,176.182129 C359.582288,176.182129 359.227879,189 361.421974,188" id="路径-30备份-7" stroke="#1890FF" stroke-width="1.5" stroke-linecap="round" stroke-linejoin="round"></path>
            <g id="标题备份" transform="translate(16.000000, 14.000000)" fill="#000000" font-family="PingFangSC-Medium, PingFang SC" font-size="14" font-weight="400">
                <text id="Log-DW-Tima-jump-uns">
                    <tspan x="0" y="15">Log DW Tima jump unsensitive</tspan>
                </text>
            </g>
            <circle id="椭圆形备份-104" stroke="#FF7272" stroke-width="2" cx="166" cy="94" r="3"></circle>
            <circle id="椭圆形备份-106" stroke="#FFAC17" stroke-width="2" cx="288" cy="161" r="3"></circle>
            <circle id="椭圆形备份-107" stroke="#FFAC17" stroke-width="2" cx="308" cy="145" r="3"></circle>
        </g>
    </g>
</svg>