<?xml version="1.0" encoding="UTF-8"?>
<svg width="392px" height="248px" viewBox="0 0 392 248" version="1.1" xmlns="http://www.w3.org/2000/svg" xmlns:xlink="http://www.w3.org/1999/xlink">
    <title>模块备份 18</title>
    <defs>
        <path d="M2,0 L382,0 C383.104569,-2.02906125e-16 384,0.8954305 384,2 L384,238 C384,239.104569 383.104569,240 382,240 L2,240 C0.8954305,240 1.3527075e-16,239.104569 0,238 L0,2 C-1.3527075e-16,0.8954305 0.8954305,2.02906125e-16 2,0 Z" id="path-1"></path>
        <filter x="-1.8%" y="-2.1%" width="103.6%" height="105.8%" filterUnits="objectBoundingBox" id="filter-2">
            <feOffset dx="0" dy="2" in="SourceAlpha" result="shadowOffsetOuter1"></feOffset>
            <feGaussianBlur stdDeviation="2" in="shadowOffsetOuter1" result="shadowBlurOuter1"></feGaussianBlur>
            <feColorMatrix values="0 0 0 0 0.12334826   0 0 0 0 0.156873573   0 0 0 0 0.212749094  0 0 0 0.0649311626 0" type="matrix" in="shadowBlurOuter1"></feColorMatrix>
        </filter>
    </defs>
    <g id="页面-1" stroke="none" stroke-width="1" fill="none" fill-rule="evenodd">
        <g id="模块备份-18" transform="translate(4.000000, 2.000000)">
            <g id="背景板">
                <use fill="black" fill-opacity="1" filter="url(#filter-2)" xlink:href="#path-1"></use>
                <use fill="#FFFFFF" fill-rule="evenodd" xlink:href="#path-1"></use>
            </g>
            <g id="编组-6" transform="translate(16.000000, 46.000000)">
                <rect id="实际区域" fill="#FF5656" opacity="0" x="0" y="0" width="352" height="178"></rect>
                <g id="图表" transform="translate(0.000000, 17.000000)">
                    <g id="编组-2" transform="translate(15.000000, 22.000000)" fill="#F4FCFF">
                        <rect id="矩形" x="0" y="0" width="20" height="118"></rect>
                        <rect id="矩形备份-24" x="38" y="0" width="20" height="118"></rect>
                        <rect id="矩形备份-25" x="76" y="0" width="20" height="118"></rect>
                        <rect id="矩形备份-26" x="113" y="0" width="20" height="118"></rect>
                        <rect id="矩形备份-27" x="149" y="0" width="20" height="118"></rect>
                        <rect id="矩形备份-28" x="186" y="0" width="20" height="118"></rect>
                        <rect id="矩形备份-29" x="223" y="0" width="20" height="118"></rect>
                        <rect id="矩形备份-30" x="260" y="0" width="20" height="118"></rect>
                        <rect id="矩形备份-31" x="297" y="0" width="20" height="118"></rect>
                    </g>
                    <text id="time" font-family="PingFangSC-Regular, PingFang SC" font-size="10" font-weight="normal" fill="#000000" fill-opacity="0.45">
                        <tspan x="327" y="154">time</tspan>
                    </text>
                    <text id="figure" font-family="PingFangSC-Regular, PingFang SC" font-size="10" font-weight="normal" fill="#000000" fill-opacity="0.45">
                        <tspan x="0" y="11">figure</tspan>
                    </text>
                    <g id="刻度" transform="translate(0.000000, 21.500000)">
                        <line x1="2.5" y1="0" x2="2.5" y2="118" id="直线" stroke="#E9E9E9" stroke-linecap="square"></line>
                        <line x1="2.5" y1="118" x2="351" y2="118" id="直线-2" stroke="#E9E9E9" stroke-linecap="square"></line>
                        <rect id="矩形" fill="#E9E9E9" x="8" y="117.5" width="1" height="3"></rect>
                        <rect id="矩形备份-6" fill="#E9E9E9" x="25" y="117.5" width="1" height="3"></rect>
                        <rect id="矩形备份-7" fill="#E9E9E9" x="43" y="117.5" width="1" height="3"></rect>
                        <rect id="矩形备份-8" fill="#E9E9E9" x="63" y="117.5" width="1" height="3"></rect>
                        <rect id="矩形备份-9" fill="#E9E9E9" x="82" y="117.5" width="1" height="3"></rect>
                        <rect id="矩形备份-10" fill="#E9E9E9" x="101" y="117.5" width="1" height="3"></rect>
                        <rect id="矩形备份-11" fill="#E9E9E9" x="119" y="117.5" width="1" height="3"></rect>
                        <rect id="矩形备份-12" fill="#E9E9E9" x="138" y="117.5" width="1" height="3"></rect>
                        <rect id="矩形备份-13" fill="#E9E9E9" x="156" y="117.5" width="1" height="3"></rect>
                        <rect id="矩形备份-14" fill="#E9E9E9" x="174" y="117.5" width="1" height="3"></rect>
                        <rect id="矩形备份-15" fill="#E9E9E9" x="192" y="117.5" width="1" height="3"></rect>
                        <rect id="矩形备份-16" fill="#E9E9E9" x="211" y="117.5" width="1" height="3"></rect>
                        <rect id="矩形备份-17" fill="#E9E9E9" x="229" y="117.5" width="1" height="3"></rect>
                        <rect id="矩形备份-18" fill="#E9E9E9" x="248" y="117.5" width="1" height="3"></rect>
                        <rect id="矩形备份-19" fill="#E9E9E9" x="266" y="117.5" width="1" height="3"></rect>
                        <rect id="矩形备份-20" fill="#E9E9E9" x="285" y="117.5" width="1" height="3"></rect>
                        <rect id="矩形备份-21" fill="#E9E9E9" x="304" y="117.5" width="1" height="3"></rect>
                        <rect id="矩形备份-22" fill="#E9E9E9" x="322" y="117.5" width="1" height="3"></rect>
                        <rect id="矩形备份-23" fill="#E9E9E9" x="343" y="117.5" width="1" height="3"></rect>
                        <rect id="矩形" fill="#E9E9E9" x="0" y="102.5" width="3" height="1"></rect>
                        <rect id="矩形备份" fill="#E9E9E9" x="0" y="79.5" width="3" height="1"></rect>
                        <rect id="矩形备份-3" fill="#E9E9E9" x="0" y="56.5" width="3" height="1"></rect>
                        <rect id="矩形备份-4" fill="#E9E9E9" x="0" y="33.5" width="3" height="1"></rect>
                        <rect id="矩形备份-5" fill="#E9E9E9" x="0" y="10.5" width="3" height="1"></rect>
                    </g>
                    <path d="M8,116.836914 C14.6783854,119.348633 19.5146484,119.976563 22.5087891,118.720703 C27,116.836914 33.7021484,118.333984 35,112.316406 C36.2978516,106.298828 39.8779297,93.7929688 45.6074219,93.7929688 C51.3369141,93.7929688 57.0410156,108.548828 57.0410156,110.432617 C57.0410156,112.316406 59.2216797,117.961914 63,114.197266 C66.7783203,110.432617 75,101 79,101.5 C83,102 93.2753906,108.548828 93.2753906,110.432617 C93.2753906,112.316406 96.9511719,112.141602 98.9755859,106.570801 C101,101 104.504883,88.5771484 106.246094,93.7929688 C107.406901,97.2701823 108.525065,93.8037109 109.600586,83.3935547 L111,68.6376953 C113.072917,62.3961589 115.007812,62.3961589 116.804687,68.6376953 C118.601562,74.8792318 122.333333,85.6666667 128,101 C128.929687,106.126302 130.828776,107.983236 133.697266,106.570801 C138,104.452148 137.446289,98.5478516 140.385742,101.5 C143.325195,104.452148 144.023437,108.689453 146.011719,106.570801 C148,104.452148 150.917969,100.204102 153.708984,105.318359 C156.5,110.432617 160.556641,119.476563 164,116.836914 C167.443359,114.197266 180.319336,114.197266 184,114.197266 C187.680664,114.197266 191.302734,109.207031 193,101.5 C194.697266,93.7929688 191.474609,66.5185547 196.921875,63.5078125 C202.369141,60.4970703 206.998047,59.9628906 208.999023,61.7353516 C211,63.5078125 215.395508,64.140625 219.050781,61.7353516 C222.706055,59.3300781 228.177734,56.2548828 233.088867,58.9951172 C238,61.7353516 242.871094,62.9902344 245.435547,58.9951172 C247.145182,56.3317057 250.464193,50.6884766 255.392578,42.0654297 C263.216797,30.9593099 268.867513,29.030599 272.344727,36.2792969 C277.560547,47.1523437 279.121094,51.6455078 281.024414,51.6455078 C282.927734,51.6455078 284.261719,45.328125 287.56543,49.3701172 C290.869141,53.4121094 292.056641,57 302.02832,57 C312,57 328.917969,59 332,57 C334.054687,55.6666667 338.054687,54.3554688 344,53.0664063 L343.5,73.3740234 L307.862305,71 C293.287435,72.8450521 286,72.0576172 286,68.6376953 C286,63.5078125 280.701172,61.0341797 279.27832,67.2041016 C277.855469,73.3740234 267.5,78.1103516 267,73.3740234 C266.5,68.6376953 266.520508,54.8330078 263.458984,61.7353516 C260.397461,68.6376953 260.871094,73.3740234 245.435547,73.3740234 C230,73.3740234 221.919922,67.7480469 216.459961,73.3740234 C211,79 207.357422,82.7919922 207.357422,96.6123047 C207.357422,110.432617 209.060547,111.557617 205.030273,114.197266 C202.343424,115.957031 196.625977,118.468424 187.87793,121.731445 C180.597982,127.56543 175.125,130.482422 171.458984,130.482422 C167.792969,130.482422 162.806641,129.564128 156.5,127.727539 C155.061198,123.730143 153.284831,121.731445 151.170898,121.731445 C148,121.731445 148.40625,121.731445 143.203125,121.731445 C139.734375,121.731445 137.433919,120.099935 136.301758,116.836914 C135.074219,113.108398 133.151693,112.490234 130.53418,114.982422 C126.60791,118.720703 122.092773,118.74707 121.092773,114.197266 C120.092773,109.647461 118.402344,102.144531 115.970215,110.432617 C113.538086,118.720703 112.955078,119.476562 109.600586,116.836914 C107.364258,115.077148 105.557292,115.705078 104.179687,118.720703 C102.600911,125.526367 100.388835,128.929199 97.543457,128.929199 C93.2753906,128.929199 87.722168,128.092773 87.722168,125.244141 C87.722168,122.395508 85.8227539,114.300293 83,114.982422 C80.1772461,115.664551 79.0991211,120.214844 78.1152344,121.731445 C77.1313477,123.248047 76.652832,126.112793 72,126.112793 C67.347168,126.112793 63.3276367,127.727539 61.3642578,127.727539 C59.4008789,127.727539 54.3222656,128.756836 51.6611328,125.244141 C49,121.731445 46.0449219,111.516602 43.5,115.825195 C40.9550781,120.133789 41.050293,127.375977 36.1494141,128.929199 C31.2485352,130.482422 27.222168,132.035645 25.5,130.482422 C23.777832,128.929199 16.0356445,130.130859 13.2841797,128.929199 C11.4498698,128.128092 9.68847656,127.513672 8,127.085938 L8,116.836914 Z" id="路径-29" fill-opacity="0.6" fill="#CBE4FF"></path>
                    <path d="M8.5,121.271484 C14.2138672,123.090495 17.6676432,124 18.8613281,124 C20.6518555,124 28.2270508,126.918945 30.9145508,124.5 C32.7062174,122.88737 35.4887695,118.781413 39.262207,112.182129 L42.2495117,103.955078 C44.269043,98.4703776 45.8662109,98.4703776 47.0410156,103.955078 C48.8032227,112.182129 51.6245117,119.967773 53,120.619629 C54.3754883,121.271484 56.9379883,126.298828 61.1987305,122.617676 C64.0392253,120.163574 67.6396484,116.685059 72,112.182129 C77.421875,106.787923 81.9440104,106.504232 85.5664063,111.331055 C91,118.571289 89.059082,117.376953 91,119.324219 C92.940918,121.271484 96.3056641,125.106445 99.152832,120.619629 C101.050944,117.628418 102.946126,113.252116 104.838379,107.490723 C106.869954,102.94222 108.404785,102.08138 109.442871,104.908203 C111,109.148437 111.958496,112.389648 111.958496,103.123535 C111.958496,96.9461263 112.245443,88.7382812 112.819336,78.5 L112.819336,65.6650391 M114.999512,64.4121094 C116.51416,74.7226562 117.271484,81.1004232 117.271484,83.5454102 C117.271484,87.2128906 121.455078,103.970215 122.398438,105.730469 C123.341797,107.490723 125.583008,111.947754 128,110.634766 C130.416992,109.321777 133.675293,107.738281 136.055176,109.569336 C138.435059,111.400391 139.016602,109.973633 140.091309,112.182129 C141.166016,114.390625 143.655273,113.033203 145.383789,112.182129 C147.112305,111.331055 153.029785,116.972656 153.029785,118.148438 C153.029785,119.324219 158.321289,124 160.197754,124 C161.44873,124 166.382813,123.539225 175,122.617676 C181.35026,122.617676 184.861654,122.617676 185.53418,122.617676 M197.79248,117.282715 C198.688314,110.177572 198.958822,101.980632 198.604004,92.6918945 L197.79248,62.7285156 M211,62.7285156 L221,62.7285156 C227.763346,63.015625 231.935872,63.5768229 233.517578,64.4121094 C235.890137,65.6650391 245.79834,70.9228516 248.636719,67.6674805 C251.475098,64.4121094 258,55.1591797 258,52.043457 C258,48.9277344 261.601074,38.5078125 263.960449,38.5078125 C266.319824,38.5078125 270.19873,46.3154297 270.19873,46.9423828 C270.19873,47.3603516 271.30306,51.4223633 273.511719,59.128418 C274.644206,63.5480143 275.885254,64.2981771 277.234863,61.3789063 C279.259277,57 282.587891,53.6938477 284.26709,53.6938477 C285.386556,53.6938477 286.93278,55.5053711 288.905762,59.128418 C289.703613,61.5284831 292.491699,62.7285156 297.27002,62.7285156 C304.4375,62.7285156 310.0625,62.7285156 316.03125,62.7285156 C320.010417,62.7285156 329.333333,63.7073568 344,65.6650391" id="形状" stroke="#1890FF" stroke-width="1.5" stroke-linecap="round" stroke-linejoin="round"></path>
                    <path d="M112.819336,65.6650391 C112.891276,56.1337891 113.21696,52.6362305 113.796387,55.1723633 C114.375814,57.7084961 114.776855,60.7884115 114.999512,64.4121094 M185.53418,122.617676 C186.542969,122.617676 196.44873,127.94043 197.79248,117.282715 M197.79248,62.7285156 C198.622559,59.7434896 200.761068,58.543457 204.208008,59.128418 C207.654948,59.7133789 209.918945,60.9134115 211,62.7285156" id="形状" stroke="#FF9D9D" stroke-width="1.5"></path>
                </g>
            </g>
            <g id="标题" transform="translate(16.000000, 18.000000)" fill="#000000" fill-opacity="0.85" font-family="PingFangSC-Medium, PingFang SC" font-size="14" font-weight="400" line-spacing="20">
                <text id="Tima-detect-default">
                    <tspan x="0" y="15">Tima detect default</tspan>
                </text>
            </g>
        </g>
    </g>
</svg>