<?xml version="1.0" encoding="UTF-8"?>
<svg width="392px" height="248px" viewBox="0 0 392 248" version="1.1" xmlns="http://www.w3.org/2000/svg" xmlns:xlink="http://www.w3.org/1999/xlink">
    <title>模块备份 20</title>
    <defs>
        <path d="M2,0 L382,0 C383.104569,-2.02906125e-16 384,0.8954305 384,2 L384,238 C384,239.104569 383.104569,240 382,240 L2,240 C0.8954305,240 1.3527075e-16,239.104569 0,238 L0,2 C-1.3527075e-16,0.8954305 0.8954305,2.02906125e-16 2,0 Z" id="path-1"></path>
        <filter x="-1.8%" y="-2.1%" width="103.6%" height="105.8%" filterUnits="objectBoundingBox" id="filter-2">
            <feOffset dx="0" dy="2" in="SourceAlpha" result="shadowOffsetOuter1"></feOffset>
            <feGaussianBlur stdDeviation="2" in="shadowOffsetOuter1" result="shadowBlurOuter1"></feGaussianBlur>
            <feColorMatrix values="0 0 0 0 0.12334826   0 0 0 0 0.156873573   0 0 0 0 0.212749094  0 0 0 0.0649311626 0" type="matrix" in="shadowBlurOuter1"></feColorMatrix>
        </filter>
    </defs>
    <g id="页面-1" stroke="none" stroke-width="1" fill="none" fill-rule="evenodd">
        <g id="模块备份-20" transform="translate(4.000000, 2.000000)">
            <g id="背景板">
                <use fill="black" fill-opacity="1" filter="url(#filter-2)" xlink:href="#path-1"></use>
                <use fill="#FFFFFF" fill-rule="evenodd" xlink:href="#path-1"></use>
            </g>
            <g id="编组-6" transform="translate(16.000000, 46.000000)">
                <rect id="实际区域" fill="#FF5656" opacity="0" x="0" y="0" width="352" height="178"></rect>
                <g id="图表" transform="translate(0.000000, 17.000000)">
                    <g id="编组-2" transform="translate(15.000000, 22.000000)" fill="#F4FCFF">
                        <rect id="矩形" x="0" y="0" width="20" height="118"></rect>
                        <rect id="矩形备份-24" x="38" y="0" width="20" height="118"></rect>
                        <rect id="矩形备份-25" x="76" y="0" width="20" height="118"></rect>
                        <rect id="矩形备份-26" x="113" y="0" width="20" height="118"></rect>
                        <rect id="矩形备份-27" x="149" y="0" width="20" height="118"></rect>
                        <rect id="矩形备份-28" x="186" y="0" width="20" height="118"></rect>
                        <rect id="矩形备份-29" x="223" y="0" width="20" height="118"></rect>
                        <rect id="矩形备份-30" x="260" y="0" width="20" height="118"></rect>
                        <rect id="矩形备份-31" x="297" y="0" width="20" height="118"></rect>
                    </g>
                    <text id="time" font-family="PingFangSC-Regular, PingFang SC" font-size="10" font-weight="normal" fill="#000000" fill-opacity="0.45">
                        <tspan x="327" y="154">time</tspan>
                    </text>
                    <text id="figure" font-family="PingFangSC-Regular, PingFang SC" font-size="10" font-weight="normal" fill="#000000" fill-opacity="0.45">
                        <tspan x="0" y="11">figure</tspan>
                    </text>
                    <g id="刻度" transform="translate(0.000000, 21.500000)">
                        <line x1="2.5" y1="0" x2="2.5" y2="118" id="直线" stroke="#E9E9E9" stroke-linecap="square"></line>
                        <line x1="2.5" y1="118" x2="351" y2="118" id="直线-2" stroke="#E9E9E9" stroke-linecap="square"></line>
                        <rect id="矩形" fill="#E9E9E9" x="8" y="117.5" width="1" height="3"></rect>
                        <rect id="矩形备份-6" fill="#E9E9E9" x="25" y="117.5" width="1" height="3"></rect>
                        <rect id="矩形备份-7" fill="#E9E9E9" x="43" y="117.5" width="1" height="3"></rect>
                        <rect id="矩形备份-8" fill="#E9E9E9" x="63" y="117.5" width="1" height="3"></rect>
                        <rect id="矩形备份-9" fill="#E9E9E9" x="82" y="117.5" width="1" height="3"></rect>
                        <rect id="矩形备份-10" fill="#E9E9E9" x="101" y="117.5" width="1" height="3"></rect>
                        <rect id="矩形备份-11" fill="#E9E9E9" x="119" y="117.5" width="1" height="3"></rect>
                        <rect id="矩形备份-12" fill="#E9E9E9" x="138" y="117.5" width="1" height="3"></rect>
                        <rect id="矩形备份-13" fill="#E9E9E9" x="156" y="117.5" width="1" height="3"></rect>
                        <rect id="矩形备份-14" fill="#E9E9E9" x="174" y="117.5" width="1" height="3"></rect>
                        <rect id="矩形备份-15" fill="#E9E9E9" x="192" y="117.5" width="1" height="3"></rect>
                        <rect id="矩形备份-16" fill="#E9E9E9" x="211" y="117.5" width="1" height="3"></rect>
                        <rect id="矩形备份-17" fill="#E9E9E9" x="229" y="117.5" width="1" height="3"></rect>
                        <rect id="矩形备份-18" fill="#E9E9E9" x="248" y="117.5" width="1" height="3"></rect>
                        <rect id="矩形备份-19" fill="#E9E9E9" x="266" y="117.5" width="1" height="3"></rect>
                        <rect id="矩形备份-20" fill="#E9E9E9" x="285" y="117.5" width="1" height="3"></rect>
                        <rect id="矩形备份-21" fill="#E9E9E9" x="304" y="117.5" width="1" height="3"></rect>
                        <rect id="矩形备份-22" fill="#E9E9E9" x="322" y="117.5" width="1" height="3"></rect>
                        <rect id="矩形备份-23" fill="#E9E9E9" x="343" y="117.5" width="1" height="3"></rect>
                        <rect id="矩形" fill="#E9E9E9" x="0" y="102.5" width="3" height="1"></rect>
                        <rect id="矩形备份" fill="#E9E9E9" x="0" y="79.5" width="3" height="1"></rect>
                        <rect id="矩形备份-3" fill="#E9E9E9" x="0" y="56.5" width="3" height="1"></rect>
                        <rect id="矩形备份-4" fill="#E9E9E9" x="0" y="33.5" width="3" height="1"></rect>
                        <rect id="矩形备份-5" fill="#E9E9E9" x="0" y="10.5" width="3" height="1"></rect>
                    </g>
                    <path d="M8,96.1204133 C14.6783854,98.4085293 19.5146484,98.9805583 22.5087891,97.8365003 C27,96.1204133 33.7021484,97.4842087 35,92.0023383 C36.2978516,86.5204679 39.8779297,77.8608563 45.6074219,77.8608563 C51.3369141,77.8608563 57.0410156,91.3030929 57.0410156,93.0191799 C57.0410156,94.7352669 59.2216797,99.8781901 63,96.448685 C66.7783203,93.0191799 75,84.4262902 79,84.8817783 C83,85.3372664 93.2753906,96.76895 93.2753906,98.485037 C93.2753906,100.201124 96.9511719,94.576024 98.9755859,89.5011571 C101,84.4262902 104.504883,73.1093682 106.246094,77.8608563 C107.406901,81.0285151 108.525065,77.8706422 109.600586,68.3872377 L111,44.9242631 C113.072917,39.238372 115.007812,39.238372 116.804687,44.9242631 C118.601562,50.6101542 122.333333,60.7409092 128,75.3165283 C128.929687,79.9864674 130.828776,81.6780897 133.697266,80.3913952 C138,78.4613533 137.446289,73.0826795 140.385742,75.7720164 C143.325195,78.4613533 144.023437,82.321437 146.011719,80.3913952 C148,78.4613533 150.917969,74.5914838 153.708984,79.2504509 C156.5,83.909418 160.556641,83.0384749 164,80.633818 C167.443359,78.2291612 180.319336,78.2291612 184,78.2291612 C187.680664,78.2291612 191.302734,73.6831765 193,66.6622545 C194.697266,59.6413325 191.474609,51.1925621 196.921875,48.4498477 C202.369141,45.7071332 206.998047,45.2205082 208.999023,46.835178 C211,48.4498477 215.395508,50.8482772 219.050781,48.6571303 C222.706055,46.4659835 228.177734,43.6645538 233.088867,46.1608421 C238,48.6571303 242.871094,49.8002987 245.435547,46.1608421 C247.145182,43.7345376 250.464193,38.5936902 255.392578,30.7382998 C263.216797,20.6208891 268.867513,18.8638794 272.344727,25.4672706 C277.560547,35.3723574 279.121094,39.4655229 281.024414,39.4655229 C282.927734,39.4655229 284.261719,33.7105376 287.56543,37.3926962 C290.869141,41.0748549 292.056641,44.3433378 302.02832,44.3433378 C312,44.3433378 328.917969,46.1652902 332,44.3433378 C334.054687,43.1287029 338.054687,41.9342328 344,40.7599276 L343.5,92.0548262 L307.862305,89.8921473 C293.287435,91.5729459 286,90.8556114 286,87.740144 C286,83.0669429 280.701172,80.8135223 279.27832,86.4341742 C277.855469,92.0548262 267.5,96.3695083 267,92.0548262 C266.5,87.740144 266.520508,75.1644024 263.458984,81.4522732 C260.397461,87.740144 260.871094,92.0548262 245.435547,92.0548262 C230,92.0548262 221.919922,86.9296955 216.459961,92.0548262 C211,97.1799569 207.357422,91.5246096 207.357422,104.114585 C207.357422,107.596347 207.487677,101.083845 207.5909,103.070396 C207.860931,108.267171 207.945974,118.394418 205.030273,120.134066 C202.343424,121.737171 196.625977,124.02499 187.87793,126.997524 C180.597982,132.312145 175.125,134.969456 171.458984,134.969456 C167.792969,134.969456 162.806641,134.132911 156.5,132.459823 C155.061198,128.81829 153.284831,126.997524 151.170898,126.997524 C148,126.997524 148.40625,126.997524 143.203125,126.997524 C139.734375,126.997524 137.433919,125.511257 136.301758,122.538723 C135.074219,119.142134 133.151693,118.579001 130.53418,120.849325 C126.60791,124.25481 122.092773,124.27883 121.092773,120.134066 C120.092773,115.989302 118.402344,109.154312 115.970215,116.704561 C113.538086,124.25481 112.955078,124.94338 109.600586,122.538723 C107.364258,120.935618 105.557292,121.507647 104.179687,124.25481 C102.600911,130.454608 100.388835,133.554507 97.543457,133.554507 C93.2753906,133.554507 87.722168,132.792543 87.722168,130.197506 C87.722168,127.602469 85.8227539,122.96085 83,123.582253 C80.1772461,124.203656 79.0991211,125.615936 78.1152344,126.997524 C77.1313477,128.379112 76.652832,130.988828 72,130.988828 C67.347168,130.988828 63.3276367,132.459823 61.3642578,132.459823 C59.4008789,132.459823 54.3222656,133.397488 51.6611328,130.197506 C49,126.997524 46.0449219,119.513997 43.5,123.439023 C40.9550781,127.36405 41.050293,132.139558 36.1494141,133.554507 C31.2485352,134.969456 27.222168,136.384404 25.5,134.969456 C23.777832,133.554507 16.0356445,134.64919 13.2841797,133.554507 C11.4498698,132.824717 9.68847656,132.264995 8,131.875339 L8,96.1204133 Z" id="路径-29" fill-opacity="0.6" fill="#CBE4FF"></path>
                    <path d="M8.5,114.323231 C14.2138672,115.913141 17.6676432,116.708095 18.8613281,116.708095 C20.6518555,116.708095 28.2270508,119.259405 30.9145508,117.145121 C32.7062174,115.735599 35.4887695,112.14678 39.262207,106.378664 L42.2495117,99.1877962 C44.269043,94.3938841 45.8662109,94.3938841 47.0410156,99.1877962 C48.8032227,106.378664 51.6245117,113.183721 53,113.753476 C54.3754883,114.323231 56.9379883,118.71739 61.1987305,115.499872 C64.0392253,113.354861 67.6396484,110.314458 72,106.378664 C77.421875,101.663849 81.9440104,101.415888 85.5664063,105.634781 C91,111.963121 89.059082,110.91921 91,112.621221 C92.940918,114.323231 96.3056641,117.675186 99.152832,113.753476 C101.050944,111.139003 102.946126,107.313888 104.838379,102.278133 C106.869954,98.3025059 108.404785,97.5500873 109.442871,100.020877 C111,103.727061 111.958496,106.560047 111.958496,98.4609846 C111.958496,93.0616096 112.912109,85.8875283 114.819336,76.9387406 L114.819336,65.7203205 C114.891276,57.3895148 115.21696,54.3324676 115.796387,56.5491789 C116.375814,58.7658902 116.776855,61.4578956 116.999512,64.6251951 C118.51416,73.6371467 119.271484,79.211645 119.271484,81.3486902 C119.271484,84.5542579 121.455078,99.2010265 122.398438,100.73958 C123.341797,102.278133 125.583008,106.173808 128,105.026189 C130.416992,103.878569 133.675293,102.494512 136.055176,104.094948 C138.435059,105.695385 139.016602,104.448324 140.091309,106.378664 C141.166016,108.309004 143.655273,107.122547 145.383789,106.378664 C147.112305,105.634781 153.029785,110.565833 153.029785,111.593527 C153.029785,112.621221 158.321289,116.708095 160.197754,116.708095 C161.44873,116.708095 166.382813,116.305354 175,115.499872 C181.35026,115.499872 184.861654,115.499872 185.53418,115.499872 C186.542969,115.499872 196.44873,120.152235 197.79248,110.83684 C198.688314,104.626578 198.958822,97.4620277 198.604004,89.3431909 L197.79248,63.1536471 C198.622559,60.5445798 200.761068,59.4956893 204.208008,60.0069754 C207.654948,60.5182615 209.918945,61.5671521 211,63.1536471 L221,63.1536471 C227.763346,63.4045955 231.935872,63.8951115 233.517578,64.6251951 C235.890137,65.7203205 245.79834,70.3159207 248.636719,67.4705579 C251.475098,64.6251951 258,56.5376557 258,53.8143529 C258,51.09105 261.601074,41.9834991 263.960449,41.9834991 C266.319824,41.9834991 270.19873,48.8077606 270.19873,49.35575 C270.19873,49.7210764 271.30306,53.2714848 273.511719,60.0069754 C274.644206,63.8699313 275.885254,64.5256124 277.234863,61.9740186 C279.259277,58.146628 282.587891,55.2568797 284.26709,55.2568797 C285.386556,55.2568797 286.93278,56.8402449 288.905762,60.0069754 C289.703613,62.1047565 292.491699,63.1536471 297.27002,63.1536471 C304.4375,63.1536471 310.0625,63.1536471 316.03125,63.1536471 C320.010417,63.1536471 329.333333,64.0092049 344,65.7203205" id="路径-30" stroke="#1890FF" stroke-width="1.5" stroke-linecap="round" stroke-linejoin="round"></path>
                </g>
            </g>
            <g id="标题" transform="translate(16.000000, 18.000000)" fill="#000000" fill-opacity="0.85" font-family="PingFangSC-Medium, PingFang SC" font-size="14" font-weight="400" line-spacing="20">
                <text id="Tima宽边界">
                    <tspan x="0" y="15">Tima宽边界</tspan>
                </text>
            </g>
        </g>
    </g>
</svg>