<?xml version="1.0" encoding="UTF-8"?>
<svg width="392px" height="248px" viewBox="0 0 392 248" version="1.1" xmlns="http://www.w3.org/2000/svg" xmlns:xlink="http://www.w3.org/1999/xlink">
    <title>模块备份 4</title>
    <defs>
        <path d="M2,0 L382,0 C383.104569,-2.02906125e-16 384,0.8954305 384,2 L384,238 C384,239.104569 383.104569,240 382,240 L2,240 C0.8954305,240 1.3527075e-16,239.104569 0,238 L0,2 C-1.3527075e-16,0.8954305 0.8954305,2.02906125e-16 2,0 Z" id="path-1"></path>
        <filter x="-1.8%" y="-2.1%" width="103.6%" height="105.8%" filterUnits="objectBoundingBox" id="filter-2">
            <feOffset dx="0" dy="2" in="SourceAlpha" result="shadowOffsetOuter1"></feOffset>
            <feGaussianBlur stdDeviation="2" in="shadowOffsetOuter1" result="shadowBlurOuter1"></feGaussianBlur>
            <feColorMatrix values="0 0 0 0 0.12334826   0 0 0 0 0.156873573   0 0 0 0 0.212749094  0 0 0 0.0649311626 0" type="matrix" in="shadowBlurOuter1"></feColorMatrix>
        </filter>
    </defs>
    <g id="页面-1" stroke="none" stroke-width="1" fill="none" fill-rule="evenodd">
        <g id="模块备份-4" transform="translate(4.000000, 2.000000)">
            <g id="背景板">
                <use fill="black" fill-opacity="1" filter="url(#filter-2)" xlink:href="#path-1"></use>
                <use fill="#FFFFFF" fill-rule="evenodd" xlink:href="#path-1"></use>
            </g>
            <g id="编组-11" transform="translate(16.000000, 46.000000)">
                <rect id="实际区域" fill="#FF5656" opacity="0" x="0" y="0" width="352" height="178"></rect>
                <g id="图表" transform="translate(0.000000, 17.000000)">
                    <text id="time" font-family="PingFangSC-Regular, PingFang SC" font-size="10" font-weight="normal" fill="#000000" fill-opacity="0.45">
                        <tspan x="327" y="154">time</tspan>
                    </text>
                    <text id="figure" font-family="PingFangSC-Regular, PingFang SC" font-size="10" font-weight="normal" fill="#000000" fill-opacity="0.45">
                        <tspan x="0" y="11">figure</tspan>
                    </text>
                    <g id="刻度" transform="translate(0.000000, 21.500000)">
                        <line x1="2.5" y1="0" x2="2.5" y2="118" id="直线" stroke="#E9E9E9" stroke-linecap="square"></line>
                        <line x1="2.5" y1="118" x2="351" y2="118" id="直线-2" stroke="#E9E9E9" stroke-linecap="square"></line>
                        <rect id="矩形" fill="#E9E9E9" x="8" y="117.5" width="1" height="3"></rect>
                        <rect id="矩形备份-6" fill="#E9E9E9" x="25" y="117.5" width="1" height="3"></rect>
                        <rect id="矩形备份-7" fill="#E9E9E9" x="43" y="117.5" width="1" height="3"></rect>
                        <rect id="矩形备份-8" fill="#E9E9E9" x="63" y="117.5" width="1" height="3"></rect>
                        <rect id="矩形备份-9" fill="#E9E9E9" x="82" y="117.5" width="1" height="3"></rect>
                        <rect id="矩形备份-10" fill="#E9E9E9" x="101" y="117.5" width="1" height="3"></rect>
                        <rect id="矩形备份-11" fill="#E9E9E9" x="119" y="117.5" width="1" height="3"></rect>
                        <rect id="矩形备份-12" fill="#E9E9E9" x="138" y="117.5" width="1" height="3"></rect>
                        <rect id="矩形备份-13" fill="#E9E9E9" x="156" y="117.5" width="1" height="3"></rect>
                        <rect id="矩形备份-14" fill="#E9E9E9" x="174" y="117.5" width="1" height="3"></rect>
                        <rect id="矩形备份-15" fill="#E9E9E9" x="192" y="117.5" width="1" height="3"></rect>
                        <rect id="矩形备份-16" fill="#E9E9E9" x="211" y="117.5" width="1" height="3"></rect>
                        <rect id="矩形备份-17" fill="#E9E9E9" x="229" y="117.5" width="1" height="3"></rect>
                        <rect id="矩形备份-18" fill="#E9E9E9" x="248" y="117.5" width="1" height="3"></rect>
                        <rect id="矩形备份-19" fill="#E9E9E9" x="266" y="117.5" width="1" height="3"></rect>
                        <rect id="矩形备份-20" fill="#E9E9E9" x="285" y="117.5" width="1" height="3"></rect>
                        <rect id="矩形备份-21" fill="#E9E9E9" x="304" y="117.5" width="1" height="3"></rect>
                        <rect id="矩形备份-22" fill="#E9E9E9" x="322" y="117.5" width="1" height="3"></rect>
                        <rect id="矩形备份-23" fill="#E9E9E9" x="343" y="117.5" width="1" height="3"></rect>
                        <rect id="矩形" fill="#E9E9E9" x="0" y="102.5" width="3" height="1"></rect>
                        <rect id="矩形备份" fill="#E9E9E9" x="0" y="79.5" width="3" height="1"></rect>
                        <rect id="矩形备份-3" fill="#E9E9E9" x="0" y="56.5" width="3" height="1"></rect>
                        <rect id="矩形备份-4" fill="#E9E9E9" x="0" y="33.5" width="3" height="1"></rect>
                        <rect id="矩形备份-5" fill="#E9E9E9" x="0" y="10.5" width="3" height="1"></rect>
                    </g>
                </g>
            </g>
            <g id="编组-3" transform="translate(25.000000, 83.199798)">
                <polygon id="路径-6" fill-opacity="0.6" fill="#CBE4FF" points="0 66.7261165 59.6023791 66.7261165 59.6023791 0.217160782 116.616317 0.217160782 116.616317 82.4406698 166.914428 82.4406698 166.914428 69.7503146 218.842081 69.7503146 218.842081 6.80020169 277.186713 6.80020169 277.186713 83.8372387 326 83.8372387 335 83.8372387 335 104.059461 276 104.059461 276 96.3172011 220.5 96.3172011 220.5 110.800202 169 110.800202 169 101.170572 104 101.170572 104 92.7727031 61.1357422 92.7727031 61.1357422 109.231625 0 109.231625"></polygon>
                <path d="M23,74.8002017 C23.420935,69.8159517 23.907064,68.5581139 24.4583871,71.0266883 C24.6744287,71.9940242 24.8549663,73.248278 25,74.7894496 M83,23.8002017 C83.8304112,16.9845106 84.4235669,15.9755251 84.7794671,20.7732453 C84.8507375,21.7340085 84.9242485,22.7224547 85,23.7385839 M184,77.8002017 C184.136721,76.3802638 184.362885,74.0469304 184.678493,70.8002017 C184.828041,74.0162516 184.93521,76.3287118 185,77.7375821" id="形状" stroke="#1890FF" stroke-width="1.5" stroke-linecap="round" stroke-linejoin="round"></path>
                <path d="M0,88.4074066 C4.92395965,88.537173 7.38593948,87.6710575 7.38593948,85.80906 C7.38593948,83.0160638 11.5225496,83.2107135 11.5225496,85.80906 C11.5225496,87.541291 12.4506093,88.4074066 14.3067288,88.4074066 L17.1151066,86.1033682 C18.3402709,86.1636778 18.9528531,86.5627616 18.9528531,87.3006196 C18.9528531,88.4074066 20.7986657,90.5965362 20.7986657,89.5019714 C20.7986657,88.7722615 21.4067667,84.8898308 22.6229686,77.8546793 C22.7873231,75.9162949 22.9130002,74.5648024 23,73.8002017 M25,74.2369656 C25.2390032,76.3216215 25.4078717,80.7065195 25.5066055,87.3916598 L26.7511479,96.7217454 C28.1087229,98.679819 29.0427708,97.9715452 29.5532916,94.5969241 C30.3190728,89.5349923 31.9524237,87.6098275 31.9524237,89.5349923 C31.9524237,90.8184355 32.5682838,92.2370399 33.800004,93.7908054 L35.3114454,88.4692761 L37.8105907,85.9394121 L39.0273188,90.927299 L39.9209274,84.2438743 L41.5412589,75.9768605 L42.5579607,86.2259634 L42.5579607,93.7908054 C44.1202963,94.7895287 44.9014642,94.5619585 44.9014642,93.1080947 C44.9014642,91.6542309 45.486551,90.1079581 46.6567246,88.4692761 C48.0241629,87.7587986 48.707882,87.7587986 48.707882,88.4692761 C48.707882,89.1797536 49.81572,90.2971837 52.031396,91.8215663 L55.4069879,89.5349923 C55.7257675,88.6067879 56.694534,88.6067879 58.3132874,89.5349923 C59.9320407,90.4631968 61.0442185,89.2646701 61.6498209,85.9394121 L64.0702576,72.0643862 L68.7886296,54.934915 C70.2203761,45.8180021 71.2905366,44.8117862 71.9991111,51.9162672 C72.7076855,59.0207482 73.3221648,67.2388396 73.8425488,76.5705412 C75.0967572,83.4255618 76.2470071,82.9939276 77.2932985,75.2756387 C78.33959,67.5573497 79.5673649,57.980742 80.9766232,46.5458155 C81.9509409,34.0189146 82.6253998,26.10371 83,22.8002017 M85,22.8002017 C85.3620316,28.0862974 86.0254591,37.6344613 86.9902826,51.4446934 C89.0904271,56.4502677 90.6580084,57.0534324 91.6930265,53.2541877 C92.7280446,49.4549429 93.845567,45.5090741 95.0455937,41.4165813 C96.2839399,35.2825623 97.2147524,34.9913793 97.8380312,40.5430323 C98.46131,46.0946853 99.0282825,51.5771566 99.5389488,56.990446 C99.5491152,61.5148456 99.922535,62.6459455 100.659208,60.3837457 C101.764218,56.990446 102.74078,58.333959 102.74078,62.2684696 C102.74078,66.2029802 105.133208,75.5801346 105.133208,71.7443076 C105.133208,67.9084806 108.258204,51.7093247 108.258204,58.3582981 C108.258204,62.7909469 108.258204,71.8823762 108.258204,85.6325857 C108.504153,88.4650557 108.965747,89.520631 109.642986,88.7993114 C110.658844,87.717332 113.012562,84.2945205 114.543388,86.546916 C116.074214,88.7993114 116.164538,93.0630623 117.637299,92.1651744 C119.110059,91.2672864 119.869606,90.3693984 121.729472,91.2672864 C123.589337,92.1651744 126.368284,91.172143 127.197042,90.5207428 C128.025799,89.8693425 129.558385,86.899099 131.373674,90.5207428 C133.188964,94.1423865 134.644128,97.9724607 135.681102,96.4621148 C136.718075,94.951769 139.122234,91.9620543 140.068882,93.4569117 C141.015531,94.951769 143.356932,97.2241469 144.506518,95.6832667 C145.656103,94.1423865 150.452105,93.4569117 150.452105,93.4569117 C150.452105,93.4569117 151.656823,94.1078694 154.34486,93.4569117 C156.136884,93.0229399 158.725602,92.5923607 162.111015,92.1651744 L165.715201,93.4569117 C166.987565,93.1943454 167.916032,92.7637663 168.5006,92.1651744 C169.377452,91.2672864 171.52706,88.8763111 172.720635,90.5207428 C173.91421,92.1651744 176.656793,94.748649 176.656793,93.4569117 C176.656793,92.1651744 178.46915,90.3693984 179.544834,91.2672864 C180.620517,92.1651744 182.12319,94.748649 182.12319,93.4569117 C182.12319,92.7426172 182.748793,87.3516302 184,77.2839506 M185,76.9304962 C185.595365,86.8983645 185.893047,92.2944959 185.893047,93.1188903 C185.893047,94.1126733 186.252451,96.4142901 186.971259,100.023741 L188.226622,93.8024471 C189.35388,89.4354503 190.188042,88.0150879 190.72911,89.5413597 C191.270178,91.0676316 191.749056,94.206815 192.165745,98.95891 L194.315107,93.1188903 C194.98487,91.4013932 195.591462,90.9720189 196.134884,91.8307675 C196.950017,93.1188903 198.594997,94.1201752 198.594997,91.8307675 C198.594997,89.5413597 200.148163,76.1244065 201.39411,88.4743227 C202.224742,96.7076002 203.33395,97.8264151 204.721736,91.8307675 C205.648889,89.9782359 206.4703,89.9782359 207.185969,91.8307675 C207.901638,93.683299 208.963763,94.1126733 210.372344,93.1188903 C211.47449,93.1085935 212.324151,93.6054851 212.921327,94.6095648 C213.81709,96.1156844 217.595541,97.559141 218.999806,95.3390157 C220.404071,93.1188903 223.675786,85.6085914 225.140671,80.1485216 C226.117261,76.5084751 227.385769,70.8718897 228.946194,63.2387654 C231.610728,48.388211 232.942994,46.8959185 232.942994,58.7618876 C232.942994,70.6278568 233.282192,77.7567348 233.960586,80.1485216 C235.198882,92.6555368 236.432077,92.9639978 237.660172,81.0739048 C238.888266,69.1838119 240.523437,57.3513806 242.565684,45.5766112 C243.77416,33.64033 244.732113,32.6340438 245.439542,42.5577526 C246.146972,52.4814614 247.348189,58.3416333 249.043195,60.1382683 C250.294439,61.4218311 251.540975,60.7485711 252.782802,58.1184882 C254.645543,54.1733638 258.657056,35.360769 258.657056,49.969644 C258.657056,64.578519 259.985988,67.7156431 261.066554,63.2387654 C261.786932,60.2541802 262.275423,61.842968 262.532028,68.0051287 L263.473698,81.0739048 C264.008488,82.2753879 264.693945,81.724512 265.530069,79.4212772 C266.366194,77.1180424 267.291188,71.7238718 268.305053,63.2387654 C269.39739,61.1805931 269.943559,63.2686259 269.943559,69.5028639 C269.943559,75.7371018 269.676163,82.4166004 269.141373,89.5413597 C270.991362,90.5186679 272.283608,90.1629889 273.018111,88.4743227 C274.119864,85.9413234 277.270339,87.4072857 277.270339,88.4743227 C277.270339,89.5413597 279.249023,94.4860039 280.561475,93.8024471 C281.873927,93.1188903 285.199788,91.6282158 286.40336,93.1188903 C287.606931,94.6095648 288.990009,95.4166825 291.125246,94.6095648 C292.548737,94.0714863 293.950059,94.3146366 295.329213,95.3390157 C296.543183,99.6095172 297.562736,101.171092 298.387875,100.023741 C299.625582,98.3027131 300.960988,95.9497597 302.302279,96.7370195 C303.64357,97.5242792 303.957264,98.95891 305.167898,98.95891 C306.378532,98.95891 307.192488,96.971344 308.280117,97.965127 C309.367746,98.95891 310.770834,103.9671 312.11389,102.549238 C313.456947,101.131376 314.550461,97.965127 315.555105,97.965127 C316.224868,97.965127 318.366578,97.965127 321.980237,97.965127 C323.329964,96.7630555 324.438584,96.3536864 325.306097,96.7370195 C326.17361,97.1203526 329.404911,97.3376139 335,97.3888034" id="形状" stroke="#1890FF" stroke-width="1.5" stroke-linecap="round" stroke-linejoin="round"></path>
            </g>
            <g id="标题" transform="translate(16.000000, 18.000000)" fill="#000000" fill-opacity="0.85" font-family="PingFangSC-Medium, PingFang SC" font-size="14" font-weight="400" line-spacing="20">
                <text id="分段自动阈值宽边界">
                    <tspan x="0" y="15">分段自动阈值宽边界</tspan>
                </text>
            </g>
        </g>
    </g>
</svg>