<?xml version="1.0" encoding="UTF-8"?>
<svg width="392px" height="248px" viewBox="0 0 392 248" version="1.1" xmlns="http://www.w3.org/2000/svg" xmlns:xlink="http://www.w3.org/1999/xlink">
    <title>模块备份 5</title>
    <defs>
        <path d="M2,0 L382,0 C383.104569,-2.02906125e-16 384,0.8954305 384,2 L384,238 C384,239.104569 383.104569,240 382,240 L2,240 C0.8954305,240 1.3527075e-16,239.104569 0,238 L0,2 C-1.3527075e-16,0.8954305 0.8954305,2.02906125e-16 2,0 Z" id="path-1"></path>
        <filter x="-1.8%" y="-2.1%" width="103.6%" height="105.8%" filterUnits="objectBoundingBox" id="filter-2">
            <feOffset dx="0" dy="2" in="SourceAlpha" result="shadowOffsetOuter1"></feOffset>
            <feGaussianBlur stdDeviation="2" in="shadowOffsetOuter1" result="shadowBlurOuter1"></feGaussianBlur>
            <feColorMatrix values="0 0 0 0 0.12334826   0 0 0 0 0.156873573   0 0 0 0 0.212749094  0 0 0 0.0649311626 0" type="matrix" in="shadowBlurOuter1"></feColorMatrix>
        </filter>
    </defs>
    <g id="页面-1" stroke="none" stroke-width="1" fill="none" fill-rule="evenodd">
        <g id="模块备份-5" transform="translate(4.000000, 2.000000)">
            <g id="背景板">
                <use fill="black" fill-opacity="1" filter="url(#filter-2)" xlink:href="#path-1"></use>
                <use fill="#FFFFFF" fill-rule="evenodd" xlink:href="#path-1"></use>
            </g>
            <g id="编组-12" transform="translate(16.000000, 46.000000)">
                <rect id="实际区域" fill="#FF5656" opacity="0" x="0" y="0" width="352" height="178"></rect>
                <g id="图表" transform="translate(0.000000, 17.000000)">
                    <text id="time" font-family="PingFangSC-Regular, PingFang SC" font-size="10" font-weight="normal" fill="#000000" fill-opacity="0.45">
                        <tspan x="327" y="154">time</tspan>
                    </text>
                    <text id="figure" font-family="PingFangSC-Regular, PingFang SC" font-size="10" font-weight="normal" fill="#000000" fill-opacity="0.45">
                        <tspan x="0" y="11">figure</tspan>
                    </text>
                    <g id="刻度" transform="translate(0.000000, 21.500000)">
                        <line x1="2.5" y1="0" x2="2.5" y2="118" id="直线" stroke="#E9E9E9" stroke-linecap="square"></line>
                        <line x1="2.5" y1="118" x2="351" y2="118" id="直线-2" stroke="#E9E9E9" stroke-linecap="square"></line>
                        <rect id="矩形" fill="#E9E9E9" x="8" y="117.5" width="1" height="3"></rect>
                        <rect id="矩形备份-6" fill="#E9E9E9" x="25" y="117.5" width="1" height="3"></rect>
                        <rect id="矩形备份-7" fill="#E9E9E9" x="43" y="117.5" width="1" height="3"></rect>
                        <rect id="矩形备份-8" fill="#E9E9E9" x="63" y="117.5" width="1" height="3"></rect>
                        <rect id="矩形备份-9" fill="#E9E9E9" x="82" y="117.5" width="1" height="3"></rect>
                        <rect id="矩形备份-10" fill="#E9E9E9" x="101" y="117.5" width="1" height="3"></rect>
                        <rect id="矩形备份-11" fill="#E9E9E9" x="119" y="117.5" width="1" height="3"></rect>
                        <rect id="矩形备份-12" fill="#E9E9E9" x="138" y="117.5" width="1" height="3"></rect>
                        <rect id="矩形备份-13" fill="#E9E9E9" x="156" y="117.5" width="1" height="3"></rect>
                        <rect id="矩形备份-14" fill="#E9E9E9" x="174" y="117.5" width="1" height="3"></rect>
                        <rect id="矩形备份-15" fill="#E9E9E9" x="192" y="117.5" width="1" height="3"></rect>
                        <rect id="矩形备份-16" fill="#E9E9E9" x="211" y="117.5" width="1" height="3"></rect>
                        <rect id="矩形备份-17" fill="#E9E9E9" x="229" y="117.5" width="1" height="3"></rect>
                        <rect id="矩形备份-18" fill="#E9E9E9" x="248" y="117.5" width="1" height="3"></rect>
                        <rect id="矩形备份-19" fill="#E9E9E9" x="266" y="117.5" width="1" height="3"></rect>
                        <rect id="矩形备份-20" fill="#E9E9E9" x="285" y="117.5" width="1" height="3"></rect>
                        <rect id="矩形备份-21" fill="#E9E9E9" x="304" y="117.5" width="1" height="3"></rect>
                        <rect id="矩形备份-22" fill="#E9E9E9" x="322" y="117.5" width="1" height="3"></rect>
                        <rect id="矩形备份-23" fill="#E9E9E9" x="343" y="117.5" width="1" height="3"></rect>
                        <rect id="矩形" fill="#E9E9E9" x="0" y="102.5" width="3" height="1"></rect>
                        <rect id="矩形备份" fill="#E9E9E9" x="0" y="79.5" width="3" height="1"></rect>
                        <rect id="矩形备份-3" fill="#E9E9E9" x="0" y="56.5" width="3" height="1"></rect>
                        <rect id="矩形备份-4" fill="#E9E9E9" x="0" y="33.5" width="3" height="1"></rect>
                        <rect id="矩形备份-5" fill="#E9E9E9" x="0" y="10.5" width="3" height="1"></rect>
                    </g>
                </g>
            </g>
            <g id="编组-5" transform="translate(24.129883, 88.077627)">
                <polygon id="路径-14" fill-opacity="0.6" fill="#CBE4FF" points="0.870117188 69.39975 28.5002683 69.39975 28.5002683 45.496803 41.2651019 45.496803 41.2651019 63.4079089 46.806551 63.4079089 46.806551 53.3246372 56.7948563 53.3246372 56.7948563 69.39975 68.2991089 69.39975 68.2991089 22.5983216 87.654715 22.5983216 87.654715 7.9223733 103.884986 7.9223733 103.884986 18.3696627 113.324834 18.3696627 113.324834 36.9845031 126.66192 36.9845031 126.66192 69.39975 129.996772 69.39975 129.996772 76.1824937 188.206944 76.1824937 188.206944 54.301344 200.350193 54.301344 200.350193 74.5066187 205.037325 74.5066187 205.037325 63.4079089 215.315239 63.4079089 215.315239 74.5066187 226.063259 74.5066187 226.063259 29.5187305 246.223269 29.5187305 246.223269 13.0924167 259.076901 13.0924167 259.076901 22.5983216 273.806314 22.5983216 273.806314 41.0520021 284.312897 41.0520021 284.312897 74.5066187 289.580988 74.5066187 289.580988 81.015844 344.870117 81.015844 344.870117 93.6784652 325.856354 93.6784652 325.856354 99.3829843 298.502558 99.3829843 298.502558 93.6784652 266.636561 93.6784652 266.636561 58.8792631 251.494843 58.8792631 251.494843 92.9085239 205.826639 92.9085239 205.826639 97.9601776 199.415784 97.9601776 199.415784 105.922373 188.206944 105.922373 188.206944 89.8021735 157.12422 89.8021735 157.12422 94.3793879 141.395976 94.3793879 141.395976 88.7152576 108.317042 88.7152576 108.317042 54.301344 93.6126737 54.301344 93.6126737 89.8021735 58.580099 89.8021735 58.580099 95.5102713 42.7531911 95.5102713 42.7531911 103.235247 31.840924 103.235247 31.840924 87.6334542 0.870117188 87.6334542"></polygon>
                <path d="M93.8701172,8.22972035 C94.6905405,-0.118626018 95.2738467,-1.31373812 95.6200356,4.64438404 C95.6870573,5.7978688 95.7561719,6.97477672 95.8273793,8.17510778 M105.572346,18.6731653 C106.959425,12.2282056 107.96142,12.2282056 108.578329,18.6731653 M251.793555,13.3702748 C253.016924,-0.897219059 253.977508,-2.25454497 254.675304,9.29829705 C254.755736,10.629943 254.842639,11.9872689 254.936014,13.3702748 M266.008346,22.9003471 C267.060328,16.2193436 267.860585,12.6884631 267.860585,20.1979268 C267.860585,21.0954371 267.863824,22.005102 267.870117,22.9223733" id="形状" stroke="#FF9D9D" stroke-width="1.5"></path>
                <path d="M0.870117188,82.2896003 C2.3141276,82.821475 3.8141276,82.821475 5.37011719,82.2896003 C6.92610677,81.7577256 10.0927734,81.7577256 14.8701172,82.2896003 C19.1215864,82.4364739 21.247321,81.456178 21.247321,79.3487125 C21.247321,76.1875143 24.8189731,76.4078247 24.8189731,79.3487125 C24.8189731,81.3093044 25.6202829,82.2896003 27.2229027,82.2896003 L29.6477259,79.6818194 C30.7055632,79.7500797 31.2344819,80.2017749 31.2344819,81.0369051 C31.2344819,82.2896003 32.8282025,84.7673239 32.8282025,83.5284621 C32.8282025,82.7025542 33.353252,78.3083008 34.403351,70.345702 C34.945038,61.2029907 35.5989316,58.3003584 36.3650318,61.6378049 C37.131132,64.9752514 37.4992857,71.4416182 37.4694929,81.0369051 L38.6900298,91.8828378 C40.0214191,94.1590371 40.9374506,93.335691 41.4381242,89.4127994 C42.1891345,83.5284621 43.7909804,81.2905182 43.7909804,83.5284621 C43.7909804,85.0204247 44.3949614,86.6695079 45.6029235,88.4757117 L47.0852113,82.2896003 L49.5361516,79.3487125 L50.7294107,85.1469751 L51.6057829,77.3777028 L53.1948604,67.7675578 L54.1919515,79.6818194 L54.1919515,88.4757117 C55.7241519,89.6366963 56.4902521,89.372153 56.4902521,87.6820819 C56.4902521,85.9920107 57.0640534,84.1945168 58.211656,82.2896003 C59.5527183,81.4636924 60.2232495,81.4636924 60.2232495,82.2896003 C60.2232495,83.1155082 61.3097188,84.4144857 63.4826576,86.1865328 L66.7931391,83.5284621 C67.1057699,82.4494534 68.0558502,82.4494534 69.6433801,83.5284621 C71.23091,84.6074708 72.3216355,83.2142209 72.9155566,79.3487125 L75.2893065,63.2194287 L79.9166678,43.3069541 C81.320798,32.7088278 82.3703165,31.5391333 83.0652236,39.7978703 C83.7601307,48.0566074 84.3627575,57.6098816 84.873104,68.457693 C86.1031205,76.4264401 87.2311837,75.9246788 88.2572936,66.9524093 C89.2834036,57.9801397 90.4874965,46.8476327 91.8695722,33.5548881 C92.7904522,20.1422261 93.430156,11.6162097 93.7886835,7.97683876 M95.7454374,7.9223733 C96.1038543,13.9494385 96.7608118,24.3223573 97.7163097,39.0411297 C99.7944532,44.836489 101.345613,45.5348217 102.369788,41.136128 C103.393963,36.7374342 104.433325,29.156109 105.487874,18.3921522 M108.493076,18.3921522 C109.109825,24.8197511 109.656639,33.8429995 110.133517,45.4618973 C110.143577,50.7001615 110.513085,52.0097276 111.242041,49.3905955 C112.335475,45.4618973 113.301806,47.0173912 113.301806,51.5726932 C113.301806,56.1279952 115.669172,66.9846873 115.669172,62.5436393 C115.669172,58.1025913 118.761431,39.3475149 118.761431,47.0455705 C118.761431,52.1776076 118.761431,62.7034925 118.761431,78.6232252 C119.004803,81.9026054 119.461561,83.1247305 120.131705,82.2896003 C121.136922,81.0369051 123.465982,77.0740386 124.980771,79.6818194 C126.49556,82.2896003 126.584939,87.2260905 128.04227,86.1865328 C129.499602,85.1469751 130.251193,84.1074174 132.091574,85.1469751 C133.931956,86.1865328 136.681791,85.0368199 137.501867,84.282641 C138.321942,83.5284621 139.838472,80.0895703 141.634745,84.282641 C143.431018,88.4757117 144.870938,92.9100991 145.897048,91.1614493 C146.923158,89.4127994 149.302131,85.9513643 150.238863,87.6820819 C151.175595,89.4127994 153.492467,92.0437156 154.63001,90.2597137 C155.767553,88.4757117 160.513312,87.6820819 160.513312,87.6820819 C160.513312,87.6820819 161.70541,88.4357484 164.365287,87.6820819 C166.138538,87.1796375 168.700137,86.6811211 172.050084,86.1865328 L175.616513,87.6820819 C176.875548,87.3780876 177.794288,86.8795713 178.372732,86.1865328 C179.240399,85.1469751 181.367488,82.3787492 182.548559,84.282641 C183.72963,86.1865328 186.443482,89.1776309 186.443482,87.6820819 C186.443482,86.1865328 188.236853,84.1074174 189.301268,85.1469751 C190.365683,86.1865328 191.852614,89.1776309 191.852614,87.6820819 C191.852614,86.6850492 192.752395,81.6653875 194.551956,72.6230968 C195.405113,81.5086084 195.831692,86.5282701 195.831692,87.6820819 C195.831692,88.8358936 196.18611,91.5081393 196.894946,95.698819 L198.132894,88.4757117 C199.244514,83.4054981 200.067104,81.7564149 200.600666,83.5284621 C201.134227,85.3005092 201.606462,88.9451949 202.017371,94.462519 L204.136915,87.6820819 C204.797386,85.6880165 205.395563,85.1895001 205.931446,86.1865328 C206.735271,87.6820819 208.35743,88.8446035 208.35743,86.1865328 C208.35743,83.5284621 209.88905,67.950979 211.117713,82.2896003 C211.936821,91.8486811 213.030642,93.1476586 214.399175,86.1865328 C215.313465,84.0356884 216.123481,84.0356884 216.829222,86.1865328 C217.534963,88.3373772 218.582353,88.8358936 219.971393,87.6820819 C221.05825,87.670127 221.896123,88.2470329 222.485015,89.4127994 C223.368351,91.1614493 227.094384,92.8373455 228.479168,90.2597137 C229.863952,87.6820819 233.090279,78.9624007 234.534842,72.6230968 C235.497884,68.3968941 236.748794,61.8526502 238.287572,52.9903651 C240.915141,35.7484284 242.228926,34.0158321 242.228926,47.7925765 C242.228926,61.5693208 242.563418,69.8461609 243.232401,72.6230968 C244.453518,87.1441146 245.669606,87.5022471 246.880663,73.6974943 C248.09172,59.8927415 249.688536,39.6947588 251.671111,13.1035461 M254.812754,13.1035461 C255.290434,20.1614266 256.388107,32.2571098 258.105772,49.3905955 C259.339658,50.8808502 260.568901,50.0991752 261.7935,47.0455705 C262.819321,44.4876302 264.552047,31.0350688 265.88221,22.6079472 M267.743498,22.6299141 C267.856425,39.0499004 268.952991,57.9138533 269.962334,52.9903651 C270.672718,49.5251727 271.154432,51.3698027 271.407477,58.5242552 L272.336084,73.6974943 C272.863455,75.092452 273.539403,74.4528687 274.363928,71.7787443 C275.188453,69.10462 276.100615,62.8418269 277.100414,52.9903651 C278.177598,50.6007657 278.716189,53.0250341 278.716189,60.2631704 C278.716189,67.5013067 278.452504,75.2564039 277.925133,83.5284621 C279.749457,84.6631461 281.023776,84.2501922 281.748089,82.2896003 C282.834558,79.3487125 285.941327,81.0507385 285.941327,82.2896003 C285.941327,83.5284621 287.892561,89.2693415 289.186806,88.4757117 C290.481051,87.6820819 293.760772,85.9513643 294.947647,87.6820819 C296.134522,89.4127994 297.498413,90.3498872 299.604028,89.4127994 C301.007771,88.7880743 302.389653,89.070379 303.749674,90.2597137 C304.946803,95.2178934 305.952212,97.0309285 306.765904,95.698819 C307.986441,93.7006549 309.303321,90.9688058 310.626004,91.8828378 C311.948688,92.7968698 312.25803,94.462519 313.451869,94.462519 C314.645709,94.462519 315.448373,92.1548955 316.520913,93.3087073 C317.593453,94.462519 318.977077,100.277177 320.301502,98.6309969 C321.625926,96.984817 322.70427,93.3087073 323.694977,93.3087073 C324.355448,93.3087073 326.467447,93.3087073 330.030974,93.3087073 C331.361977,91.9130664 332.455217,91.4377766 333.310696,91.8828378 C334.166174,92.327899 337.352648,92.5801459 342.870117,92.6395784" id="形状" stroke="#1890FF" stroke-width="1.5" stroke-linecap="round" stroke-linejoin="round"></path>
            </g>
            <g id="标题" transform="translate(16.000000, 18.000000)" fill="#000000" fill-opacity="0.85" font-family="PingFangSC-Medium, PingFang SC" font-size="14" font-weight="400" line-spacing="20">
                <text id="Value-segment-detect">
                    <tspan x="0" y="15">Value segment detect close real data</tspan>
                </text>
            </g>
        </g>
    </g>
</svg>