<?xml version="1.0" encoding="UTF-8"?>
<svg width="392px" height="248px" viewBox="0 0 392 248" version="1.1" xmlns="http://www.w3.org/2000/svg" xmlns:xlink="http://www.w3.org/1999/xlink">
    <title>模块备份 3</title>
    <defs>
        <path d="M2,0 L382,0 C383.104569,-2.02906125e-16 384,0.8954305 384,2 L384,238 C384,239.104569 383.104569,240 382,240 L2,240 C0.8954305,240 1.3527075e-16,239.104569 0,238 L0,2 C-1.3527075e-16,0.8954305 0.8954305,2.02906125e-16 2,0 Z" id="path-1"></path>
        <filter x="-1.8%" y="-2.1%" width="103.6%" height="105.8%" filterUnits="objectBoundingBox" id="filter-2">
            <feOffset dx="0" dy="2" in="SourceAlpha" result="shadowOffsetOuter1"></feOffset>
            <feGaussianBlur stdDeviation="2" in="shadowOffsetOuter1" result="shadowBlurOuter1"></feGaussianBlur>
            <feColorMatrix values="0 0 0 0 0.12334826   0 0 0 0 0.156873573   0 0 0 0 0.212749094  0 0 0 0.0649311626 0" type="matrix" in="shadowBlurOuter1"></feColorMatrix>
        </filter>
    </defs>
    <g id="页面-1" stroke="none" stroke-width="1" fill="none" fill-rule="evenodd">
        <g id="模块备份-3" transform="translate(4.000000, 2.000000)">
            <g id="背景板">
                <use fill="black" fill-opacity="1" filter="url(#filter-2)" xlink:href="#path-1"></use>
                <use fill="#FFFFFF" fill-rule="evenodd" xlink:href="#path-1"></use>
            </g>
            <g id="编组-10" transform="translate(16.000000, 46.000000)">
                <rect id="实际区域" fill="#FF5656" opacity="0" x="0" y="0" width="352" height="178"></rect>
                <g id="图表" transform="translate(0.000000, 16.000000)">
                    <text id="time" font-family="PingFangSC-Regular, PingFang SC" font-size="10" font-weight="normal" fill="#000000" fill-opacity="0.45">
                        <tspan x="327" y="154">time</tspan>
                    </text>
                    <text id="figure" font-family="PingFangSC-Regular, PingFang SC" font-size="10" font-weight="normal" fill="#000000" fill-opacity="0.45">
                        <tspan x="0" y="11">figure</tspan>
                    </text>
                    <g id="刻度" transform="translate(0.000000, 21.500000)">
                        <line x1="2.5" y1="0" x2="2.5" y2="118" id="直线" stroke="#E9E9E9" stroke-linecap="square"></line>
                        <line x1="2.5" y1="118" x2="351" y2="118" id="直线-2" stroke="#E9E9E9" stroke-linecap="square"></line>
                        <rect id="矩形" fill="#E9E9E9" x="8" y="117.5" width="1" height="3"></rect>
                        <rect id="矩形备份-6" fill="#E9E9E9" x="25" y="117.5" width="1" height="3"></rect>
                        <rect id="矩形备份-7" fill="#E9E9E9" x="43" y="117.5" width="1" height="3"></rect>
                        <rect id="矩形备份-8" fill="#E9E9E9" x="63" y="117.5" width="1" height="3"></rect>
                        <rect id="矩形备份-9" fill="#E9E9E9" x="82" y="117.5" width="1" height="3"></rect>
                        <rect id="矩形备份-10" fill="#E9E9E9" x="101" y="117.5" width="1" height="3"></rect>
                        <rect id="矩形备份-11" fill="#E9E9E9" x="119" y="117.5" width="1" height="3"></rect>
                        <rect id="矩形备份-12" fill="#E9E9E9" x="138" y="117.5" width="1" height="3"></rect>
                        <rect id="矩形备份-13" fill="#E9E9E9" x="156" y="117.5" width="1" height="3"></rect>
                        <rect id="矩形备份-14" fill="#E9E9E9" x="174" y="117.5" width="1" height="3"></rect>
                        <rect id="矩形备份-15" fill="#E9E9E9" x="192" y="117.5" width="1" height="3"></rect>
                        <rect id="矩形备份-16" fill="#E9E9E9" x="211" y="117.5" width="1" height="3"></rect>
                        <rect id="矩形备份-17" fill="#E9E9E9" x="229" y="117.5" width="1" height="3"></rect>
                        <rect id="矩形备份-18" fill="#E9E9E9" x="248" y="117.5" width="1" height="3"></rect>
                        <rect id="矩形备份-19" fill="#E9E9E9" x="266" y="117.5" width="1" height="3"></rect>
                        <rect id="矩形备份-20" fill="#E9E9E9" x="285" y="117.5" width="1" height="3"></rect>
                        <rect id="矩形备份-21" fill="#E9E9E9" x="304" y="117.5" width="1" height="3"></rect>
                        <rect id="矩形备份-22" fill="#E9E9E9" x="322" y="117.5" width="1" height="3"></rect>
                        <rect id="矩形备份-23" fill="#E9E9E9" x="343" y="117.5" width="1" height="3"></rect>
                        <rect id="矩形" fill="#E9E9E9" x="0" y="102.5" width="3" height="1"></rect>
                        <rect id="矩形备份" fill="#E9E9E9" x="0" y="79.5" width="3" height="1"></rect>
                        <rect id="矩形备份-3" fill="#E9E9E9" x="0" y="56.5" width="3" height="1"></rect>
                        <rect id="矩形备份-4" fill="#E9E9E9" x="0" y="33.5" width="3" height="1"></rect>
                        <rect id="矩形备份-5" fill="#E9E9E9" x="0" y="10.5" width="3" height="1"></rect>
                    </g>
                </g>
            </g>
            <g id="编组-4" transform="translate(24.129883, 87.986944)">
                <polygon id="路径-8" fill-opacity="0.6" fill="#CBE4FF" points="0.870117188 70.8268395 55.3322907 70.8268395 55.3322907 20.0130561 116.84729 20.0130561 116.84729 76.0130561 178.028246 76.0130561 178.028246 72.7974764 217.745109 72.7974764 217.745109 25.8567078 277.715452 25.8567078 277.715452 73.916666 329.870117 73.916666 336 73.916666 336 103.013056 262.675938 103.013056 262.675938 95.0642152 221.870117 95.0642152 221.800123 103.013056 174.798572 103.013056 174.798572 98.0206118 113.274083 98.0206118 113.274083 89.0130561 57.9694663 89.0130561 57.9694663 98.0206118 0.870117188 98.0206118"></polygon>
                <path d="M19.8701172,71.4229728 C20.0310738,70.120068 20.3392157,67.7079787 20.7945427,64.1867047 C21.3378301,54.9284197 21.9936557,51.989095 22.7620194,55.3687304 C23.4458005,58.3763306 23.8134947,63.8932188 23.8651021,71.9193951 C23.8693579,72.5812784 23.8709051,73.6124988 23.8697437,75.0130561 M38.3288574,72.0251411 L39.7196708,61.0130561 L40.927124,72.0471138 M79.8701172,20.8750136 C81.366381,0.48462041 82.3563029,-4.95865665 82.8398828,4.54518244 C83.1379836,10.4037851 83.481395,15.8930764 83.8701172,21.0130561 M92.8327637,20.0624946 C94.2064871,12.0624946 96.2438406,12.0130561 96.8701172,20.0130561 M182.870117,72.9157889 C183.118465,71.608209 183.566718,69.3072981 184.214875,66.0130561 C184.531667,69.35659 184.750081,71.6899233 184.870117,73.0130561 M198.870117,73.0130561 C199.377208,69.1333057 200.870117,64.049027 200.870117,72.9762304 M241.945068,25.7764839 C243.437268,7.10981722 244.633516,7.11885042 245.807983,25.7855171 M255.999878,25.658564 C257.440593,20.2742241 258.894897,15.6800659 258.894897,25.9333442" id="形状" stroke="#FF9D9D" stroke-width="1.5" stroke-linecap="round" stroke-linejoin="round"></path>
                <path d="M0.870117188,76.3917908 C5.21032505,76.5428438 7.38042899,75.5346531 7.38042899,73.3672188 C7.38042899,70.1160674 11.0266302,70.3426469 11.0266302,73.3672188 C11.0266302,75.3836002 11.8446654,76.3917908 13.4807357,76.3917908 L15.956171,73.7098045 C17.036088,73.7800071 17.5760465,74.2445555 17.5760465,75.1034496 C17.5760465,76.3917908 19.203032,78.9400191 19.203032,77.665905 C19.203032,77.1188119 19.4253937,75.0492769 19.8701172,71.4573002 M23.8701172,72.0935816 C23.8744515,72.7801895 23.8760272,73.8499311 23.8748444,75.3028062 L25.1215612,86.6961138 C26.4815081,89.0871889 27.4171879,88.22229 27.9286006,84.101417 C28.6957197,77.9201077 30.3319243,75.5692187 30.3319243,77.9201077 C30.3319243,79.487367 30.9488604,81.2196764 32.1827326,83.1170361 L33.6968146,76.6187227 L36.2003262,73.5294136 L37.4191801,79.6203041 L38.3001222,72.0935816 M40.9559905,72.0935816 L40.9559905,83.1170361 C42.5210558,84.3366136 43.3035884,84.0587193 43.3035884,82.2833532 C43.3035884,80.5079872 43.8896974,78.619777 45.0619155,76.6187227 C46.4317428,75.7511328 47.1166565,75.7511328 47.1166565,76.6187227 C47.1166565,77.4863127 48.2264301,78.8508473 50.4459772,80.7123265 L53.8274667,77.9201077 C54.1468032,76.7866434 55.1172623,76.7866434 56.7388438,77.9201077 C58.3604253,79.053572 59.4745463,77.5900073 60.0812067,73.5294136 L62.5058722,56.5861136 L67.2324878,35.6686918 C68.6667358,24.535697 69.738766,23.3069701 70.4485784,31.9825109 C71.1583908,40.6580517 71.7739437,50.6934626 72.2952369,62.0887437 C73.5516365,70.4596592 74.703896,69.932575 75.7520155,60.507491 C76.800135,51.082407 78.0300549,39.3880622 79.4417754,25.4244565 C79.6347517,22.9503798 79.7775322,21.1465797 79.8701172,20.0130561 M83.8701172,20.148556 C84.0926284,22.6846083 84.4558435,26.2809901 84.9597624,30.9377016 C87.1143603,36.8894101 88.7225865,37.6065827 89.784441,33.0892195 C90.8462955,28.5718563 91.8748542,24.2131352 92.8701172,20.0130561 M96.8701172,20.0130561 C97.5823261,28.5690962 98.0689432,34.5119133 98.3299683,37.8415073 C98.3402046,43.316229 98.7161911,44.6849094 99.4579278,41.9475486 C100.570533,37.8415073 101.553806,39.4672169 101.553806,44.2281472 C101.553806,48.9890774 103.962679,60.3358451 103.962679,55.6943263 C103.962679,51.0528076 107.109154,31.4511191 107.109154,39.4966682 C107.109154,44.8603676 107.109154,55.8613953 107.109154,72.4997515 C107.356793,75.9271643 107.82156,77.2044566 108.503454,76.3316283 C109.526294,75.0223858 111.89619,70.8806339 113.437538,73.6061311 C114.978886,76.3316283 115.069831,81.4909538 116.552714,80.40447 C118.035597,79.3179862 118.800365,78.2315024 120.673014,79.3179862 C122.545663,80.40447 125.343711,79.2028585 126.178165,78.4146357 C127.012618,77.6264128 128.555738,74.032288 130.383504,78.4146357 C132.211271,82.7969833 133.676437,87.4315409 134.720538,85.6039562 C135.764639,83.7763716 138.185322,80.1586858 139.138477,81.9675287 C140.091633,83.7763716 142.449127,86.5260485 143.606614,84.6615159 C144.764101,82.7969833 149.593067,81.9675287 149.593067,81.9675287 C149.593067,81.9675287 150.806066,82.7552161 153.512578,81.9675287 C155.31692,81.4424038 157.923431,80.9213842 161.332113,80.40447 L164.961071,81.9675287 C166.242181,81.6498121 167.177029,81.1287925 167.765615,80.40447 C168.648495,79.3179862 170.812877,76.4248014 172.014656,78.4146357 C173.216435,80.40447 175.977869,83.5305875 175.977869,81.9675287 C175.977869,80.40447 177.802683,78.2315024 178.88576,79.3179862 C179.968837,80.40447 181.481838,83.5305875 181.481838,81.9675287 C181.481838,81.2266976 181.944598,78.3608862 182.870117,73.3700943 M184.884033,73.4063667 C185.312544,78.2608822 185.512883,81.7207486 185.512883,82.572587 C185.512883,83.7873845 185.87491,86.6008742 186.598965,91.0130561 L187.863492,83.4081648 C188.998978,78.0699605 189.839229,76.3337135 190.384247,78.1994238 C190.929264,80.0651341 191.411638,83.902463 191.831369,89.7114103 L193.996419,82.572587 C194.671071,80.4731234 195.282091,79.9482575 195.82948,80.9979893 C196.650563,82.572587 198.30755,83.7965548 198.30755,80.9979893 C198.30755,79.9471287 198.521797,75.7719493 198.86377,73.2730659 M200.916992,73.2613472 C200.916992,73.9620665 201.026756,75.3407846 201.103538,76.2705642 C201.930835,86.2886317 203.035592,87.6499806 204.417808,80.3546109 C205.341239,78.1004921 206.159353,78.1004921 206.87215,80.3546109 C207.584947,82.6087298 208.642809,83.1311828 210.045737,81.9219699 C211.143459,81.9094411 211.98971,82.5140475 212.584489,83.7357893 C213.476657,85.5684019 217.239942,87.3247675 218.638571,84.6233687 C220.037201,81.9219699 223.295784,72.7836066 224.754789,66.1399161 C225.72746,61.710789 226.990876,54.8523182 228.545039,45.5645037 C231.198878,27.494682 232.525798,25.6788939 232.525798,40.1171392 C232.525798,54.5553845 232.863634,63.2296435 233.539306,66.1399161 C234.772631,81.3581717 236.000877,81.7335002 237.224043,67.2659016 C238.447208,52.798303 239.995899,39.0473545 241.870117,26.0130561 M245.870117,26.0130561 C247.544222,53.9561928 250.876148,44.1836326 252.784844,39.3703062 C253.625887,37.2493755 254.714116,30.1373754 255.870117,26.0130561 M258.870117,26.0130561 C258.870117,43.8705013 260.092481,51.1267572 261.184047,45.6543578 C261.911758,42.0060916 262.405222,43.9481775 262.664439,51.4806157 L263.615695,67.4554907 C264.155929,68.9241471 264.848364,68.2507732 265.693,65.4353689 C266.537636,62.6199646 267.472046,56.0262943 268.496232,45.6543578 C269.599689,43.1385106 270.151417,45.6908585 270.151417,53.3114016 C270.151417,60.9319447 269.8813,69.096761 269.341066,77.8058504 C271.209887,79.0004823 272.515288,78.5657111 273.257268,76.5015368 C274.370237,73.4052753 277.552782,75.1972231 277.552782,76.5015368 C277.552782,77.8058504 279.551609,83.8500332 280.877421,83.0144742 C282.203234,82.1789151 285.562951,80.3567599 286.778775,82.1789151 C287.994599,84.0010704 289.391756,84.9876666 291.548729,84.0010704 C292.98671,83.3433396 294.402298,83.6405591 295.795491,84.8927289 C297.021819,90.1128603 298.051751,92.0216821 298.885289,90.6191944 C300.135596,88.5154627 301.484596,85.639284 302.839541,86.6016063 C304.194486,87.5639287 304.511373,89.3175778 305.734332,89.3175778 C306.95729,89.3175778 307.779532,86.8880375 308.878232,88.1028077 C309.976933,89.3175778 311.394304,95.4394369 312.751033,93.7062857 C314.107761,91.9731345 315.212407,88.1028077 316.227278,88.1028077 C316.903859,88.1028077 319.067372,88.1028077 322.717816,88.1028077 C324.081283,86.633432 325.201188,86.1330316 326.077533,86.6016063 C326.953877,87.0701811 330.218072,87.3357547 335.870117,87.3983273" id="形状" stroke="#1890FF" stroke-width="1.5" stroke-linecap="round" stroke-linejoin="round"></path>
            </g>
            <g id="标题" transform="translate(16.000000, 18.000000)" fill="#000000" fill-opacity="0.85" font-family="PingFangSC-Medium, PingFang SC" font-size="14" font-weight="400" line-spacing="20">
                <text id="分段自动阈值窄边界">
                    <tspan x="0" y="15">分段自动阈值窄边界</tspan>
                </text>
            </g>
        </g>
    </g>
</svg>