<?xml version="1.0" encoding="UTF-8"?>
<svg width="392px" height="248px" viewBox="0 0 392 248" version="1.1" xmlns="http://www.w3.org/2000/svg" xmlns:xlink="http://www.w3.org/1999/xlink">
    <title>模块</title>
    <defs>
        <path d="M2,0 L382,0 C383.104569,-2.02906125e-16 384,0.8954305 384,2 L384,238 C384,239.104569 383.104569,240 382,240 L2,240 C0.8954305,240 1.3527075e-16,239.104569 0,238 L0,2 C-1.3527075e-16,0.8954305 0.8954305,2.02906125e-16 2,0 Z" id="path-1"></path>
        <filter x="-1.8%" y="-2.1%" width="103.6%" height="105.8%" filterUnits="objectBoundingBox" id="filter-2">
            <feOffset dx="0" dy="2" in="SourceAlpha" result="shadowOffsetOuter1"></feOffset>
            <feGaussianBlur stdDeviation="2" in="shadowOffsetOuter1" result="shadowBlurOuter1"></feGaussianBlur>
            <feColorMatrix values="0 0 0 0 0.12334826   0 0 0 0 0.156873573   0 0 0 0 0.212749094  0 0 0 0.0649311626 0" type="matrix" in="shadowBlurOuter1"></feColorMatrix>
        </filter>
    </defs>
    <g id="页面-1" stroke="none" stroke-width="1" fill="none" fill-rule="evenodd">
        <g id="模块" transform="translate(4.000000, 2.000000)">
            <g id="背景板">
                <use fill="black" fill-opacity="1" filter="url(#filter-2)" xlink:href="#path-1"></use>
                <use fill="#FFFFFF" fill-rule="evenodd" xlink:href="#path-1"></use>
            </g>
            <g id="编组-9" transform="translate(16.000000, 46.000000)">
                <rect id="实际区域" fill="#FF5656" opacity="0" x="0" y="0" width="352" height="178"></rect>
                <g id="图表" transform="translate(0.000000, 17.000000)">
                    <text id="time" font-family="PingFangSC-Regular, PingFang SC" font-size="10" font-weight="normal" fill="#000000" fill-opacity="0.45">
                        <tspan x="327" y="154">time</tspan>
                    </text>
                    <text id="figure" font-family="PingFangSC-Regular, PingFang SC" font-size="10" font-weight="normal" fill="#000000" fill-opacity="0.45">
                        <tspan x="0" y="11">figure</tspan>
                    </text>
                    <g id="刻度" transform="translate(0.000000, 21.500000)">
                        <line x1="2.5" y1="0" x2="2.5" y2="118" id="直线" stroke="#E9E9E9" stroke-linecap="square"></line>
                        <line x1="2.5" y1="118" x2="351" y2="118" id="直线-2" stroke="#E9E9E9" stroke-linecap="square"></line>
                        <rect id="矩形" fill="#E9E9E9" x="8" y="117.5" width="1" height="3"></rect>
                        <rect id="矩形备份-6" fill="#E9E9E9" x="25" y="117.5" width="1" height="3"></rect>
                        <rect id="矩形备份-7" fill="#E9E9E9" x="43" y="117.5" width="1" height="3"></rect>
                        <rect id="矩形备份-8" fill="#E9E9E9" x="63" y="117.5" width="1" height="3"></rect>
                        <rect id="矩形备份-9" fill="#E9E9E9" x="82" y="117.5" width="1" height="3"></rect>
                        <rect id="矩形备份-10" fill="#E9E9E9" x="101" y="117.5" width="1" height="3"></rect>
                        <rect id="矩形备份-11" fill="#E9E9E9" x="119" y="117.5" width="1" height="3"></rect>
                        <rect id="矩形备份-12" fill="#E9E9E9" x="138" y="117.5" width="1" height="3"></rect>
                        <rect id="矩形备份-13" fill="#E9E9E9" x="156" y="117.5" width="1" height="3"></rect>
                        <rect id="矩形备份-14" fill="#E9E9E9" x="174" y="117.5" width="1" height="3"></rect>
                        <rect id="矩形备份-15" fill="#E9E9E9" x="192" y="117.5" width="1" height="3"></rect>
                        <rect id="矩形备份-16" fill="#E9E9E9" x="211" y="117.5" width="1" height="3"></rect>
                        <rect id="矩形备份-17" fill="#E9E9E9" x="229" y="117.5" width="1" height="3"></rect>
                        <rect id="矩形备份-18" fill="#E9E9E9" x="248" y="117.5" width="1" height="3"></rect>
                        <rect id="矩形备份-19" fill="#E9E9E9" x="266" y="117.5" width="1" height="3"></rect>
                        <rect id="矩形备份-20" fill="#E9E9E9" x="285" y="117.5" width="1" height="3"></rect>
                        <rect id="矩形备份-21" fill="#E9E9E9" x="304" y="117.5" width="1" height="3"></rect>
                        <rect id="矩形备份-22" fill="#E9E9E9" x="322" y="117.5" width="1" height="3"></rect>
                        <rect id="矩形备份-23" fill="#E9E9E9" x="343" y="117.5" width="1" height="3"></rect>
                        <rect id="矩形" fill="#E9E9E9" x="0" y="102.5" width="3" height="1"></rect>
                        <rect id="矩形备份" fill="#E9E9E9" x="0" y="79.5" width="3" height="1"></rect>
                        <rect id="矩形备份-3" fill="#E9E9E9" x="0" y="56.5" width="3" height="1"></rect>
                        <rect id="矩形备份-4" fill="#E9E9E9" x="0" y="33.5" width="3" height="1"></rect>
                        <rect id="矩形备份-5" fill="#E9E9E9" x="0" y="10.5" width="3" height="1"></rect>
                    </g>
                </g>
            </g>
            <g id="编组-3" transform="translate(25.000000, 85.199798)">
                <polygon id="路径-6" fill-opacity="0.6" fill="#CBE4FF" points="0 64.7261165 59.6023791 64.7261165 59.6023791 8.21716078 116.616317 8.21716078 116.616317 80.4406698 166.914428 80.4406698 166.914428 67.7503146 218.842081 67.7503146 218.842081 4.80020169 277.186713 4.80020169 277.186713 81.8372387 326 81.8372387 335 81.8372387 335 102.059461 276 102.059461 276 94.3172011 220.5 94.3172011 220.5 108.800202 169 108.800202 169 99.1705721 104 99.1705721 104 90.7727031 61.1357422 90.7727031 61.1357422 107.231625 0 107.231625"></polygon>
                <path d="M23,64.7471625 C23.4774807,59.557536 24.0289132,58.2478689 24.6542975,60.8181611 C24.8993607,61.8253562 25.1041506,63.1312916 25.2686672,64.7359673 M82.7810941,7.69929343 C83.5757814,-0.137719581 84.1434198,-1.29790013 84.4840093,4.2187518 C84.5522137,5.32348408 84.6225623,6.46004757 84.6950549,7.62844227 M183.744955,67.8002017 C183.916546,66.2761445 184.200392,63.7717158 184.596494,60.2869154 C184.784184,63.7387874 184.918686,66.2208124 185,67.7329904" id="形状" stroke="#FF9D9D" stroke-width="1.5"></path>
                <path d="M0,80.8905654 C4.92544393,81.0310534 7.3881659,80.0933774 7.3881659,78.0775374 C7.3881659,75.0537774 11.5260229,75.2645095 11.5260229,78.0775374 C11.5260229,79.9528894 12.4543624,80.8905654 14.3110414,80.8905654 L17.1202658,78.396162 C18.3457994,78.4614545 18.9585662,78.8935116 18.9585662,79.6923331 C18.9585662,80.8905654 20.8049353,83.2605659 20.8049353,82.0755657 C20.8049353,81.2855655 21.4132196,77.0823594 22.6297881,69.4659473 C22.7941921,67.3674092 22.9199072,65.9042532 23.0069331,65.0764794 M25.2787507,65.0652534 C25.5160737,67.3832417 25.6837552,72.2589349 25.781795,79.6923331 L27.0175889,90.0667214 C28.3656209,92.2439593 29.293103,91.4564095 29.8000351,87.7040719 C30.5604332,82.0755657 32.1823026,79.93492 32.1823026,82.0755657 C32.1823026,83.5026628 32.7938335,85.0800494 34.0168954,86.8077256 L35.5177122,80.8905654 L37.9992898,78.0775374 L39.2074649,83.6237112 L40.094792,76.1922206 L41.7037334,66.9998922 L42.7132883,78.396162 L42.7132883,86.8077256 C44.2646416,87.9182345 45.0403182,87.6651927 45.0403182,86.0486001 C45.0403182,84.4320075 45.6212922,82.7126626 46.7832401,80.8905654 C48.141066,80.1005652 48.8199789,80.1005652 48.8199789,80.8905654 C48.8199789,81.6805656 49.9200295,82.9230679 52.1201305,84.6180725 L55.4719938,82.0755657 C55.7885325,81.0434687 56.7504891,81.0434687 58.3578635,82.0755657 C59.9652379,83.1076627 61.0695977,81.7749866 61.670943,78.0775374 L64.0743653,62.6495003 L68.7595697,43.6027527 C70.1812518,33.4653972 71.2438897,32.346557 71.9474832,40.2462321 C72.6510768,48.1459072 73.2612366,57.2838374 73.7779626,67.6600226 C75.0233545,75.2823155 76.1655188,74.8023692 77.2044554,66.2201836 C78.243392,57.6379979 79.4625363,46.9894946 80.8618883,34.2746736 C81.829357,20.3456552 82.4990749,11.5445134 82.8710418,7.87124829 M84.7876604,7.80020169 C85.1503775,13.6542603 85.8150611,24.2283237 86.7817114,39.522392 C88.8858322,45.0657886 90.4563815,45.7337603 91.4933593,41.5263068 C92.5303372,37.3188534 93.6499755,32.9490219 94.8522743,28.4168125 C96.0929651,21.6237257 97.02554,21.3012566 97.6499989,27.4494053 C98.2744578,33.5975539 98.8425038,39.6690876 99.354137,45.6640063 C99.3643226,50.6745286 99.7384495,51.9271591 100.476518,49.421898 C101.58362,45.6640063 102.56203,47.1518727 102.56203,51.5091255 C102.56203,55.8663784 104.958988,66.2510583 104.958988,62.003092 C104.958988,57.7551258 108.089901,39.8154566 108.089901,47.1788268 C108.089901,52.0877402 108.089901,62.1559953 108.089901,77.3835919 C108.336316,80.5203957 108.798784,81.6893869 109.477305,80.8905654 C110.495087,79.6923331 112.853261,75.9017587 114.386985,78.396162 C115.92071,80.8905654 116.011205,85.6124337 117.486754,84.6180725 C118.962302,83.6237112 119.723288,82.6293499 121.586675,83.6237112 C123.450062,84.6180725 126.234271,83.5183452 127.064597,82.7969554 C127.894924,82.0755657 129.430411,78.7861852 131.249138,82.7969554 C133.067865,86.8077256 134.525784,91.0493209 135.564721,89.3766964 C136.603657,87.7040719 139.012368,84.3931282 139.960809,86.0486001 C140.90925,87.7040719 143.255084,90.2206048 144.406847,88.5141652 C145.558609,86.8077256 150.363691,86.0486001 150.363691,86.0486001 C150.363691,86.0486001 151.570691,86.7694998 154.263816,86.0486001 C156.059234,85.5680003 158.652853,85.0911578 162.044676,84.6180725 L165.655686,86.0486001 C166.930459,85.7578225 167.860684,85.28098 168.446359,84.6180725 C169.324871,83.6237112 171.478549,80.9758384 172.674384,82.7969554 C173.870219,84.6180725 176.617995,87.4791277 176.617995,86.0486001 C176.617995,84.6180725 178.433783,82.6293499 179.511503,83.6237112 C180.589224,84.6180725 182.094742,87.4791277 182.094742,86.0486001 C182.094742,85.2575585 182.72153,79.2873385 183.975105,68.1379402 M185.231893,68.0705435 C185.826337,79.1403816 186.123559,85.1330671 186.123559,86.0486001 C186.123559,87.152248 186.482408,89.7083135 187.200104,93.7167967 L188.453527,86.8077256 C189.579042,81.9579478 190.411915,80.3805611 190.952146,82.0755657 C191.492378,83.7705702 191.970516,87.2567972 192.386561,92.5342468 L194.532599,86.0486001 C195.201326,84.1412299 195.806981,83.6643874 196.349563,84.6180725 C197.163436,86.0486001 198.805872,87.1605793 198.805872,84.6180725 C198.805872,82.0755657 200.356638,67.1753389 201.600659,80.8905654 C202.430006,90.0340497 203.5375,91.2765521 204.92314,84.6180725 C205.84886,82.5607395 206.669001,82.5607395 207.383563,84.6180725 C208.098126,86.6754054 209.158609,87.152248 210.565013,86.0486001 C211.665455,86.037165 212.513802,86.588989 213.110055,87.7040719 C214.004433,89.3766964 217.777043,90.9797303 219.179137,88.5141652 C220.581231,86.0486001 223.847888,77.7080212 225.310508,71.6443287 C226.285589,67.6018671 227.552135,61.3421448 229.110148,52.8651618 C231.770563,36.3728462 233.10077,34.7155774 233.10077,47.8933555 C233.10077,61.0711336 233.439443,68.9881246 234.116789,71.6443287 C235.35317,85.5340218 236.584459,85.8765839 237.810655,72.6720151 C239.036851,59.4674462 240.669493,46.3269138 242.708583,33.2504178 C243.915191,19.9945545 244.871663,18.8770211 245.577999,29.8978178 C246.284335,40.9186144 247.483695,47.4266411 249.176081,49.421898 C250.42539,50.8473615 251.669998,50.0996711 252.909906,47.1788268 C254.769767,42.7975602 258.775079,21.9051918 258.775079,38.12911 C258.775079,54.3530282 260.101956,57.8369682 261.180852,52.8651618 C261.900116,49.5506243 262.387852,51.315056 262.64406,58.1584571 L263.584274,72.6720151 C264.118237,74.0063247 264.802635,73.3945483 265.637467,70.8366859 C266.472299,68.2788234 267.395863,62.2883154 268.40816,52.8651618 C269.498809,50.5794541 270.044133,52.8983235 270.044133,59.8217702 C270.044133,66.7452168 269.777151,74.1631486 269.243188,82.0755657 C271.090317,83.1609175 272.380565,82.7659174 273.113932,80.8905654 C274.213982,78.0775374 277.359586,79.7055651 277.359586,80.8905654 C277.359586,82.0755657 279.335211,87.5668511 280.645635,86.8077256 C281.956058,86.0486001 285.276777,84.3931282 286.478488,86.0486001 C287.680199,87.7040719 289.061138,88.6004183 291.193074,87.7040719 C292.614364,87.1065077 294.01352,87.3765388 295.390542,88.5141652 C296.602635,93.25678 297.620613,94.9909905 298.444475,93.7167967 C299.680269,91.8055059 301.01361,89.1924284 302.352828,90.0667214 C303.692045,90.9410144 304.005254,92.5342468 305.214017,92.5342468 C306.42278,92.5342468 307.235477,90.326951 308.321425,91.4305989 C309.407372,92.5342468 310.808291,98.0961029 312.149271,96.5214934 C313.490252,94.9468838 314.582075,91.4305989 315.585166,91.4305989 C316.253893,91.4305989 318.392293,91.4305989 322.000365,91.4305989 C323.348005,90.0956358 324.454911,89.6410099 325.321083,90.0667214 C326.187256,90.4924328 329.413561,90.7337128 335,90.7905615" id="形状" stroke="#1890FF" stroke-width="1.5" stroke-linecap="round" stroke-linejoin="round"></path>
            </g>
            <g id="标题" transform="translate(16.000000, 16.000000)" fill="#000000" fill-opacity="0.85" font-family="PingFangSC-Medium, PingFang SC" font-size="14" font-weight="400" line-spacing="22">
                <text id="分段自动阈值检测默认">
                    <tspan x="0" y="15">分段自动阈值检测默认</tspan>
                </text>
            </g>
        </g>
    </g>
</svg>