<?xml version="1.0" encoding="UTF-8"?>
<svg width="16px" height="16px" viewBox="0 0 16 16" version="1.1" xmlns="http://www.w3.org/2000/svg" xmlns:xlink="http://www.w3.org/1999/xlink">
    <title>形状</title>
    <g id="页面-1" stroke="none" stroke-width="1" fill="none" fill-rule="evenodd" opacity="0.649999976">
        <g id="查看实验结果-已添加对比模型" transform="translate(-1359.000000, -173.000000)" fill="#000000" fill-rule="nonzero">
            <g id="Top" transform="translate(733.000000, 153.000000)">
                <g id="编组-34" transform="translate(510.000000, 12.000000)">
                    <g id="General/Button/Default/Light/Default备份-2" transform="translate(108.000000, 0.000000)">
                        <path d="M20.4875,21.4625 C20.4875,22 20.05,22.4375 19.513,22.4375 L12.4875,22.4375 C11.9493649,22.436674 11.513326,22.0006351 11.5125,21.4625 L11.5125,11.1125 L20.4875,11.1125 L20.4875,21.4625 L20.4875,21.4625 Z M13.4625,9.3625 C13.4625,9.25 13.55,9.1625 13.6625,9.1625 L18.35,9.1625 C18.4625,9.1625 18.5495,9.25 18.5495,9.3625 L18.5495,9.95 L13.4625,9.95 L13.4625,9.3625 Z M23.4125,9.95 L19.7125,9.95 L19.7125,9.3625 C19.7125,8.6125 19.1,8 18.35,8 L13.6625,8 C12.9106965,8.0016499 12.3016499,8.6106965 12.3,9.3625 L12.3,9.95 L8.5875,9.95 C8.2625,9.95 8,10.2125 8,10.5375 C8,10.8625 8.2625,11.125 8.5875,11.125 L10.3375,11.125 L10.3375,21.4625 C10.3375,22.6499122 11.3000878,23.6125 12.4875,23.6125 L19.5125,23.6125 C20.6999122,23.6125 21.6625,22.6499122 21.6625,21.4625 L21.6625,11.1125 L23.4125,11.1125 C23.7375,11.1125 24,10.85 24,10.525 C24,10.2 23.7375,9.95 23.4125,9.95 Z M16,20.675 C16.325,20.675 16.5875,20.4125 16.5875,20.0875 L16.5875,13.8375 C16.5875,13.5125 16.3255,13.25 16,13.25 C15.675,13.25 15.4125,13.5125 15.4125,13.8375 L15.4125,20.0875 C15.4125,20.4125 15.675,20.675 16,20.675 M13.2625,20.675 C13.5875,20.675 13.85,20.4125 13.85,20.0875 L13.85,13.8375 C13.85,13.5125 13.5875,13.25 13.2625,13.25 C12.9375,13.25 12.675,13.5125 12.675,13.8375 L12.675,20.0875 C12.6875,20.4125 12.95,20.675 13.2625,20.675 M18.7375,20.675 C19.0625,20.675 19.3255,20.4125 19.3255,20.0875 L19.3255,13.8375 C19.3255,13.5125 19.063,13.25 18.7375,13.25 C18.413,13.25 18.15,13.5125 18.15,13.8375 L18.15,20.0875 C18.15,20.4125 18.4125,20.675 18.7375,20.675" id="形状"></path>
                    </g>
                </g>
            </g>
        </g>
    </g>
</svg>