<?xml version="1.0" encoding="UTF-8"?>
<svg width="17px" height="17px" viewBox="0 0 17 17" version="1.1" xmlns="http://www.w3.org/2000/svg" xmlns:xlink="http://www.w3.org/1999/xlink">
    <title>edit-square</title>
    <g id="页面-1" stroke="none" stroke-width="1" fill="none" fill-rule="evenodd" opacity="0.65">
        <g id="查看实验结果-已添加对比模型" transform="translate(-1323.000000, -173.000000)" fill="#000000" fill-rule="nonzero">
            <g id="Top" transform="translate(733.000000, 153.000000)">
                <g id="编组-34" transform="translate(510.000000, 12.000000)">
                    <g id="General/Button/Default/Light/Default备份" transform="translate(72.000000, 0.000000)">
                        <g id="edit-square" transform="translate(8.000000, 8.000000)">
                            <g id="编组-33" transform="translate(0.750000, 0.750000)">
                                <path d="M15.2307692,7.69230769 L14.1538462,7.69230769 C14.0692308,7.69230769 14,7.76153846 14,7.84615385 L14,14 L1.38461538,14 L1.38461538,1.38461538 L7.53846154,1.38461538 C7.62307692,1.38461538 7.69230769,1.31538462 7.69230769,1.23076923 L7.69230769,0.153846154 C7.69230769,0.0692307692 7.62307692,0 7.53846154,0 L0.615384615,0 C0.275,0 0,0.275 0,0.615384615 L0,14.7692308 C0,15.1096154 0.275,15.3846154 0.615384615,15.3846154 L14.7692308,15.3846154 C15.1096154,15.3846154 15.3846154,15.1096154 15.3846154,14.7692308 L15.3846154,7.84615385 C15.3846154,7.76153846 15.3153846,7.69230769 15.2307692,7.69230769 Z" id="路径"></path>
                                <path d="M4.69038462,8.13269231 L4.65382636,10.4192308 C4.65192308,10.5903846 4.79038462,10.7307692 4.96153846,10.7307692 L4.96923077,10.7307692 L7.23846154,10.675 C7.27692308,10.6730769 7.31538462,10.6576923 7.34230769,10.6307692 L15.3403846,2.65 C15.4,2.59038462 15.4,2.49230769 15.3403846,2.43269231 L12.95,0.0442307692 C12.9192308,0.0134615385 12.8807692,0 12.8403846,0 C12.8,0 12.7615385,0.0153846154 12.7307692,0.0442307692 L4.73461538,8.025 C4.70769231,8.05384615 4.69038462,8.09230769 4.69038462,8.13269231 Z M5.91153846,8.58653846 L12.8403846,1.67307692 L13.7096154,2.54038462 L6.77692308,9.45769231 L5.89807692,9.47884615 L5.91153846,8.58653846 L5.91153846,8.58653846 Z" id="形状"></path>
                            </g>
                        </g>
                    </g>
                </g>
            </g>
        </g>
    </g>
</svg>