<?xml version="1.0" encoding="UTF-8"?>
<svg width="32px" height="32px" viewBox="0 0 32 32" version="1.1" xmlns="http://www.w3.org/2000/svg" xmlns:xlink="http://www.w3.org/1999/xlink">
    <title>app store-fill</title>
    <g id="页面-1" stroke="none" stroke-width="1" fill="none" fill-rule="evenodd">
        <g id="添加实验—2数据预览-查看数据1" transform="translate(-1280.000000, -91.000000)">
            <g id="编组-16" transform="translate(16.000000, 79.000000)">
                <g id="编组-13" transform="translate(1164.000000, 12.000000)">
                    <g id="编组-15" transform="translate(60.000000, 0.000000)">
                        <g id="app-store-fill" transform="translate(40.000000, 0.000000)">
                            <rect id="矩形" stroke-opacity="0.15" stroke="#000000" fill="#FFFFFF" x="0.5" y="0.5" width="31" height="31" rx="2"></rect>
                            <path d="M23.6521739,8 L17.0434783,8 C16.8521739,8 16.6956522,8.15652174 16.6956522,8.34782609 L16.6956522,14.9565217 C16.6956522,15.1478261 16.8521739,15.3043478 17.0434783,15.3043478 L23.6521739,15.3043478 C23.8434783,15.3043478 24,15.1478261 24,14.9565217 L24,8.34782609 C24,8.15652174 23.8434783,8 23.6521739,8 Z M23.6521739,16.6956522 L17.0434783,16.6956522 C16.8521739,16.6956522 16.6956522,16.8521739 16.6956522,17.0434783 L16.6956522,23.6521739 C16.6956522,23.8434783 16.8521739,24 17.0434783,24 L23.6521739,24 C23.8434783,24 24,23.8434783 24,23.6521739 L24,17.0434783 C24,16.8521739 23.8434783,16.6956522 23.6521739,16.6956522 Z M14.9565217,8 L8.34782609,8 C8.15652174,8 8,8.15652174 8,8.34782609 L8,14.9565217 C8,15.1478261 8.15652174,15.3043478 8.34782609,15.3043478 L14.9565217,15.3043478 C15.1478261,15.3043478 15.3043478,15.1478261 15.3043478,14.9565217 L15.3043478,8.34782609 C15.3043478,8.15652174 15.1478261,8 14.9565217,8 Z M14.9565217,16.6956522 L8.34782609,16.6956522 C8.15652174,16.6956522 8,16.8521739 8,17.0434783 L8,23.6521739 C8,23.8434783 8.15652174,24 8.34782609,24 L14.9565217,24 C15.1478261,24 15.3043478,23.8434783 15.3043478,23.6521739 L15.3043478,17.0434783 C15.3043478,16.8521739 15.1478261,16.6956522 14.9565217,16.6956522 Z" id="形状" fill-opacity="0.65" fill="#000000" fill-rule="nonzero"></path>
                        </g>
                    </g>
                </g>
            </g>
        </g>
    </g>
</svg>