<?xml version="1.0" encoding="UTF-8"?>
<svg width="32px" height="32px" viewBox="0 0 32 32" version="1.1" xmlns="http://www.w3.org/2000/svg" xmlns:xlink="http://www.w3.org/1999/xlink">
    <title>重置备份 3</title>
    <defs>
        <rect id="path-1" x="232" y="94" width="1184" height="632" rx="2"></rect>
        <filter x="-0.6%" y="-0.8%" width="101.2%" height="102.2%" filterUnits="objectBoundingBox" id="filter-2">
            <feOffset dx="0" dy="2" in="SourceAlpha" result="shadowOffsetOuter1"></feOffset>
            <feGaussianBlur stdDeviation="2" in="shadowOffsetOuter1" result="shadowBlurOuter1"></feGaussianBlur>
            <feColorMatrix values="0 0 0 0 0.12334826   0 0 0 0 0.156873573   0 0 0 0 0.212749094  0 0 0 0.0649311626 0" type="matrix" in="shadowBlurOuter1"></feColorMatrix>
        </filter>
    </defs>
    <g id="页面-1" stroke="none" stroke-width="1" fill="none" fill-rule="evenodd">
        <g id="查看结果" transform="translate(-1312.000000, -106.000000)">
            <g id="Rectangle-5">
                <use fill="black" fill-opacity="1" filter="url(#filter-2)" xlink:href="#path-1"></use>
                <use fill="#FFFFFF" fill-rule="evenodd" xlink:href="#path-1"></use>
            </g>
            <g id="编组-20" transform="translate(1281.000000, 106.000000)">
                <g id="重置备份-4" fill="#FFFFFF" stroke="#000000" stroke-opacity="0.15">
                    <path d="M29.9982567,0.5 L2.00174332,0.5 C1.58492793,0.5 1.20950655,0.666382281 0.938263351,0.936584406 C0.66681502,1.20699087 0.5,1.58100585 0.5,1.99406028 L0.5,31.5 L31.5,31.5 L31.5,2.00174332 C31.5,1.58515043 31.3329206,1.21001346 31.061851,0.938943808 C30.78988,0.666972808 30.4136562,0.5 29.9982567,0.5 Z" id="矩形" transform="translate(16.000000, 16.000000) rotate(-90.000000) translate(-16.000000, -16.000000) "></path>
                </g>
                <g id="重置备份-3" transform="translate(31.000000, 0.000000)">
                    <path d="M31.5,0.5 L0.5,0.5 L0.5,30.0059397 C0.5,30.4178187 0.668186465,30.791124 0.939600264,31.061496 C1.21148348,31.3323357 1.58700626,31.5 2.00174332,31.5 L29.9982567,31.5 C30.4148496,31.5 30.7899865,31.3329206 31.0610562,31.061851 C31.3330272,30.78988 31.5,30.4136562 31.5,29.9982567 L31.5,0.5 Z" id="矩形" stroke="#1890FF" fill="#FFFFFF" transform="translate(16.000000, 16.000000) rotate(-90.000000) translate(-16.000000, -16.000000) "></path>
                    <g id="帮助中心" transform="translate(8.000000, 8.000000)">
                        <rect id="矩形" x="0" y="0" width="16" height="16"></rect>
                        <path d="M11.7940821,1 C12.8236129,1 13.6582126,1.83459962 13.6582126,2.86413043 C13.6582126,3.89366125 12.8236129,4.72826087 11.7940821,4.72826087 C11.1267467,4.72826087 10.5413126,4.37759954 10.2119884,3.85048542 L6.209,7.491 L10.0087963,7.49147245 C10.2262819,6.768934 10.87041,6.23120587 11.6484014,6.17106741 L11.7940821,6.16545894 C12.8236129,6.16545894 13.6582126,7.00005856 13.6582126,8.02958937 C13.6582126,9.05912018 12.8236129,9.89371981 11.7940821,9.89371981 C10.9239743,9.89371981 10.1931015,9.29758334 9.98761402,8.49146054 L6.352,8.491 L10.2736264,12.0570959 C10.5850628,11.6189408 11.0811499,11.3211959 11.6484014,11.2773476 L11.7940821,11.2717391 C12.8236129,11.2717391 13.6582126,12.1063388 13.6582126,13.1358696 C13.6582126,14.1654004 12.8236129,15 11.7940821,15 C10.7645513,15 9.92995169,14.1654004 9.92995169,13.1358696 C9.92995169,13.0721024 9.93315348,13.0090831 9.93940508,12.9469636 L5.5054678,8.91408759 C5.19046282,9.49740423 4.57357886,9.89371981 3.86413043,9.89371981 C2.83459962,9.89371981 2,9.05912018 2,8.02958937 C2,7.00005856 2.83459962,6.16545894 3.86413043,6.16545894 C4.51765869,6.16545894 5.09263962,6.50175999 5.42545565,7.0107445 L9.931,2.912 L9.92995169,2.86413043 C9.92995169,1.8836249 10.6869582,1.0799277 11.6484014,1.00560848 Z M11.7940821,12.1594203 C11.2548041,12.1594203 10.8176329,12.5965915 10.8176329,13.1358696 C10.8176329,13.6751476 11.2548041,14.1123188 11.7940821,14.1123188 C12.3333602,14.1123188 12.7705314,13.6751476 12.7705314,13.1358696 C12.7705314,12.5965915 12.3333602,12.1594203 11.7940821,12.1594203 Z M3.86413043,7.0531401 C3.32485239,7.0531401 2.88768116,7.49031133 2.88768116,8.02958937 C2.88768116,8.56886742 3.32485239,9.00603865 3.86413043,9.00603865 C4.40340848,9.00603865 4.84057971,8.56886742 4.84057971,8.02958937 C4.84057971,7.49031133 4.40340848,7.0531401 3.86413043,7.0531401 Z M11.7940821,7.0531401 C11.2548041,7.0531401 10.8176329,7.49031133 10.8176329,8.02958937 C10.8176329,8.56886742 11.2548041,9.00603865 11.7940821,9.00603865 C12.3333602,9.00603865 12.7705314,8.56886742 12.7705314,8.02958937 C12.7705314,7.49031133 12.3333602,7.0531401 11.7940821,7.0531401 Z M11.7940821,1.88768116 C11.2548041,1.88768116 10.8176329,2.32485239 10.8176329,2.86413043 C10.8176329,3.40340848 11.2548041,3.84057971 11.7940821,3.84057971 C12.3333602,3.84057971 12.7705314,3.40340848 12.7705314,2.86413043 C12.7705314,2.32485239 12.3333602,1.88768116 11.7940821,1.88768116 Z" id="形状结合" fill="#1890FF" fill-rule="nonzero"></path>
                    </g>
                </g>
            </g>
        </g>
    </g>
</svg>