<?xml version="1.0" encoding="UTF-8"?>
<svg width="32px" height="32px" viewBox="0 0 32 32" version="1.1" xmlns="http://www.w3.org/2000/svg" xmlns:xlink="http://www.w3.org/1999/xlink">
    <title>重置备份 4</title>
    <defs>
        <rect id="path-1" x="232" y="94" width="1184" height="632" rx="2"></rect>
        <filter x="-0.6%" y="-0.8%" width="101.2%" height="102.2%" filterUnits="objectBoundingBox" id="filter-2">
            <feOffset dx="0" dy="2" in="SourceAlpha" result="shadowOffsetOuter1"></feOffset>
            <feGaussianBlur stdDeviation="2" in="shadowOffsetOuter1" result="shadowBlurOuter1"></feGaussianBlur>
            <feColorMatrix values="0 0 0 0 0.12334826   0 0 0 0 0.156873573   0 0 0 0 0.212749094  0 0 0 0.0649311626 0" type="matrix" in="shadowBlurOuter1"></feColorMatrix>
        </filter>
    </defs>
    <g id="页面-1" stroke="none" stroke-width="1" fill="none" fill-rule="evenodd">
        <g id="查看结果" transform="translate(-1281.000000, -106.000000)">
            <g id="Rectangle-5">
                <use fill="black" fill-opacity="1" filter="url(#filter-2)" xlink:href="#path-1"></use>
                <use fill="#FFFFFF" fill-rule="evenodd" xlink:href="#path-1"></use>
            </g>
            <g id="编组-20" transform="translate(1281.000000, 106.000000)">
                <g id="重置备份-4">
                    <path d="M29.9982567,0.5 L2.00174332,0.5 C1.58492793,0.5 1.20950655,0.666382281 0.938263351,0.936584406 C0.66681502,1.20699087 0.5,1.58100585 0.5,1.99406028 L0.5,31.5 L31.5,31.5 L31.5,2.00174332 C31.5,1.58515043 31.3329206,1.21001346 31.061851,0.938943808 C30.78988,0.666972808 30.4136562,0.5 29.9982567,0.5 Z" id="矩形" stroke-opacity="0.15" stroke="#000000" fill="#FFFFFF" transform="translate(16.000000, 16.000000) rotate(-90.000000) translate(-16.000000, -16.000000) "></path>
                    <g id="帮助中心" transform="translate(8.000000, 8.000000)">
                        <rect id="矩形" x="0" y="0" width="16" height="16"></rect>
                        <path d="M14.5046661,10.9206271 C14.2470287,10.6630177 13.8927948,10.4697547 13.5063248,10.4054083 L13.5063248,8.95618071 C13.5063248,8.27987914 12.9588139,7.73235429 12.2825263,7.73235429 L8.44472468,7.73235429 L8.44472468,5.92897672 C8.79898655,5.83233822 9.12102625,5.67128338 9.34641348,5.41367402 C9.70067534,5.05941215 9.9261465,4.54416542 9.9261465,4.02887671 C9.9261465,3.51362997 9.7328835,2.96613309 9.34641348,2.57966306 C8.9921656,2.22541518 8.47693287,2 7.96163015,2 C7.44638342,2 6.96328889,2.19320703 6.57683284,2.57966306 C6.22257098,2.93392492 5.99716977,3.44922762 5.99716977,3.96446037 C5.99716977,4.47976307 6.19036281,4.96278765 6.57683284,5.34925768 C6.83451217,5.60695101 7.15656587,5.76792188 7.47860558,5.86456039 L7.47860558,7.6680219 L3.89845527,7.6680219 C3.2221677,7.6680219 2.67462885,8.21547681 2.67462885,8.89176438 L2.67462885,10.3732002 C2.25596464,10.4376165 1.86949461,10.6308096 1.57966307,10.9206271 C1.19319304,11.3070971 1,11.7901917 1,12.3054244 C1,12.8207411 1.19319304,13.3037517 1.5474549,13.6580136 C1.90170278,14.0122614 2.38479731,14.2055244 2.90003006,14.2055244 C3.41534676,14.2055244 3.89845527,14.0122614 4.25268916,13.6580136 C4.60693704,13.3037517 4.80014406,12.8207411 4.80014406,12.3054244 C4.80014406,11.7901777 4.60693704,11.3070971 4.25268916,10.9528353 C4.05942616,10.7596422 3.8017888,10.5985874 3.54417942,10.5019629 L3.54417942,8.95618071 C3.54417942,8.79512588 3.67294214,8.63415501 3.86623311,8.63415501 L7.51081375,8.63415501 L7.51081375,10.4376165 C7.18877404,10.5341711 6.86673433,10.6952259 6.64124918,10.9528353 C6.28698732,11.3070971 6.09379428,11.7901777 6.09379428,12.3054244 C6.09379428,12.8207411 6.28698732,13.3037517 6.64124918,13.6580136 C6.99549706,14.0122614 7.47859159,14.2055244 7.99383832,14.2055244 C8.50914102,14.2055244 8.9921656,14.0122614 9.34641348,13.6580136 C9.70067534,13.3037517 9.89393833,12.8207411 9.89393833,12.3054244 C9.89393833,11.7901777 9.70067533,11.3070971 9.34641348,10.9528353 C9.0888041,10.6952259 8.7667644,10.5341711 8.41250253,10.4376165 L8.41250253,8.66636318 L12.2502902,8.66636318 C12.411345,8.66636318 12.5723998,8.79512589 12.5723998,8.98838888 L12.5723998,10.4697407 C12.2502902,10.5663792 11.9926668,10.7274201 11.7350574,10.9528213 C11.3808096,11.3070831 11.1876025,11.7901637 11.1876025,12.3054104 C11.1876025,12.8207271 11.3808096,13.3037377 11.7350574,13.6579996 C12.0893193,14.0122474 12.5723998,14.2055244 13.0876466,14.2055244 C13.6029353,14.2055244 14.0859739,14.0122474 14.4402357,13.6579996 C14.7944836,13.3037377 14.9877466,12.8207271 14.9877466,12.3054104 C15.052093,11.7901917 14.8589139,11.3070971 14.5046661,10.9206271 Z M3.93066344,12.3376326 C3.93066344,12.9172957 3.47976308,13.368168 2.90003006,13.368168 C2.32038098,13.368168 1.86949461,12.9172957 1.86949461,12.3376326 C1.86949461,11.7579695 2.32039497,11.3070971 2.90003006,11.3070971 C3.47976308,11.3070971 3.93066344,11.7257613 3.93066344,12.3376326 Z M7.99385231,2.93392492 C8.57357135,2.93392492 9.02438776,3.3847973 9.02438776,3.96446037 C9.02438776,4.54417941 8.57357135,4.99499582 7.99385231,4.99499583 C7.41418924,5.027204 6.96330288,4.57638759 6.96330288,3.96446037 C6.96330288,3.3847973 7.41420324,2.93392492 7.99385231,2.93392492 Z M9.05659593,12.3376326 C9.05659593,12.9172957 8.60569557,13.368168 8.02606048,13.368168 C7.44639741,13.368168 6.99551105,12.9172957 6.99551105,12.3376326 C6.99551105,11.7579695 7.44641141,11.3070971 8.02606048,11.3070971 C8.60570955,11.3070971 9.05659593,11.7257613 9.05659593,12.3376326 Z M13.1198687,13.3359599 C12.5402057,13.3359599 12.0893333,12.8850875 12.0893333,12.3054244 C12.0893333,11.7257613 12.5402057,11.274889 13.1198687,11.274889 C13.6995318,11.274889 14.1504042,11.7257613 14.1504042,12.3054244 C14.1504042,12.8850875 13.6995318,13.3359599 13.1198687,13.3359599 Z" id="形状" fill-opacity="0.65" fill="#000000" fill-rule="nonzero" transform="translate(8.000000, 8.102762) rotate(-90.000000) translate(-8.000000, -8.102762) "></path>
                    </g>
                </g>
                <g id="重置备份-3" transform="translate(31.000000, 0.000000)" fill="#FFFFFF" stroke="#1890FF">
                    <path d="M31.5,0.5 L0.5,0.5 L0.5,30.0059397 C0.5,30.4178187 0.668186465,30.791124 0.939600264,31.061496 C1.21148348,31.3323357 1.58700626,31.5 2.00174332,31.5 L29.9982567,31.5 C30.4148496,31.5 30.7899865,31.3329206 31.0610562,31.061851 C31.3330272,30.78988 31.5,30.4136562 31.5,29.9982567 L31.5,0.5 Z" id="矩形" transform="translate(16.000000, 16.000000) rotate(-90.000000) translate(-16.000000, -16.000000) "></path>
                </g>
            </g>
        </g>
    </g>
</svg>