<?xml version="1.0" encoding="UTF-8"?>
<svg width="32px" height="32px" viewBox="0 0 32 32" version="1.1" xmlns="http://www.w3.org/2000/svg" xmlns:xlink="http://www.w3.org/1999/xlink">
    <title>app store-fill备份 2</title>
    <g id="页面-1" stroke="none" stroke-width="1" fill="none" fill-rule="evenodd">
        <g id="添加实验—2数据预览-查看数据1" transform="translate(-1320.000000, -91.000000)">
            <g id="编组-16" transform="translate(16.000000, 79.000000)">
                <g id="编组-13" transform="translate(1164.000000, 12.000000)">
                    <g id="编组-15" transform="translate(60.000000, 0.000000)">
                        <g id="app-store-fill备份-2" transform="translate(80.000000, 0.000000)">
                            <rect id="矩形" stroke-opacity="0.15" stroke="#000000" fill="#FFFFFF" x="0.5" y="0.5" width="31" height="31" rx="2"></rect>
                            <path d="M8,12.5708705 L12.5708704,12.5708705 L12.5708704,8 L8,8 L8,12.5708705 Z M13.7135881,12.5708705 L18.2844585,12.5708705 L18.2844585,8 L13.7135881,8 L13.7135881,12.5708705 Z M19.4291295,8 L19.4291295,12.5708705 L24,12.5708705 L24,8 L19.4291295,8 L19.4291295,8 Z M8,18.2864119 L12.5708704,18.2864119 L12.5708704,13.7135881 L8,13.7135881 L8,18.2864119 Z M13.7135881,18.2864119 L18.2844585,18.2864119 L18.2844585,13.7135881 L13.7135881,13.7135881 L13.7135881,18.2864119 Z M19.4291295,18.2864119 L24,18.2864119 L24,13.7135881 L19.4291295,13.7135881 L19.4291295,18.2864119 L19.4291295,18.2864119 Z M8,24 L12.5708704,24 L12.5708704,19.4291295 L8,19.4291295 L8,24 Z M13.7135881,24 L18.2844585,24 L18.2844585,19.4291295 L13.7135881,19.4291295 L13.7135881,24 Z M19.4291295,24 L24,24 L24,19.4291295 L19.4291295,19.4291295 L19.4291295,24 L19.4291295,24 Z" id="形状" fill-opacity="0.65" fill="#000000" fill-rule="nonzero"></path>
                        </g>
                    </g>
                </g>
            </g>
        </g>
    </g>
</svg>