<?xml version="1.0" encoding="UTF-8"?>
<svg width="16px" height="16px" viewBox="0 0 16 16" version="1.1" xmlns="http://www.w3.org/2000/svg" xmlns:xlink="http://www.w3.org/1999/xlink">
    <title>形状</title>
    <g id="页面-1" stroke="none" stroke-width="1" fill="none" fill-rule="evenodd" fill-opacity="0.65">
        <g id="查看实验结果-已添加对比模型" transform="translate(-1287.000000, -173.000000)" fill="#000000" fill-rule="nonzero">
            <g id="Top" transform="translate(733.000000, 153.000000)">
                <g id="编组-34" transform="translate(510.000000, 12.000000)">
                    <g id="General/Button/Default/Light/Default" transform="translate(36.000000, 0.000000)">
                        <path d="M23.626,11.626 L20.374,8.374 C20.224,8.224 20.04,8.114 19.84,8.054 L19.84,8 L8.64,8 C8.286,8 8,8.286 8,8.64 L8,23.36 C8,23.714 8.286,24 8.64,24 L23.36,24 C23.714,24 24,23.714 24,23.36 L24,12.53 C24,12.19 23.866,11.866 23.626,11.626 Z M13.44,9.44 L18.56,9.44 L18.56,11.52 L13.44,11.52 L13.44,9.44 Z M22.56,22.56 L9.44,22.56 L9.44,9.44 L12.16,9.44 L12.16,12.16 C12.16,12.514 12.446,12.8 12.8,12.8 L19.2,12.8 C19.554,12.8 19.84,12.514 19.84,12.16 L19.84,9.876 L22.56,12.596 L22.56,22.56 Z M16,14.6 C14.41,14.6 13.12,15.89 13.12,17.48 C13.12,19.07 14.41,20.36 16,20.36 C17.59,20.36 18.88,19.07 18.88,17.48 C18.88,15.89 17.59,14.6 16,14.6 Z M16,19.08 C15.116,19.08 14.4,18.364 14.4,17.48 C14.4,16.596 15.116,15.88 16,15.88 C16.884,15.88 17.6,16.596 17.6,17.48 C17.6,18.364 16.884,19.08 16,19.08 Z" id="形状"></path>
                    </g>
                </g>
            </g>
        </g>
    </g>
</svg>