<?xml version="1.0" encoding="UTF-8"?>
<svg width="16px" height="16px" viewBox="0 0 16 16" version="1.1" xmlns="http://www.w3.org/2000/svg" xmlns:xlink="http://www.w3.org/1999/xlink">
    <title>编组 36</title>
    <g id="页面-1" stroke="none" stroke-width="1" fill="none" fill-rule="evenodd" opacity="0.449999988">
        <g id="单指标预测展示" transform="translate(-531.000000, -174.000000)" fill="#000000" fill-rule="nonzero">
            <g id="编组-34" transform="translate(531.000000, 174.000000)">
                <g id="编组-36">
                    <path d="M7.19975173,2.66694252 L6.84390193,2.74473294 C6.233461,2.87838018 5.6512196,3.11814861 5.12368539,3.45312231 L4.8014896,3.6572532 L3.53808489,2.7083204 L2.76845626,3.47794904 L3.66332195,4.79542085 L3.46691493,5.10161719 C3.12949323,5.62762233 2.88693104,6.20872591 2.75024999,6.8185235 L2.66749422,7.19092445 L1.10341023,7.41326161 L1.10341023,8.5012241 L2.66694252,8.79969656 L2.74473294,9.15554636 C2.87847859,9.76595652 3.11824015,10.3481813 3.45312231,10.8757629 L3.6572532,11.1979587 L2.7083204,12.4613634 L3.47794904,13.230992 L4.79542085,12.3361263 L5.10161719,12.5325334 C5.62762233,12.8699551 6.20872591,13.1125173 6.8185235,13.2491983 L7.19092445,13.3319541 L7.41326161,14.8960381 L8.5012241,14.8960381 L8.79969656,13.3325058 L9.15554636,13.2547154 C9.76595652,13.1209697 10.3481813,12.8812081 10.8757629,12.546326 L11.1979587,12.3421951 L12.4613634,13.2911279 L13.230992,12.5214993 L12.3361263,11.2040274 L12.5325334,10.8978311 C12.8699551,10.371826 13.1125173,9.79072239 13.2491983,9.1809248 L13.3319541,8.80852384 L14.8960381,8.58618668 L14.8960381,7.49767249 L13.3325058,7.19920003 L13.2547154,6.84335023 C13.1209697,6.23294007 12.8812081,5.65071534 12.546326,5.12313369 L12.3421951,4.8009379 L13.2911279,3.53753319 L12.5214993,2.76790456 L11.2040274,3.66277025 L10.8978311,3.46636323 C10.3718047,3.12898205 9.79070852,2.88642294 9.1809248,2.74969829 L8.80852384,2.66694252 L8.58618668,1.10285852 L7.49767249,1.10285852 L7.19975173,2.66694252 Z M6.58570394,0 L9.54394676,0 L9.796076,1.7693183 C10.278818,1.90834799 10.7416986,2.10254819 11.1775456,2.34805696 L12.656667,1.34285025 L14.7487328,3.43491604 L13.6751147,4.86383228 C13.9178649,5.30188614 14.1087549,5.76642185 14.2433709,6.25026723 L16,6.58515224 L16,9.54339506 L14.2306817,9.79552429 C14.0921001,10.2769365 13.8978766,10.7405547 13.651943,11.1769939 L14.6571498,12.6561153 L12.565084,14.7481811 L11.1361677,13.6745629 C10.6981139,13.9173132 10.2335782,14.1082032 9.74973277,14.2428192 L9.41484776,15.9994483 L6.45660494,15.9994483 L6.20447571,14.23013 C5.72306353,14.0915484 5.25944535,13.8973249 4.8230061,13.6513913 L3.34333299,14.656598 L1.2512672,12.5645323 L2.32488535,11.135616 C2.08220718,10.6971362 1.89149996,10.2318477 1.75662908,9.74918106 L0,9.41429606 L0,6.45605324 L1.7693183,6.203924 C1.90834799,5.72173373 2.10254819,5.25830144 2.34805696,4.8224544 L1.34285025,3.34333299 L3.43491604,1.2512672 L4.86383228,2.32488535 C5.30231422,2.08221172 5.76760227,1.89150472 6.25026723,1.75662908 L6.58570394,0 Z M7.99972415,11.3099548 C6.17153422,11.3099548 4.68949347,9.82791407 4.68949347,7.99972415 C4.68949347,6.17153422 6.17153422,4.68949347 7.99972415,4.68949347 C9.82791407,4.68949347 11.3099548,6.17153422 11.3099548,7.99972415 C11.3099548,9.82791407 9.82791407,11.3099548 7.99972415,11.3099548 Z M7.99972415,10.2065446 C9.21851743,10.2065446 10.2065446,9.21851743 10.2065446,7.99972415 C10.2065446,6.78093086 9.21851743,5.79290369 7.99972415,5.79290369 C6.78093086,5.79290369 5.79290369,6.78093086 5.79290369,7.99972415 C5.79290369,9.21851743 6.78093086,10.2065446 7.99972415,10.2065446 Z" id="形状"></path>
                </g>
            </g>
        </g>
    </g>
</svg>