<?xml version="1.0" encoding="UTF-8"?>
<svg width="14px" height="14px" viewBox="0 0 14 14" version="1.1" xmlns="http://www.w3.org/2000/svg" xmlns:xlink="http://www.w3.org/1999/xlink">
    <title>概览</title>
    <g id="页面-1" stroke="none" stroke-width="1" fill="none" fill-rule="evenodd">
        <g id="概览" fill="#FFFFFF" fill-rule="nonzero">
            <path d="M13.1875,0.53125 L7.84375,0.53125 C7.6890625,0.53125 7.5625,0.6578125 7.5625,0.8125 L7.5625,6.15625 C7.5625,6.3109375 7.6890625,6.4375 7.84375,6.4375 L13.1875,6.4375 C13.3421875,6.4375 13.46875,6.3109375 13.46875,6.15625 L13.46875,0.8125 C13.46875,0.6578125 13.3421875,0.53125 13.1875,0.53125 Z M13.1875,7.5625 L7.84375,7.5625 C7.6890625,7.5625 7.5625,7.6890625 7.5625,7.84375 L7.5625,13.1875 C7.5625,13.3421875 7.6890625,13.46875 7.84375,13.46875 L13.1875,13.46875 C13.3421875,13.46875 13.46875,13.3421875 13.46875,13.1875 L13.46875,7.84375 C13.46875,7.6890625 13.3421875,7.5625 13.1875,7.5625 Z M6.15625,0.53125 L0.8125,0.53125 C0.6578125,0.53125 0.53125,0.6578125 0.53125,0.8125 L0.53125,6.15625 C0.53125,6.3109375 0.6578125,6.4375 0.8125,6.4375 L6.15625,6.4375 C6.3109375,6.4375 6.4375,6.3109375 6.4375,6.15625 L6.4375,0.8125 C6.4375,0.6578125 6.3109375,0.53125 6.15625,0.53125 Z M6.15625,7.5625 L0.8125,7.5625 C0.6578125,7.5625 0.53125,7.6890625 0.53125,7.84375 L0.53125,13.1875 C0.53125,13.3421875 0.6578125,13.46875 0.8125,13.46875 L6.15625,13.46875 C6.3109375,13.46875 6.4375,13.3421875 6.4375,13.1875 L6.4375,7.84375 C6.4375,7.6890625 6.3109375,7.5625 6.15625,7.5625 Z" id="形状"></path>
        </g>
    </g>
</svg>