<?xml version="1.0" encoding="UTF-8"?>
<svg width="12px" height="13px" viewBox="0 0 12 13" version="1.1" xmlns="http://www.w3.org/2000/svg" xmlns:xlink="http://www.w3.org/1999/xlink">
    <title>数据源管理</title>
    <g id="页面-1" stroke="none" stroke-width="1" fill="none" fill-rule="evenodd">
        <g id="数据源管理" fill="#FFFFFF" fill-rule="nonzero">
            <path d="M11.5,0 C11.7761424,0 12,0.223857625 12,0.5 L12,2.5 C12,2.77614237 11.7761424,3 11.5,3 L0.5,3 C0.22385763,3 0,2.77614237 0,2.5 L0,0.5 C0,0.223857625 0.22385763,0 0.5,0 L11.5,0 Z M5.5,1 L1.5,1 C1.22385763,1 1,1.22385763 1,1.5 C1,1.77614237 1.22385763,2 1.5,2 L1.5,2 L5.5,2 C5.77614237,2 6,1.77614237 6,1.5 C6,1.22385763 5.77614237,1 5.5,1 L5.5,1 Z" id="形状结合"></path>
            <path d="M11.5,5 C11.7761424,5 12,5.22385763 12,5.5 L12,7.5 C12,7.77614237 11.7761424,8 11.5,8 L0.5,8 C0.22385763,8 0,7.77614237 0,7.5 L0,5.5 C0,5.22385763 0.22385763,5 0.5,5 L11.5,5 Z M3.5,6 L1.5,6 C1.22385763,6 1,6.22385763 1,6.5 C1,6.77614237 1.22385763,7 1.5,7 L1.5,7 L3.5,7 C3.77614237,7 4,6.77614237 4,6.5 C4,6.22385763 3.77614237,6 3.5,6 L3.5,6 Z" id="形状结合备份-2"></path>
            <path d="M11.5,10 C11.7761424,10 12,10.2238576 12,10.5 L12,12.5 C12,12.7761424 11.7761424,13 11.5,13 L0.5,13 C0.22385763,13 0,12.7761424 0,12.5 L0,10.5 C0,10.2238576 0.22385763,10 0.5,10 L11.5,10 Z M4.5,11 L1.5,11 C1.22385763,11 1,11.2238576 1,11.5 C1,11.7761424 1.22385763,12 1.5,12 L1.5,12 L4.5,12 C4.77614237,12 5,11.7761424 5,11.5 C5,11.2238576 4.77614237,11 4.5,11 L4.5,11 Z" id="形状结合备份-3"></path>
        </g>
    </g>
</svg>