<?xml version="1.0" encoding="UTF-8"?>
<svg width="14px" height="14px" viewBox="0 0 14 14" version="1.1" xmlns="http://www.w3.org/2000/svg" xmlns:xlink="http://www.w3.org/1999/xlink">
    <title>业务</title>
    <g id="页面-1" stroke="none" stroke-width="1" fill="none" fill-rule="evenodd">
        <g id="业务" fill-rule="nonzero">
            <rect id="矩形" fill="#000000" opacity="0" x="0" y="0" width="14" height="14"></rect>
            <path d="M12.8796875,9.83125 C12.215625,9.446875 11.40625,9.55 10.8609375,10.03125 L10.0328125,9.5515625 L10.0328125,7.18125 C10.0328125,6.9359375 9.9015625,6.7078125 9.6890625,6.5859375 L7.5640625,5.3625 L7.5640625,4.3140625 C8.2546875,4.0796875 8.7515625,3.4265625 8.7515625,2.65625 C8.7515625,1.6890625 7.96875,0.90625 7.0015625,0.90625 C6.034375,0.90625 5.2515625,1.6890625 5.2515625,2.65625 C5.2515625,3.4265625 5.7484375,4.0796875 6.4390625,4.3140625 L6.4390625,5.3625 L4.3140625,6.5859375 C4.1015625,6.7078125 3.9703125,6.9359375 3.9703125,7.18125 L3.9703125,9.55 L3.1421875,10.0296875 C2.596875,9.5484375 1.7859375,9.4453125 1.1234375,9.8296875 C0.2875,10.3140625 0.003125,11.3828125 0.4828125,12.21875 C0.9640625,13.0546875 2.028125,13.3421875 2.8609375,12.859375 C3.525,12.475 3.840625,11.71875 3.6984375,11.003125 L4.459375,10.5609375 L6.65625,11.8265625 C6.7625,11.8875 6.88125,11.91875 7,11.91875 C7.11875,11.91875 7.2375,11.8875 7.34375,11.8265625 L9.5390625,10.5625 L10.3,11.0046875 C10.1578125,11.71875 10.475,12.4765625 11.1375,12.8609375 C11.9703125,13.34375 13.0359375,13.0578125 13.515625,12.2203125 C13.996875,11.3828125 13.7125,10.3140625 12.8796875,9.83125 Z" id="形状" fill="#FFFFFF"></path>
        </g>
    </g>
</svg>