<?xml version="1.0" encoding="UTF-8"?>
<svg width="14px" height="14px" viewBox="0 0 14 14" version="1.1" xmlns="http://www.w3.org/2000/svg" xmlns:xlink="http://www.w3.org/1999/xlink">
    <title>算法实验室</title>
    <g id="页面-1" stroke="none" stroke-width="1" fill="none" fill-rule="evenodd">
        <g id="算法实验室" fill-rule="nonzero">
            <rect id="矩形" fill="#000000" opacity="0" x="0" y="0" width="14" height="14"></rect>
            <path d="M12.5,0.5 C13.0522847,0.5 13.5,0.94771525 13.5,1.5 L13.5,12.5 C13.5,13.0522847 13.0522847,13.5 12.5,13.5 L1.5,13.5 C0.94771525,13.5 0.5,13.0522847 0.5,12.5 L0.5,1.5 C0.5,0.94771525 0.94771525,0.5 1.5,0.5 L12.5,0.5 Z M7.67156032,2.02023088 L6.03557875,3.34648101 C5.98814042,3.38463702 5.98814042,3.45831758 6.03557875,3.49515786 L7.6702782,4.821408 C7.73053771,4.8700898 7.82028591,4.8266709 7.82028591,4.74641171 L7.82028591,3.84250909 L10.1024545,3.84250909 L10.1024545,9.13040521 C9.53575874,9.32776386 9.12804547,9.87905236 9.12804547,10.5263887 C9.12804547,11.3395064 9.77166831,12 10.5640167,12 C11.3563652,12 12,11.3395064 12,10.5263887 C12.0012701,9.87905236 11.5935569,9.32907959 11.0268611,9.13040521 L11.0268611,3.21096141 C11.0268611,3.09517766 10.9345486,3.00044551 10.8217223,3.00044551 L7.82156803,3.00044551 L7.82156803,2.09522716 C7.82156803,2.0162837 7.73181982,1.97154908 7.67156032,2.02023088 Z M3.5,2 C2.67232143,2 2,2.66043942 2,3.47349033 C2,4.12077358 2.42589286,4.67070122 3.01785714,4.86935929 L3.01785714,9.13064071 C2.42589286,9.32798316 2,9.87922642 2,10.5265097 C2,11.3395606 2.67232143,12 3.5,12 C4.32767857,12 5,11.3395606 5,10.5265097 C5,9.87922642 4.57410714,9.32929878 3.98214286,9.13064071 L3.98214286,4.86935929 C4.57410714,4.67070122 5,4.12077358 5,3.47349033 C5,2.66043942 4.32767857,2 3.5,2 Z M3.5,4 C3.77614237,4 4,3.77614237 4,3.5 C4,3.22385763 3.77614237,3 3.5,3 C3.22385763,3 3,3.22385763 3,3.5 C3,3.77614237 3.22385763,4 3.5,4 Z M3.5,11 C3.77614237,11 4,10.7761424 4,10.5 C4,10.2238576 3.77614237,10 3.5,10 C3.22385763,10 3,10.2238576 3,10.5 C3,10.7761424 3.22385763,11 3.5,11 Z M10.5,11 C10.7761424,11 11,10.7761424 11,10.5 C11,10.2238576 10.7761424,10 10.5,10 C10.2238576,10 10,10.2238576 10,10.5 C10,10.7761424 10.2238576,11 10.5,11 Z" id="形状结合" fill="#FFFFFF"></path>
        </g>
    </g>
</svg>