<?xml version="1.0" encoding="UTF-8"?>
<svg width="14px" height="14px" viewBox="0 0 14 14" version="1.1" xmlns="http://www.w3.org/2000/svg" xmlns:xlink="http://www.w3.org/1999/xlink">
    <title>场景管理</title>
    <g id="页面-1" stroke="none" stroke-width="1" fill="none" fill-rule="evenodd">
        <g id="场景管理" fill="#FFFFFF" fill-rule="nonzero">
            <path d="M12.3753462,13.9281294 L9.28191362,13.9281294 C8.42735929,13.9281294 7.73518954,13.2359752 7.73518954,12.3814054 L7.73518954,9.28797275 C7.73518954,8.43341841 8.42734375,7.74124867 9.28191362,7.74124867 L12.3753462,7.74124867 C13.2299006,7.74124867 13.9220703,8.43340288 13.9220703,9.28797275 L13.9220703,12.3814054 C13.9220703,13.2359752 13.2299161,13.9281294 12.3753462,13.9281294 Z M12.3753462,6.19454013 L9.28191362,6.19454013 C8.42735929,6.19454013 7.73518954,5.50238592 7.73518954,4.64781605 L7.73518954,1.55438343 C7.73518954,0.699829102 8.42734375,0.00765935724 9.28191362,0.00765935724 L12.3753462,0.00765935724 C13.2299006,0.00765935724 13.9220703,0.699813565 13.9220703,1.55438343 L13.9220703,4.64781605 C13.9220703,5.50238592 13.2299161,6.19454013 12.3753462,6.19454013 Z M4.64177246,13.9281294 L1.54833984,13.9281294 C0.693785511,13.9281294 0.00161576705,13.2359752 0.00161576705,12.3814054 L0.00161576705,9.28797275 C0.00161576705,8.43341841 0.693769975,7.74124867 1.54833984,7.74124867 L4.64177246,7.74124867 C5.49556552,7.74124867 6.18849654,8.43340288 6.18849654,9.28797275 L6.18849654,12.3814054 C6.18849654,13.2359752 5.49554998,13.9281294 4.64177246,13.9281294 Z M4.64177246,6.19454013 L1.54833984,6.19454013 C0.693785511,6.19454013 0.00161576705,5.50238592 0.00161576705,4.64781605 L0.00161576705,1.55438343 C0.00161576705,0.699829102 0.693769975,0.00765935724 1.54833984,0.00765935724 L4.64177246,0.00765935724 C5.49556552,0.00765935724 6.18849654,0.699813565 6.18849654,1.55438343 L6.18849654,4.64781605 C6.18849654,5.50238592 5.49554998,6.19454013 4.64177246,6.19454013 Z M3.86841042,1.94106445 C3.86841042,1.7276123 3.69518155,1.55438343 3.4817294,1.55438343 L1.93500533,1.55438343 C1.72155318,1.55438343 1.54832431,1.7276123 1.54832431,1.94106445 L1.54832431,2.71442649 C1.54832431,2.92787864 1.72155318,3.10110751 1.93500533,3.10110751 L3.4817294,3.10110751 C3.69518155,3.10110751 3.86841042,2.92787864 3.86841042,2.71442649 L3.86841042,1.94106445 L3.86841042,1.94106445 Z" id="形状"></path>
        </g>
    </g>
</svg>