<?xml version="1.0" encoding="UTF-8"?>
<svg width="14px" height="14px" viewBox="0 0 14 14" version="1.1" xmlns="http://www.w3.org/2000/svg" xmlns:xlink="http://www.w3.org/1999/xlink">
    <title>Group 9 Copy</title>
    <g id="页面-1" stroke="none" stroke-width="1" fill="none" fill-rule="evenodd">
        <g id="画板" transform="translate(-16.000000, -217.000000)">
            <g id="编组-30" transform="translate(0.000000, 204.000000)">
                <g id="Group-9-Copy" transform="translate(16.000000, 13.000000)">
                    <rect id="Rectangle-7" x="0" y="0" width="14" height="14"></rect>
                    <path d="M11.4615105,8.76191481 C11.4122927,8.71991563 11.3630749,8.67791645 11.3074588,8.63591727 C10.8731939,8.30681432 10.7122517,7.94965723 10.8031406,7.35445011 C11.1182985,5.17656296 9.34662214,3.39094159 7.5680553,3.19489073 C5.32716938,2.95684069 3.47149469,4.36397727 3.18439093,6.51413839 C2.84839749,9.09101776 5.12422805,11.2408508 7.67961563,10.7506416 C7.9667194,10.6946974 8.16277026,10.7576961 8.35225874,10.967692 C8.48531083,11.1077987 8.65347161,11.2337962 8.86346751,11.4088475 C8.27531493,11.7100604 8.26826038,12.193215 8.30336907,12.6903146 C8.33125915,13.1805238 8.24726079,13.6426788 7.75705161,13.8318392 C7.22484325,14.0488897 6.63669069,14.0838343 6.13959102,13.7686764 C5.91548602,13.621023 5.79637897,13.2576317 5.70532607,12.9705279 C5.6423273,12.7533134 5.69843559,12.4872092 5.69138102,12.248667 C5.68432647,11.8636199 5.5092752,11.5834066 5.15211812,11.4364094 C4.80201559,11.2823578 4.47291264,11.3524111 4.19286342,11.6185153 C4.01781215,11.786512 3.85670592,11.9615633 3.67460011,12.1226695 C3.33155212,12.4307728 2.84839749,12.5288803 2.49813089,12.2767212 C2.19002753,12.0460538 1.91014238,11.7794574 1.67898283,11.4718463 C1.43387824,11.1358528 1.52493115,10.6246441 1.83303451,10.2955411 C1.99397667,10.1204898 2.17608249,9.9593836 2.34407921,9.79122283 C2.5891838,9.54628231 2.67334622,9.23817895 2.56818421,8.90202145 C2.47048483,8.5706611 2.18332537,8.33040197 1.83992501,8.29270522 C1.55987579,8.25070604 1.27982657,8.26481514 0.999613289,8.25070604 C0.390461121,8.2226519 0.0480693691,7.86565887 0.0123044414,7.27045175 C0.00530457812,7.08375227 0.00530457812,6.89694342 0.0123044414,6.71002519 C0.0333040312,6.08659987 0.42540575,5.70171675 1.04866702,5.68071718 C1.27277202,5.67366263 1.50376751,5.68760767 1.72787251,5.67366263 C2.10520889,5.65266304 2.40051562,5.47761177 2.54029413,5.12045468 C2.67334622,4.77035214 2.6032929,4.44124919 2.32307962,4.16809047 C2.16902794,4.02043711 2.02203081,3.86704166 1.87503369,3.71298998 C1.8070918,3.64886875 1.7482001,3.57579227 1.69998242,3.49577547 C1.37087947,2.94962207 1.56693033,2.41052323 2.30913458,1.80120701 C2.74323548,1.45110447 3.26149879,1.46504951 3.6887092,1.8504248 C3.86376047,2.01153103 4.03175719,2.1865823 4.20680846,2.35457901 C4.48685768,2.60673815 4.82301518,2.67679147 5.18017227,2.52273979 C5.50927521,2.37508642 5.69843559,2.11652897 5.69138102,1.7383723 C5.69138102,1.47932267 5.69138102,1.23421808 5.70532607,0.982058943 C5.74043477,0.492177889 6.05542861,0.106802596 6.53874729,0.0367492891 C6.85403717,-0.0122374723 7.17500133,-0.0122374723 7.49029121,0.0367492891 C7.93850121,0.0997480586 8.26760416,0.498904328 8.28860374,0.961059354 C8.30271284,1.22716353 8.2746587,1.50032226 8.29565829,1.75937189 C8.32371243,2.12358353 8.4987637,2.41757779 8.86281128,2.55768442 C9.23407747,2.70533778 9.54218081,2.60690221 9.81435518,2.34063397 C9.92640768,2.22858147 10.0384602,2.10947442 10.1505127,1.99742193 C10.220566,1.92736861 10.3045644,1.84337025 10.3816722,1.78037148 C10.9222476,1.37432472 11.5104002,1.54215738 12.1617156,2.29158024 C12.5538173,2.74668073 12.5328177,3.29234194 12.0987168,3.72004454 C11.930556,3.88820532 11.7486143,4.05620204 11.6014531,4.23830784 C11.3704576,4.52541161 11.2864592,4.8684596 11.468401,5.21167165 C11.6295072,5.53372005 11.916611,5.70188083 12.2877131,5.70188082 C12.5118181,5.70188082 12.7429777,5.69482627 12.9670827,5.70188082 C13.5132361,5.72288041 13.8982832,6.0449288 13.9614461,6.56319213 C14.0034453,6.85579634 14.0034453,7.1528988 13.9614461,7.44550302 C13.8913927,7.95687584 13.4927287,8.28581473 12.9677389,8.30681432 C12.8066327,8.31370481 12.6455265,8.31370481 12.4844202,8.30681432 C12.0783735,8.27170563 11.7351614,8.40524989 11.4621667,8.76191481 L11.4615105,8.76191481 Z M4.29080682,6.29003339 C4.61990977,6.63308138 4.94917676,6.98334798 5.28517021,7.32639597 C5.92943107,7.97065683 6.76268823,7.99165642 7.3851292,7.38250425 C8.02939006,6.75907894 8.00855452,5.93287632 7.34313002,5.27467042 C7.00008203,4.93851292 6.63587039,4.62335501 6.32071248,4.24536239 C7.18907833,3.99320325 7.97344583,4.12625534 8.66676042,4.62269877 C9.78023085,5.40001172 10.2003867,6.70953302 9.73823167,7.98394562 C9.64717876,8.22199566 9.72412257,8.34815726 9.87128376,8.49515439 C10.7033925,9.30626355 11.5320013,10.1210914 12.3571102,10.9396379 C12.8263198,11.4088475 12.8053202,11.96911 12.3078924,12.4032109 C11.9157907,12.7464229 11.418691,12.7323138 11.0195348,12.3402121 C10.1863323,11.5280092 9.36002031,10.7086971 8.54059881,9.88227573 C8.35143844,9.69327942 8.20444131,9.64422569 7.9243921,9.73462237 C6.82519481,10.098834 5.83066736,9.88227573 4.99724615,9.09036152 C4.2199332,8.34815726 3.98893771,7.4097381 4.17104353,6.37337552 C4.20903369,6.3430998 4.24874806,6.31505324 4.28998652,6.28937716 L4.29080682,6.29003339 Z M11.6856155,11.1707974 C11.4054022,11.2052499 11.2232964,11.3458487 11.1958985,11.640007 C11.1748989,11.9061112 11.4200035,12.1512248 11.6929982,12.1512248 C11.8232509,12.1520076 11.9483981,12.100615 12.0405024,12.0085108 C12.1326066,11.9164065 12.1839992,11.7912593 12.1832164,11.6610066 L12.1832164,11.640007 C12.1687701,11.3248491 11.9866643,11.191797 11.6856155,11.1707974 L11.6856155,11.1707974 Z" id="形状" fill="#FFFFFF"></path>
                </g>
            </g>
        </g>
    </g>
</svg>