<?xml version="1.0" encoding="UTF-8"?>
<svg width="14px" height="14px" viewBox="0 0 14 14" version="1.1" xmlns="http://www.w3.org/2000/svg" xmlns:xlink="http://www.w3.org/1999/xlink">
    <title>任务管理</title>
    <g id="页面-1" stroke="none" stroke-width="1" fill="none" fill-rule="evenodd">
        <g id="任务管理" fill="#FFFFFF" fill-rule="nonzero">
            <path d="M0.383628731,3.64583333 L6.52168843,6.08364428 C6.80464863,6.19247512 7.12025808,6.19247512 7.41410137,6.08364428 L13.5521611,3.64583333 C14.063666,3.43905473 14.063666,2.72077114 13.5521611,2.52487562 L7.41410137,0.0870646766 C7.13114117,-0.0217661692 6.81553172,-0.0217661692 6.52168843,0.0870646766 L0.383628731,2.52487562 C-0.127876244,2.73165423 -0.127876244,3.44993781 0.383628731,3.64583333 Z M13.5521611,6.55161692 L11.9196984,5.90951493 L7.41410137,7.6943408 C7.13114117,7.80317164 6.81553172,7.80317164 6.52168843,7.6943408 L2.01609142,5.89863184 L0.383628731,6.54073383 C-0.127876244,6.74751244 -0.127876244,7.46579602 0.383628731,7.66169154 L6.52168843,10.0995025 C6.80464863,10.2083333 7.12025808,10.2083333 7.41410137,10.0995025 L13.5521611,7.66169154 C14.063666,7.46579602 14.063666,6.74751244 13.5521611,6.55161692 Z M13.5521611,10.164801 L11.9196984,9.522699 L7.40321828,11.3075249 C7.12025808,11.4163557 6.80464863,11.4163557 6.51080535,11.3075249 L2.01609142,9.522699 L0.383628731,10.164801 C-0.127876244,10.3715796 -0.127876244,11.0898632 0.383628731,11.2857587 L6.52168843,13.7235697 C6.80464863,13.8324005 7.12025808,13.8324005 7.41410137,13.7235697 L13.5521611,11.2857587 C14.063666,11.0898632 14.063666,10.3715796 13.5521611,10.164801 L13.5521611,10.164801 Z" id="形状"></path>
        </g>
    </g>
</svg>