<?xml version="1.0" encoding="UTF-8"?>
<svg width="384px" height="240px" viewBox="0 0 384 240" version="1.1" xmlns="http://www.w3.org/2000/svg" xmlns:xlink="http://www.w3.org/1999/xlink">
	<title>编组 15</title>
	<g id="页面-1" stroke="none" stroke-width="1" fill="none" fill-rule="evenodd">
		<g id="概览" transform="translate(-632.000000, -350.000000)">
			<g id="编组-15" transform="translate(632.000000, 350.000000)">
				<g id="请求&amp;平均响应时间备份-7"></g>
				<circle id="椭圆形备份-64" fill="#2F5EC2" cx="39" cy="117" r="8"></circle>
				<g id="编组-10" transform="translate(136.000000, 107.000000)" fill="#2F5EC2">
					<circle id="椭圆形备份-65" cx="8" cy="8" r="8"></circle>
					<circle id="椭圆形备份-71" cx="24" cy="8" r="8"></circle>
					<circle id="椭圆形备份-72" cx="40" cy="8" r="8"></circle>
				</g>
				<circle id="椭圆形备份-66" fill="#46A6FF" cx="41" cy="143" r="8"></circle>
				<g id="编组-9" transform="translate(136.000000, 135.000000)" fill="#46A6FF">
					<circle id="椭圆形备份-79" cx="8" cy="8" r="8"></circle>
					<circle id="椭圆形备份-84" cx="24" cy="8" r="8"></circle>
					<circle id="椭圆形备份-85" cx="40" cy="8" r="8"></circle>
					<circle id="椭圆形备份-86" cx="56" cy="8" r="8"></circle>
				</g>
				<g id="箭头" opacity="0.119999997" transform="translate(104.000000, 154.000000) scale(1, -1) translate(-104.000000, -154.000000) translate(92.000000, 147.000000)" fill="#606266" fill-rule="nonzero">
					<path d="M23.534929,8.14793854 C23.5135124,8.17016973 23.4908598,8.19120013 23.4670767,8.21093166 L18.2071097,13.5275516 C17.5837167,14.1574828 16.5616914,14.1574828 15.9354712,13.5275516 C15.3116278,12.8875261 15.3116278,11.8732274 15.9354712,11.2332019 L18.5237538,8.61968706 L7.11608558,8.61968706 C6.22103724,8.61045443 5.50192363,7.88644218 5.5073893,7.00006378 C5.5073893,6.10836107 6.2297649,5.3804405 7.11184481,5.3804405 L18.519513,5.3804405 L15.932644,2.76692566 C15.3088006,2.12690017 15.3088006,1.11260149 15.932644,0.472575996 C16.2317524,0.170322463 16.6411162,0 17.0684633,0 C17.4958104,0 17.9051742,0.170322463 18.2042826,0.472575996 L23.4656631,5.78919589 L23.5335154,5.85218903 C23.8445051,6.16715466 24,6.5829093 24,7.00006378 C24,7.41721826 23.8445051,7.8329729 23.5335154,8.14793854 L23.534929,8.14793854 Z M7.54411432e-05,7.00006378 C7.54411432e-05,6.10416153 0.718178974,5.3804405 1.60449965,5.3804405 C2.49082033,5.3804405 3.20892387,6.10416153 3.20892387,7.00006378 C3.20892387,7.89596603 2.49082034,8.61968706 1.60449965,8.61968706 C1.17484966,8.61562271 0.764429692,8.4426962 0.463537537,8.13895363 C0.162645382,7.83521105 -0.00406838887,7.42553651 7.54411432e-05,7.00006378 L7.54411432e-05,7.00006378 Z" id="形状"></path>
				</g>
				<g id="箭头备份" opacity="0.119999997" transform="translate(270.000000, 154.000000) scale(1, -1) translate(-270.000000, -154.000000) translate(258.000000, 147.000000)" fill="#606266" fill-rule="nonzero">
					<path d="M23.534929,8.14793854 C23.5135124,8.17016973 23.4908598,8.19120013 23.4670767,8.21093166 L18.2071097,13.5275516 C17.5837167,14.1574828 16.5616914,14.1574828 15.9354712,13.5275516 C15.3116278,12.8875261 15.3116278,11.8732274 15.9354712,11.2332019 L18.5237538,8.61968706 L7.11608558,8.61968706 C6.22103724,8.61045443 5.50192363,7.88644218 5.5073893,7.00006378 C5.5073893,6.10836107 6.2297649,5.3804405 7.11184481,5.3804405 L18.519513,5.3804405 L15.932644,2.76692566 C15.3088006,2.12690017 15.3088006,1.11260149 15.932644,0.472575996 C16.2317524,0.170322463 16.6411162,0 17.0684633,0 C17.4958104,0 17.9051742,0.170322463 18.2042826,0.472575996 L23.4656631,5.78919589 L23.5335154,5.85218903 C23.8445051,6.16715466 24,6.5829093 24,7.00006378 C24,7.41721826 23.8445051,7.8329729 23.5335154,8.14793854 L23.534929,8.14793854 Z M7.54411432e-05,7.00006378 C7.54411432e-05,6.10416153 0.718178974,5.3804405 1.60449965,5.3804405 C2.49082033,5.3804405 3.20892387,6.10416153 3.20892387,7.00006378 C3.20892387,7.89596603 2.49082034,8.61968706 1.60449965,8.61968706 C1.17484966,8.61562271 0.764429692,8.4426962 0.463537537,8.13895363 C0.162645382,7.83521105 -0.00406838887,7.42553651 7.54411432e-05,7.00006378 L7.54411432e-05,7.00006378 Z" id="形状"></path>
				</g>
				<circle id="椭圆形备份-67" fill="#2F5EC2" cx="69" cy="194" r="8"></circle>
				<circle id="椭圆形备份-68" fill="#6DD897" cx="70" cy="166" r="8"></circle>
				<circle id="椭圆形备份-70" fill="#46A6FF" cx="51" cy="158" r="8"></circle>
				<circle id="椭圆形备份-73" fill="#6DD897" cx="31" cy="165" r="8"></circle>
				<circle id="椭圆形备份-74" fill="#6DD897" cx="54" cy="140" r="8"></circle>
				<g id="编组-7" transform="translate(136.000000, 191.000000)" fill="#6DD897">
					<circle id="椭圆形备份-87" cx="8" cy="8" r="8"></circle>
					<circle id="椭圆形备份-88" cx="24" cy="8" r="8"></circle>
					<circle id="椭圆形备份-89" cx="40" cy="8" r="8"></circle>
					<circle id="椭圆形备份-90" cx="56" cy="8" r="8"></circle>
				</g>
				<circle id="椭圆形备份-75" fill="#FF9D9D" cx="25" cy="151" r="8"></circle>
				<circle id="椭圆形备份-76" fill="#FF9D9D" cx="67" cy="124" r="8"></circle>
				<circle id="椭圆形备份-77" fill="#FF9D9D" cx="46" cy="173" r="8"></circle>
				<circle id="椭圆形备份-78" fill="#FF9D9D" cx="64" cy="148" r="8"></circle>
				<g id="编组-8" transform="translate(136.000000, 163.000000)" fill="#FF9D9D">
					<circle id="椭圆形备份-92" cx="8" cy="8" r="8"></circle>
					<circle id="椭圆形备份-93" cx="24" cy="8" r="8"></circle>
					<circle id="椭圆形备份-94" cx="40" cy="8" r="8"></circle>
					<circle id="椭圆形备份-95" cx="56" cy="8" r="8"></circle>
				</g>
				<circle id="椭圆形备份-80" fill="#46A6FF" cx="56" cy="185" r="8"></circle>
				<circle id="椭圆形备份-81" fill="#2F5EC2" cx="26" cy="187" r="8"></circle>
				<circle id="椭圆形备份-82" fill="#46A6FF" cx="45" cy="202" r="8"></circle>
				<circle id="椭圆形备份-83" fill="#6DD897" cx="79" cy="180" r="8"></circle>
				<path id="直线-7备份-3" d="M218.875,111 L227.875,115.5 L218.875,120 L218.875,116 L207,116 L207,115 L218.875,115 L218.875,111 Z" fill="#C4C4C4" fill-rule="nonzero"></path>
				<path id="直线-7备份-7" d="M340.6875,120 L349.6875,124.5 L340.6875,129 L340.687,125 L328.8125,125 L328.8125,124 L340.687,124 L340.6875,120 Z" fill="#C4C4C4" fill-rule="nonzero"></path>
				<path id="直线-7备份-8" d="M340.6875,147.5 L349.6875,152 L340.6875,156.5 L340.687,152.5 L328.8125,152.5 L328.8125,151.5 L340.687,151.5 L340.6875,147.5 Z" fill="#C4C4C4" fill-rule="nonzero"></path>
				<path id="直线-7备份-9" d="M340.6875,175.5 L349.6875,180 L340.6875,184.5 L340.687,180.5 L328.8125,180.5 L328.8125,179.5 L340.687,179.5 L340.6875,175.5 Z" fill="#C4C4C4" fill-rule="nonzero"></path>
				<path id="直线-7备份-4" d="M218.875,138.5 L227.875,143 L218.875,147.5 L218.875,143.5 L207,143.5 L207,142.5 L218.875,142.5 L218.875,138.5 Z" fill="#C4C4C4" fill-rule="nonzero"></path>
				<path id="直线-7备份-5" d="M218.875,166.5 L227.875,171 L218.875,175.5 L218.875,171.5 L207,171.5 L207,170.5 L218.875,170.5 L218.875,166.5 Z" fill="#C4C4C4" fill-rule="nonzero"></path>
				<path id="直线-7备份-6" d="M218.875,194.5 L227.875,199 L218.875,203.5 L218.875,199.5 L207,199.5 L207,198.5 L218.875,198.5 L218.875,194.5 Z" fill="#C4C4C4" fill-rule="nonzero"></path>
				<rect id="矩形" fill="#2F5EC2" x="232" y="106" width="16" height="16"></rect>
				<rect id="矩形备份-39" fill="#2F5EC2" x="289" y="115" width="16" height="16"></rect>
				<rect id="矩形备份-36" fill="#46A6FF" x="232" y="135" width="16" height="16"></rect>
				<rect id="矩形备份-40" fill="#46A6FF" x="309" y="115" width="16" height="16"></rect>
				<rect id="矩形备份-37" fill="#FF9D9D" x="232" y="163" width="16" height="16"></rect>
				<rect id="矩形备份-41" fill="#FF9D9D" x="289" y="144" width="16" height="16"></rect>
				<rect id="矩形备份-38" fill="#6DD897" x="232" y="191" width="16" height="16"></rect>
				<rect id="矩形备份-42" fill="#6DD897" x="289" y="172" width="16" height="16"></rect>
				<polygon id="多边形" fill="#376FDA" points="360 113 369.510565 119.90983 365.877853 131.09017 354.122147 131.09017 350.489435 119.90983"></polygon>
				<polygon id="多边形备份" fill="#FF9D9D" points="360 142 369.510565 148.90983 365.877853 160.09017 354.122147 160.09017 350.489435 148.90983"></polygon>
				<polygon id="多边形备份-2" fill="#6DD897" points="360 169 369.510565 175.90983 365.877853 187.09017 354.122147 187.09017 350.489435 175.90983"></polygon>
				<text id="告警消息" font-family="PingFangSC-Regular, PingFang SC" font-size="12" font-weight="normal" fill="#000000" fill-opacity="0.65">
					<tspan x="25" y="66">告警消息</tspan>
				</text>
				<text id="Alert-massage" font-family="PingFangSC-Regular, PingFang SC" font-size="10" font-weight="normal" fill="#000000" fill-opacity="0.45">
					<tspan x="17" y="86">Alert massage</tspan>
				</text>
				<text id="Alert" font-family="PingFangSC-Regular, PingFang SC" font-size="10" font-weight="normal" fill="#000000" fill-opacity="0.45">
					<tspan x="181" y="86">Alert</tspan>
				</text>
				<text id="Incident" font-family="PingFangSC-Regular, PingFang SC" font-size="10" font-weight="normal" fill="#000000" fill-opacity="0.45">
					<tspan x="309" y="86">Incident</tspan>
				</text>
				<text id="警报" font-family="PingFangSC-Regular, PingFang SC" font-size="12" font-weight="normal" fill="#000000" fill-opacity="0.65">
					<tspan x="180" y="66">警报</tspan>
				</text>
				<text id="事件" font-family="PingFangSC-Regular, PingFang SC" font-size="12" font-weight="normal" fill="#000000" fill-opacity="0.65">
					<tspan x="315" y="66">事件</tspan>
				</text>
			</g>
		</g>
	</g>
</svg>