<?xml version="1.0" encoding="UTF-8"?>
<svg width="384px" height="240px" viewBox="0 0 384 240" version="1.1" xmlns="http://www.w3.org/2000/svg" xmlns:xlink="http://www.w3.org/1999/xlink">
    <title>编组 16</title>
    <defs>
        <linearGradient x1="60.8186148%" y1="34.3987216%" x2="72.1321903%" y2="34.3987216%" id="linearGradient-1">
            <stop stop-color="#1890FF" offset="0%"></stop>
            <stop stop-color="#FF9393" offset="47.5109391%"></stop>
            <stop stop-color="#1890FF" offset="100%"></stop>
        </linearGradient>
        <linearGradient x1="60.8186148%" y1="34.3987216%" x2="72.1321903%" y2="34.3987216%" id="linearGradient-2">
            <stop stop-color="#1890FF" offset="0%"></stop>
            <stop stop-color="#FF9393" offset="46.4355469%"></stop>
            <stop stop-color="#1890FF" offset="100%"></stop>
        </linearGradient>
        <linearGradient x1="60.8186148%" y1="34.3987216%" x2="72.1321903%" y2="34.3987216%" id="linearGradient-3">
            <stop stop-color="#1890FF" offset="0%"></stop>
            <stop stop-color="#FF9393" offset="46.4355469%"></stop>
            <stop stop-color="#1890FF" offset="100%"></stop>
        </linearGradient>
    </defs>
    <g id="页面-1" stroke="none" stroke-width="1" fill="none" fill-rule="evenodd">
        <g id="概览" transform="translate(-1032.000000, -350.000000)">
            <g id="编组-16" transform="translate(1032.000000, 350.000000)">
                <g id="请求&amp;平均响应时间备份-8"></g>
                <path d="M113,76.8163265 L121.092989,58.8023582 C123.041895,54.4643398 128.138454,52.5275816 132.476473,54.4764878 C134.435684,55.3566866 135.995218,56.937308 136.849026,58.9081633 C138.705225,63.1928529 143.6834,65.1615332 147.968089,63.3053337 C149.939184,62.4514223 151.511348,60.8792583 152.36526,58.9081633 C154.221459,54.6234736 159.199633,52.6547934 163.484323,54.5109928 C165.455418,55.3649043 167.027582,56.9370683 167.881494,58.9081633 C169.737693,63.1928529 174.715867,65.1615332 179.000557,63.3053337 C180.971652,62.4514223 182.543816,60.8792583 183.397727,58.9081633 C185.253927,54.6234736 190.232101,52.6547934 194.516791,54.5109928 C196.487886,55.3649043 198.06005,56.9370683 198.913961,58.9081633 C200.770161,63.1928529 205.748335,65.1615332 210.033024,63.3053337 C212.004119,62.4514223 213.576283,60.8792583 214.430195,58.9081633 C215.561171,56.2975151 218.594358,55.0980043 221.205006,56.2289809 C222.906396,56.9660519 224.080421,58.5605947 224.279055,60.40411 L228.069267,95.5809317 C228.187596,96.6791447 229.173799,97.4734972 230.272012,97.3551675 C231.202252,97.2549366 231.938688,96.5231768 232.044843,95.5935944 L235.93278,61.5474594 C236.360436,57.8025323 239.742983,55.1133529 243.487911,55.5410091 C245.636524,55.7863725 247.541706,57.035537 248.623377,58.9081633 L249.205873,59.9166017 C251.919422,64.6143913 257.927498,66.2229366 262.625288,63.5093882 C264.450284,62.4552294 265.887852,60.8420608 266.725649,58.9081633 C268.581849,54.6234736 273.560023,52.6547934 277.844713,54.5109928 C279.815808,55.3649043 281.387972,56.9370683 282.241883,58.9081633 L290,76.8163265 L290,76.8163265" id="路径-6" stroke="url(#linearGradient-1)" stroke-width="1.5"></path>
                <text id="总KPI指标" font-family="PingFangSC-Regular, PingFang SC" font-size="12" font-weight="normal" fill="#000000" fill-opacity="0.65">
                    <tspan x="174" y="41">总KPI指标</tspan>
                </text>
                <text id="维度1" font-family="PingFangSC-Regular, PingFang SC" font-size="12" font-weight="normal" fill="#000000" fill-opacity="0.65">
                    <tspan x="64" y="107">维度1</tspan>
                </text>
                <text id="维度2" font-family="PingFangSC-Regular, PingFang SC" font-size="12" font-weight="normal" fill="#000000" fill-opacity="0.65">
                    <tspan x="290" y="107">维度2</tspan>
                </text>
                <rect id="矩形备份-31" fill="#FFF4F5" opacity="0.919209559" x="106" y="113" width="20" height="118"></rect>
                <rect id="矩形备份-32" fill="#FFF4F5" opacity="0.919209559" x="307" y="113" width="20" height="38"></rect>
                <rect id="矩形备份-33" fill="#F4FEFF" opacity="0.919209559" x="307" y="151" width="20" height="79"></rect>
                <line x1="116.5" y1="113.5" x2="116.5" y2="229.5" id="直线-4" stroke="#FFC0C0" stroke-linecap="square"></line>
                <line x1="317.5" y1="113.162393" x2="317.5" y2="150.837607" id="直线-4备份" stroke="#FFC0C0" stroke-linecap="square"></line>
                <line x1="317.5" y1="151.337607" x2="317.5" y2="229.662393" id="直线-4备份-2" stroke="#C0EAFF" stroke-linecap="square"></line>
                <path d="M15,138 L22.0522218,124.399286 C24.0061939,120.630912 28.6450727,119.160048 32.4134475,121.11402 C33.8554895,121.861745 35.0235596,123.047119 35.75,124.5 C37.613961,128.227922 42.1470779,129.738961 45.875,127.875 C47.3354989,127.144751 48.5197505,125.960499 49.25,124.5 C51.113961,120.772078 55.6470779,119.261039 59.375,121.125 C60.8354989,121.855249 62.0197505,123.039501 62.75,124.5 C64.613961,128.227922 69.1470779,129.738961 72.875,127.875 C74.3354989,127.144751 75.5197505,125.960499 76.25,124.5 C78.113961,120.772078 82.6470779,119.261039 86.375,121.125 C87.8354989,121.855249 89.0197505,123.039501 89.75,124.5 C91.613961,128.227922 96.1470779,129.738961 99.875,127.875 C101.335499,127.144751 102.519751,125.960499 103.25,124.5 C104.540861,121.918278 107.680209,120.871829 110.261931,122.16269 C111.695202,122.879325 112.720502,124.213867 113.04364,125.783395 L115.041086,135.485274 C115.263826,136.567153 116.321427,137.263622 117.403306,137.040883 C118.186073,136.879725 118.797756,136.268042 118.958914,135.485274 L120.728185,126.891672 C121.482645,123.227151 125.064937,120.868081 128.729457,121.622541 C130.476236,121.982172 132.010739,123.016109 133,124.5 L133.627655,125.441483 C136.311019,129.466529 141.74926,130.554177 145.774306,127.870813 C147.042613,127.025275 148.068306,125.863389 148.75,124.5 C150.613961,120.772078 155.147078,119.261039 158.875,121.125 C160.335499,121.855249 161.519751,123.039501 162.25,124.5 L169,138 L169,138" id="路径-6备份" stroke="url(#linearGradient-2)" stroke-width="1.5"></path>
                <path d="M216,134 L223.052222,120.399286 C225.006194,116.630912 229.645073,115.160048 233.413448,117.11402 C234.855489,117.861745 236.02356,119.047119 236.75,120.5 C238.613961,124.227922 243.147078,125.738961 246.875,123.875 C248.335499,123.144751 249.519751,121.960499 250.25,120.5 C252.113961,116.772078 256.647078,115.261039 260.375,117.125 C261.835499,117.855249 263.019751,119.039501 263.75,120.5 C265.613961,124.227922 270.147078,125.738961 273.875,123.875 C275.335499,123.144751 276.519751,121.960499 277.25,120.5 C279.113961,116.772078 283.647078,115.261039 287.375,117.125 C288.835499,117.855249 290.019751,119.039501 290.75,120.5 C292.613961,124.227922 297.147078,125.738961 300.875,123.875 C302.335499,123.144751 303.519751,121.960499 304.25,120.5 C305.354496,118.291008 308.040609,117.395637 310.249602,118.500133 C311.603841,119.177252 312.523476,120.493643 312.693342,121.99817 L316.012627,151.397549 C316.136549,152.495146 317.126785,153.284464 318.224381,153.160542 C319.151259,153.055895 319.882726,152.324427 319.987373,151.397549 L323.179712,123.122548 C323.546927,119.870079 326.481259,117.531118 329.733728,117.898333 C331.469776,118.094338 333.030895,119.046343 334,120.5 L334.627655,121.441483 C337.311019,125.466529 342.74926,126.554177 346.774306,123.870813 C348.042613,123.025275 349.068306,121.863389 349.75,120.5 C351.613961,116.772078 356.147078,115.261039 359.875,117.125 C361.335499,117.855249 362.519751,119.039501 363.25,120.5 L370,134 L370,134" id="路径-6备份-4" stroke="url(#linearGradient-3)" stroke-width="1.5"></path>
                <path d="M15,177 L22.0522218,163.399286 C24.0061939,159.630912 28.6450727,158.160048 32.4134475,160.11402 C33.8554895,160.861745 35.0235596,162.047119 35.75,163.5 C37.613961,167.227922 42.1470779,168.738961 45.875,166.875 C47.3354989,166.144751 48.5197505,164.960499 49.25,163.5 C51.113961,159.772078 55.6470779,158.261039 59.375,160.125 C60.8354989,160.855249 62.0197505,162.039501 62.75,163.5 C64.613961,167.227922 69.1470779,168.738961 72.875,166.875 C74.3354989,166.144751 75.5197505,164.960499 76.25,163.5 C78.113961,159.772078 82.6470779,158.261039 86.375,160.125 C87.8354989,160.855249 89.0197505,162.039501 89.75,163.5 C91.613961,167.227922 96.1470779,168.738961 99.875,166.875 C101.335499,166.144751 102.519751,164.960499 103.25,163.5 C104.540861,160.918278 107.680209,159.871829 110.261931,161.16269 C111.695202,161.879325 112.720502,163.213867 113.04364,164.783395 L115.041086,174.485274 C115.263826,175.567153 116.321427,176.263622 117.403306,176.040883 C118.186073,175.879725 118.797756,175.268042 118.958914,174.485274 L120.728185,165.891672 C121.482645,162.227151 125.064937,159.868081 128.729457,160.622541 C130.476236,160.982172 132.010739,162.016109 133,163.5 L133.627655,164.441483 C136.311019,168.466529 141.74926,169.554177 145.774306,166.870813 C147.042613,166.025275 148.068306,164.863389 148.75,163.5 C150.613961,159.772078 155.147078,158.261039 158.875,160.125 C160.335499,160.855249 161.519751,162.039501 162.25,163.5 L169,177 L169,177" id="路径-6备份-2" stroke="url(#linearGradient-2)" stroke-width="1.5"></path>
                <path d="M216,173 L223.052222,159.399286 C225.006194,155.630912 229.645073,154.160048 233.413448,156.11402 C234.855489,156.861745 236.02356,158.047119 236.75,159.5 C238.613961,163.227922 243.147078,164.738961 246.875,162.875 C248.335499,162.144751 249.519751,160.960499 250.25,159.5 C252.113961,155.772078 256.647078,154.261039 260.375,156.125 C261.835499,156.855249 263.019751,158.039501 263.75,159.5 C265.613961,163.227922 270.147078,164.738961 273.875,162.875 C275.335499,162.144751 276.519751,160.960499 277.25,159.5 C279.113961,155.772078 283.647078,154.261039 287.375,156.125 C288.835499,156.855249 290.019751,158.039501 290.75,159.5 L290.779695,159.55939 C293.421776,164.843551 299.847264,166.985381 305.131425,164.3433 C306.197566,163.810229 307.167115,163.102716 308,162.25 L310.551024,159.638237 C315.008082,155.075059 322.256214,154.796269 327.050617,159.003603 L331.655369,163.044507 C336.488834,167.28612 343.845638,166.806328 348.087251,161.972863 C348.745125,161.223192 349.30395,160.3921 349.75,159.5 C351.613961,155.772078 356.147078,154.261039 359.875,156.125 C361.335499,156.855249 362.519751,158.039501 363.25,159.5 L370,173 L370,173" id="路径-6备份-5" stroke="#1890FF" stroke-width="1.5"></path>
                <path d="M216,213 L223.052222,199.399286 C225.006194,195.630912 229.645073,194.160048 233.413448,196.11402 C234.855489,196.861745 236.02356,198.047119 236.75,199.5 C238.613961,203.227922 243.147078,204.738961 246.875,202.875 C248.335499,202.144751 249.519751,200.960499 250.25,199.5 C252.113961,195.772078 256.647078,194.261039 260.375,196.125 C261.835499,196.855249 263.019751,198.039501 263.75,199.5 C265.613961,203.227922 270.147078,204.738961 273.875,202.875 C275.335499,202.144751 276.519751,200.960499 277.25,199.5 C279.113961,195.772078 283.647078,194.261039 287.375,196.125 C288.835499,196.855249 290.019751,198.039501 290.75,199.5 L290.779695,199.55939 C293.421776,204.843551 299.847264,206.985381 305.131425,204.3433 C306.197566,203.810229 307.167115,203.102716 308,202.25 L310.551024,199.638237 C315.008082,195.075059 322.256214,194.796269 327.050617,199.003603 L331.655369,203.044507 C336.488834,207.28612 343.845638,206.806328 348.087251,201.972863 C348.745125,201.223192 349.30395,200.3921 349.75,199.5 C351.613961,195.772078 356.147078,194.261039 359.875,196.125 C361.335499,196.855249 362.519751,198.039501 363.25,199.5 L370,213 L370,213" id="路径-6备份-6" stroke="#1890FF" stroke-width="1.5"></path>
                <path d="M15,216 L22.0522218,202.399286 C24.0061939,198.630912 28.6450727,197.160048 32.4134475,199.11402 C33.8554895,199.861745 35.0235596,201.047119 35.75,202.5 C37.613961,206.227922 42.1470779,207.738961 45.875,205.875 C47.3354989,205.144751 48.5197505,203.960499 49.25,202.5 C51.113961,198.772078 55.6470779,197.261039 59.375,199.125 C60.8354989,199.855249 62.0197505,201.039501 62.75,202.5 C64.613961,206.227922 69.1470779,207.738961 72.875,205.875 C74.3354989,205.144751 75.5197505,203.960499 76.25,202.5 C78.113961,198.772078 82.6470779,197.261039 86.375,199.125 C87.8354989,199.855249 89.0197505,201.039501 89.75,202.5 C91.613961,206.227922 96.1470779,207.738961 99.875,205.875 C101.335499,205.144751 102.519751,203.960499 103.25,202.5 C104.540861,199.918278 107.680209,198.871829 110.261931,200.16269 C111.695202,200.879325 112.720502,202.213867 113.04364,203.783395 L115.041086,213.485274 C115.263826,214.567153 116.321427,215.263622 117.403306,215.040883 C118.186073,214.879725 118.797756,214.268042 118.958914,213.485274 L120.728185,204.891672 C121.482645,201.227151 125.064937,198.868081 128.729457,199.622541 C130.476236,199.982172 132.010739,201.016109 133,202.5 L133.627655,203.441483 C136.311019,207.466529 141.74926,208.554177 145.774306,205.870813 C147.042613,205.025275 148.068306,203.863389 148.75,202.5 C150.613961,198.772078 155.147078,197.261039 158.875,199.125 C160.335499,199.855249 161.519751,201.039501 162.25,202.5 L169,216 L169,216" id="路径-6备份-3" stroke="url(#linearGradient-2)" stroke-width="1.5"></path>
            </g>
        </g>
    </g>
</svg>