<?xml version="1.0" encoding="UTF-8"?>
<svg width="384px" height="240px" viewBox="0 0 384 240" version="1.1" xmlns="http://www.w3.org/2000/svg" xmlns:xlink="http://www.w3.org/1999/xlink">
	<title>编组 12</title>
	<g id="页面-1" stroke="none" stroke-width="1" fill="none" fill-rule="evenodd">
		<g id="概览" transform="translate(-632.000000, -94.000000)">
			<g id="编组-12" transform="translate(632.000000, 94.000000)">
				<g id="请求&amp;平均响应时间备份-4"></g>
				<g id="编组-2备份" transform="translate(30.000000, 85.000000)" fill="#F4FCFF">
					<rect id="矩形" x="0" y="0" width="20" height="118"></rect>
					<rect id="矩形备份-24" x="40" y="0" width="20" height="118"></rect>
					<rect id="矩形备份-25" x="80" y="0" width="20" height="118"></rect>
					<rect id="矩形备份-26" x="117" y="0" width="20" height="118"></rect>
					<rect id="矩形备份-27" x="157" y="0" width="20" height="118"></rect>
					<rect id="矩形备份-28" x="196" y="0" width="20" height="118"></rect>
					<rect id="矩形备份-29" x="235" y="0" width="20" height="118"></rect>
					<rect id="矩形备份-30" x="274" y="0" width="20" height="118"></rect>
					<rect id="矩形备份-31" x="313" y="0" width="20" height="118"></rect>
				</g>
				<g id="编组备份" transform="translate(12.000000, 84.500000)">
					<line x1="2.5" y1="0" x2="2.5" y2="118" id="直线" stroke="#E9E9E9" stroke-linecap="square"></line>
					<line x1="2.5" y1="118" x2="360" y2="118" id="直线-2" stroke="#E9E9E9" stroke-linecap="square"></line>
					<rect id="矩形" fill="#E9E9E9" x="8" y="117.5" width="1" height="3"></rect>
					<rect id="矩形备份-6" fill="#E9E9E9" x="27" y="117.5" width="1" height="3"></rect>
					<rect id="矩形备份-7" fill="#E9E9E9" x="47" y="117.5" width="1" height="3"></rect>
					<rect id="矩形备份-8" fill="#E9E9E9" x="66" y="117.5" width="1" height="3"></rect>
					<rect id="矩形备份-9" fill="#E9E9E9" x="86" y="117.5" width="1" height="3"></rect>
					<rect id="矩形备份-10" fill="#E9E9E9" x="105" y="117.5" width="1" height="3"></rect>
					<rect id="矩形备份-11" fill="#E9E9E9" x="125" y="117.5" width="1" height="3"></rect>
					<rect id="矩形备份-12" fill="#E9E9E9" x="144" y="117.5" width="1" height="3"></rect>
					<rect id="矩形备份-13" fill="#E9E9E9" x="164" y="117.5" width="1" height="3"></rect>
					<rect id="矩形备份-14" fill="#E9E9E9" x="183" y="117.5" width="1" height="3"></rect>
					<rect id="矩形备份-15" fill="#E9E9E9" x="202" y="117.5" width="1" height="3"></rect>
					<rect id="矩形备份-16" fill="#E9E9E9" x="222" y="117.5" width="1" height="3"></rect>
					<rect id="矩形备份-17" fill="#E9E9E9" x="241" y="117.5" width="1" height="3"></rect>
					<rect id="矩形备份-18" fill="#E9E9E9" x="261" y="117.5" width="1" height="3"></rect>
					<rect id="矩形备份-19" fill="#E9E9E9" x="280" y="117.5" width="1" height="3"></rect>
					<rect id="矩形备份-20" fill="#E9E9E9" x="300" y="117.5" width="1" height="3"></rect>
					<rect id="矩形备份-21" fill="#E9E9E9" x="319" y="117.5" width="1" height="3"></rect>
					<rect id="矩形备份-22" fill="#E9E9E9" x="339" y="117.5" width="1" height="3"></rect>
					<rect id="矩形备份-23" fill="#E9E9E9" x="358" y="117.5" width="1" height="3"></rect>
					<rect id="矩形" fill="#E9E9E9" x="0" y="102.5" width="3" height="1"></rect>
					<rect id="矩形备份" fill="#E9E9E9" x="0" y="79.5" width="3" height="1"></rect>
					<rect id="矩形备份-3" fill="#E9E9E9" x="0" y="56.5" width="3" height="1"></rect>
					<rect id="矩形备份-4" fill="#E9E9E9" x="0" y="33.5" width="3" height="1"></rect>
					<rect id="矩形备份-5" fill="#E9E9E9" x="0" y="10.5" width="3" height="1"></rect>
				</g>
				<path d="M16,202 L32.180583,181.936077 C37.3641881,175.508407 46.2564137,173.432072 53.7505234,176.899496 L61.393561,180.435827 C69.0512211,183.978923 78.1423152,181.727311 83.2611891,175.019821 L94.9252104,159.735931 C99.9585835,153.140477 108.84801,150.839754 116.449072,154.165219 L130.958542,160.513112 C138.369652,163.755473 147.033407,161.655647 152.137636,155.379956 L164.697901,139.937006 C170.107856,133.285423 179.458522,131.372907 187.045692,135.366154 L198.650891,141.474153 C206.373585,145.538729 215.899415,143.478026 221.251668,136.584973 L234.765475,119.180828 C240.538796,111.745491 251.066134,110.014353 258.916421,115.209396 L265.849712,119.797603 C273.376644,124.778661 283.428792,123.415091 289.356785,116.608877 L292.5,113 L292.5,113" id="路径-4" stroke="#1890FF" stroke-width="1.5"></path>
				<path d="M292.5,88.5 L301.559828,81.327636 C303.463966,79.8201939 305.821395,79 308.25,79 C310.6816,79 313.044995,78.1961576 314.97234,76.7135846 L315.25,76.5 C317.409312,74.8389907 319.367725,72.9320306 321.085622,70.817696 L323.108222,68.328342 C324.305079,66.8552879 326.102013,66 328,66 C329.874234,66 331.624463,65.063306 332.664101,63.5038491 L333,63 C334.332827,61.00076 335.743093,59.0542447 337.227587,57.1648889 L339.087422,54.7978271 C340.029017,53.5994323 340.943094,52.3796684 341.828935,51.1394913 L343.756285,48.4412004 C344.850562,46.9092126 346.617335,46 348.5,46 C350.349345,46 352.050993,44.9898454 352.936556,43.3663133 L353.103918,43.0594834 C354.018041,41.3835912 355.363056,39.9821663 357,39 C358.657541,38.0054752 360.453133,37.2617167 362.328427,36.7928932 L365.5,36 L365.5,36 L365.5,141 L355.86555,136.620704 C354.965618,136.211645 353.988537,136 353,136 L351.5,136 L348.5,136 C346.50558,136 344.516741,135.789302 342.566593,135.371413 L339.607401,134.7373 C338.869157,134.579105 338.132729,134.412554 337.398257,134.23768 L331.988802,132.949715 C329.359413,132.32367 326.892377,131.147982 324.75,129.5 C322.700257,127.923275 320.035575,127.385375 317.5347,128.0435 L314.48916,128.844958 C312.891832,129.265307 311.193856,129.052142 309.75,128.25 C308.328918,127.46051 306.624694,127.364711 305.124085,127.989964 L304.5,128.25 C302.503358,129.081934 300.57825,130.076094 298.744006,131.222497 L297.5,132 L297.5,132 L292.5,132 L292.5,88.5 Z" id="路径-5" fill-opacity="0.291553417" fill="#CEFFB7" opacity="0.980027861"></path>
				<path d="M293,111.5 L298.810065,104.664629 C305.062824,97.3084426 316.005639,96.195318 323.611568,102.141772 L323.75,102.25 C331.39846,108.229705 342.420149,107.018643 348.587701,99.5208347 L363,82 L363,82" id="路径-4" stroke="#FF9768" stroke-width="2.5" stroke-dasharray="4"></path>
				<line x1="292.5" y1="82.5" x2="292.5" y2="202.5" id="直线-3" stroke="#FFDCAD" stroke-width="3" stroke-linecap="square" stroke-dasharray="5,9"></line>
				<text id="time备份" font-family="PingFangSC-Regular, PingFang SC" font-size="8" font-weight="normal" fill="#000000" fill-opacity="0.45">
					<tspan x="355" y="217">time</tspan>
				</text>
				<text id="figure备份" font-family="PingFangSC-Regular, PingFang SC" font-size="8" font-weight="normal" fill="#000000" fill-opacity="0.45">
					<tspan x="14" y="74">figure</tspan>
				</text>
			</g>
		</g>
	</g>
</svg>