<?xml version="1.0" encoding="UTF-8"?>
<svg width="392px" height="248px" viewBox="0 0 392 248" version="1.1" xmlns="http://www.w3.org/2000/svg" xmlns:xlink="http://www.w3.org/1999/xlink">
    <title>编组 26备份</title>
    <defs>
        <path d="M2,0 L382,0 C383.104569,-2.02906125e-16 384,0.8954305 384,2 L384,238 C384,239.104569 383.104569,240 382,240 L2,240 C0.8954305,240 1.3527075e-16,239.104569 0,238 L0,2 C-1.3527075e-16,0.8954305 0.8954305,2.02906125e-16 2,0 Z" id="path-1"></path>
        <filter x="-1.8%" y="-2.1%" width="103.6%" height="105.8%" filterUnits="objectBoundingBox" id="filter-2">
            <feOffset dx="0" dy="2" in="SourceAlpha" result="shadowOffsetOuter1"></feOffset>
            <feGaussianBlur stdDeviation="2" in="shadowOffsetOuter1" result="shadowBlurOuter1"></feGaussianBlur>
            <feColorMatrix values="0 0 0 0 0.12334826   0 0 0 0 0.156873573   0 0 0 0 0.212749094  0 0 0 0.0649311626 0" type="matrix" in="shadowBlurOuter1"></feColorMatrix>
        </filter>
        <circle id="path-3" cx="16" cy="16.5986708" r="16"></circle>
        <circle id="path-5" cx="16" cy="16.5986708" r="16"></circle>
        <circle id="path-7" cx="16" cy="16.5986708" r="16"></circle>
    </defs>
    <g id="页面-1" stroke="none" stroke-width="1" fill="none" fill-rule="evenodd">
        <g id="编组-26备份" transform="translate(4.000000, 2.000000)">
            <g id="请求&amp;平均响应时间备份-7">
                <g id="Rectangle-5-Copy-4备份-5">
                    <use fill="black" fill-opacity="1" filter="url(#filter-2)" xlink:href="#path-1"></use>
                    <use fill="#FFFFFF" fill-rule="evenodd" xlink:href="#path-1"></use>
                </g>
            </g>
            <g id="箭头" opacity="0.119999997" transform="translate(104.000000, 154.000000) scale(1, -1) translate(-104.000000, -154.000000) translate(92.000000, 147.000000)" fill="#606266" fill-rule="nonzero">
                <path d="M23.534929,8.14793854 C23.5135124,8.17016973 23.4908598,8.19120013 23.4670767,8.21093166 L18.2071097,13.5275516 C17.5837167,14.1574828 16.5616914,14.1574828 15.9354712,13.5275516 C15.3116278,12.8875261 15.3116278,11.8732274 15.9354712,11.2332019 L18.5237538,8.61968706 L7.11608558,8.61968706 C6.22103724,8.61045443 5.50192363,7.88644218 5.5073893,7.00006378 C5.5073893,6.10836107 6.2297649,5.3804405 7.11184481,5.3804405 L18.519513,5.3804405 L15.932644,2.76692566 C15.3088006,2.12690017 15.3088006,1.11260149 15.932644,0.472575996 C16.2317524,0.170322463 16.6411162,0 17.0684633,0 C17.4958104,0 17.9051742,0.170322463 18.2042826,0.472575996 L23.4656631,5.78919589 L23.5335154,5.85218903 C23.8445051,6.16715466 24,6.5829093 24,7.00006378 C24,7.41721826 23.8445051,7.8329729 23.5335154,8.14793854 L23.534929,8.14793854 Z M7.54411432e-05,7.00006378 C7.54411432e-05,6.10416153 0.718178974,5.3804405 1.60449965,5.3804405 C2.49082033,5.3804405 3.20892387,6.10416153 3.20892387,7.00006378 C3.20892387,7.89596603 2.49082034,8.61968706 1.60449965,8.61968706 C1.17484966,8.61562271 0.764429692,8.4426962 0.463537537,8.13895363 C0.162645382,7.83521105 -0.00406838887,7.42553651 7.54411432e-05,7.00006378 L7.54411432e-05,7.00006378 Z" id="形状"></path>
            </g>
            <g id="箭头备份" opacity="0.119999997" transform="translate(249.000000, 154.000000) scale(1, -1) translate(-249.000000, -154.000000) translate(237.000000, 147.000000)" fill="#606266" fill-rule="nonzero">
                <path d="M23.534929,8.14793854 C23.5135124,8.17016973 23.4908598,8.19120013 23.4670767,8.21093166 L18.2071097,13.5275516 C17.5837167,14.1574828 16.5616914,14.1574828 15.9354712,13.5275516 C15.3116278,12.8875261 15.3116278,11.8732274 15.9354712,11.2332019 L18.5237538,8.61968706 L7.11608558,8.61968706 C6.22103724,8.61045443 5.50192363,7.88644218 5.5073893,7.00006378 C5.5073893,6.10836107 6.2297649,5.3804405 7.11184481,5.3804405 L18.519513,5.3804405 L15.932644,2.76692566 C15.3088006,2.12690017 15.3088006,1.11260149 15.932644,0.472575996 C16.2317524,0.170322463 16.6411162,0 17.0684633,0 C17.4958104,0 17.9051742,0.170322463 18.2042826,0.472575996 L23.4656631,5.78919589 L23.5335154,5.85218903 C23.8445051,6.16715466 24,6.5829093 24,7.00006378 C24,7.41721826 23.8445051,7.8329729 23.5335154,8.14793854 L23.534929,8.14793854 Z M7.54411432e-05,7.00006378 C7.54411432e-05,6.10416153 0.718178974,5.3804405 1.60449965,5.3804405 C2.49082033,5.3804405 3.20892387,6.10416153 3.20892387,7.00006378 C3.20892387,7.89596603 2.49082034,8.61968706 1.60449965,8.61968706 C1.17484966,8.61562271 0.764429692,8.4426962 0.463537537,8.13895363 C0.162645382,7.83521105 -0.00406838887,7.42553651 7.54411432e-05,7.00006378 L7.54411432e-05,7.00006378 Z" id="形状"></path>
            </g>
            <polygon id="多边形备份-3" fill="#6DD897" points="140 106 147.794229 119.5 132.205771 119.5"></polygon>
            <polygon id="多边形备份-9" fill="#6DD897" points="28.7279221 109.727922 36.5221507 123.227922 20.9336934 123.227922"></polygon>
            <polygon id="多边形备份-27" fill="#6DD897" points="72.7279221 153.727922 80.5221507 167.227922 64.9336934 167.227922"></polygon>
            <polygon id="多边形备份-12" fill="#6DD897" points="52.7279221 140.727922 60.5221507 154.227922 44.9336934 154.227922"></polygon>
            <polygon id="多边形备份-24" fill="#6DD897" points="29.7279221 179.727922 37.5221507 193.227922 21.9336934 193.227922"></polygon>
            <polygon id="多边形备份-20" fill="#6DD897" points="44.7279221 172.727922 52.5221507 186.227922 36.9336934 186.227922"></polygon>
            <polygon id="多边形备份-18" fill="#6DD897" points="34.7279221 162.727922 42.5221507 176.227922 26.9336934 176.227922"></polygon>
            <polygon id="多边形备份-17" fill="#6DD897" points="45.7279221 118.727922 53.5221507 132.227922 37.9336934 132.227922"></polygon>
            <polygon id="多边形备份-13" fill="#6DD897" points="42.7279221 100.727922 50.5221507 114.227922 34.9336934 114.227922"></polygon>
            <polygon id="多边形备份-6" fill="#6DD897" points="280.727922 106 288.522151 119.5 272.933693 119.5"></polygon>
            <polygon id="多边形备份-4" fill="#46A6FF" transform="translate(140.000000, 157.000000) rotate(-315.000000) translate(-140.000000, -157.000000) " points="140 148 149 157 140 166 131 157"></polygon>
            <polygon id="多边形备份-10" fill="#46A6FF" transform="translate(38.727922, 133.727922) rotate(-315.000000) translate(-38.727922, -133.727922) " points="38.7279221 124.727922 47.7279221 133.727922 38.7279221 142.727922 29.7279221 133.727922"></polygon>
            <polygon id="多边形备份-16" fill="#46A6FF" transform="translate(17.727922, 129.727922) rotate(-315.000000) translate(-17.727922, -129.727922) " points="17.7279221 120.727922 26.7279221 129.727922 17.7279221 138.727922 8.72792206 129.727922"></polygon>
            <polygon id="多边形备份-25" fill="#46A6FF" transform="translate(51.727922, 196.727922) rotate(-315.000000) translate(-51.727922, -196.727922) " points="51.7279221 187.727922 60.7279221 196.727922 51.7279221 205.727922 42.7279221 196.727922"></polygon>
            <polygon id="多边形备份-23" fill="#46A6FF" transform="translate(59.727922, 166.727922) rotate(-315.000000) translate(-59.727922, -166.727922) " points="59.7279221 157.727922 68.7279221 166.727922 59.7279221 175.727922 50.7279221 166.727922"></polygon>
            <polygon id="多边形备份-14" fill="#46A6FF" transform="translate(70.727922, 145.727922) rotate(-315.000000) translate(-70.727922, -145.727922) " points="70.7279221 136.727922 79.7279221 145.727922 70.7279221 154.727922 61.7279221 145.727922"></polygon>
            <polygon id="多边形备份-19" fill="#46A6FF" transform="translate(56.727922, 111.727922) rotate(-315.000000) translate(-56.727922, -111.727922) " points="56.7279221 102.727922 65.7279221 111.727922 56.7279221 120.727922 47.7279221 111.727922"></polygon>
            <polygon id="多边形备份-7" fill="#46A6FF" transform="translate(280.727922, 157.000000) rotate(-315.000000) translate(-280.727922, -157.000000) " points="280.727922 148 289.727922 157 280.727922 166 271.727922 157"></polygon>
            <polygon id="多边形备份-5" fill="#2F5EC2" transform="translate(140.000000, 201.000000) rotate(-360.000000) translate(-140.000000, -201.000000) " points="140 192 147.794229 196.5 147.794229 205.5 140 210 132.205771 205.5 132.205771 196.5"></polygon>
            <polygon id="多边形备份-11" fill="#2F5EC2" transform="translate(25.727922, 144.727922) rotate(-360.000000) translate(-25.727922, -144.727922) " points="25.7279221 135.727922 33.5221507 140.227922 33.5221507 149.227922 25.7279221 153.727922 17.9336934 149.227922 17.9336934 140.227922"></polygon>
            <polygon id="多边形备份-15" fill="#2F5EC2" transform="translate(40.727922, 156.727922) rotate(-360.000000) translate(-40.727922, -156.727922) " points="40.7279221 147.727922 48.5221507 152.227922 48.5221507 161.227922 40.7279221 165.727922 32.9336934 161.227922 32.9336934 152.227922"></polygon>
            <polygon id="多边形备份-26" fill="#2F5EC2" transform="translate(64.727922, 181.727922) rotate(-360.000000) translate(-64.727922, -181.727922) " points="64.7279221 172.727922 72.5221507 177.227922 72.5221507 186.227922 64.7279221 190.727922 56.9336934 186.227922 56.9336934 177.227922"></polygon>
            <polygon id="多边形备份-22" fill="#2F5EC2" transform="translate(19.727922, 170.727922) rotate(-360.000000) translate(-19.727922, -170.727922) " points="19.7279221 161.727922 27.5221507 166.227922 27.5221507 175.227922 19.7279221 179.727922 11.9336934 175.227922 11.9336934 166.227922"></polygon>
            <polygon id="多边形备份-21" fill="#2F5EC2" transform="translate(63.727922, 131.727922) rotate(-360.000000) translate(-63.727922, -131.727922) " points="63.7279221 122.727922 71.5221507 127.227922 71.5221507 136.227922 63.7279221 140.727922 55.9336934 136.227922 55.9336934 127.227922"></polygon>
            <polygon id="多边形备份-8" fill="#2F5EC2" transform="translate(280.727922, 201.000000) rotate(-360.000000) translate(-280.727922, -201.000000) " points="280.727922 192 288.522151 196.5 288.522151 205.5 280.727922 210 272.933693 205.5 272.933693 196.5"></polygon>
            <text id="Logs" font-family="PingFangSC-Regular, PingFang SC" font-size="10" font-weight="normal" fill="#000000" fill-opacity="0.45">
                <tspan x="33" y="70">Logs</tspan>
            </text>
            <text id="Anomaly-detection-re" font-family="PingFangSC-Regular, PingFang SC" font-size="10" font-weight="normal" fill="#000000" fill-opacity="0.45">
                <tspan x="127" y="70">Anomaly detection results</tspan>
            </text>
            <text id="Fault-diagnosis" font-family="PingFangSC-Regular, PingFang SC" font-size="10" font-weight="normal" fill="#000000" fill-opacity="0.45">
                <tspan x="294" y="70">Fault diagnosis</tspan>
            </text>
            <g id="路径-34" transform="translate(296.000000, 93.401329)">
                <mask id="mask-4" fill="white">
                    <use xlink:href="#path-3"></use>
                </mask>
                <use id="蒙版" fill="#6DD897" xlink:href="#path-3"></use>
                <polygon fill="#2FC297" mask="url(#mask-4)" points="16 16.5986708 4.20922578 4.96926029 11.3118737 -1"></polygon>
                <polygon id="路径-35" fill="#78E1B0" mask="url(#mask-4)" points="16 16.5986708 -2.22044605e-16 19.1760047 -0.994277757 12.4293433 4.20922578 4.96926029"></polygon>
            </g>
            <g id="路径-34备份" transform="translate(296.000000, 139.000000)">
                <mask id="mask-6" fill="white">
                    <use xlink:href="#path-5"></use>
                </mask>
                <use id="蒙版" fill="#46A6FF" xlink:href="#path-5"></use>
                <polygon id="路径-34" fill="#8AD3FF" mask="url(#mask-6)" points="16 16.5986708 4.20922578 4.96926029 11.3118737 -1"></polygon>
                <polygon id="路径-35" fill="#69B7EB" mask="url(#mask-6)" points="16 16.5986708 -2.22044605e-16 19.1760047 -0.994277757 12.4293433 4.20922578 4.96926029"></polygon>
                <polygon id="路径-36" fill="#379BCF" mask="url(#mask-6)" points="16 16.5986708 -7.10542736e-15 19.1760047 2.03124977 26.2981984"></polygon>
            </g>
            <g id="路径-34备份-2" transform="translate(296.000000, 186.000000)">
                <mask id="mask-8" fill="white">
                    <use xlink:href="#path-7"></use>
                </mask>
                <use id="蒙版" fill="#2F5EC2" xlink:href="#path-7"></use>
                <polygon id="路径-34" fill="#368EED" mask="url(#mask-8)" points="16 16.5986708 4.20922578 4.96926029 11.3118737 -1"></polygon>
                <polygon id="路径-35" fill="#5BA6F5" mask="url(#mask-8)" points="16 16.5986708 -2.22044605e-16 19.1760047 -0.994277757 12.4293433 4.20922578 4.96926029"></polygon>
                <polygon id="路径-36" fill="#2F8AE0" mask="url(#mask-8)" points="16 16.5986708 -7.10542736e-15 19.1760047 2.03124977 26.2981984"></polygon>
                <polygon id="路径-37" fill="#227ADA" mask="url(#mask-8)" points="16 16.5986708 1.01171618 10.0852846 -0.667711401 16.5 6.88338275e-15 19.1760047"></polygon>
            </g>
            <path d="M159,124.694526 L165.046113,119.959918 C165.812008,119.360159 166.898366,119.398464 167.620117,120.050679 L173.37037,125.246931 C174.904614,126.633361 177.242698,126.621834 178.763198,125.220345 L184.226927,120.184265 C184.998439,119.473139 186.188343,119.479133 186.952653,120.197995 L190.259653,123.308354 C191.703916,124.666739 193.97591,124.59712 195.334294,123.152857 C195.786967,122.671566 196.098037,122.074685 196.233248,121.427945 L201.044483,98.414849 C201.270523,97.3336553 202.330245,96.6404162 203.411439,96.8664561 C204.190913,97.0294168 204.799442,97.6392664 204.960714,98.4190913 L209.740965,121.533876 C210.148215,123.503125 212.074749,124.769375 214.043998,124.362125 C214.667313,124.23322 215.245948,123.94317 215.722206,123.520895 L219.256073,120.38759 C219.945029,119.776727 220.96202,119.715176 221.719619,120.23849 L228.170597,124.694526 L228.170597,124.694526" id="路径-33" stroke="#6DD897" stroke-width="2" stroke-linecap="round"></path>
            <path d="M159,169.694526 L163.561534,147.615515 C163.896761,145.992928 165.483883,144.949317 167.10647,145.284544 C168.296753,145.530457 169.221045,146.470251 169.447129,147.664459 L172.214713,162.28324 C172.625641,164.453824 174.71837,165.880306 176.888954,165.469378 C178.496116,165.165115 179.75609,163.912976 180.070373,162.307743 L183.078695,146.942429 C183.39704,145.316446 184.97323,144.256396 186.599214,144.574742 C187.771761,144.80431 188.696299,145.707779 188.952833,146.874723 L192.666366,163.76715 C193.071598,165.610504 194.894437,166.776331 196.73779,166.371099 C197.963362,166.101677 198.942698,165.18225 199.288845,163.976101 L200.342237,160.305563 C200.799281,158.712994 202.460821,157.792469 204.053391,158.249513 C205.004273,158.522403 205.759497,159.246525 206.07211,160.185098 L207.334792,163.976101 C207.976203,165.901836 210.057286,166.942986 211.983021,166.301575 C213.226977,165.887247 214.155989,164.841585 214.420979,163.5575 L217.738765,147.480213 C218.073625,145.85755 219.660511,144.81358 221.283174,145.148441 C222.457544,145.390789 223.374795,146.309174 223.615693,147.483843 L228.170597,169.694526 L228.170597,169.694526" id="路径-33备份" stroke="#46A6FF" stroke-width="2" stroke-linecap="round"></path>
            <path d="M159,210.694526 L165.889769,209.972636 C166.206223,209.939479 166.526021,209.982304 166.822601,210.097554 L174.615609,213.12589 C175.556221,213.491409 176.600231,213.487893 177.538361,213.116049 L184.851716,210.217265 C185.329584,210.027853 185.862036,210.029709 186.338572,210.222447 L190.487188,211.900383 C192.53516,212.728698 194.866852,211.739972 195.695168,209.692 C195.784337,209.471532 195.853668,209.24355 195.902335,209.010765 L201.044483,184.414849 C201.270523,183.333655 202.330245,182.640416 203.411439,182.866456 C204.190913,183.029417 204.799442,183.639266 204.960714,184.419091 L208.397514,201.037651 C208.844907,203.201013 210.961343,204.592079 213.124705,204.144686 C214.41739,203.877352 215.494949,202.989465 216.004545,201.771756 L219.829319,192.632231 C220.255734,191.613288 221.427428,191.132949 222.44637,191.559364 C222.953187,191.77146 223.350436,192.182707 223.54486,192.696562 L228.170597,204.922182 L228.170597,204.922182" id="路径-33备份-2" stroke="#2F5EC2" stroke-width="2" stroke-linecap="round"></path>
            <circle id="椭圆形" stroke="#FF6161" fill="#FFFFFF" cx="203" cy="96" r="2.5"></circle>
            <circle id="椭圆形备份-69" stroke="#FF6161" fill="#FFFFFF" cx="203" cy="157" r="2.5"></circle>
            <circle id="椭圆形备份-91" stroke="#FF6161" fill="#FFFFFF" cx="203" cy="182" r="2.5"></circle>
            <rect id="矩形" fill="#6DD897" x="344" y="96" width="5" height="30"></rect>
            <rect id="矩形备份-43" fill="#46A6FF" x="344" y="141.598671" width="5" height="30"></rect>
            <rect id="矩形备份-46" fill="#2F5EC2" x="344" y="188.598671" width="5" height="30"></rect>
            <polygon id="矩形备份-34" fill="#6DD897" points="357 106 362 106 362 126 357 126"></polygon>
            <polygon id="矩形备份-44" fill="#46A6FF" points="357 164.598671 362 164.598671 362 171.598671 357 171.598671"></polygon>
            <polygon id="矩形备份-47" fill="#2F5EC2" points="357 212.598671 362 212.598671 362 218.598671 357 218.598671"></polygon>
            <polygon id="矩形备份-35" fill="#6DD897" points="370 116 375 116 375 126 370 126"></polygon>
            <polygon id="矩形备份-45" fill="#46A6FF" points="370 167.598671 375 167.598671 375 171.598671 370 171.598671"></polygon>
            <polygon id="矩形备份-48" fill="#2F5EC2" points="370 214.598671 375 214.598671 375 218.598671 370 218.598671"></polygon>
        </g>
    </g>
</svg>