<?xml version="1.0" encoding="UTF-8"?>
<svg width="384px" height="240px" viewBox="0 0 384 240" version="1.1" xmlns="http://www.w3.org/2000/svg" xmlns:xlink="http://www.w3.org/1999/xlink">
	<title>编组 14</title>
	<defs>
		<path d="M26.3225806,0 C40.8601405,0 52.6451613,11.4965762 52.6451613,25.6783217 C52.6451613,39.8600671 40.8601405,51.3566434 26.3225806,51.3566434 C24.8702158,51.3566434 23.4453237,51.2418975 22.0569109,51.021192 L14.3225806,58.9090909 L14.3224741,48.5390928 C5.81871106,44.2825796 0,35.6433355 0,25.6783217 C0,11.4965762 11.7850208,0 26.3225806,0 Z" id="path-1"></path>
		<filter x="-34.2%" y="-30.6%" width="168.4%" height="161.1%" filterUnits="objectBoundingBox" id="filter-3">
			<feOffset dx="0" dy="0" in="SourceAlpha" result="shadowOffsetOuter1"></feOffset>
			<feGaussianBlur stdDeviation="6" in="shadowOffsetOuter1" result="shadowBlurOuter1"></feGaussianBlur>
			<feColorMatrix values="0 0 0 0 0.516081708   0 0 0 0 0.659637699   0 0 0 0 0.883440543  0 0 0 0.5 0" type="matrix" in="shadowBlurOuter1"></feColorMatrix>
		</filter>
	</defs>
	<g id="页面-1" stroke="none" stroke-width="1" fill="none" fill-rule="evenodd">
		<g id="概览" transform="translate(-232.000000, -350.000000)">
			<g id="编组-14" transform="translate(232.000000, 350.000000)">
				<g id="请求&amp;平均响应时间备份-6"></g>
				<circle id="椭圆形" fill="#FF9D9D" cx="85" cy="65" r="16"></circle>
				<circle id="椭圆形备份-5" fill="#FFCD68" cx="67" cy="115" r="12"></circle>
				<circle id="椭圆形备份-10" fill="#6DD897" opacity="0.8" cx="164" cy="127" r="12"></circle>
				<circle id="椭圆形备份-14" fill="#FF9D9D" cx="243" cy="115" r="12"></circle>
				<circle id="椭圆形备份-18" fill="#FFCD68" cx="321" cy="115" r="12"></circle>
				<circle id="椭圆形备份-22" fill="#6DD897" opacity="0.8" cx="321" cy="165" r="12"></circle>
				<circle id="椭圆形备份-12" fill="#6DD897" opacity="0.8" cx="164" cy="209" r="12"></circle>
				<circle id="椭圆形备份-19" fill="#6DD897" opacity="0.8" cx="321" cy="209" r="12"></circle>
				<circle id="椭圆形备份-7" fill="#6DD897" opacity="0.8" cx="67" cy="209" r="12"></circle>
				<circle id="椭圆形备份-6" fill="#6DD897" opacity="0.8" cx="107" cy="115" r="12"></circle>
				<circle id="椭圆形备份-11" fill="#6DD897" opacity="0.8" cx="204" cy="127" r="12"></circle>
				<circle id="椭圆形备份-16" fill="#6DD897" opacity="0.8" cx="283" cy="115" r="12"></circle>
				<circle id="椭圆形备份-20" fill="#6DD897" opacity="0.8" cx="361" cy="115" r="12"></circle>
				<circle id="椭圆形备份-23" fill="#6DD897" opacity="0.8" cx="361" cy="165" r="12"></circle>
				<circle id="椭圆形备份-13" fill="#6DD897" opacity="0.8" cx="204" cy="209" r="12"></circle>
				<circle id="椭圆形备份-17" fill="#6DD897" opacity="0.8" cx="283" cy="209" r="12"></circle>
				<circle id="椭圆形备份-21" fill="#6DD897" opacity="0.8" cx="361" cy="209" r="12"></circle>
				<circle id="椭圆形备份-8" fill="#6DD897" opacity="0.8" cx="97" cy="209" r="12"></circle>
				<circle id="椭圆形备份-9" fill="#6DD897" opacity="0.8" cx="125" cy="209" r="12"></circle>
				<circle id="椭圆形备份-2" fill="#6DD897" cx="184" cy="76" r="16"></circle>
				<circle id="椭圆形备份-3" fill="#FF9D9D" cx="261" cy="65" r="16"></circle>
				<circle id="椭圆形备份-4" fill="#FF9D9D" cx="341" cy="65" r="16"></circle>
				<path id="直线-5" d="M82.4359816,82.7957972 L83.2042028,83.4359816 L82.8841106,83.8200922 L73.325,95.289 L76.3985632,97.8509489 L67.1799078,101.884111 L69.4845716,92.0892893 L72.557,94.649 L82.1158894,83.1799078 L82.4359816,82.7957972 Z" fill="#C4C4C4" fill-rule="nonzero"></path>
				<path id="直线-5备份-2" d="M179.935982,93.7957972 L180.704203,94.4359816 L180.384111,94.8200922 L170.825,106.289 L173.898563,108.850949 L164.679908,112.884111 L166.984572,103.089289 L170.057,105.649 L179.615889,94.1799078 L179.935982,93.7957972 Z" fill="#C4C4C4" fill-rule="nonzero"></path>
				<path id="直线-5备份-4" d="M256.935982,82.7957972 L257.704203,83.4359816 L257.384111,83.8200922 L247.825,95.289 L250.898563,97.8509489 L241.679908,101.884111 L243.984572,92.0892893 L247.057,94.649 L256.615889,83.1799078 L256.935982,82.7957972 Z" fill="#C4C4C4" fill-rule="nonzero"></path>
				<path id="直线-5备份-6" d="M336.935982,82.7957972 L337.704203,83.4359816 L337.384111,83.8200922 L327.825,95.289 L330.898563,97.8509489 L321.679908,101.884111 L323.984572,92.0892893 L327.057,94.649 L336.615889,83.1799078 L336.935982,82.7957972 Z" fill="#C4C4C4" fill-rule="nonzero"></path>
				<path id="直线-5备份" d="M105.935982,82.7957972 L106.704203,83.4359816 L106.384111,83.8200922 L96.825,95.289 L99.8985632,97.8509489 L90.6799078,101.884111 L92.9845716,92.0892893 L96.057,94.649 L105.615889,83.1799078 L105.935982,82.7957972 Z" fill="#C4C4C4" fill-rule="nonzero"></path>
				<path id="直线-5备份-3" d="M203.435982,93.7957972 L204.204203,94.4359816 L203.884111,94.8200922 L194.325,106.289 L197.398563,108.850949 L188.179908,112.884111 L190.484572,103.089289 L193.557,105.649 L203.115889,94.1799078 L203.435982,93.7957972 Z" fill="#C4C4C4" fill-rule="nonzero"></path>
				<path id="直线-5备份-5" d="M280.435982,82.7957972 L281.204203,83.4359816 L280.884111,83.8200922 L271.325,95.289 L274.398563,97.8509489 L265.179908,101.884111 L267.484572,92.0892893 L270.557,94.649 L280.115889,83.1799078 L280.435982,82.7957972 Z" fill="#C4C4C4" fill-rule="nonzero"></path>
				<path id="直线-5备份-7" d="M360.435982,82.7957972 L361.204203,83.4359816 L360.884111,83.8200922 L351.325,95.289 L354.398563,97.8509489 L345.179908,101.884111 L347.484572,92.0892893 L350.557,94.649 L360.115889,83.1799078 L360.435982,82.7957972 Z" fill="#C4C4C4" fill-rule="nonzero"></path>
				<path id="直线-6" d="M67,134 L67,185 L71,185 L66.5,194 L62,185 L66,185 L66,134 L67,134 Z" fill="#C4C4C4" fill-rule="nonzero"></path>
				<path id="直线-6备份-3" d="M165.5,140 L165.5,185 L169.5,185 L165,194 L160.5,185 L164.5,185 L164.5,140 L165.5,140 Z" fill="#C4C4C4" fill-rule="nonzero"></path>
				<path id="直线-6备份-5" d="M244,140 L244,185 L248,185 L243.5,194 L239,185 L243,185 L243,140 L244,140 Z" fill="#C4C4C4" fill-rule="nonzero"></path>
				<path id="直线-6备份-4" d="M204.5,140 L204.5,185 L208.5,185 L204,194 L199.5,185 L203.5,185 L203.5,140 L204.5,140 Z" fill="#C4C4C4" fill-rule="nonzero"></path>
				<path id="直线-6备份-6" d="M281,140 L281,185 L285,185 L280.5,194 L276,185 L280,185 L280,140 L281,140 Z" fill="#C4C4C4" fill-rule="nonzero"></path>
				<path id="直线-6备份-7" d="M322,129.25 L322,143.75 L326,143.75 L321.5,152.75 L317,143.75 L321,143.75 L321,129.25 L322,129.25 Z" fill="#C4C4C4" fill-rule="nonzero"></path>
				<path id="直线-6备份-9" d="M322,178.09375 L322,187.906 L326,187.90625 L321.5,196.90625 L317,187.90625 L321,187.906 L321,178.09375 L322,178.09375 Z" fill="#C4C4C4" fill-rule="nonzero"></path>
				<path id="直线-6备份-8" d="M363.5,129.25 L363.499,143.75 L367.5,143.75 L363,152.75 L358.5,143.75 L362.499,143.75 L362.5,129.25 L363.5,129.25 Z" fill="#C4C4C4" fill-rule="nonzero"></path>
				<path id="直线-6备份-10" d="M363.5,178.09375 L363.499,187.906 L367.5,187.90625 L363,196.90625 L358.5,187.90625 L362.499,187.906 L362.5,178.09375 L363.5,178.09375 Z" fill="#C4C4C4" fill-rule="nonzero"></path>
				<path id="直线-6备份" d="M105.576022,133.648386 L106.5659,133.790308 L106.494939,134.285247 L99.201,185.156 L103.160789,185.724689 L97.4290389,193.994939 L94.2518889,184.447389 L98.211,185.015 L105.505061,134.143325 L105.576022,133.648386 Z" fill="#C4C4C4" fill-rule="nonzero"></path>
				<path id="直线-6备份-2" d="M123.612087,133.908795 L124.591205,134.112087 L124.489559,134.601646 L113.967,185.279 L117.88401,186.092307 L111.648354,193.989559 L109.071946,184.262683 L112.988,185.075 L123.510441,134.398354 L123.612087,133.908795 Z" fill="#C4C4C4" fill-rule="nonzero"></path>
				<g id="位图备份-2" transform="translate(211.000000, 176.000000) scale(-1, 1) translate(-211.000000, -176.000000) translate(177.000000, 140.000000)">
					<g id="位图" transform="translate(34.158017, 36.092597) rotate(16.000000) translate(-34.158017, -36.092597) translate(7.658017, 6.592597)">
						<mask id="mask-2" fill="white">
							<use xlink:href="#path-1"></use>
						</mask>
						<g id="蒙版">
							<use fill="black" fill-opacity="1" filter="url(#filter-3)" xlink:href="#path-1"></use>
							<use fill="#FF9D9D" fill-rule="evenodd" xlink:href="#path-1"></use>
						</g>
						<text id="根因No1：-80%" mask="url(#mask-2)" transform="translate(24.396588, 28.365767) scale(-1, 1) rotate(16.000000) translate(-24.396588, -28.365767) " font-family="PingFangSC-Medium, PingFang SC" font-size="10" font-weight="400" fill="#FFFFFF">
							<tspan x="0.726588204" y="23.8657669">根因No1：</tspan>
							<tspan x="48.0665882" y="23.8657669" font-size="12"></tspan>
							<tspan x="11.2205882" y="37.8657669" font-family="PingFangSC-Semibold, PingFang SC" font-size="12" font-weight="500">80%</tspan>
						</text>
					</g>
				</g>
				<g id="编组-6" transform="translate(231.000000, 197.000000)" fill="#FF9D9D">
					<circle id="椭圆形备份-15" cx="12" cy="12" r="12"></circle>
				</g>
				<path id="直线-7" d="M231,50 L240,54.5 L231,59 L231,55 L100,55 L100,54 L231,54 L231,50 Z" fill="#C4C4C4" fill-rule="nonzero"></path>
				<path id="直线-7备份-2" d="M158.532831,71.6885256 L167.499987,76.2536231 L158.467615,80.6882893 L158.496,76.688 L97.9963769,76.2499869 L97.49639,76.2463638 L97.5036362,75.24639 L98.0036231,75.2500131 L158.503,75.688 L158.532831,71.6885256 Z" fill="#C4C4C4" fill-rule="nonzero"></path>
				<path id="直线-7备份" d="M314,50 L323,54.5 L314,59 L314,55 L278,55 L278,54 L314,54 L314,50 Z" fill="#C4C4C4" fill-rule="nonzero"></path>
				<text id="根因-入口" font-family="PingFangSC-Regular, PingFang SC" font-size="12" font-weight="normal" fill="#000000" fill-opacity="0.65">
					<tspan x="16" y="63">根因</tspan>
					<tspan x="16" y="80">入口</tspan>
				</text>
				<g id="箭头" opacity="0.119999997" transform="translate(53.500000, 65.000000) scale(1, -1) translate(-53.500000, -65.000000) translate(43.000000, 59.000000)" fill="#606266" fill-rule="nonzero">
					<path d="M20.5930629,6.98394732 C20.5743234,7.00300262 20.5545023,7.02102868 20.5336921,7.03794142 L15.931221,11.5950442 C15.3857521,12.1349853 14.49148,12.1349853 13.9435373,11.5950442 C13.3976743,11.0464509 13.3976743,10.1770521 13.9435373,9.62845877 L16.2082846,7.3883032 L6.22657488,7.3883032 C5.44340759,7.38038951 4.81418317,6.75980759 4.81896563,6.00005467 C4.81896563,5.23573806 5.45104429,4.61180614 6.22286421,4.61180614 L16.2045739,4.61180614 L13.9410635,2.37165057 C13.3952006,1.82305728 13.3952006,0.953658422 13.9410635,0.405065139 C14.2027833,0.145990683 14.5609767,0 14.9349054,0 C15.3088341,0 15.6670274,0.145990683 15.9287472,0.405065139 L20.5324552,4.96216791 L20.591826,5.01616202 C20.863942,5.28613256 21,5.64249368 21,6.00005467 C21,6.35761565 20.863942,6.71397677 20.591826,6.98394732 L20.5930629,6.98394732 Z M6.60110005e-05,6.00005467 C6.60110005e-05,5.23213846 0.628406603,4.61180614 1.40393719,4.61180614 C2.17946779,4.61180614 2.80780839,5.23213846 2.80780839,6.00005467 C2.80780839,6.76797088 2.1794678,7.3883032 1.40393719,7.3883032 C1.02799345,7.38481947 0.66887598,7.23659674 0.405595345,6.97624597 C0.14231471,6.71589519 -0.00355984026,6.36474558 6.60110005e-05,6.00005467 L6.60110005e-05,6.00005467 Z" id="形状"></path>
				</g>
			</g>
		</g>
	</g>
</svg>