<?xml version="1.0" encoding="UTF-8"?>
<svg width="32px" height="28px" viewBox="0 0 32 28" version="1.1" xmlns="http://www.w3.org/2000/svg" xmlns:xlink="http://www.w3.org/1999/xlink">
    <title>形状结合</title>
    <g id="页面-1" stroke="none" stroke-width="1" fill="none" fill-rule="evenodd">
        <g id="单指标异常检测" transform="translate(0.000000, -2.000000)">
            <rect id="矩形" x="0" y="0" width="32" height="32"></rect>
            <path d="M25.6666667,27.6 C26.2189514,27.6 26.6666667,28.0477153 26.6666667,28.6 L26.6666667,28.7333333 C26.6666667,29.2856181 26.2189514,29.7333333 25.6666667,29.7333333 L6.33333333,29.7333333 C5.78104858,29.7333333 5.33333333,29.2856181 5.33333333,28.7333333 L5.33333333,28.6 C5.33333333,28.0477153 5.78104858,27.6 6.33333333,27.6 L25.6666667,27.6 Z M28.8,2 C30.5673112,2 32,3.4326888 32,5.2 L32,22.2666667 C32,24.0339779 30.5673112,25.4666667 28.8,25.4666667 L3.2,25.4666667 C1.4326888,25.4666667 0,24.0339779 0,22.2666667 L0,5.2 C0,3.4326888 1.4326888,2 3.2,2 L28.8,2 Z M28.8,4.13333333 L3.2,4.13333333 C2.6529751,4.13333333 2.2021257,4.54510954 2.14050958,5.07560413 L2.13333333,5.2 L2.133,16.261 L4.38156862,10.4652776 C4.73472043,11.0950033 5.30846237,11.5843475 5.99810979,11.8286255 L3.43751853,18.4308013 C3.23777826,18.9457015 2.65844765,19.2011892 2.1435474,19.0014489 L2.133,18.996 L2.13333333,22.2666667 C2.13333333,22.8136916 2.54510954,23.264541 3.07560413,23.3261571 L3.2,23.3333333 L28.8,23.3333333 C29.3470249,23.3333333 29.7978743,22.9215571 29.8594904,22.3910625 L29.8666667,22.2666667 L29.8666667,5.2 C29.8666667,4.6529751 29.4548905,4.2021257 28.9243959,4.14050958 L28.8,4.13333333 Z M18.0660785,7.09934094 C18.5520217,7.28036984 18.9464506,7.64210311 19.169624,8.10530788 L19.237563,8.26335898 L21.437097,14.0527249 C20.7383683,14.1853684 20.1254412,14.5603354 19.6890418,15.0868997 L17.3678901,8.97351622 L13.8712237,18.3597593 C13.6792694,18.87503 13.2836392,19.2885418 12.7773517,19.5030721 C11.8087489,19.9135004 10.6979339,19.5021018 10.2220678,18.5834389 L10.1555472,18.4418743 L7.4140859,11.971655 C8.11296216,11.8751661 8.73497089,11.5379429 9.19371527,11.0463824 L11.9970484,17.6615709 L15.4937148,8.27532785 C15.8793136,7.24024942 17.031,6.71374215 18.0660785,7.09934094 Z M22,15 C23.1045695,15 24,15.8954305 24,17 C24,18.1045695 23.1045695,19 22,19 C20.8954305,19 20,18.1045695 20,17 C20,15.8954305 20.8954305,15 22,15 Z M26.4413847,9.71346698 C26.8726064,9.89236 27.2258946,10.2156498 27.44262,10.6250838 L27.5173761,10.7825457 L29.7878488,16.157382 C30.0027603,16.6661369 29.7645532,17.2527843 29.2557983,17.4676958 C28.7833831,17.6672565 28.2438054,17.4761179 27.997063,17.0404566 L27.9454845,16.9356453 L25.6750118,11.560809 L24.2440792,15.0089434 C23.7954876,14.503715 23.1788757,14.1510286 22.481851,14.0384917 L23.8276698,10.7944361 C24.2509259,9.77417728 25.4211259,9.29021091 26.4413847,9.71346698 Z M7,7 C8.1045695,7 9,7.8954305 9,9 C9,10.1045695 8.1045695,11 7,11 C5.8954305,11 5,10.1045695 5,9 C5,7.8954305 5.8954305,7 7,7 Z" id="形状结合" fill="#1890FF" fill-rule="nonzero"></path>
        </g>
    </g>
</svg>