<?xml version="1.0" encoding="UTF-8"?>
<svg width="32px" height="28px" viewBox="0 0 32 28" version="1.1" xmlns="http://www.w3.org/2000/svg" xmlns:xlink="http://www.w3.org/1999/xlink">
    <title>形状结合</title>
    <g id="页面-1" stroke="none" stroke-width="1" fill="none" fill-rule="evenodd">
        <g id="单指标预测" transform="translate(0.000000, -2.000000)">
            <rect id="矩形" x="0" y="0" width="32" height="32"></rect>
            <path d="M25.3333333,27.5966667 C25.8856181,27.5966667 26.3333333,28.0443819 26.3333333,28.5966667 L26.3333333,28.73 C26.3333333,29.2822847 25.8856181,29.73 25.3333333,29.73 L6,29.73 C5.44771525,29.73 5,29.2822847 5,28.73 L5,28.5966667 C5,28.0443819 5.44771525,27.5966667 6,27.5966667 L25.3333333,27.5966667 Z M28.8,2 C30.5673112,2 32,3.4326888 32,5.2 L32,22.2666667 C32,24.0339779 30.5673112,25.4666667 28.8,25.4666667 L3.2,25.4666667 C1.4326888,25.4666667 0,24.0339779 0,22.2666667 L0,5.2 C0,3.4326888 1.4326888,2 3.2,2 L28.8,2 Z M28.8,4.13333333 L3.2,4.13333333 C2.6529751,4.13333333 2.2021257,4.54510954 2.14050958,5.07560413 L2.13333333,5.2 L2.13333333,22.2666667 C2.13333333,22.8136916 2.54510954,23.264541 3.07560413,23.3261571 L3.2,23.3333333 L28.8,23.3333333 C29.3470249,23.3333333 29.7978743,22.9215571 29.8594904,22.3910625 L29.8666667,22.2666667 L29.8666667,5.2 C29.8666667,4.6529751 29.4548905,4.2021257 28.9243959,4.14050958 L28.8,4.13333333 Z M22,21 L22,23 L21,23 L21,21 L22,21 Z M29.3780439,6.99100306 C29.7699236,7.31708238 29.8493066,7.87941532 29.5813578,8.29790788 L29.5071144,8.39931439 L26.13671,12.4498404 C25.1141645,13.6787278 23.4857359,14.1575179 22.0007607,13.7485387 L22,16 L21,16 L21,13.32 L19.8049138,12.6469557 C18.9709836,12.1767668 17.9293771,12.366026 17.3123211,13.0779177 L17.2079647,13.208943 L15.3876573,15.6994209 C15.3263636,15.7832807 15.26131,15.8643265 15.1926956,15.9423102 C13.9803122,17.3202436 11.9121413,17.4988673 10.4846941,16.3825375 L10.3288016,16.253167 C10.2902433,16.2192413 10.2498452,16.1874659 10.2077907,16.1579851 C9.61499815,15.7424294 8.81161002,15.851156 8.34826755,16.3873792 L8.26029615,16.5002951 L4.46987431,21.9073527 C4.15285219,22.3595865 3.52924704,22.4691972 3.07701323,22.1521751 C2.65956664,21.8595393 2.53405925,21.3056729 2.76656701,20.8665002 L2.83219083,20.759314 L6.62261267,15.3522565 C7.6999164,13.8154768 9.81904972,13.4429979 11.3558294,14.5203016 C11.4580391,14.591952 11.5562233,14.6691795 11.6499357,14.751633 C12.2496294,15.2792772 13.1635173,15.2208696 13.6911615,14.621176 L13.7332233,14.5711342 L15.5932883,12.028765 C16.7483401,10.4484655 18.8685426,9.94377355 20.6029005,10.8070486 L20.7871865,10.9047903 L21,11.024 L21,9 L22,9 L22,11.588 L22.0796737,11.6335241 C22.8716427,12.0800544 23.8574686,11.9337587 24.4858334,11.2959282 L24.5993282,11.1705996 L27.9697326,7.12007354 C28.3229852,6.69553727 28.9535077,6.63775045 29.3780439,6.99100306 Z M22,17 L22,20 L21,20 L21,17 L22,17 Z M22,5 L22,8 L21,8 L21,5 L22,5 Z" id="形状结合" fill="#1890FF" fill-rule="nonzero"></path>
        </g>
    </g>
</svg>