<?xml version="1.0" encoding="UTF-8"?>
<svg width="32px" height="32px" viewBox="0 0 32 32" version="1.1" xmlns="http://www.w3.org/2000/svg" xmlns:xlink="http://www.w3.org/1999/xlink">
    <title>矩形备份 49</title>
    <g id="页面-1" stroke="none" stroke-width="1" fill="none" fill-rule="evenodd">
        <g id="编组-27" transform="translate(-177.000000, -61.000000)">
            <rect id="矩形" fill="#FFFFFF" x="0" y="0" width="394" height="240" rx="2"></rect>
            <rect id="矩形备份-49" stroke="#1890FF" stroke-width="2" x="178" y="62" width="30" height="30" rx="4"></rect>
            <g id="检测" transform="translate(183.000000, 67.000000)" fill="#1890FF" fill-rule="nonzero">
                <path d="M19.8414286,19.1446429 L19.0714286,19.9132143 C18.8585714,20.1260714 18.5142857,20.1260714 18.3028571,19.9132143 L14.0028571,15.6132143 C12.5342857,16.7432143 10.7,17.4232143 8.70428571,17.4232143 C3.89571429,17.4232143 0,13.5260714 0,8.72035714 C0,3.91321429 3.89571429,0.0160714286 8.70285714,0.0160714286 C13.51,0.0160714286 17.4057143,3.91321429 17.4057143,8.71892857 C17.4057143,10.7446429 16.7071429,12.6032143 15.5471429,14.0817857 L19.84,18.3746429 C20.0528571,18.5875 20.0528571,18.9317857 19.8414286,19.1446429 Z M8.70285714,2.19178571 C5.09714286,2.19178571 2.17571429,5.11464286 2.17571429,8.71892857 C2.17571429,12.3232143 5.09857143,15.2460714 8.70285714,15.2460714 C12.3071429,15.2460714 15.23,12.3232143 15.23,8.71892857 C15.23,5.11464286 12.3085714,2.19178571 8.70285714,2.19178571 Z M11.4228571,9.8075 L9.79142857,9.8075 L9.79142857,11.4389286 C9.79142857,11.7389286 9.54714286,11.9832143 9.24714286,11.9832143 L8.15857143,11.9832143 C7.85857143,11.9832143 7.61428571,11.7389286 7.61428571,11.4389286 L7.61428571,9.8075 L5.98285714,9.8075 C5.68285714,9.8075 5.43857143,9.56464286 5.43857143,9.26321429 L5.43857143,8.17607143 C5.43857143,7.87607143 5.68142857,7.63178571 5.98285714,7.63178571 L7.61428571,7.63178571 L7.61428571,6.00035714 C7.61428571,5.70035714 7.85714286,5.45607143 8.15857143,5.45607143 L9.24714286,5.45607143 C9.54714286,5.45607143 9.79142857,5.69892857 9.79142857,6.00035714 L9.79142857,7.63178571 L11.4228571,7.63178571 C11.7228571,7.63178571 11.9671429,7.87607143 11.9671429,8.17607143 L11.9671429,9.26464286 C11.9671429,9.56464286 11.7228571,9.8075 11.4228571,9.8075 Z" id="形状"></path>
            </g>
        </g>
    </g>
</svg>