<?xml version="1.0" encoding="UTF-8"?>
<svg width="24px" height="24px" viewBox="0 0 24 24" version="1.1" xmlns="http://www.w3.org/2000/svg" xmlns:xlink="http://www.w3.org/1999/xlink">
    <title>实时日志</title>
    <g id="页面-1" stroke="none" stroke-width="1" fill="none" fill-rule="evenodd">
        <g id="DODB-ant-design风格-选择数据表类型弹窗备份" transform="translate(-764.000000, -361.000000)" fill-rule="nonzero">
            <g id="编组-17" transform="translate(390.000000, 107.000000)">
                <g id="Group-10备份-5" transform="translate(338.000000, 226.000000)">
                    <g id="编组-4" transform="translate(0.000000, 0.000000)">
                        <g id="实时日志" transform="translate(36.000000, 28.000000)">
                            <rect id="矩形" fill="#000000" opacity="0" x="0" y="0" width="24" height="24"></rect>
                            <path d="M11.415,19.585 L4.41499999,19.585 L4.41499999,16.18 L4.71,16.18 C5.19324916,16.18 5.585,15.7882492 5.585,15.305 C5.585,14.8217508 5.19324916,14.43 4.71,14.43 L4.41499999,14.43 L4.41499999,8.43 L4.71,8.43 C5.19324916,8.43 5.585,8.03824915 5.585,7.555 C5.585,7.07175084 5.19324916,6.67999999 4.71,6.67999999 L4.41499999,6.67999999 L4.41499999,3.25000001 L18.415,3.25000001 L18.415,11.14 C18.415,11.6232491 18.8067509,12.0149999 19.29,12.0149999 C19.7732491,12.0149999 20.165,11.6232491 20.165,11.14 L20.165,2.37499999 C20.165,1.89175084 19.7732492,1.5 19.29,1.5 L3.54,1.5 C3.05675085,1.5 2.66500001,1.89175084 2.66500001,2.37499999 L2.66500001,6.65500001 L2.37499999,6.65500001 C1.89175084,6.65500001 1.49999999,7.04675085 1.49999999,7.53 C1.49999999,8.01324915 1.89175084,8.40499999 2.37499999,8.40499999 L2.66500001,8.40499999 L2.66500001,14.43 L2.37499999,14.43 C1.89175083,14.43 1.49999999,14.8217508 1.49999999,15.305 C1.49999999,15.7882492 1.89175083,16.18 2.37499999,16.18 L2.66500001,16.18 L2.66500001,20.46 C2.6677316,20.9421132 3.05788684,21.3322684 3.54,21.335 L11.415,21.335 C11.8982492,21.335 12.29,20.9432492 12.29,20.46 C12.29,19.9767508 11.8982492,19.585 11.415,19.585 L11.415,19.585 Z" id="路径" fill="#1890FF"></path>
                            <path d="M16.085,7.62499999 C16.085,7.39293557 15.9928128,7.17037589 15.8287184,7.00628156 C15.6646241,6.84218723 15.4420644,6.75 15.21,6.75 L7.62499999,6.75 C7.14175083,6.75 6.74999999,7.14175085 6.74999999,7.625 C6.74999999,8.10824916 7.14175083,8.50000001 7.62499999,8.50000001 L15.21,8.50000001 C15.4420644,8.50000001 15.6646241,8.40781277 15.8287184,8.24371844 C15.9928128,8.0796241 16.085,7.85706442 16.085,7.62499999 L16.085,7.62499999 Z M7.62499999,10.57 C7.14175085,10.57 6.75000004,10.9617509 6.75000004,11.445 C6.75000004,11.9282491 7.14175085,12.32 7.62499999,12.32 L14.04,12.32 C14.5232492,12.32 14.915,11.9282492 14.915,11.445 C14.915,10.9617508 14.5232492,10.57 14.04,10.57 L7.62499999,10.57 Z M11.71,14.335 L7.62499999,14.335 C7.14175084,14.335 6.75,14.7267508 6.75,15.21 C6.75,15.6932492 7.14175084,16.085 7.62499999,16.085 L11.71,16.085 C12.1932492,16.085 12.585,15.6932492 12.585,15.21 C12.585,14.7267508 12.1932492,14.335 11.71,14.335 L11.71,14.335 Z M17.835,13.1649973 C15.9457076,13.1629772 14.2413222,14.2995028 13.5169193,16.0444011 C12.7925164,17.7892994 13.1908266,19.7987692 14.5260431,21.1354168 C15.8612596,22.4720644 17.8703015,22.872527 19.6159749,22.1499937 C21.3616482,21.4274604 22.5,19.7242935 22.5,17.835 C22.4972507,15.258921 20.4110746,13.1705089 17.835,13.1649973 L17.835,13.1649973 Z M17.835,20.7500043 C16.6530627,20.7520221 15.5864753,20.0413292 15.1332329,18.9497472 C14.6799905,17.8581652 14.9294953,16.6010096 15.7652525,15.7652525 C16.6010096,14.9294953 17.8581652,14.6799905 18.9497472,15.1332329 C20.0413292,15.5864753 20.7520221,16.6530627 20.7500043,17.835 C20.7472476,19.4437686 19.4437686,20.7472476 17.835,20.7500043 L17.835,20.7500043 Z" id="形状" fill="#1890FF"></path>
                            <path d="M18.345,17.25 L18.345,15.83 C18.3654965,15.6090076 18.2591712,15.3954481 18.0704766,15.2786061 C17.8817819,15.1617641 17.643218,15.1617641 17.4545234,15.2786061 C17.2658288,15.3954481 17.1595035,15.6090076 17.18,15.83 L17.18,17.83 C17.1799943,17.9846958 17.2417871,18.1329839 17.351642,18.2418999 C17.4614969,18.3508158 17.6103099,18.4113336 17.765,18.4100216 L19.765,18.4100216 C20.0658637,18.3820956 20.2959745,18.1296549 20.2959745,17.8275 C20.2959745,17.5253451 20.0658637,17.2729044 19.765,17.245 L18.345,17.25 Z" id="路径" fill="#1890FF"></path>
                        </g>
                    </g>
                </g>
            </g>
        </g>
    </g>
</svg>