<?xml version="1.0" encoding="UTF-8"?>
<svg width="24px" height="24px" viewBox="0 0 24 24" version="1.1" xmlns="http://www.w3.org/2000/svg" xmlns:xlink="http://www.w3.org/1999/xlink">
    <title>节点</title>
    <g id="页面-1" stroke="none" stroke-width="1" fill="none" fill-rule="evenodd">
        <g id="DODB-ant-design风格-选择数据表类型弹窗备份" transform="translate(-450.000000, -361.000000)">
            <g id="编组-17" transform="translate(390.000000, 107.000000)">
                <g id="Group-10备份-4" transform="translate(24.000000, 226.000000)">
                    <g id="编组-4" transform="translate(0.000000, 0.000000)">
                        <g id="节点" transform="translate(36.000000, 28.000000)">
                            <rect id="矩形" fill-opacity="0" fill="#D8D8D8" x="2.27373675e-13" y="0" width="24" height="24"></rect>
                            <path d="M20,2 C21.1045695,2 22,2.8954305 22,4 L22,20 C22,21.1045695 21.1045695,22 20,22 L4,22 C2.8954305,22 2,21.1045695 2,20 L2,4 C2,2.8954305 2.8954305,2 4,2 L20,2 Z M20,3.5 L4,3.5 C3.75454011,3.5 3.55039163,3.67687516 3.50805567,3.91012437 L3.5,4 L3.5,20 C3.5,20.2454599 3.67687516,20.4496084 3.91012437,20.4919443 L4,20.5 L20,20.5 C20.2454599,20.5 20.4496084,20.3231248 20.4919443,20.0898756 L20.5,20 L20.5,4 C20.5,3.75454011 20.3231248,3.55039163 20.0898756,3.50805567 L20,3.5 Z M7.65818906,6 C8.36894189,6 8.97534791,6.45556575 9.2003201,7.09031289 L9.2003201,7.09031289 L15.1415299,7.09031289 C16.7134074,7.09031289 17.9922706,8.31319657 17.9922706,9.81632932 C17.9922706,11.3194621 16.7134074,12.5423458 15.141647,12.5422286 L15.141647,12.5422286 L13.5425995,12.5422286 C13.3138797,13.1700662 12.7109871,13.6197763 12.0050358,13.6197763 C11.2987332,13.6197763 10.6959577,13.1701833 10.4674721,12.5422286 L10.4674721,12.5422286 L8.87006421,12.5422286 C7.92707825,12.5422286 7.1596432,13.275467 7.1596432,14.1778151 C7.15964319,15.0795776 7.92707824,15.8134015 8.87006421,15.8134015 L8.87006421,15.8134015 L14.7980403,15.8134015 C15.024535,15.1815822 15.6291843,14.72871 16.3381805,14.72871 C17.239943,14.72871 17.973884,15.4620655 17.9737669,16.3644136 C17.9737669,17.2661761 17.239943,18 16.3381805,18 C15.6250854,18 15.0175082,17.5413893 14.7941756,16.9039486 L14.7941756,16.9039486 L8.87006421,16.9039486 C7.29818672,16.9039486 6.01932348,15.6810649 6.01932348,14.1779322 C6.01932348,12.6747994 7.29818671,11.4519158 8.87006421,11.4519158 L8.87006421,11.4519158 L10.4585716,11.4519158 C10.6797962,10.8103761 11.2892472,10.3487205 12.0051529,10.3487205 C12.7205902,10.3487206 13.3303925,10.8104932 13.5517342,11.4519158 L13.5517342,11.4519158 L15.1415299,11.4519158 C16.0845158,11.4519158 16.8519509,10.7186774 16.8519509,9.81632932 C16.8519509,8.91456679 16.0845158,8.18074288 15.1415299,8.18074288 L15.1415299,8.18074288 L9.200203,8.18074288 C8.9751137,8.81525579 8.36882479,9.27105577 7.65818906,9.27105577 C6.75595807,9.27105577 6.02260262,8.53723186 6.02260262,7.63546932 C6.02260262,6.73323834 6.75595807,6 7.65818906,6 Z M16.3381805,15.5747272 C15.9026409,15.5747272 15.5486112,15.9287569 15.5486112,16.3642965 C15.5486112,16.7996018 15.9026409,17.1538657 16.3381805,17.1538657 C16.7734858,17.1538657 17.1277497,16.7996018 17.1277497,16.3642965 C17.1277497,15.9287569 16.7734858,15.5747272 16.3381805,15.5747272 Z M12.0050358,11.1948549 C11.5694962,11.1948549 11.2155837,11.5487674 11.2154666,11.9844241 C11.2154666,12.4197295 11.5694962,12.7739933 12.0050358,12.7739933 C12.4403412,12.7739933 12.794605,12.4197295 12.794605,11.9844241 C12.794605,11.5488845 12.4403412,11.1948549 12.0050358,11.1948549 Z M7.65736928,6.84707122 C7.22182968,6.84707122 6.86780005,7.20110086 6.86780005,7.63664045 C6.86780005,8.07194582 7.22182969,8.42620966 7.65736928,8.42620966 C8.09267464,8.42620966 8.44693849,8.07194582 8.44693849,7.63664045 C8.44693849,7.20110085 8.09267464,6.84707122 7.65736928,6.84707122 Z" id="形状结合" fill="#1890FF" fill-rule="nonzero"></path>
                        </g>
                    </g>
                </g>
            </g>
        </g>
    </g>
</svg>