<?xml version="1.0" encoding="UTF-8" standalone="no"?>
<svg width="16px" height="16px" viewBox="0 0 16 16" version="1.1" xmlns="http://www.w3.org/2000/svg" xmlns:xlink="http://www.w3.org/1999/xlink">
    <!-- Generator: Sketch 46.2 (44496) - http://www.bohemiancoding.com/sketch -->
    <title>铺满</title>
    <desc>Created with Sketch.</desc>
    <defs></defs>
    <g id="关联分析/关联分析（new0511）" stroke="none" stroke-width="1" fill="none" fill-rule="evenodd">
        <g id="关联分析-编辑-右侧编辑节点展开-初始化" transform="translate(-452.000000, -181.000000)" fill="#AEBAC5">
            <g id="mian" transform="translate(201.000000, 50.000000)">
                <g id="列表" transform="translate(16.000000, 65.000000)">
                    <g id="操作按钮" transform="translate(17.000000, 58.000000)">
                        <g id="铺满" transform="translate(210.000000, 0.000000)">
                            <g transform="translate(8.000000, 8.000000)" id="Combined-Shape">
                                <path d="M1,0 L15,0 C15.5522847,-1.01453063e-16 16,0.44771525 16,1 L16,15 C16,15.5522847 15.5522847,16 15,16 L1,16 C0.44771525,16 6.76353751e-17,15.5522847 0,15 L0,1 L0,1 C-6.76353751e-17,0.44771525 0.44771525,1.01453063e-16 1,0 L1,0 Z M1,1 L1,15 L15,15 L15,1 L1,1 Z"></path>
                                <path d="M8.23743687,2.15710683 L9.82688687,3.74655684 C10.022149,3.94181898 10.3387315,3.94181898 10.5339937,3.74655684 L10.5339937,3.74655684 L10.5339937,3.74655684 C10.7292558,3.55129469 10.7292558,3.2347122 10.5339937,3.03945006 L8.64798686,1.15344326 C8.53583476,1.04129116 8.38365941,0.993555505 8.23743687,1.0102363 C8.09121432,0.993555505 7.93903897,1.04129116 7.82688687,1.15344326 L5.94088008,3.03945006 C5.74561793,3.2347122 5.74561793,3.55129469 5.94088008,3.74655684 L5.94088008,3.74655684 L5.94088008,3.74655684 C6.13614222,3.94181898 6.45272471,3.94181898 6.64798686,3.74655684 L8.23743687,2.15710683 Z"></path>
                                <path d="M8.23743687,13.2909872 L9.76776695,14.8213173 C9.9630291,15.0165794 10.2796116,15.0165794 10.4748737,14.8213173 L10.4748737,14.8213173 L10.4748737,14.8213173 C10.6701359,14.6260551 10.6701359,14.3094727 10.4748737,14.1142105 L8.70710678,12.3464436 C8.57972616,12.2190629 8.40071528,12.17478 8.23743687,12.2135946 C8.07415845,12.17478 7.89514758,12.2190629 7.76776695,12.3464436 L6,14.1142105 L6,14.1142105 C5.80473785,14.3094727 5.80473785,14.6260551 6,14.8213173 L6,14.8213173 L6,14.8213173 C6.19526215,15.0165794 6.51184464,15.0165794 6.70710678,14.8213173 L8.23743687,13.2909872 Z" transform="translate(8.237437, 13.583880) rotate(-180.000000) translate(-8.237437, -13.583880) "></path>
                                <path d="M2.41993198,7.7609499 L3.95026207,9.29127998 C4.14552422,9.48654213 4.46210671,9.48654213 4.65736885,9.29127998 L4.65736885,9.29127998 L4.65736885,9.29127998 C4.852631,9.09601784 4.852631,8.77943535 4.65736885,8.5841732 L2.8896019,6.81640625 C2.76222128,6.68902563 2.5832104,6.64474264 2.41993198,6.68355729 C2.25665357,6.64474264 2.07764269,6.68902563 1.95026207,6.81640625 L0.182495117,8.5841732 L0.182495117,8.5841732 C-0.0127670287,8.77943535 -0.0127670287,9.09601784 0.182495117,9.29127998 L0.182495117,9.29127998 L0.182495117,9.29127998 C0.377757263,9.48654213 0.694339752,9.48654213 0.889601898,9.29127998 L2.41993198,7.7609499 Z" transform="translate(2.419932, 8.053843) rotate(-90.000000) translate(-2.419932, -8.053843) "></path>
                                <path d="M13.5838957,7.76098843 L15.1142258,9.29131851 C15.3094879,9.48658066 15.6260704,9.48658066 15.8213326,9.29131851 L15.8213326,9.29131851 L15.8213326,9.29131851 C16.0165947,9.09605637 16.0165947,8.77947388 15.8213326,8.58421173 L14.0535656,6.81644478 C13.926185,6.68906416 13.7471741,6.64478117 13.5838957,6.68359582 C13.4206173,6.64478117 13.2416064,6.68906416 13.1142258,6.81644478 L11.3464588,8.58421173 L11.3464588,8.58421173 C11.1511967,8.77947388 11.1511967,9.09605637 11.3464588,9.29131851 L11.3464588,9.29131851 L11.3464588,9.29131851 C11.541721,9.48658066 11.8583035,9.48658066 12.0535656,9.29131851 L13.5838957,7.76098843 Z" transform="translate(13.583896, 8.053882) rotate(-270.000000) translate(-13.583896, -8.053882) "></path>
                            </g>
                        </g>
                    </g>
                </g>
            </g>
        </g>
    </g>
</svg>