<?xml version="1.0" encoding="UTF-8"?>
<svg width="32px" height="28px" viewBox="0 0 32 28" version="1.1" xmlns="http://www.w3.org/2000/svg" xmlns:xlink="http://www.w3.org/1999/xlink">
    <title>形状结合</title>
    <g id="页面-1" stroke="none" stroke-width="1" fill="none" fill-rule="evenodd">
        <g id="CH数据源" transform="translate(0.000000, -2.000000)" fill="#1890FF" fill-rule="nonzero">
            <path d="M25.6666667,27.6 C26.2189514,27.6 26.6666667,28.0477153 26.6666667,28.6 L26.6666667,28.7333333 C26.6666667,29.2856181 26.2189514,29.7333333 25.6666667,29.7333333 L6.33333333,29.7333333 C5.78104858,29.7333333 5.33333333,29.2856181 5.33333333,28.7333333 L5.33333333,28.6 C5.33333333,28.0477153 5.78104858,27.6 6.33333333,27.6 L25.6666667,27.6 Z M28.8,2 C30.5673112,2 32,3.4326888 32,5.2 L32,22.2666667 C32,24.0339779 30.5673112,25.4666667 28.8,25.4666667 L3.2,25.4666667 C1.4326888,25.4666667 0,24.0339779 0,22.2666667 L0,5.2 C0,3.4326888 1.4326888,2 3.2,2 L28.8,2 Z M28.8,4.13333333 L3.2,4.13333333 C2.6529751,4.13333333 2.2021257,4.54510954 2.14050958,5.07560413 L2.13333333,5.2 L2.13333333,22.2666667 C2.13333333,22.8136916 2.54510954,23.264541 3.07560413,23.3261571 L3.2,23.3333333 L28.8,23.3333333 C29.3470249,23.3333333 29.7978743,22.9215571 29.8594904,22.3910625 L29.8666667,22.2666667 L29.8666667,5.2 C29.8666667,4.6529751 29.4548905,4.2021257 28.9243959,4.14050958 L28.8,4.13333333 Z M10.4106667,8.4 C11.6650667,8.4 12.7104,8.72853333 13.5168,9.3856 C14.2933333,10.0128 14.7562667,10.8789333 14.9205333,11.9541333 L14.9205333,11.9541333 L13.2181333,11.9541333 C13.0389333,11.2522667 12.7104,10.7445333 12.2176,10.416 C11.7397333,10.0874667 11.1274667,9.93813333 10.3808,9.93813333 C9.2608,9.93813333 8.42453333,10.3114667 7.85706667,11.088 C7.3344,11.7749333 7.08053333,12.7306667 7.08053333,13.9552 C7.08053333,15.2096 7.3344,16.1802667 7.84213333,16.8522667 C8.39466667,17.5690667 9.2608,17.9424 10.4256,17.9424 C11.1872,17.9424 11.8144,17.7482667 12.2922667,17.3898667 C12.8,16.9866667 13.1584,16.3744 13.3674667,15.568 L13.3674667,15.568 L15.0698667,15.568 C14.8309333,16.8224 14.2784,17.7930667 13.3973333,18.4949333 C12.576,19.152 11.5904,19.4805333 10.4405333,19.4805333 C8.66346667,19.4805333 7.3344,18.9130667 6.46826667,17.808 C5.70666667,16.8522667 5.33333333,15.568 5.33333333,13.9552 C5.33333333,12.3722667 5.7216,11.0730667 6.51306667,10.0874667 C7.40906667,8.95253333 8.70826667,8.4 10.4106667,8.4 Z M18.4597333,8.60906667 L18.4597333,13.0592 L23.8656,13.0592 L23.8656,8.60906667 L25.6128,8.60906667 L25.6128,19.2714667 L23.8656,19.2714667 L23.8656,14.5525333 L18.4597333,14.5525333 L18.4597333,19.2714667 L16.7125333,19.2714667 L16.7125333,8.60906667 L18.4597333,8.60906667 Z" id="形状结合"></path>
        </g>
    </g>
</svg>