<?xml version="1.0" encoding="UTF-8"?>
<svg width="28px" height="32px" viewBox="0 0 28 32" version="1.1" xmlns="http://www.w3.org/2000/svg" xmlns:xlink="http://www.w3.org/1999/xlink">
    <title>形状结合</title>
    <g id="页面-1" stroke="none" stroke-width="1" fill="none" fill-rule="evenodd">
        <g id="离线文件数据源" transform="translate(-3.000000, 0.000000)" fill="#1890FF" fill-rule="nonzero">
            <path d="M19.2057143,0 C20.1137277,0.00574092841 20.9834093,0.366740851 21.6285714,1.00571429 L21.6285714,1.00571429 L29.4228571,8.8 C30.0618306,9.44516214 30.4228305,10.3148438 30.4285714,11.2228571 L30.4285714,11.2228571 L30.4285714,28.5714286 C30.4285714,30.4649763 28.8935477,32 27,32 L27,32 L6.42857143,32 C4.53502371,32 3,30.4649763 3,28.5714286 L3,28.5714286 L3,3.42857143 C3,1.53502371 4.53502371,0 6.42857143,0 L6.42857143,0 Z M19,2.28571429 L6.42857143,2.28571429 C5.79738886,2.28571429 5.28571429,2.79738886 5.28571429,3.42857143 L5.28571429,3.42857143 L5.28571429,28.5714286 C5.28571429,29.2026111 5.79738886,29.7142857 6.42857143,29.7142857 L6.42857143,29.7142857 L27,29.7142857 C27.6311826,29.7142857 28.1428571,29.2026111 28.1428571,28.5714286 L28.1428571,28.5714286 L28.1428571,11.4285714 L22.4285714,11.4285714 C20.5350237,11.4285714 19,9.89354771 19,8 L19,8 L19,2.28571429 Z M10.5922286,15.85152 C11.4216686,15.85152 12.1128686,16.0687543 12.64608,16.5032229 C13.1595429,16.9179429 13.4656457,17.4906514 13.5742629,18.2016 L13.5742629,18.2016 L12.4485943,18.2016 C12.3301029,17.7375086 12.1128686,17.4017829 11.7870171,17.1845486 C11.47104,16.9673143 11.0661943,16.8685714 10.57248,16.8685714 C9.83190857,16.8685714 9.27894857,17.1154286 8.90372571,17.6288914 C8.55812571,18.0831086 8.39026286,18.7150629 8.39026286,19.5247543 C8.39026286,20.3541943 8.55812571,20.9960229 8.89385143,21.4403657 C9.2592,21.9143314 9.83190857,22.1611886 10.6021029,22.1611886 C11.1056914,22.1611886 11.5204114,22.0328229 11.8363886,21.79584 C12.1721143,21.5292343 12.4090971,21.1243886 12.5473371,20.5911771 L12.5473371,20.5911771 L13.6730057,20.5911771 C13.5150171,21.4206171 13.1496686,22.0624457 12.5670857,22.5265371 C12.024,22.9610057 11.3722971,23.17824 10.6119771,23.17824 C9.43693714,23.17824 8.55812571,22.8030171 7.98541714,22.07232 C7.48182857,21.4403657 7.23497143,20.5911771 7.23497143,19.5247543 C7.23497143,18.47808 7.49170286,17.6190171 8.01504,16.9673143 C8.60749714,16.2168686 9.46656,15.85152 10.5922286,15.85152 Z M17.2474971,15.85152 C18.0769371,15.85152 18.72864,16.0193829 19.1927314,16.3649829 C19.6864457,16.7303314 19.9728,17.30304 20.04192,18.0732343 L20.04192,18.0732343 L18.8965029,18.0732343 C18.79776,17.6387657 18.6101486,17.3227886 18.3534171,17.1351771 C18.0966857,16.9376914 17.7017143,16.8488229 17.1882514,16.8488229 C16.7439086,16.8488229 16.4081829,16.9080686 16.1712,17.0364343 C15.8749714,17.1845486 15.7367314,17.4314057 15.7367314,17.7671314 C15.7367314,18.06336 15.89472,18.3102171 16.2304457,18.4879543 C16.37856,18.5669486 16.7834057,18.7150629 17.4351086,18.9224229 C18.3929143,19.2186514 19.00512,19.4556343 19.2816,19.6136229 C19.8938057,19.9789714 20.1999086,20.48256 20.1999086,21.1342629 C20.1999086,21.7662171 19.9530514,22.2698057 19.4593371,22.6351543 C18.9656229,22.9906286 18.2645486,23.17824 17.3659886,23.17824 C16.4970514,23.17824 15.8157257,23.0103771 15.3318857,22.6746514 C14.7394286,22.2599314 14.4135771,21.6082286 14.3642057,20.7096686 L14.3642057,20.7096686 L15.5096229,20.7096686 C15.5886171,21.24288 15.7762286,21.6279771 16.0823314,21.8550857 C16.3588114,22.0525714 16.7834057,22.1611886 17.3659886,22.1611886 C17.8794514,22.1611886 18.2941714,22.07232 18.5904,21.9044571 C18.8866286,21.72672 19.0446171,21.4996114 19.0446171,21.2033829 C19.0446171,20.82816 18.8175086,20.5319314 18.38304,20.3146971 C18.2448,20.2455771 17.7905829,20.0875886 17.0105143,19.8506057 C16.1415771,19.5741257 15.5984914,19.37664 15.3911314,19.2581486 C14.8480457,18.9322971 14.58144,18.4583314 14.58144,17.8362514 C14.58144,17.2141714 14.8381714,16.7204571 15.3713829,16.3649829 C15.8650971,16.0193829 16.4871771,15.85152 17.2474971,15.85152 Z M21.7995429,15.98976 L23.7349029,21.7365943 L23.7645257,21.7365943 L25.6998857,15.98976 L26.95392,15.98976 L24.4458514,23.04 L23.0535771,23.04 L20.5455086,15.98976 L21.7995429,15.98976 Z M16.2571429,9.14285714 C16.5619048,9.14285714 16.7142857,9.2952381 16.7142857,9.6 L16.7142857,10.9714286 C16.7142857,11.2761905 16.5619048,11.4285714 16.2571429,11.4285714 L8.02857143,11.4285714 C7.72380952,11.4285714 7.57142857,11.2761905 7.57142857,10.9714286 L7.57142857,9.6 C7.57142857,9.2952381 7.72380952,9.14285714 8.02857143,9.14285714 L16.2571429,9.14285714 Z M21.2857143,3.90857143 L21.2857143,8 C21.2857143,8.63118257 21.7973889,9.14285714 22.4285714,9.14285714 L22.4285714,9.14285714 L26.52,9.14285714 L21.2857143,3.90857143 Z" id="形状结合"></path>
        </g>
    </g>
</svg>