<?xml version="1.0" encoding="UTF-8"?>
<svg width="24px" height="24px" viewBox="0 0 24 24" version="1.1" xmlns="http://www.w3.org/2000/svg" xmlns:xlink="http://www.w3.org/1999/xlink">
    <title>Http请求模板</title>
    <g id="页面-1" stroke="none" stroke-width="1" fill="none" fill-rule="evenodd">
        <g id="DODB-ant-design风格-创建数据表-选择数据源类型弹窗" transform="translate(-764.000000, -216.000000)" fill-rule="nonzero">
            <g id="编组-17" transform="translate(390.000000, 68.000000)">
                <g id="Group-10备份-3" transform="translate(338.000000, 0.000000)">
                    <g id="编组-4" transform="translate(0.000000, 0.000000)">
                        <g id="Http请求模板" transform="translate(36.000000, 148.000000)">
                            <rect id="矩形" fill="#000000" opacity="0" x="0" y="0" width="24" height="24"></rect>
                            <path d="M3,20 C1.8954305,20 1,19.1045695 1,18 L1,5 C1,3.8954305 1.8954305,3 3,3 L21,3 C22.1045695,3 23,3.8954305 23,5 L23,18 C23,19.1045695 22.1045695,20 21,20 L3,20 Z M21,4.4 L3,4.4 C2.70176624,4.4 2.45435325,4.61758961 2.40785299,4.90267688 L2.4,5 L2.4,18 C2.4,18.2982338 2.61758961,18.5456468 2.90267688,18.592147 L3,18.6 L6,18.6 L6,18 C6,17.4477153 6.44771525,17 7,17 C7.55228475,17 8,17.4477153 8,18 L8,18.6 L11,18.6 L11,18 C11,17.4477153 11.4477153,17 12,17 C12.5522847,17 13,17.4477153 13,18 L13,18.6 L16,18.6 L16,18 C16,17.4477153 16.4477153,17 17,17 C17.5522847,17 18,17.4477153 18,18 L18,18.6 L21,18.6 C21.2982338,18.6 21.5456468,18.3824104 21.592147,18.0973231 L21.6,18 L21.6,5 C21.6,4.70176624 21.3824104,4.45435325 21.0973231,4.40785299 L21,4.4 Z M18.288,8.944 C18.864,8.944 19.344,9.136 19.728,9.472 C20.064,9.808 20.256,10.336 20.256,11.056 C20.256,11.728 20.064,12.304 19.68,12.688 C19.344,13.024 18.864,13.216 18.288,13.216 C17.952,13.216 17.616,13.168 17.376,13.024 C17.184,12.928 17.088,12.88 16.896,12.736 L16.896,13.456 C16.896,13.84 16.896,14.128 16.944,14.416 L15.552,14.416 L15.552,14.32 C15.6,14.032 15.6,13.696 15.6,13.36 L15.6,10.096 C15.6,9.664 15.6,9.376 15.552,9.04 L16.896,9.04 L16.896,9.424 C17.28,9.088 17.712,8.944 18.288,8.944 Z M10.992,7.936 C10.956,8.152 10.947,8.368 10.94475,8.60425 L10.944,8.992 L11.184,8.992 C11.472,8.992 11.616,8.992 11.856,8.944 L11.856,10.048 C11.664,10 11.472,10 11.232,10 L10.944,10 L10.944,11.728 C10.944,11.92 10.992,12.016 11.088,12.064 C11.184,12.112 11.28,12.16 11.376,12.16 C11.568,12.16 11.664,12.112 11.856,12.016 L11.952,13.024 C11.664,13.12 11.376,13.168 11.04,13.168 C10.56,13.168 10.272,13.072 10.032,12.928 C9.792,12.736 9.696,12.496 9.696,12.064 L9.696,10 L9.456,10 C9.264,10 9.072,10 8.88,10.048 L8.88,8.944 C9.024,8.98 9.168,8.989 9.312,8.99125 L9.696,8.992 L9.696,8.848 L9.648,8.848 C9.648,8.512 9.648,8.224 9.6,7.936 L10.992,7.936 Z M14.208,7.936 C14.172,8.152 14.163,8.368 14.16075,8.60425 L14.16,8.992 L14.4,8.992 C14.688,8.992 14.832,8.992 15.072,8.944 L15.072,10.048 C14.88,10 14.688,10 14.448,10 L14.16,10 L14.16,11.728 C14.16,11.92 14.208,12.016 14.304,12.064 C14.4,12.112 14.496,12.16 14.592,12.16 C14.784,12.16 14.88,12.112 15.072,12.016 L15.168,13.024 C14.88,13.12 14.592,13.168 14.256,13.168 C13.776,13.168 13.488,13.072 13.248,12.928 C13.008,12.736 12.912,12.496 12.912,12.064 L12.912,10 L12.672,10 C12.48,10 12.288,10 12.096,10.048 L12.096,8.944 C12.24,8.98 12.384,8.989 12.528,8.99125 L12.912,8.992 L12.912,8.848 L12.864,8.848 C12.864,8.512 12.864,8.224 12.816,7.936 L14.208,7.936 Z M5.568,7.504 C5.52685714,7.75085714 5.52097959,7.96244898 5.52013994,8.32013994 L5.52,9.472 C5.904,9.088 6.336,8.896 6.912,8.896 C7.392,8.896 7.728,9.04 7.968,9.28 C8.256,9.568 8.352,9.856 8.352,10.432 L8.352,12.112 C8.352,12.496 8.352,12.832 8.4,13.12 L7.008,13.12 C7.056,12.784 7.056,12.496 7.056,12.112 L7.056,10.72 C7.056,10.432 7.008,10.336 6.96,10.192 C6.864,10.048 6.72,10 6.528,10 C6.144,10 5.76,10.24 5.52,10.72 L5.52,12.064 C5.52,12.448 5.52,12.736 5.568,13.072 L4.176,13.072 C4.224,12.736 4.224,12.496 4.224,12.064 L4.224,8.512 C4.224,8.032 4.224,7.744 4.176,7.504 L5.568,7.504 Z M17.904,9.856 C17.328,9.856 16.896,10.336 16.896,10.96 C16.896,11.584 17.328,12.064 17.952,12.064 C18.192,12.112 18.432,12.016 18.624,11.824 C18.816,11.632 18.912,11.344 18.912,10.96 C18.912,10.288 18.528,9.856 17.904,9.856 Z" id="形状结合" fill="#1890FF"></path>
                        </g>
                    </g>
                </g>
            </g>
        </g>
    </g>
</svg>