<?xml version="1.0" encoding="UTF-8"?>
<svg width="22px" height="22px" viewBox="0 0 22 22" version="1.1" xmlns="http://www.w3.org/2000/svg" xmlns:xlink="http://www.w3.org/1999/xlink">
    <title>apachekafka</title>
    <g id="页面-1" stroke="none" stroke-width="1" fill="none" fill-rule="evenodd">
        <g id="DODB-ant-design风格-创建数据表-选择数据源类型弹窗" transform="translate(-451.000000, -216.000000)" fill-rule="nonzero">
            <g id="编组-17" transform="translate(390.000000, 68.000000)">
                <g id="Group-10备份-2" transform="translate(24.000000, 119.000000)">
                    <g id="编组-4" transform="translate(0.000000, 0.000000)">
                        <g id="apachekafka" transform="translate(37.000000, 29.000000)">
                            <rect id="矩形" fill="#000000" opacity="0" x="0" y="0" width="21.3333333" height="21.3333333"></rect>
                            <path d="M16.024,11.816 C15.1928889,11.816 14.4488889,12.184 13.9386667,12.7635556 L12.632,11.8382222 C12.7706667,11.456 12.8506667,11.0462222 12.8506667,10.6168889 C12.8506667,10.1946667 12.7742222,9.792 12.64,9.4151111 L13.944,8.49955556 C14.4698645,9.09825067 15.2280393,9.4415507 16.0248889,9.44177777 C17.5582222,9.44177777 18.8062222,8.19466667 18.8062222,6.66044444 C18.8062222,5.12622221 17.5582222,3.8791111 16.0248889,3.8791111 C15.1479241,3.88052998 14.3228895,4.29507657 13.7983345,4.9978648 C13.2737796,5.70065304 13.1110283,6.60952212 13.3591111,7.45066667 L12.0542222,8.36622223 C11.4975355,7.67616518 10.7054663,7.21618255 9.83022223,7.07466667 L9.83022223,5.50222223 C11.1162524,5.23000751 12.0369863,4.095856 12.0391111,2.78133333 C12.0391111,1.2471111 10.7911111,-1.52766688e-13 9.25777779,-1.52766688e-13 C7.72444446,-1.52766688e-13 6.47733333,1.2471111 6.47733333,2.78133333 C6.47943592,4.07645895 7.37436328,5.19907881 8.63644446,5.48977777 L8.63644446,7.08266667 C6.92110704,7.38583144 5.66979622,8.87496997 5.66666667,10.6168889 C5.66982118,12.3686802 6.93499044,13.8632318 8.66222223,14.1555556 L8.66222223,15.8373333 C7.3881709,16.118862 6.48038882,17.2472163 6.47822223,18.552 C6.47733333,20.0862222 7.72444446,21.3333333 9.25777779,21.3333333 C10.7911111,21.3333333 12.0391111,20.0862222 12.0391111,18.552 C12.0372784,17.2470984 11.1293492,16.1185611 9.85511113,15.8373333 L9.85511113,14.1555556 C10.714101,14.0106633 11.4911943,13.5586224 12.0417778,12.8835556 L13.3573333,13.8151111 C13.2821933,14.0690687 13.2438771,14.332493 13.2435556,14.5973333 C13.2435556,16.1306667 14.4915556,17.3786667 16.0248889,17.3786667 C17.5582222,17.3786667 18.8062222,16.1315556 18.8062222,14.5973333 C18.8062222,13.0631111 17.5573333,11.816 16.024,11.816 L16.024,11.816 Z M16.024,5.3128889 C16.768,5.3128889 17.3724445,5.91822223 17.3724445,6.66133333 C17.3724445,7.40444444 16.768,8.00977777 16.024,8.00977777 C15.2808889,8.00977777 14.6755556,7.40444444 14.6755556,6.66133333 C14.6755556,5.91822223 15.2808889,5.3128889 16.024,5.3128889 Z M7.90933333,2.78133333 C7.90933333,2.03822223 8.51377777,1.4328889 9.25777779,1.4328889 C10.0017778,1.4328889 10.6062222,2.03822223 10.6062222,2.78133333 C10.6062222,3.52444444 10.0017778,4.12977777 9.25777779,4.12977777 C8.51377779,4.12977777 7.90933333,3.52444444 7.90933333,2.78133333 L7.90933333,2.78133333 Z M10.6062222,18.552 C10.6062222,19.2951111 10.0017778,19.9004444 9.25777779,19.9004444 C8.51377779,19.9004444 7.90933333,19.2951111 7.90933333,18.552 C7.90933333,17.8088889 8.51377777,17.2035556 9.25777779,17.2035556 C10.0017778,17.2035556 10.6062222,17.8088889 10.6062222,18.552 Z M9.25777779,12.4977778 C8.21939777,12.4967977 7.37786897,11.6552689 7.3768889,10.6168889 C7.3768889,9.57955556 8.22044446,8.736 9.25777779,8.736 C10.2951111,8.736 11.1386667,9.57955556 11.1386667,10.6168889 C11.1376866,11.6552689 10.2961578,12.4967977 9.25777779,12.4977778 L9.25777779,12.4977778 Z M16.024,15.9457778 C15.2796807,15.9447984 14.6765349,15.3416526 14.6755556,14.5973333 C14.6755556,13.8542222 15.28,13.2488889 16.024,13.2488889 C16.768,13.2488889 17.3724445,13.8542222 17.3724445,14.5973333 C17.3724445,15.3404444 16.768,15.9457778 16.024,15.9457778 Z" id="形状" fill="#1890FF"></path>
                        </g>
                    </g>
                </g>
            </g>
        </g>
    </g>
</svg>