<?xml version="1.0" encoding="UTF-8"?>
<svg width="15px" height="15px" viewBox="0 0 15 15" version="1.1" xmlns="http://www.w3.org/2000/svg" xmlns:xlink="http://www.w3.org/1999/xlink">
    <!-- Generator: Sketch 61.2 (89653) - https://sketch.com -->
    <title>形状</title>
    <desc>Created with Sketch.</desc>
    <g id="页面-1" stroke="none" stroke-width="1" fill="none" fill-rule="evenodd">
        <g id="监控策略=监控策略详情备份-2" transform="translate(-24.000000, -277.000000)" fill="#536385">
            <g id="纵向一级导航_折叠" transform="translate(0.000000, 60.000000)">
                <g id="navi-line">
                    <g id="编组-8">
                        <g id="编组-14" transform="translate(24.000000, 217.000000)">
                            <g id="编组-7">
                                <g id="品牌类Icon/纵向一级导航/模型管理">
                                    <path d="M13.5968,2.5774 L7.0742,5.292 L0.537599997,2.5774 L7.0602,-1.55431223e-15 L13.5982,2.5774 L13.5968,2.5774 Z M0,3.7058 L6.5072,6.48200001 L6.5072,14 L4.8958,13.2678 C3.75311092,12.7616159 2.60883864,12.2590135 1.463,11.76 C1.24320001,11.6578 1.04300001,11.522 0.866599994,11.3554 C0.690694045,11.1917025 0.535110587,11.0074466 0.403200001,10.8066 C0.274690892,10.6104576 0.17387268,10.3975145 0.103600003,10.1738 C0.0367703308,9.96078432 0.00185821882,9.73904523 0,9.5158 L0,3.7058 Z M14,3.7058 L14,9.4864 C14,9.7496 13.9496,10.0072 13.8502,10.2564 C13.7522,10.5042 13.6248,10.7394 13.4694,10.9564 C13.3212341,11.1693287 13.1488093,11.3643049 12.9556,11.5374 C12.7876,11.69 12.6028,11.8202 12.4026,11.9252 L10.7464,12.6266 C10.2149658,12.8519415 9.68296414,13.0759422 9.15039999,13.2986 C8.59459999,13.5366 8.03739999,13.7718 7.4774,14 L7.4774,6.48200001 L14,3.7044 L14,3.7058 Z" id="形状"></path>
                                </g>
                            </g>
                        </g>
                    </g>
                </g>
            </g>
        </g>
    </g>
</svg>